<svg viewBox="0 0 38.805 50.615" xmlns="http://www.w3.org/2000/svg"><g fill="#010101"><path d="m3.446 31.444a18.589 18.589 0 0 0 1.565 6.088l.024-.019 1.084 2.118a18.606 18.606 0 0 0 6.974 6.663.844.844 0 0 0 .808 0 18.64 18.64 0 0 0 9.719-16.372v-4.615a.843.843 0 0 0 -.843-.843h-18.559a.843.843 0 0 0 -.844.843v3.76l.027.01zm1.615-5.293h16.872v3.772a16.951 16.951 0 0 1 -8.433 14.663 16.942 16.942 0 0 1 -6.4-6.623s-1.328-3.563-1.459-3.877c-.342-.554-.58-4.561-.58-4.561z"/><path d="m0 21.933v5.167h.026v5.233a18.4 18.4 0 0 0 2.309 8.005l.9 1.488a26.779 26.779 0 0 0 9.865 8.689.838.838 0 0 0 .794 0 29 29 0 0 0 6.8-4.962h13.89a4.223 4.223 0 0 0 4.218-4.218v-25.307a.844.844 0 0 0 -.844-.844h-2.528v-2.53a12.654 12.654 0 1 0 -25.307 0v2.53h-2.531a.843.843 0 0 0 -.843.844v5.061h-5.905a.844.844 0 0 0 -.844.844zm33.743-6.749h-2.531v-2.53a8.436 8.436 0 1 0 -16.871 0v2.53h-2.531v-2.53a10.967 10.967 0 1 1 21.933 0zm-10.966-9.279a6.756 6.756 0 0 1 6.748 6.749v2.53h-13.5v-2.53a6.757 6.757 0 0 1 6.752-6.749zm14.34 19.4h-5.061v-2.53h5.061zm0 4.218h-5.061v-2.529h5.061zm0 4.218h-5.061v-2.529h5.061zm0 4.218h-5.061v-2.529h5.061zm-14.877 5.907a19.2 19.2 0 0 0 4.754-12.318v-9.615a.843.843 0 0 0 -.843-.844h-17.715v-4.217h28.681v4.217h-5.9a.843.843 0 0 0 -.843.844v16.872a.843.843 0 0 0 .843.843h5.9v1.687a2.533 2.533 0 0 1 -2.53 2.531zm-20.579-15.474.026.01v-5.625h23.62v8.771c0 6.748-4.406 13.173-11.81 17.263a25.029 25.029 0 0 1 -8.661-7.646l-.036.035-.336-.583-.01-.014-.872-1.515c-.007-.014-.013-.029-.02-.043l-.162-.267.019-.015a16.419 16.419 0 0 1 -1.719-6.863h-.013z"/></g></svg>