<svg viewBox="0 0 48.815 41.764" xmlns="http://www.w3.org/2000/svg"><path d="m46.645 24.407h-8.407v-2.707a1.358 1.358 0 0 0 -1.356-1.356h-11.661v-2.444h9.492a2.177 2.177 0 0 0 2.169-2.17v-13.56a2.176 2.176 0 0 0 -2.169-2.17h-20.613a2.176 2.176 0 0 0 -2.17 2.17v13.559a2.177 2.177 0 0 0 2.17 2.171h9.492v2.44h-11.66a1.357 1.357 0 0 0 -1.355 1.36v2.712h-8.407a2.176 2.176 0 0 0 -2.17 2.165v13.017a2.176 2.176 0 0 0 2.17 2.17h18.441a2.177 2.177 0 0 0 2.169-2.17v-13.017a2.177 2.177 0 0 0 -2.169-2.17h-8.411v-2.44h24.411v2.44h-8.411a2.176 2.176 0 0 0 -2.169 2.17v13.017a2.176 2.176 0 0 0 2.169 2.17h18.445a2.177 2.177 0 0 0 2.17-2.17v-13.017a2.177 2.177 0 0 0 -2.17-2.17zm-25.492 15.187a.55.55 0 0 1 -.542.543h-18.441a.551.551 0 0 1 -.543-.543v-9.751h19.526zm-.542-13.559a.549.549 0 0 1 .542.542v1.639h-19.526v-1.639a.55.55 0 0 1 .543-.542zm-6.511-24.408h20.613a.55.55 0 0 1 .542.543v1.63h-21.695v-1.63a.551.551 0 0 1 .54-.543zm0 14.645a.551.551 0 0 1 -.542-.543v-10.305h21.7v10.305a.55.55 0 0 1 -.542.543zm33.088 23.322a.55.55 0 0 1 -.543.543h-18.445a.551.551 0 0 1 -.542-.543v-9.751h19.53zm0-11.378h-19.526v-1.639a.55.55 0 0 1 .542-.542h18.441a.549.549 0 0 1 .543.542z" fill="#010101"/></svg>