<svg viewBox="0 0 45.578 45.566" xmlns="http://www.w3.org/2000/svg"><g fill="#010101"><path d="m43.952 35.883-12.91-12.815a16.332 16.332 0 0 0 -3.228-18.322 16.388 16.388 0 0 0 -23.068 0 15.773 15.773 0 0 0 -4.746 11.487 16.138 16.138 0 0 0 22.973 14.714l12.815 12.815a5.673 5.673 0 1 0 8.164-7.879zm-37.877-9.4a14.557 14.557 0 0 1 0-20.41 14.441 14.441 0 0 1 20.315 0 14.334 14.334 0 0 1 2.658 16.613.349.349 0 0 0 -.095.285 15.107 15.107 0 0 1 -5.98 5.98c-.095 0-.19.095-.285.19a14.917 14.917 0 0 1 -6.36 1.519 14.673 14.673 0 0 1 -10.253-4.175zm21.739 1.329a16.933 16.933 0 0 0 2.373-2.943l2.469 2.469-5.316 5.318-2.469-2.469a35.317 35.317 0 0 0 2.943-2.373zm14.714 14.716a3.842 3.842 0 0 1 -5.316 0l-8.543-8.543 5.316-5.316 8.543 8.543a3.67 3.67 0 0 1 0 5.316z"/><path d="m9.113 18.416a.9.9 0 0 0 -.949.95v4.461a.9.9 0 0 0 .949.949.9.9 0 0 0 .949-.949v-4.461a.951.951 0 0 0 -.949-.95z"/><path d="m13.86 14.9a.9.9 0 0 0 -.95.949v8.069a.95.95 0 0 0 1.9 0v-8.065a.9.9 0 0 0 -.95-.953z"/><path d="m18.606 11.3a.9.9 0 0 0 -.949.949v11.578a.949.949 0 0 0 1.9 0v-11.581a.95.95 0 0 0 -.951-.946z"/><path d="m23.353 24.776a.9.9 0 0 0 .949-.949v-15.188a.95.95 0 1 0 -1.9 0v15.188a.951.951 0 0 0 .951.949z"/></g></svg>