<svg viewBox="0 0 51.024 46.144" xmlns="http://www.w3.org/2000/svg"><g fill="#fff"><path d="m28.005 23.231h-4.88a1.061 1.061 0 0 0 0 2.122h4.88a1.061 1.061 0 0 0 0-2.122z"/><path d="m33.945 14.745h-1.909a1.061 1.061 0 1 0 0 2.121h1.909a1.061 1.061 0 1 0 0-2.121z"/><path d="m19.094 14.745h-1.909a1.061 1.061 0 1 0 0 2.121h1.909a1.061 1.061 0 1 0 0-2.121z"/><path d="m33.521 34.9h-15.806a1.061 1.061 0 1 0 0 2.121h15.806a1 1 0 0 0 1.06-1.06 1.062 1.062 0 0 0 -1.06-1.061z"/><path d="m33.521 39.461h-15.806a1.061 1.061 0 1 0 0 2.122h15.806a1 1 0 0 0 1.06-1.061 1.062 1.062 0 0 0 -1.06-1.061z"/><path d="m33.521 44.022h-15.806a1.061 1.061 0 0 0 0 2.122h15.806a1 1 0 0 0 1.06-1.061 1.063 1.063 0 0 0 -1.06-1.061z"/><path d="m47.205 16.336a3.755 3.755 0 0 0 -3.605 2.758h-1.487v-7.213a4.255 4.255 0 0 0 -4.243-4.243h-3.713a8.652 8.652 0 0 0 -17.184 0h-3.713a4.255 4.255 0 0 0 -4.243 4.243v7.213h-1.592a3.754 3.754 0 0 0 -3.606-2.758 3.819 3.819 0 0 0 0 7.638 3.754 3.754 0 0 0 3.606-2.758h1.486v7.107a4.255 4.255 0 0 0 4.243 4.243h24.716a4.255 4.255 0 0 0 4.243-4.243v-7.213h1.487a3.755 3.755 0 0 0 3.607 2.758 3.8 3.8 0 0 0 3.819-3.819 3.715 3.715 0 0 0 -3.821-3.713zm-43.28 5.41a1.7 1.7 0 0 1 0-3.394 1.675 1.675 0 0 1 1.7 1.7 1.744 1.744 0 0 1 -1.7 1.694zm21.64-19.731a6.61 6.61 0 0 1 6.471 5.517h-12.942a6.512 6.512 0 0 1 6.471-5.517zm14.535 26.308a2.128 2.128 0 0 1 -2.122 2.121h-24.718a2.128 2.128 0 0 1 -2.122-2.121v-16.548a2.128 2.128 0 0 1 2.122-2.122h24.716a2.128 2.128 0 0 1 2.124 2.122zm7.107-6.577a1.7 1.7 0 1 1 1.7-1.7 1.675 1.675 0 0 1 -1.702 1.7z"/></g></svg>