<svg viewBox="0 0 42.669 49.257" xmlns="http://www.w3.org/2000/svg"><g fill="#010101"><path d="m42.658 12.3-21.334-12.3-21.324 12.323.011 24.629 21.334 12.305 21.324-12.324zm-1.423 23.723-.072.125-19.1 11.039v-22.146l19.162-11.074zm-20.626-33.474h1.433v-.48l18.47 10.654-19.167 11.077-19.189-11.067 18.452-10.663zm-19.164 33.528-.011-22.1 19.194 11.07v22.141l-19.143-11.042z"/><path d="m17.524 25.618h1.698v1.434h-1.698z" transform="matrix(.86579842 -.50039294 .50039294 .86579842 -10.712 12.728)"/><path d="m2.82 34.114h1.698v1.434h-1.698z" transform="matrix(.86575475 -.50046849 .50046849 .86575475 -16.939 6.512)"/><path d="m8.702 30.714h1.698v1.434h-1.698z" transform="matrix(.86575475 -.50046849 .50046849 .86575475 -14.448 9)"/><path d="m5.761 32.414h1.698v1.434h-1.698z" transform="matrix(.866 -.5 .5 .866 -15.694 7.756)"/><path d="m11.643 29.014h1.699v1.434h-1.699z" transform="matrix(.866 -.5 .5 .866 -13.203 10.243)"/><path d="m14.583 27.314h1.699v1.434h-1.699z" transform="matrix(.86575475 -.50046849 .50046849 .86575475 -11.957 11.487)"/><path d="m26.502 27.181h1.434v1.698h-1.434z" transform="matrix(.49957672 -.86626965 .86626965 .49957672 -10.66 37.606)"/><path d="m29.444 28.874h1.434v1.699h-1.434z" transform="matrix(.49981861 -.8661301 .8661301 .49981861 -10.658 40.991)"/><path d="m35.33 32.273h1.434v1.698h-1.434z" transform="matrix(.49957672 -.86626965 .86626965 .49957672 -10.654 47.801)"/><path d="m38.272 33.97h1.434v1.698h-1.434z" transform="matrix(.49957672 -.86626965 .86626965 .49957672 -10.652 51.199)"/><path d="m32.388 30.574h1.434v1.698h-1.434z" transform="matrix(.49969767 -.86619988 .86619988 .49969767 -10.656 44.396)"/><path d="m23.559 25.485h1.434v1.698h-1.434z" transform="matrix(.49919869 -.86648755 .86648755 .49919869 -10.661 34.224)"/><path d="m20.611 4.269h1.434v1.721h-1.434z"/><path d="m20.617 11.151h1.434v1.721h-1.434z"/><path d="m20.614 7.71h1.434v1.721h-1.434z"/><path d="m20.62 14.592h1.434v1.721h-1.434z"/><path d="m20.623 18.033h1.434v1.721h-1.434z"/><path d="m20.627 21.475h1.434v1.721h-1.434z"/></g></svg>