<svg viewBox="0 0 27.423 34.648" xmlns="http://www.w3.org/2000/svg"><g fill="#fff"><path d="m25.607 15.256h1.816v-7.422h-12.547l3.5-5.358-3.786-2.476-1.839 2.815h-6.451v-.651a1.933 1.933 0 0 0 -1.93-1.931h-2.439a1.934 1.934 0 0 0 -1.931 1.931h.857a1.075 1.075 0 0 1 1.074-1.074h2.439a1.075 1.075 0 0 1 1.074 1.074v2.436a1.075 1.075 0 0 1 -1.074 1.076h-2.439a1.075 1.075 0 0 1 -1.074-1.076h-.857a1.933 1.933 0 0 0 1.931 1.933h2.439a1.934 1.934 0 0 0 1.93-1.933v-.93h5.89l-2.721 4.164h-2.669v7.422h11.97v6.662a10.691 10.691 0 0 0 -14.729 7.368h-2.574v5.362h25.956v-5.362h-2.51a10.609 10.609 0 0 0 -1.613-3.635h2.312v-10.395zm-10.768-14.07 2.353 1.538-3.34 5.11h-3.359zm-7.187 13.214v-5.708h18.914v5.708h-.959v-2.542h-6.842v2.542zm18.914 15.743v3.648h-24.241v-3.648zm-2.537-.857h-19.106a9.86 9.86 0 0 1 19.106 0zm.721-4.493h-2.111a10.848 10.848 0 0 0 -3.017-2.453v-9.625h5.128z"/><path d="m9.154 9.862h4.441v.857h-4.441z"/><path d="m9.154 11.858h4.441v.857h-4.441z"/></g></svg>