<svg viewBox="0 0 44.533 45.783" xmlns="http://www.w3.org/2000/svg"><path d="m42.8 13.306c-.167-6.759-4.633-12.1-10.99-13.044-7.238-1.081-13.833 1.459-16.335 2.6a2.562 2.562 0 0 0 -1.475 2.538c-.15.043-.306.074-.453.121a10.129 10.129 0 0 0 -6.455 5.6h-4.523a2.572 2.572 0 0 0 -2.569 2.579v11.985a2.571 2.571 0 0 0 2.569 2.569h6.843l-.077 1a1.814 1.814 0 0 0 .77 1.37 1.7 1.7 0 0 0 .257 1.541 1.48 1.48 0 0 1 .086 1.884 3.032 3.032 0 0 0 .171 2.912c.942 1.456 3.169 2.056 6.68 1.97a15.32 15.32 0 0 1 1.713 6.08.845.845 0 0 0 .856.771h17.043a.856.856 0 0 0 .895-.816.833.833 0 0 0 -.039-.3c-3.365-10.995-2.42-14.869-.7-18.127h4.048a3.424 3.424 0 0 0 3.418-3.426v-6.856a3.41 3.41 0 0 0 -1.733-2.951zm-26.608-8.885c2.361-1.078 8.584-3.478 15.369-2.465 5.441.811 9.173 5.137 9.513 10.883h-2.082a.843.843 0 0 0 -.7.4 14.429 14.429 0 0 0 -9.17-7.789 13.712 13.712 0 0 0 -12.879 2.03l-.52-2.08a.852.852 0 0 1 .469-.979zm22.63 10.1-.01.045-.018-.051zm-10.222-7.534a12.283 12.283 0 0 1 8.837 9.278h-16.252a6.854 6.854 0 0 0 -6.26-5.12c4.232-5.48 9.653-5.319 13.675-4.158zm-12.767 6.019a5.141 5.141 0 0 1 3.867 4.972v3.422a5.142 5.142 0 0 1 -3.864 4.972 6.827 6.827 0 0 0 2.148-4.972v-3.422a6.825 6.825 0 0 0 -2.151-4.972zm-1.766-5.851c.1-.032.207-.053.308-.082l.209.836a.846.846 0 0 0 .523.575 17.462 17.462 0 0 0 -2.2 2.642h-.917a.82.82 0 0 0 -.172.035c-.225-.022-.454-.035-.685-.035h-2.179a8.77 8.77 0 0 1 5.113-3.971zm-10.232 19.684a2.576 2.576 0 0 1 -2.569-2.569v-9.135a2.576 2.576 0 0 1 2.569-2.569h8.707a2.576 2.576 0 0 1 2.569 2.569v9.135a2.576 2.576 0 0 1 -2.569 2.569zm32.476-2.639c-2.141 3.768-4.11 7.365-.514 19.783h-15.072a13.942 13.942 0 0 0 -2.141-6.509.933.933 0 0 0 -.771-.343c-4.2.172-5.395-.77-5.652-1.2a1.127 1.127 0 0 1 -.086-1.028 3.1 3.1 0 0 0 -.257-3.768 1.608 1.608 0 0 0 -.6-1.97v-.915c.2 0 .4-.011.6-.03a.819.819 0 0 0 .172.034h2.569a6.858 6.858 0 0 0 6.626-5.138h15.649a10.7 10.7 0 0 1 -.523 1.084zm6.776-3.894v3.678a1.57 1.57 0 0 1 -3.14 0v-2.284h-15.558a2.141 2.141 0 1 1 0-4.282h15.558v-1.855a1.57 1.57 0 0 1 3.14 0v3.249a2.025 2.025 0 0 1 0 1.495z" fill="#fff"/></svg>