<svg viewBox="0 0 48 47.794" xmlns="http://www.w3.org/2000/svg"><g fill="#fff"><path d="m5.592 27.7a5.572 5.572 0 0 1 -2.059-10.756 7.25 7.25 0 0 1 -.2-1.689 7.349 7.349 0 0 1 6.4-7.279 9.042 9.042 0 0 1 8.95-7.976 8.934 8.934 0 0 1 7.592 4.173 10.273 10.273 0 0 1 14.475 9.11 6.955 6.955 0 1 1 .3 13.9zm13.091-25.7a7.03 7.03 0 0 0 -7 6.928 1 1 0 0 1 -1 .988 5.332 5.332 0 0 0 -4.958 7.334 1 1 0 0 1 -.758 1.36 3.572 3.572 0 0 0 .611 7.09l35.452-.515a4.953 4.953 0 1 0 -1.1-9.78 1 1 0 0 1 -1.22-1.067c.024-.258.04-.518.04-.781a8.275 8.275 0 0 0 -12.382-7.191 1 1 0 0 1 -1.395-.428 6.961 6.961 0 0 0 -6.29-3.938z"/><path d="m24 41.794a1 1 0 0 1 -1-1v-14.094a1 1 0 1 1 2 0v14.094a1 1 0 0 1 -1 1z"/><path d="m24 47.794a4 4 0 1 1 4-4 4 4 0 0 1 -4 4zm0-6a2 2 0 1 0 2 2 2 2 0 0 0 -2-2z"/><path d="m10.292 47.794a4 4 0 1 1 4-4 4 4 0 0 1 -4 4zm0-6a2 2 0 1 0 2 2 2 2 0 0 0 -2-2z"/><path d="m37.707 47.794a4 4 0 1 1 4-4 4 4 0 0 1 -4 4zm0-6a2 2 0 1 0 2 2 2 2 0 0 0 -2-2z"/><path d="m37.707 41.794a1 1 0 0 1 -1-1v-5.046h-25.415v5.046a1 1 0 0 1 -2 0v-6.046a1 1 0 0 1 1-1h27.415a1 1 0 0 1 1 1v6.046a1 1 0 0 1 -1 1z"/></g></svg>