<svg xmlns="http://www.w3.org/2000/svg" viewBox="0 0 27.423 34.648"><title>icon_1</title><g id="Capa_2" data-name="Capa 2"><g id="Capa_1-2" data-name="Capa 1"><path d="M25.607,15.256h1.816V7.834H14.876l3.5-5.358L14.59,0,12.751,2.815H6.3V2.164A1.933,1.933,0,0,0,4.37.233H1.931A1.934,1.934,0,0,0,0,2.164H.857A1.075,1.075,0,0,1,1.931,1.09H4.37A1.075,1.075,0,0,1,5.444,2.164V4.6A1.075,1.075,0,0,1,4.37,5.676H1.931A1.075,1.075,0,0,1,.857,4.6H0A1.933,1.933,0,0,0,1.931,6.533H4.37A1.934,1.934,0,0,0,6.3,4.6v-.93H12.19L9.469,7.834H6.8v7.422h11.97v6.662A10.691,10.691,0,0,0,4.041,29.286H1.467v5.362H27.423V29.286h-2.51A10.609,10.609,0,0,0,23.3,25.651h2.312V15.256ZM14.839,1.186l2.353,1.538-3.34,5.11H10.493ZM7.652,14.4V8.692H26.566V14.4h-.959V11.858H18.765V14.4ZM26.566,30.143v3.648H2.325V30.143Zm-2.537-.857H4.923a9.86,9.86,0,0,1,19.106,0Zm.721-4.493H22.639a10.848,10.848,0,0,0-3.017-2.453V12.715H24.75Z" style="fill:#fff"/><rect x="9.154" y="9.862" width="4.441" height="0.857" style="fill:#fff"/><rect x="9.154" y="11.858" width="4.441" height="0.857" style="fill:#fff"/></g></g></svg>