<svg viewBox="0 0 37.905 48.734" xmlns="http://www.w3.org/2000/svg"><path d="m18.952 0a30.729 30.729 0 0 0 -13.114 2.64c-3.428 1.66-5.838 4.111-5.838 7.107v29.24c0 3 2.41 5.428 5.838 7.091a30.721 30.721 0 0 0 13.114 2.656 30.726 30.726 0 0 0 13.115-2.656c3.428-1.662 5.838-4.094 5.838-7.091v-29.24c0-3-2.41-5.445-5.838-7.107a30.734 30.734 0 0 0 -13.115-2.64zm0 2.166a28.817 28.817 0 0 1 12.167 2.42c3.039 1.473 4.62 3.372 4.62 5.161s-1.581 3.671-4.62 5.144a28.8 28.8 0 0 1 -12.167 2.437 28.8 28.8 0 0 1 -12.166-2.437c-3.04-1.473-4.62-3.355-4.62-5.144s1.58-3.688 4.62-5.161a28.816 28.816 0 0 1 12.166-2.42zm-16.786 12.184a13.968 13.968 0 0 0 3.672 2.487 30.721 30.721 0 0 0 13.114 2.657 30.725 30.725 0 0 0 13.115-2.657 13.968 13.968 0 0 0 3.672-2.487v5.144c0 1.789-1.581 3.67-4.62 5.144a28.818 28.818 0 0 1 -12.167 2.437 28.817 28.817 0 0 1 -12.166-2.437c-3.04-1.474-4.62-3.355-4.62-5.144zm0 9.73a13.869 13.869 0 0 0 3.672 2.5 30.721 30.721 0 0 0 13.114 2.657 30.725 30.725 0 0 0 13.115-2.657 13.885 13.885 0 0 0 3.672-2.5v5.161c0 1.788-1.581 3.67-4.62 5.144a28.818 28.818 0 0 1 -12.167 2.437 28.817 28.817 0 0 1 -12.166-2.437c-3.04-1.474-4.62-3.356-4.62-5.144zm0 9.746a13.847 13.847 0 0 0 3.672 2.505 30.721 30.721 0 0 0 13.114 2.657 30.725 30.725 0 0 0 13.115-2.657 13.864 13.864 0 0 0 3.672-2.505v5.162c0 1.788-1.581 3.67-4.62 5.144a28.819 28.819 0 0 1 -12.167 2.436 28.818 28.818 0 0 1 -12.166-2.436c-3.04-1.474-4.62-3.356-4.62-5.145z" fill="#fff"/></svg>