<svg viewBox="0 0 36.059 46.057" xmlns="http://www.w3.org/2000/svg"><g fill="#010101"><path d="m18.027 0a18.049 18.049 0 0 0 -18.027 18.03c0 9.685 16.532 26.961 17.236 27.69a1.1 1.1 0 0 0 1.583 0c.7-.73 17.24-18 17.24-27.69a18.052 18.052 0 0 0 -18.032-18.03zm0 43.35c-3.306-3.578-15.827-17.639-15.827-25.32a15.831 15.831 0 1 1 31.662 0c-.002 7.68-12.527 21.742-15.835 25.32z"/><path d="m13 18.616h-7.2a12.175 12.175 0 0 0 2.117 6.167l.885-.362a20.743 20.743 0 0 1 4.719-1.421 24.381 24.381 0 0 1 -.521-4.384z"/><path d="m13.883 24.457a19.166 19.166 0 0 0 -4.5 1.337l-.517.206a12.243 12.243 0 0 0 7.734 4.045l-.151-.185a17.378 17.378 0 0 1 -2.566-5.403z"/><path d="m13.871 11.359a17.532 17.532 0 0 1 2.323-5.116l.4-.546a12.234 12.234 0 0 0 -7.759 4.076l.483.221a19.244 19.244 0 0 0 4.553 1.365z"/><path d="m13.51 12.809a20.789 20.789 0 0 1 -4.81-1.456l-.807-.371a12.188 12.188 0 0 0 -2.1 6.142h7.207a24.5 24.5 0 0 1 .51-4.315z"/><path d="m21.773 24.436a17.325 17.325 0 0 1 -2.548 5.392l-.178.258a12.236 12.236 0 0 0 8-3.92l-.336-.215a19.156 19.156 0 0 0 -4.938-1.515z"/><path d="m21.785 11.376a19.049 19.049 0 0 0 4.967-1.532l.366-.194a12.258 12.258 0 0 0 -8.066-3.995l.4.585a17.638 17.638 0 0 1 2.333 5.136z"/><path d="m20.661 13.041a25 25 0 0 1 -2.786.159 24.888 24.888 0 0 1 -2.885-.174 22.749 22.749 0 0 0 -.5 4.1h6.661a22.494 22.494 0 0 0 -.49-4.085z"/><path d="m22.648 17.124h7.617a12.185 12.185 0 0 0 -2.2-6.286l-.638.337a20.475 20.475 0 0 1 -5.282 1.65 24.044 24.044 0 0 1 .503 4.299z"/><path d="m22.134 22.988a20.48 20.48 0 0 1 5.259 1.635l.083.048.524.329a12.2 12.2 0 0 0 2.27-6.385h-7.6a24.046 24.046 0 0 1 -.536 4.373z"/><path d="m17.874 11.706a23.988 23.988 0 0 0 2.415-.12 15.94 15.94 0 0 0 -2.065-4.5l-.384-.56-.431.58a15.952 15.952 0 0 0 -2.047 4.466 24.173 24.173 0 0 0 2.512.134z"/><path d="m17.874 24.11a23.793 23.793 0 0 0 -2.493.134 15.548 15.548 0 0 0 2.249 4.7l.211.261.166-.243a15.669 15.669 0 0 0 2.265-4.736 23.637 23.637 0 0 0 -2.398-.116z"/><path d="m17.874 22.618a25.853 25.853 0 0 1 2.777.156 22.605 22.605 0 0 0 .5-4.158h-6.651a22.736 22.736 0 0 0 .5 4.173 24.943 24.943 0 0 1 2.874-.171z"/></g></svg>