<svg viewBox="0 0 48.644 48.643" xmlns="http://www.w3.org/2000/svg"><g fill="#010101"><path d="m9.011 15.82v17a6.817 6.817 0 0 0 6.81 6.809h17a6.817 6.817 0 0 0 6.81-6.809v-17a6.818 6.818 0 0 0 -6.81-6.809h-17a6.817 6.817 0 0 0 -6.81 6.809zm28.034 0v17a4.227 4.227 0 0 1 -4.222 4.222h-17a4.227 4.227 0 0 1 -4.223-4.219v-17a4.227 4.227 0 0 1 4.22-4.223h17a4.227 4.227 0 0 1 4.225 4.22z"/><path d="m20.025 5.006v-3.712a1.294 1.294 0 0 0 -2.588 0v3.712a1.294 1.294 0 1 0 2.588 0z"/><path d="m31.206 5.006v-3.712a1.294 1.294 0 1 0 -2.587 0v3.712a1.294 1.294 0 1 0 2.587 0z"/><path d="m20.025 43.637a1.294 1.294 0 0 0 -2.588 0v3.713a1.294 1.294 0 0 0 2.588 0z"/><path d="m28.619 43.637v3.713a1.294 1.294 0 0 0 2.587 0v-3.713a1.294 1.294 0 0 0 -2.587 0z"/><path d="m47.35 17.437h-3.712a1.294 1.294 0 1 0 0 2.587h3.712a1.294 1.294 0 1 0 0-2.587z"/><path d="m47.35 28.619h-3.712a1.294 1.294 0 1 0 0 2.587h3.712a1.294 1.294 0 1 0 0-2.587z"/><path d="m1.294 20.024h3.712a1.294 1.294 0 1 0 0-2.587h-3.712a1.294 1.294 0 1 0 0 2.587z"/><path d="m1.294 31.206h3.712a1.294 1.294 0 1 0 0-2.587h-3.712a1.294 1.294 0 1 0 0 2.587z"/><path d="m17.937 32h12.77a1.294 1.294 0 0 0 1.293-1.293v-12.77a1.294 1.294 0 0 0 -1.294-1.294h-12.769a1.294 1.294 0 0 0 -1.294 1.294v12.77a1.293 1.293 0 0 0 1.294 1.293zm1.293-12.77h10.183v10.183h-10.183z"/></g></svg>