<svg enable-background="new 0 0 300 300" viewBox="0 0 300 300" xmlns="http://www.w3.org/2000/svg"><g fill="#fff"><path d="m53.8 98.4v.7 35.2c0 4.6-1.6 8.6-4.5 12.1-3 3.5-6.7 5.7-11.2 6.7-9.7 2.1-19.7-2.7-23.5-12-.9-2.3-1.4-4.7-1.4-7.1 0-11.6 0-23.2 0-34.8 0-.1 0-.2 0-.3-.1-.4.1-.5.5-.5h39.7zm-3.3 36.2c0-.7 0-1.3 0-1.9 0-.4-.1-.6-.5-.7-2.1-.8-4.2-.8-6.2.1-2.4 1.1-4.7 1.1-7.1 0-2.2-1-4.4-1-6.5 0-2.4 1.1-4.8 1.1-7.1 0-2-.9-4.1-.9-6.2-.1-.2.1-.4.2-.4.3v2.3c.2-.1.4-.1.5-.2 2.1-.8 4.2-.8 6.2.2 2.4 1.1 4.7 1.1 7.1 0 2.1-1 4.3-1 6.4 0 2.5 1.1 4.9 1.1 7.3 0 1.5-.7 3-.8 4.6-.5.6.1 1.2.3 1.9.5zm-34.1-4.2c.2-.1.3-.1.4-.2 2.2-.9 4.4-.8 6.5.2 2.3 1.1 4.6 1 6.9-.1 2.2-1 4.3-1 6.5 0 2.4 1.1 4.8 1.1 7.2 0 1.3-.6 2.7-.9 4.2-.6.8.2 1.6.4 2.5.6 0-.6 0-1.2 0-1.8 0-.5-.2-.7-.6-.8-2.1-.8-4.2-.7-6.2.2-2.3 1.1-4.6 1.1-6.9 0-2.2-1-4.5-1-6.8 0s-4.5 1.1-6.7 0c-2.1-1-4.2-1-6.3-.2-.2.1-.5.2-.6.4-.1.7-.1 1.4-.1 2.3zm34.1 8.6c0-.7 0-1.3 0-1.9 0-.5-.2-.7-.6-.9-2.1-.8-4.2-.7-6.3.2-2.2 1-4.5 1-6.8 0-2.2-1-4.5-1.1-6.8 0s-4.6 1.1-6.9 0c-2-.9-4.1-1-6.2-.2-.2.1-.5.2-.5.3v2.3h.1c.1 0 .2-.1.2-.1 2.1-.8 4.2-.9 6.2.1 2.4 1.1 4.8 1.1 7.3 0 2.1-1 4.3-1 6.4 0 2.4 1.1 4.8 1.1 7.3 0 .8-.3 1.7-.5 2.5-.6 1.4-.1 2.8.2 4.1.8zm-17.2-29c0-2.6 0-5.2 0-7.7 0-.6-.3-.8-.9-.8-1.6 0-3.1 0-4.7 0-.4 0-.6.1-.6.6v6.9.6h.7 4.3c.4-.1.8 0 1.2.4zm6.6-.5c0-.2.1-.3.1-.4 0-2.4 0-4.8 0-7.2 0-.4-.2-.5-.5-.5-1.6 0-3.1 0-4.7 0-.8 0-1 .2-1 1v7.1.6c.3-.6.7-.7 1.1-.7h2.9c.7.1 1.4.1 2.1.1zm-14.3 8.5c-1.1 0-2.2 0-3.3 0-.4 0-.5.1-.5.5v5.3c0 .3.1.5.5.5h6.7c.4 0 .5-.1.5-.5 0-1.8 0-3.5 0-5.3 0-.4-.1-.5-.5-.5-1.2 0-2.3 0-3.4 0zm12 6.3c.1 0 .2.1.3.1h6.8c.4 0 .4-.2.4-.5 0-1.7 0-3.5 0-5.2 0-.5-.1-.6-.6-.6-2.1 0-4.3 0-6.4 0-.2 0-.3 0-.5 0zm-7.7-.1c2.4-.7 4.8-.7 7.3 0 0-.2 0-.3 0-.5 0-1.7 0-3.3 0-5 0-.5-.1-.7-.6-.7-2 0-4.1 0-6.1 0-.5 0-.6.2-.6.6v5c-.1.3-.1.4 0 .6zm-8.6 0c0-.1 0-.1 0-.2 0-1.8 0-3.7 0-5.5 0-.4-.2-.4-.5-.4-1.3 0-2.6 0-3.9 0-.4 0-.5.2-.5.6v5.2.5c1.7-.9 3.3-.9 4.9-.2zm5.1-13.9c0-.2 0-.3 0-.5 0-2.3 0-4.5 0-6.8 0-.3 0-.6-.4-.6s-.4.3-.4.6v7.4c0 .4.1.6.6.6h5.6c.2 0 .5.1.7.2.7.6 1.5.6 2.2 0 .2-.2.5-.3.7-.3h5.5.5c0-2.9 0-5.7 0-8.5-.3 0-.5 0-.8 0v7.8c-.2 0-.4 0-.6 0-1.8 0-3.6 0-5.3 0-.3 0-.5 0-.6.3-.3.4-.9.5-1.1.1-.3-.4-.6-.4-1-.4-.5 0-.9 0-1.4 0-1.4.1-2.8.1-4.2.1zm24.1 13.9v-.1c0-1.9 0-3.8 0-5.7 0-.4-.2-.4-.5-.4-1.3 0-2.6 0-3.9 0-.4 0-.5.2-.5.5v5.2.4c1.7-.6 3.3-.6 4.9.1zm-17.1 1.5h3.2c.2 0 .4-.1.4-.2 0-.3 0-.7-.2-.8-.5-.2-1.1-.4-1.7-.5-1.2-.1-2.4-.1-3.6 0-.6 0-1.1.2-1.6.5-.2.1-.2.5-.2.8 0 .1.3.3.4.3 1.2-.1 2.3-.1 3.3-.1zm.1-8.1h3.7c.2 0 .5.1.6-.3 0-.3-.2-.4-.4-.5-1.1-.3-2.2-.6-3.4-.9-.3-.1-.6-.1-.8 0-1.2.3-2.3.6-3.5.9-.3.1-.5.2-.4.5.1.1.3.3.5.3 1.2.1 2.4 0 3.7 0zm-7.9 7.1c-1.1 0-2.2 0-3.3 0-.4 0-.5.1-.5.5s.2.5.5.5h6.6c.4 0 .5-.2.5-.5 0-.4-.2-.5-.5-.5-1.1 0-2.2 0-3.3 0zm19.6.1c-2.5 0-5 0-7.5 0v.9h7.5c0-.4 0-.6 0-.9zm-26.4.9h2.1c.3 0 .4-.1.4-.4s0-.6-.4-.8c-.4-.1-.7-.3-1.1-.3-.7-.1-1.4-.1-2 0-.4 0-.8.2-1.2.5-.2.1-.2.6-.1.8 0 .1.3.2.5.2zm26.9 0h4.5c.1 0 .3-.1.3-.2 0-.4.1-.8-.4-1-.3-.1-.7-.3-1.1-.3-.7 0-1.5 0-2.2 0-.8 0-1.2.5-1.1 1.5zm2.9-10c-.3 0-.5 0-.7 0-.1 0-.3.1-.3.2 0 .4-.3.4-.6.5-.5.1-.9.3-1.4.4-.1.1-.2.3-.3.5 0 .1.2.3.4.3h4.6c.1 0 .3-.2.4-.3-.1-.2-.2-.4-.4-.5-.4-.2-.9-.3-1.3-.4-.2 0-.5-.2-.4-.7zm-32.4 1.9h.4 4.4c.2 0 .5.1.5-.3 0-.3-.1-.4-.4-.5-1.5-.6-2.9-.9-4.4-.1-.1 0-.1 0-.2.1-.3.1-.4.3-.3.8z"/><path d="m66.3 148.6c0-16.7 0-33.4 0-50.1h.6c4.8 0 9.6-.1 14.4 0s9.6.7 14.1 2.5c6.6 2.6 10.8 7.4 12.5 14.3 1.4 5.8 1.4 11.7-.3 17.5-1.9 6.7-6.3 11.1-12.7 13.5-3.2 1.2-6.6 1.9-10 2.1-5.9.4-11.9.1-17.8.2-.2 0-.4 0-.8 0zm10.1-7.9h.4c2 0 3.9.1 5.9-.1 5.9-.4 10.5-3 13.5-8.2 2.4-4.2 2.8-8.9 1.7-13.6-1.5-6.6-7.1-11.7-13.8-12.4-2.5-.3-5-.1-7.6-.2 0 0-.1 0-.1.1z"/><path d="m286.7 130.4c0 3.4-.7 6.6-2.2 9.6-2.1 4.1-5.4 6.9-9.8 8.3-4.8 1.6-9.6 1.7-14.4.1-5.4-1.8-9.2-5.4-11.1-10.8-1.8-5.3-1.7-10.6.5-15.8 1.9-4.6 5.3-7.8 10-9.5 4.9-1.8 10-1.9 14.9-.1 6.3 2.2 10.1 6.8 11.6 13.3.4 1.6.5 3.3.7 5-.1-.2-.1-.1-.2-.1zm-10-.5c0-2-.2-3.7-.7-5.3-2.2-6.4-8-7.3-11.9-5.7-2.8 1.1-4.5 3.3-5.3 6.1-1.1 3.9-.8 7.7.6 11.4 1.3 3.4 3.7 5.3 7.4 5.5 3.9.2 7-1.3 8.7-5.1.8-2.3 1.1-4.7 1.2-6.9z"/><path d="m148 133.1c-8.5 0-16.9 0-25.5 0 .2.8.2 1.6.5 2.3 1.1 3.9 3.9 6.1 7.8 6.8 3.8.6 7.4-.2 10.9-1.7 1.2-.5 2.4-1.1 3.6-1.7v.4 6.9c0 .4-.1.5-.4.7-2.8 1.5-5.8 2.3-8.9 2.5-3.3.3-6.7.3-9.9-.6-6.6-1.8-10.7-6-12.2-12.7-1.2-5.4-.9-10.8 1.5-15.9 2.6-5.6 7-8.7 13.2-9.2 3.1-.3 6.1 0 9 1 4.4 1.5 7.1 4.7 8.7 8.9 1.2 3.3 1.6 6.7 1.7 10.1zm-9.2-6.6c0-3-1.2-6.3-3.8-7.6-3-1.6-6.1-1.4-8.9.5-2.5 1.7-3.3 4.3-3.6 7.1z"/><path d="m163 111.7v.7 20.7c0 1.6.1 3.1.6 4.7.9 3.1 3.1 4.5 6.3 4.2 3.3-.3 5.4-2.2 6.6-5.2 1-2.3 1.3-4.7 1.3-7.2 0-5.7 0-11.5 0-17.2 0-.2 0-.4 0-.7h9.6v36.9c-3 0-6 0-9.1 0 0-1.7 0-3.3 0-4.9-.1 0-.1-.1-.2-.1-.1.1-.1.3-.2.4-2.6 2.9-5.7 4.8-9.6 5.4-2.8.4-5.6.2-8.2-1.1-3-1.4-4.8-3.9-5.7-7-.6-1.8-.8-3.6-.8-5.5 0-7.8 0-15.7 0-23.5 0-.1 0-.3 0-.5 3-.1 6.2-.1 9.4-.1z"/><path d="m193.1 147.9c.2-2.6.4-5.2.6-7.8 1.2.5 2.4 1 3.6 1.4 2.3.8 4.7 1.2 7.1.9 1.2-.1 2.4-.5 3.5-1.2 2.3-1.6 2.3-4.9-.1-6.3-1.2-.7-2.5-1.1-3.8-1.6-1.8-.7-3.7-1.1-5.5-1.9-3.9-1.6-5.7-4.7-5.7-8.9 0-2.4.5-4.7 2.1-6.7 1.8-2.4 4.3-3.6 7.1-4.4 2.9-.8 5.8-.8 8.8-.5 2.3.3 4.7.7 7.1 1.1-.2 2.5-.4 4.9-.7 7.4-.4-.1-.8-.3-1.2-.4-2.8-.9-5.7-1.4-8.6-1.1-1.3.1-2.5.5-3.5 1.5-1.5 1.6-1.3 3.9.6 5 1.3.7 2.7 1.1 4.1 1.6 1.8.7 3.6 1.2 5.4 2 3.9 1.8 5.7 5 5.7 9.2 0 3-.8 5.7-3 7.9-1.8 1.8-4.1 2.9-6.5 3.6-3 .8-6.1 1-9.1.6-2.5-.3-4.9-.9-7.3-1.3-.4 0-.5-.1-.7-.1z"/><path d="m237.7 111.7h8.5v7c-2.8 0-5.6 0-8.5 0v.4 17.5c0 .9.2 1.7.4 2.6.6 1.9 1.9 2.9 3.9 2.9.8 0 1.5-.1 2.3-.2.7-.1 1.5-.4 2.2-.7.1 2.5.2 5 .3 7.6-.9.2-1.8.4-2.7.5-2.5.3-5 .5-7.5 0-4.7-.9-7.8-4.2-8.4-9-.1-1-.2-2-.2-3 0-5.9 0-11.9 0-17.8 0-.2 0-.4 0-.7-2.4 0-4.7 0-7.1 0 0-2.4 0-4.7 0-7h7.1c0-2.5 0-5 0-7.4 3.2-1 6.4-2.1 9.6-3.1.1 3.4.1 6.8.1 10.4z"/><path d="m199.7 180.1c0-5 0-9.9 0-14.8 0 0 .1-.1.1-.1 1.9.1 3.8 0 5.7.2 3 .4 4.8 2.5 5.2 5.5.2 1.3.2 2.7-.1 4-.7 2.8-2.5 4.2-5.2 4.9-2 .4-3.8.3-5.7.3zm1.4-13.7v12.4c1.3 0 2.7 0 4-.3 2-.5 3.4-1.7 3.9-3.8.3-1.4.4-2.7.1-4.1-.5-2.2-1.8-3.5-4-3.9-1.3-.2-2.6-.2-4-.3z"/><path d="m64.9 201.5c0-5.1 0-10 0-15 2 .1 4.1-.2 6.1.3 2.8.6 4.6 2.7 4.9 5.5.2 1.3.2 2.6-.2 3.9-.7 2.7-2.5 4.3-5.2 4.8-1.8.3-3.7.3-5.6.5zm1.4-1.4c1.6 0 3.1 0 4.5-.5 1.9-.6 3-1.9 3.4-3.9.2-1.2.3-2.3.1-3.5-.3-1.6-1-2.9-2.4-3.7-1.8-1-3.7-.8-5.6-.8z"/><path d="m161.1 170.9c0-2.2 0-4.4 0-6.6h1.3v15.8c-.4 0-.8 0-1.3 0 0-.5 0-1 0-1.6-.4.4-.7.8-1.1 1.1-1.8 1.4-4.8.7-5.9-1.3-.8-1.5-1-3-.8-4.7.1-.8.3-1.6.6-2.4 1.2-2.8 5.2-3.1 7-.6.1.1.1.2.2.2-.1.1-.1.1 0 .1zm0 3.9c0-1.3-.3-2.6-.9-3.4-1.2-1.7-3.8-1.6-4.7.3-1 2-1 4.2 0 6.2.9 1.7 3.2 1.9 4.5.6.8-1.2 1-2.5 1.1-3.7z"/><path d="m139.5 171c0-2.3 0-4.6 0-6.8h1.3v15.8c-.4 0-.8 0-1.3 0 0-.5 0-1 0-1.5-.1 0-.1 0-.2 0-.9 1.4-2.2 1.9-3.8 1.7s-2.8-1.1-3.4-2.5c-.8-2.1-.8-4.2 0-6.3.6-1.5 1.8-2.3 3.4-2.4s2.9.4 3.8 1.7c0 .1.1.1.2.3zm0 3.7c0-1.2-.3-2.3-.8-3.1-.6-1-1.5-1.5-2.6-1.4s-2 .6-2.4 1.6c-.8 1.9-.8 3.8 0 5.6.4 1.1 1.3 1.6 2.5 1.7s2.1-.5 2.7-1.5c.4-.9.6-1.9.6-2.9z"/><path d="m178.9 171c0-2.3 0-4.6 0-6.8h1.3v15.8c-.4 0-.8 0-1.3 0 0-.5 0-1 0-1.5-.1 0-.1 0-.1 0-.9 1.4-2.2 1.9-3.8 1.7s-2.8-1.1-3.4-2.5c-.8-2.1-.8-4.2 0-6.3.6-1.5 1.8-2.3 3.4-2.4s2.9.4 3.8 1.7c-.1.1-.1.1.1.3zm-.1 3.6c0-1-.2-2.1-.8-3s-1.5-1.4-2.6-1.4c-1.1.1-2 .6-2.4 1.6-.8 1.9-.8 3.8 0 5.6.5 1.1 1.3 1.7 2.5 1.7s2.1-.5 2.6-1.6c.6-.8.7-1.8.7-2.9z"/><path d="m183.6 199.8v1.6c-.5 0-.9 0-1.3 0 0-5.3 0-10.5 0-15.8h1.3v6.8c.2-.2.2-.3.3-.3.9-1.3 2.2-1.8 3.7-1.6 1.5.1 2.7.8 3.3 2.2.9 2.2 1 4.5 0 6.7-1 2.4-4.2 3.2-6.1 1.7-.5-.5-.8-.9-1.2-1.3zm6.4-3.9h.1c-.2-.9-.4-1.9-.7-2.8-.4-1.1-1.3-1.6-2.5-1.6-1.1 0-2.1.4-2.6 1.4-1.1 2.1-1.1 4.2.1 6.2.5 1 1.4 1.4 2.5 1.4s1.9-.6 2.5-1.6c.5-1 .6-2 .6-3z"/><path d="m74.2 165.3h1.4v.4 9.5c0 1.5-.5 2.9-1.7 3.9-2.4 2-6.7 1.5-8.3-1-.5-.8-.8-1.8-.8-2.8 0-3.3 0-6.5 0-9.8 0-.1 0-.2 0-.3h1.4v.6 8.7c0 .5 0 1.1.1 1.6.4 1.9 1.9 3 3.8 2.9 2 0 3.4-1.2 3.8-3.2.1-.4.1-.9.1-1.4 0-2.9 0-5.8 0-8.7.2 0 .2-.2.2-.4z"/><path d="m153.2 186.5h1.5v.6 8.7c0 .5 0 1.1.2 1.6.5 1.9 2.1 3 4.1 2.8 2.2-.2 3.5-1.6 3.6-3.8.1-3.1 0-6.2 0-9.3 0-.2 0-.4 0-.7h1.4v.4 9.5c0 1.5-.5 2.9-1.7 4-2.3 1.9-6.3 1.5-8-.7-.7-.9-.9-1.9-1-2.9 0-.2 0-.5 0-.7-.1-3.1-.1-6.3-.1-9.5z"/><path d="m258.8 174.9c-.2.7-.3 1.7-.6 2.5-.8 1.9-2.3 2.9-4.4 2.9-2.2.1-3.8-.8-4.7-2.8-.8-1.9-.8-3.8 0-5.6.9-2 2.7-3 5.1-2.8 2.2.2 3.7 1.6 4.3 3.8.1.5.1 1.1.3 2zm-8.8-.2c0 1.1.2 2.1.8 3 1.3 2 4.3 2.1 5.6 0 1.2-1.9 1.2-4 0-6-1.3-2.1-4.4-2.1-5.7 0-.5.9-.7 1.9-.7 3z"/><path d="m134.5 195.9c.1-1.5.4-2.8 1.3-4 1.8-2.3 6.8-2.5 8.3 1.1.9 2.1.8 4.2-.2 6.2-.9 1.7-2.9 2.6-5 2.3-2.2-.3-3.6-1.6-4.1-3.8-.2-.5-.2-1.2-.3-1.8zm8.7 0h.1c-.2-.9-.4-1.8-.7-2.6-.6-1.3-1.6-1.9-3-1.9s-2.4.6-3 1.8c-.9 1.8-.9 3.6 0 5.4.6 1.2 1.6 1.8 3 1.8 1.3 0 2.3-.6 3-1.8.5-.8.6-1.7.6-2.7z"/><path d="m134.5 201.4c-.7 0-1.2 0-1.7 0-.2 0-.4-.2-.5-.3-1.5-1.5-3-3.1-4.4-4.6-.2-.2-.3-.4-.5-.5 0 0-.1.1-.1.1v5.4c-.5 0-.9 0-1.3 0 0-5.3 0-10.5 0-15.8h1.3v9.4c.2-.1.3-.2.4-.3 1.3-1.2 2.6-2.4 3.9-3.6.3-.3.7-.5 1.2-.5h1.1c-1.8 1.7-3.5 3.2-5.3 4.8 2 1.8 3.9 3.8 5.9 5.9z"/><path d="m221.6 175.1c-2.5 0-4.9 0-7.4 0-.2 2.8 1.9 4.6 4.7 3.9.6-.1 1.2-.4 1.9-.6v1.1c0 .1-.2.3-.3.3-1.4.5-2.9.7-4.4.3-1.5-.3-2.5-1.2-2.9-2.6-.7-2.1-.7-4.2.3-6.1 1.3-2.5 4.6-3.2 6.6-1.4 1.2 1 1.5 2.4 1.6 3.9 0 .4-.1.8-.1 1.2zm-7.4-1.2h5.9c.1-2.2-1-3.7-2.7-3.7-1.7-.1-3.2 1.7-3.2 3.7z"/><path d="m261.2 199.8c0-.1 0 0 0 0 0 1.5.3 1.3-1.1 1.5-1 .2-2 .3-3.1.2-1.9-.2-3.1-1.3-3.6-3.2s-.5-3.9.5-5.7c1.3-2.4 4.6-3.1 6.6-1.3 1.1 1 1.4 2.4 1.6 3.9v1.2c-2.5 0-4.9 0-7.4 0-.3 2.4 1.7 4.4 4.1 4.1.8-.3 1.5-.5 2.4-.7zm-.7-4.6c.1-2.2-1.1-3.8-2.8-3.7-1.7 0-3.3 1.9-3.1 3.7z"/><path d="m86.8 196.3c-2.5 0-4.9 0-7.4 0-.4 2.4 1.7 4.4 4.1 4 .8-.1 1.6-.4 2.5-.6v1c0 .1-.2.3-.3.3-1.4.5-2.9.7-4.3.3-1.5-.3-2.6-1.3-3-2.7-.7-2.2-.7-4.3.5-6.3 1.3-2.3 4.5-2.9 6.4-1.1 1.1 1 1.4 2.4 1.5 3.9.1.4 0 .8 0 1.2zm-1.5-1.1c.2-2.1-1-3.7-2.7-3.7s-3.3 1.8-3.2 3.7z"/><path d="m201.2 199.8c0-.1 0 0 0 0 0 1.5.3 1.3-1.1 1.6-1 .2-2.1.2-3.1.2-1.8-.2-3-1.2-3.5-2.9-.6-2-.6-4.1.4-6 1.3-2.4 4.5-3.1 6.5-1.4 1.2 1 1.5 2.4 1.6 3.9v1.2c-1.3 0-2.5 0-3.7 0s-2.4 0-3.6 0c-.2 2 1.1 4.5 4.1 4zm-.6-4.6c.1-2.1-1-3.7-2.7-3.7s-3.3 1.8-3.2 3.7z"/><path d="m190.3 178.5s.1 0 0 0c0 1.5.3 1.3-1.1 1.6-1 .2-2 .3-3.1.2-1.9-.2-3.1-1.4-3.6-3.2-.5-1.9-.5-3.8.5-5.6 1.3-2.5 4.6-3.2 6.6-1.4 1.1 1 1.4 2.4 1.5 3.9v1.2c-2.5 0-4.9 0-7.4 0-.3 2.5 1.7 4.4 4.1 4 .9-.2 1.7-.5 2.5-.7zm-.6-4.6c.1-2.2-1.1-3.8-2.8-3.7-1.7 0-3.3 1.9-3.1 3.7z"/><path d="m110.4 178.5v1c0 .1-.2.3-.3.3-1.4.5-2.9.7-4.4.3-1.4-.3-2.4-1.2-2.9-2.6-.7-2.1-.7-4.2.3-6.2 1.3-2.5 4.6-3.2 6.6-1.4 1.1 1 1.4 2.4 1.5 3.9v1.2c-2.5 0-4.9 0-7.3 0-.5 2.3 1.7 4.4 4.1 4 .8 0 1.6-.3 2.4-.5zm-.6-4.6c-.1-1.4-.3-2.7-1.6-3.4-1-.6-2-.4-2.9.3-1 .8-1.5 1.9-1.5 3.2 2-.1 3.9-.1 6-.1z"/><path d="m270.3 194.8c0-.6-.1-1.1-.1-1.6-.2-1.1-.9-1.7-2-1.8s-2.1.1-3 .6c-.1.1-.3.1-.5.2 0-.1 0-.1 0-.2 0-1.3-.3-1 1.1-1.5 1.1-.3 2.1-.5 3.3-.3 1.5.3 2.3 1.1 2.6 2.6.1.4.1.9.1 1.3v7.1c-.3 0-.8 0-1.2 0 0-.5 0-1 0-1.4-.3.2-.6.5-1 .8-1.3.9-2.7 1.1-4.2.5-1.1-.4-1.7-1.2-1.8-2.4-.1-1.3.3-2.5 1.5-3.2 1.3-.8 2.7-.8 4.1-.9.1.1.5.2 1.1.2zm0 1.2c-.1-.1-.1-.1-.2-.2-1.2.2-2.3.3-3.5.5-.4.1-.8.3-1.1.6-1 .8-1 2.5 0 3.2 1.4.9 3.8.2 4.3-1.4.4-.9.4-1.8.5-2.7z"/><path d="m245 201.3c-.4 0-.8 0-1.3 0 0-.5 0-1 0-1.6-.1 0-.2.1-.2.1-1.1 1.7-3.3 2.1-5 1.4-1.1-.4-1.7-1.3-1.8-2.4-.1-1.3.3-2.5 1.5-3.2 1.3-.7 2.7-.8 4.1-.9h1.1c.5-1.9-.5-3.4-2.5-3.3-.5 0-1.1.1-1.6.2s-1 .4-1.4.6c0 0-.1-.1-.1-.1-.1-1.2-.1-1.2 1.1-1.6 1-.3 2.1-.4 3.2-.2 1.5.3 2.3 1 2.6 2.5.1.4.1.9.1 1.3v6c.1.4.1.8.2 1.2zm-1.4-5.3c-.1-.1-.1-.1-.2-.2-1.2.2-2.3.3-3.5.5-.4.1-.8.3-1.1.6-1 .8-1 2.5 0 3.2 1.4.9 3.8.2 4.3-1.4.4-.9.4-1.8.5-2.7z"/><path d="m151.1 180.1c-.4 0-.8 0-1.3 0 0-.5 0-1 0-1.7-1.2 1.6-2.7 2.1-4.5 1.8-1.4-.2-2.3-1.1-2.5-2.4-.3-1.4.3-2.8 1.5-3.5 1.3-.7 2.7-.8 4.1-.9h1.3c-.1-.7-.1-1.3-.3-1.9-.2-.9-.9-1.4-1.9-1.4-1-.1-2 .1-3 .6-.2.1-.3.2-.5.2 0-.1-.1-.1-.1-.1 0-1.4-.3-1.1 1.2-1.6.7-.2 1.4-.3 2.2-.3 2.5 0 3.7 1.2 3.7 3.6v6.2c0 .6 0 1 .1 1.4zm-1.5-5.4c-.6 0-1.1 0-1.6 0s-1.1.1-1.6.2c-.5.2-1.1.4-1.5.7-1 .8-1 2.5 0 3.2 1.4.9 3.7.3 4.4-1.3.4-.9.4-1.8.3-2.8z"/><path d="m78.7 169.2h1.2v1.7h.1c.2-.2.3-.4.5-.6 1.3-1.7 4.6-1.8 5.9-.1.6.7.8 1.6.8 2.4v7.2.2c-.4 0-.8 0-1.3 0 0-.2 0-.4 0-.6 0-2.1 0-4.3 0-6.4 0-.2 0-.4-.1-.6-.3-1.4-.9-2.1-2-2.3-1.3-.2-2.5.4-3.1 1.5-.5.8-.6 1.7-.6 2.7v5.1.6c-.4 0-.9 0-1.3 0-.1-3.5-.1-7.1-.1-10.8z"/><path d="m96.1 190.5h1.3v10.8c-.3 0-.7 0-1.2 0 0-.5 0-1.1 0-1.7-.1 0-.1 0-.2.1-1.1 1.8-3 2.4-5 1.6-1.2-.5-1.8-1.4-2-2.6-.1-.4-.1-.8-.1-1.2 0-2.3 0-4.6 0-6.9h1.3v.5 6.5c0 .2 0 .4.1.6.3 1.4.9 2.1 2.1 2.3 1.3.2 2.5-.4 3.1-1.6.4-.8.5-1.7.5-2.6 0-1.7 0-3.4 0-5.1.1-.3.1-.5.1-.7z"/><path d="m121.8 190.5h1.3v10.8c-.3 0-.8 0-1.2 0 0-.5 0-1.1 0-1.7-.1 0-.1 0-.2.1-1.1 1.8-3.2 2.4-5.1 1.6-1.1-.5-1.7-1.4-1.9-2.5-.1-.4-.1-.9-.1-1.3 0-2.3 0-4.5 0-6.8v-.1h1.3v.5 6.5c0 .2 0 .4.1.7.2 1.1.7 1.9 1.9 2.2 1.2.2 2.4-.2 3.1-1.2.6-.9.7-1.9.7-2.9 0-1.7 0-3.4 0-5.1.1-.4.1-.6.1-.8z"/><path d="m232.1 180.1c-.4 0-.8 0-1.2 0 0-.6 0-1.1 0-1.7h-.1c-.1.2-.3.4-.4.6-1.3 1.8-4.6 1.8-5.9.1-.5-.7-.8-1.5-.8-2.4 0-2.5 0-4.9 0-7.4h1.3v.7 6.3c0 .2 0 .4.1.6.3 1.4.9 2.1 2.1 2.3 1.3.2 2.5-.4 3.1-1.5.4-.8.5-1.8.5-2.7 0-1.9 0-3.7 0-5.6h1.3z"/><path d="m168.3 201.3c-.5 0-.9 0-1.3 0 0-3.6 0-7.2 0-10.8h1.2v1.7c.1-.1.1-.1.2-.1 1.1-1.8 3.4-2.4 5.2-1.5 1.3.7 1.8 1.9 1.8 3.2.1 2.5 0 4.9 0 7.4v.1c-.4 0-.8 0-1.3 0 0-.2 0-.4 0-.6 0-2.1 0-4.3 0-6.4 0-.2 0-.5-.1-.7-.2-1.1-.7-1.9-1.9-2.2-1.2-.2-2.3.1-3 1.1-.6.9-.8 1.9-.8 3v5.1z"/><path d="m92.8 169.2h1.5c1 3.1 2 6.2 3 9.4.1-.3.2-.4.2-.6.9-2.7 1.8-5.5 2.7-8.2.1-.4.3-.7.8-.6h.8c-.1.3-.2.6-.3.9-1.1 3.2-2.2 6.4-3.3 9.6-.1.4-.3.5-.7.5-1.1 0-1.1 0-1.4-1-1-3.1-2.1-6.2-3.1-9.3-.1-.3-.1-.4-.2-.7z"/><path d="m125.6 170.7c-1.1-.4-2.2-.6-3.4-.4-.8.2-1.2.6-1.4 1.3-.1.8.3 1.2.9 1.6.8.4 1.6.8 2.4 1.2s1.6 1 1.9 1.9c.5 1.5-.2 3-1.7 3.6-1.6.7-3.2.5-4.8 0-.1 0-.2-.2-.2-.4 0-.3.1-.7.1-.9.9.2 1.8.4 2.7.5.6 0 1.3-.2 1.8-.5.9-.6 1-1.8.2-2.6-.5-.5-1.2-.8-1.8-1.1s-1.3-.6-1.8-1c-1.7-1.2-1.4-3.6.4-4.5 1.5-.7 3-.5 4.5 0 .1 0 .2.2.2.3.1.3 0 .6 0 1z"/><path d="m223.9 191.9c-1.2-.4-2.3-.6-3.4-.4-.7.2-1.2.6-1.3 1.3-.1.5 0 1 .5 1.3s1.1.6 1.6.9c.7.4 1.5.7 2.1 1.2 1.8 1.4 1.3 4-.7 4.9-1.6.7-3.2.5-4.8 0-.1 0-.2-.2-.2-.4 0-.3.1-.7.1-.9.9.2 1.8.4 2.7.5.6 0 1.2-.2 1.7-.5 1-.6 1.1-1.8.3-2.6-.5-.4-1.1-.7-1.7-1.1s-1.3-.6-1.9-1c-1.7-1.2-1.4-3.6.4-4.5 1.5-.7 3-.5 4.5 0 .1 0 .2.2.2.3 0 .4-.1.6-.1 1z"/><path d="m105.4 191.9c-1.2-.4-2.3-.6-3.4-.4-.7.2-1.2.6-1.3 1.3s.1 1.2.8 1.6c.8.4 1.6.8 2.4 1.2.9.5 1.6 1 1.9 2 .5 1.8-.5 3.4-2.5 3.8-1.3.3-2.6.1-3.9-.2-.3-.1-.4-.2-.3-.5 0-.3.1-.6.1-.9.7.2 1.4.4 2.1.5.6.1 1.3 0 1.9-.2 1.5-.5 1.7-2.1.5-3.1-.5-.4-1.1-.7-1.7-1-.5-.3-1.1-.6-1.6-.9-1.6-1.2-1.4-3.6.4-4.5 1.5-.7 3-.5 4.5 0 .1 0 .2.2.2.3 0 .3-.1.6-.1 1z"/><path d="m234.1 178.7c.9.2 1.8.4 2.7.5.6 0 1.2-.2 1.8-.5.9-.5 1-1.8.2-2.5-.5-.5-1.2-.8-1.8-1.1-.5-.3-1-.5-1.5-.8-1.2-.7-1.6-1.6-1.4-2.9.2-1.1 1-1.9 2.3-2.2 1.2-.3 2.4-.1 3.6.3.1 0 .3.3.3.4 0 .3 0 .5-.1.8-.8-.1-1.5-.3-2.3-.4-.4 0-.9.1-1.3.2-.6.2-1 .6-1.1 1.3-.1.6.2 1.1.7 1.4.6.3 1.2.6 1.8.9s1.3.7 1.8 1.1c1.7 1.4 1.3 3.9-.6 4.8-1.6.7-3.3.5-4.9 0-.1 0-.2-.2-.2-.4 0 0 0-.1 0-.2-.1-.3 0-.6 0-.7z"/><path d="m216.3 200.2c.2 1.1.2 1.2-.8 1.3-.4.1-.8.1-1.1 0-1.1-.1-1.7-.7-1.9-1.9-.1-.4-.1-.8-.1-1.2 0-2.1 0-4.1 0-6.2 0-.2 0-.4 0-.6-.7 0-1.4 0-2.1 0 0-.4 0-.8 0-1.2h2.1c0-.7 0-1.4 0-2.1 0-.5.2-.7.6-.8.2-.1.5-.1.7-.2v3.1h2.5v1.2c-.8 0-1.6 0-2.4 0v1.4 5.2.5c.1 1.4.8 1.9 2.2 1.6 0 0 .1-.1.3-.1z"/><path d="m246.2 191.6c0-.4 0-.8 0-1.2h2.1c0-.7 0-1.4 0-2.1 0-.4.1-.7.5-.8.3 0 .5-.2.8-.2v3.1h2.5v1.2c-.8 0-1.6 0-2.4 0v1.9 4.7.4c0 1.4.8 2 2.2 1.7.1 0 .3-.1.5-.1 0 .3.1.6.1.9 0 .1-.2.3-.3.3-.8 0-1.6.1-2.3.1-.7-.1-1.1-.6-1.3-1.3-.1-.5-.2-1.1-.2-1.6 0-2.1 0-4.2 0-6.3 0-.2 0-.4 0-.6-.8-.1-1.4-.1-2.2-.1z"/><path d="m243.8 170.4c-.4 0-.7 0-1.1 0-.3 0-.7 0-1 0 0-.4 0-.7 0-1.1h2.1c0-.7 0-1.4 0-2.1 0-.4.1-.7.5-.8.3 0 .5-.2.8-.3v1.6 1.5h2.4v1.2c-.8 0-1.6 0-2.4 0v1.6 5 .5c0 1.4.8 2 2.2 1.7.1 0 .3-.1.5-.1 0 .3.1.6.1.9 0 .1-.2.3-.3.3-.8.2-1.6.3-2.4.1-.6-.2-1.1-.6-1.2-1.3-.1-.5-.2-1.1-.2-1.6 0-2.1 0-4.2 0-6.3 0-.3 0-.6 0-.8z"/><path d="m235.4 200.2c0 .3.1.6 0 .9 0 .1-.2.3-.3.3-.6.1-1.3.2-1.9.1-1.1-.1-1.6-.7-1.8-1.8-.1-.4-.1-.8-.1-1.2 0-2.1 0-4.2 0-6.3 0-.2 0-.4 0-.6-.7 0-1.4 0-2.1 0 0-.4 0-.7 0-1.1h2.1c0-.8 0-1.4 0-2.1 0-.4.1-.6.5-.7.3-.1.6-.2.9-.3v3.1h2.4v1.1c-.8 0-1.6 0-2.4 0v.6 6.2.3c0 1.4.8 2 2.1 1.6.2 0 .4-.1.6-.1z"/><path d="m109 191.6c-.7 0-1.4 0-2.1 0 0-.4 0-.7 0-1.1h2.1c0-.7 0-1.4 0-2.1 0-.4.1-.7.5-.8.3 0 .5-.2.8-.3v3.1h2.5v1.2c-.8 0-1.6 0-2.4 0v1.4 5.2.5c.1 1.4.8 1.9 2.2 1.6.1 0 .3-.1.5-.1 0 .3.1.6.1.9 0 .1-.2.3-.3.3-.8 0-1.6.1-2.3.1-.7-.1-1.1-.6-1.3-1.2-.1-.5-.2-1.1-.2-1.6 0-2.1 0-4.2 0-6.3-.1-.3-.1-.5-.1-.8z"/><path d="m113.3 180.1c0-3.6 0-7.2 0-10.8h1.2v1.8c.5-.6 1-1.2 1.5-1.7.6-.5 1.4-.5 2.2-.3v1.4c-.3 0-.6-.1-1-.1-1 0-1.7.5-2.1 1.4-.5 1-.6 2.1-.6 3.2v5c-.3.1-.7.1-1.2.1z"/><path d="m209.2 191.8c-.3 0-.7-.1-1-.1-1 0-1.7.6-2.1 1.5-.5 1-.5 2-.5 3.1v4.5.6c-.5 0-.9 0-1.3 0 0-3.6 0-7.2 0-10.8h1.3v1.9c.8-1.5 1.9-2.5 3.8-2-.2.3-.2.8-.2 1.3z"/><path d="m178.2 190.5h1.3v10.8c-.4 0-.8 0-1.3 0 0-3.6 0-7.2 0-10.8z"/><path d="m226.4 190.5h1.3v10.8c-.4 0-.8 0-1.3 0 0-3.6 0-7.2 0-10.8z"/><path d="m91.2 180.1c-.4 0-.8 0-1.3 0 0-3.6 0-7.2 0-10.8h1.3z"/><path d="m129.4 180.1c-.4 0-.8 0-1.3 0 0-3.6 0-7.2 0-10.8h1.3z"/><path d="m178.2 187.6c0-.6 0-1.2 0-1.7h1.3v1.7c-.4 0-.8 0-1.3 0z"/><path d="m227.6 185.9v1.7c-.4 0-.8 0-1.3 0 0-.5 0-1.1 0-1.7z"/><path d="m129.4 166.4c-.4 0-.8 0-1.3 0 0-.6 0-1.1 0-1.7h1.3z"/><path d="m89.9 164.6h1.3v1.7c-.4 0-.8 0-1.3 0 0-.5 0-1 0-1.7z"/><path d="m28.3 123.2c-.1.2-.2.3-.3.4-.1-.1-.2-.3-.2-.4 0-.2.1-.3.2-.5.1.1.2.3.3.5z"/><path d="m23.5 123.1c-.2.2-.3.3-.4.5-.1-.1-.2-.3-.2-.4 0-.2.1-.3.2-.5.1.1.2.2.4.4z"/><path d="m23.5 121.2c-.2.2-.3.3-.4.3-.1-.1-.2-.2-.2-.4 0-.1.1-.3.2-.4.1.1.2.3.4.5z"/><path d="m28.3 121.1c-.2.2-.2.3-.3.4-.1-.1-.2-.2-.2-.3 0-.2.1-.3.2-.5.1.1.2.2.3.4z"/><path d="m25 123.2c-.1.2-.2.3-.3.4-.1-.2-.2-.3-.2-.5 0-.1.1-.3.2-.4.2.1.2.3.3.5z"/><path d="m26 123.2c.1-.2.2-.3.3-.5.1.1.2.3.2.4 0 .2-.1.3-.2.5 0-.1-.1-.3-.3-.4z"/><path d="m24.4 121.1c.1-.2.2-.3.3-.4.1.1.2.3.2.4s-.1.2-.2.4c0-.1-.1-.2-.3-.4z"/><path d="m26.6 121.1c-.1.1-.2.3-.3.4-.1-.1-.2-.2-.2-.4s.1-.3.2-.4c.2.1.2.2.3.4z"/><path d="m28.3 119.1c-.1.1-.2.2-.3.3-.1-.1-.2-.2-.2-.3s.2-.3.2-.4c.1.1.2.3.3.4z"/><path d="m23.2 119.5c-.1-.1-.3-.2-.3-.4 0-.1.1-.2.2-.4.1.2.2.4.3.6 0 .1-.1.1-.2.2z"/><path d="m26.1 119.1c.1-.1.2-.2.3-.3.1.1.2.2.2.4 0 .1-.1.2-.2.3-.1-.2-.2-.3-.3-.4z"/><path d="m24.9 118.7v.6s-.2 0-.3 0c0-.2 0-.4 0-.6z"/><path d="m42.5 123.1c-.1.2-.3.3-.4.5-.1-.1-.2-.3-.2-.4 0-.2.2-.3.2-.5.2.1.3.2.4.4z"/><path d="m42.6 121.2c-.2.2-.3.2-.4.3-.1-.1-.2-.3-.2-.4s.1-.3.2-.4c.1.1.2.3.4.5z"/><path d="m39.3 123.2c-.1.2-.2.3-.3.4-.1-.2-.2-.3-.2-.5 0-.1.1-.3.2-.4.1.1.2.3.3.5z"/><path d="m44.1 123.2c-.1.2-.2.3-.3.4-.1-.1-.2-.3-.2-.4 0-.2.1-.3.2-.5.1.1.2.3.3.5z"/><path d="m40.7 122.7c0 .1.1.3 0 .4 0 .2-.1.3-.2.5-.1-.1-.2-.2-.2-.3.1-.2-.1-.6.4-.6z"/><path d="m39.3 121.1c-.1.2-.2.3-.3.4-.1-.1-.2-.2-.2-.3 0-.2.1-.3.2-.5.1.1.2.2.3.4z"/><path d="m40.9 121.1c-.1.2-.2.3-.3.4-.1-.1-.2-.2-.2-.4 0-.1.1-.3.2-.4.1.1.2.2.3.4z"/><path d="m43.5 121.1c.1-.2.2-.3.3-.4.1.1.2.3.2.4s-.1.3-.2.4c-.1-.1-.2-.2-.3-.4z"/><path d="m42.5 119.1c-.2.1-.3.2-.4.3-.1-.1-.2-.2-.2-.3s.1-.2.2-.4c.2.1.3.2.4.4z"/><path d="m39.1 118.7v.6s-.2 0-.3 0c0-.2 0-.4 0-.7.1.1.2.1.3.1z"/><path d="m43.9 118.7v.6h-.2c0-.2 0-.4-.1-.6z"/><path d="m40.3 119.1c.1-.2.2-.3.3-.4.1.1.2.2.2.4 0 .1-.1.2-.2.3-.1-.1-.2-.2-.3-.3z"/><path d="m35.8 123.6c-.3 0-.6 0-.9 0 .1-.3.1-.6.2-.8 0-.1.4-.1.4 0 .2.2.2.4.3.8z"/><path d="m33.8 123.6c-.4.1-.7.2-.7-.4 0-.3 0-.6.4-.5.6.1.3.5.3.9z"/><path d="m31.1 123.2c.3-.2.4-.5.6-.5.4 0 .3.3.4.6 0 .3-.1.4-.4.4-.2-.2-.4-.3-.6-.5z"/><path d="m36.2 121.1c-.2.2-.3.3-.4.4-.1-.1-.2-.2-.2-.4s.1-.3.2-.4c.1.1.2.3.4.4z"/><path d="m34.6 121.1c-.1.2-.2.3-.3.4-.1-.1-.2-.2-.2-.3 0-.2.2-.3.2-.5.1.1.2.2.3.4z"/><path d="m36 118.7v.7c-.1 0-.2 0-.3 0 0-.2 0-.4 0-.7z"/><path d="m31.5 121.1c-.1.1-.2.2-.3.3-.1-.1-.2-.3-.2-.4s.1-.3.2-.4c.1.2.1.4.3.5z"/><path d="m33 121.1c-.1.2-.2.3-.3.4-.1-.1-.2-.2-.2-.3s.1-.3.2-.4c.1 0 .2.1.3.3z"/><path d="m33.9 119.5c.1-.4.2-.6.3-.8h.2c0 .2.1.4.1.6-.1 0-.3.1-.6.2z"/><path d="m30.7 119.3c.2-.4.3-.5.4-.6.1.1.2.2.2.3s-.1.3-.2.3c-.1.1-.2 0-.4 0z"/><path d="m32.8 118.7v.6c-.1 0-.3 0-.3 0 0-.2 0-.4 0-.6z"/><path d="m19.2 123.6c-.3 0-.7.2-.7-.3 0-.3 0-.6.4-.6.5 0 .2.5.3.9z"/><path d="m19.2 121.1c-.2.2-.3.3-.4.4-.1-.1-.2-.2-.2-.4s.1-.3.2-.4c.2.1.3.2.4.4z"/><path d="m20.5 121.4c-.5.2-.6 0-.6-.3 0-.1.1-.3.2-.4.2.2.3.5.4.7z"/><path d="m20.3 123.4c-.1-.1-.2-.3-.3-.4 0-.1.1-.2.2-.3l.3.6c-.1 0-.2.1-.2.1z"/><path d="m20.3 118.7c0 .2.1.4.1.6-.1 0-.3 0-.4 0 0-.2 0-.4 0-.6z"/><path d="m17.8 121.1c-.1.2-.2.3-.3.4-.1-.1-.2-.2-.2-.4 0-.1.1-.3.2-.4.1.1.2.3.3.4z"/><path d="m19 118.7v.6c-.1 0-.2 0-.4 0 0-.2.1-.4.1-.6z"/><path d="m17.8 123.1c-.1.1-.2.2-.3.2-.1-.1-.1-.3-.2-.4 0-.1.1-.2.2-.3.1.2.2.3.3.5z"/><path d="m17.8 119.1c-.1.1-.2.2-.3.3-.1-.1-.2-.2-.2-.3s.1-.2.2-.3c.1 0 .2.1.3.3z"/><path d="m48.6 123.6c-.3 0-.6 0-.9 0 .1-.3.1-.6.2-.8 0-.1.4-.1.4 0 .1.2.2.4.3.8z"/><path d="m49.1 121.1.4-.4c.1.1.2.3.2.4s-.1.3-.2.4c-.2-.1-.3-.2-.4-.4z"/><path d="m49.1 123.2.3-.6c.1.1.3.2.2.4 0 .1-.2.3-.3.4 0 0-.1-.1-.2-.2z"/><path d="m48.4 121.1c-.1.2-.2.3-.3.4-.1-.1-.2-.2-.2-.4 0-.1.1-.3.2-.4.1.1.2.2.3.4z"/><path d="m49.6 118.7c0 .2.1.4.1.5s-.2.1-.5.2c.1-.4.1-.6.2-.8 0 .1.1.1.2.1z"/><path d="m47.1 121.1c-.1.2-.2.3-.3.4-.1-.1-.2-.2-.2-.3s.1-.3.2-.4c0 0 .1.1.3.3z"/><path d="m47.2 123.2c-.1 0-.3.1-.4.1s-.2-.2-.2-.3.1-.2.2-.3c.1.1.1.2.4.5z"/><path d="m46.3 118.9c.2-.1.3-.2.4-.1.1 0 .2.2.2.4 0 .1-.1.2-.2.3 0-.2-.1-.3-.4-.6z"/><path d="m48.4 119.1c-.1.1-.2.2-.3.3-.1-.1-.2-.2-.2-.3s.1-.2.2-.3z"/><path d="m34 116.7c-.2.2-.4.3-.5.3s-.2-.2-.4-.3c.1-.1.2-.3.3-.3.2-.1.3.1.6.3z"/></g></svg>