<svg viewBox="0 0 273.735 103.24" xmlns="http://www.w3.org/2000/svg"><path d="m40.7.037v.714c0 11.738.024 23.477-.011 35.215a18.319 18.319 0 0 1 -4.549 12.051 19.991 19.991 0 0 1 -11.209 6.733 20.507 20.507 0 0 1 -23.549-11.991 18.577 18.577 0 0 1 -1.376-7.122q.007-17.4 0-34.8a2.514 2.514 0 0 0 0-.313c-.049-.411.129-.524.537-.524q19.857.015 39.714.009c.121 0 .243.015.443.028zm-3.3 36.208c0-.662-.024-1.288.009-1.911a.612.612 0 0 0 -.479-.685 7.655 7.655 0 0 0 -6.234.124 8.053 8.053 0 0 1 -7.095 0 7.487 7.487 0 0 0 -6.517 0 8.11 8.11 0 0 1 -7.146-.02 7.55 7.55 0 0 0 -6.229-.082c-.159.065-.392.219-.4.341-.038.737-.019 1.478-.019 2.275.238-.085.384-.131.525-.187a7.616 7.616 0 0 1 6.225.162 8.024 8.024 0 0 0 7.051-.014 7.377 7.377 0 0 1 6.409-.035 8.229 8.229 0 0 0 7.341-.026 7.126 7.126 0 0 1 4.632-.5c.634.136 1.239.355 1.935.558zm-34.129-4.232.394-.161a7.8 7.8 0 0 1 6.515.163 7.83 7.83 0 0 0 6.9-.064 7.411 7.411 0 0 1 6.5-.014 8.079 8.079 0 0 0 7.194-.023 6.683 6.683 0 0 1 4.163-.614c.811.154 1.606.391 2.462.6 0-.579-.036-1.186.012-1.786a.725.725 0 0 0 -.587-.829 7.867 7.867 0 0 0 -6.224.215 7.817 7.817 0 0 1 -6.9 0 7.763 7.763 0 0 0 -6.761.02 7.691 7.691 0 0 1 -6.748.012 7.926 7.926 0 0 0 -6.336-.232c-.213.08-.547.244-.558.389-.057.736-.026 1.48-.026 2.324zm34.137 8.627c0-.688-.039-1.282.012-1.868.044-.5-.175-.7-.609-.861a8.036 8.036 0 0 0 -6.287.249 7.752 7.752 0 0 1 -6.753 0 7.808 7.808 0 0 0 -6.76-.037 7.96 7.96 0 0 1 -6.949-.007 7.764 7.764 0 0 0 -6.232-.169c-.185.071-.485.2-.492.318-.045.767-.023 1.538-.023 2.311a1.059 1.059 0 0 0 .143-.009c.081-.031.162-.062.242-.095a7.565 7.565 0 0 1 6.226.063 8.3 8.3 0 0 0 7.253.007 7.385 7.385 0 0 1 6.366 0 8.379 8.379 0 0 0 7.256 0 9.325 9.325 0 0 1 2.5-.642 7.292 7.292 0 0 1 4.107.74zm-17.287-28.971c0-2.577.012-5.154-.01-7.73 0-.577-.3-.789-.946-.793-1.569-.009-3.138.01-4.707-.012-.442-.006-.559.149-.556.575.018 2.284.008 4.568.01 6.852 0 .168.02.336.033.554h.655 4.29a1.332 1.332 0 0 1 1.231.554zm6.609-.557a2.229 2.229 0 0 0 .065-.354c0-2.389 0-4.779.011-7.168 0-.395-.207-.453-.53-.452-1.569.006-3.139 0-4.709 0-.752 0-.963.221-.963.966q0 3.532 0 7.064c0 .163.018.326.036.631a1.032 1.032 0 0 1 1.123-.687c.976-.01 1.953 0 2.93 0zm-14.267 8.542c-1.115 0-2.231.014-3.346-.008-.4-.008-.514.141-.511.516q.018 2.64 0 5.281c0 .348.1.5.478.5q3.345-.015 6.692 0c.36 0 .486-.136.484-.5q-.02-2.642 0-5.281c0-.375-.105-.528-.5-.52-1.101.027-2.199.013-3.297.012zm12.053 6.221a2 2 0 0 0 .326.058c2.267 0 4.533 0 6.8.009.353 0 .435-.158.432-.48-.011-1.744-.021-3.487.005-5.23.007-.464-.131-.595-.589-.59-2.145.022-4.289.011-6.434.014-.169 0-.339.019-.54.032zm-7.793-.062a12.323 12.323 0 0 1 7.289.011v-.515c0-1.671-.017-3.343.011-5.015.008-.492-.117-.659-.634-.652q-3.055.043-6.112 0c-.511-.008-.61.185-.605.634.018 1.672.006 3.344.01 5.015 0 .183.028.367.041.522zm-8.573.017a1.271 1.271 0 0 0 .041-.215c0-1.845 0-3.69.008-5.535 0-.362-.165-.433-.48-.431-1.305.01-2.611.021-3.915-.005-.437-.009-.527.17-.525.554.012 1.723 0 3.446.006 5.169 0 .161.031.321.045.463a5.544 5.544 0 0 1 4.82 0zm5.1-13.92c-.012-.216-.025-.337-.025-.458q0-3.4 0-6.8c0-.289.034-.553-.4-.558s-.442.251-.442.573c.005 2.477.01 4.953-.009 7.429 0 .447.114.6.585.6 1.866-.025 3.732-.019 5.6 0a1.186 1.186 0 0 1 .684.248 1.7 1.7 0 0 0 2.2.023 1.314 1.314 0 0 1 .733-.268c1.848-.023 3.7-.013 5.546-.016.183 0 .367-.018.543-.026v-8.548l-.754.034v7.757h-.571q-2.669.007-5.336.01a.627.627 0 0 0 -.645.308.67.67 0 0 1 -1.108.105c-.27-.444-.626-.413-1.021-.411-.471 0-.942 0-1.413 0zm24.1 13.92a.394.394 0 0 0 .044-.112c.005-1.9 0-3.8.016-5.7 0-.371-.221-.368-.482-.367-1.306 0-2.614.016-3.92-.007-.415-.008-.486.159-.483.525.016 1.742.006 3.485.009 5.227 0 .146.026.292.039.418a5.45 5.45 0 0 1 4.779.016zm-17.05 1.493c1.08 0 2.161.009 3.241-.01.155 0 .441-.146.437-.21-.018-.284-.042-.737-.207-.812a4.85 4.85 0 0 0 -1.671-.461 31.2 31.2 0 0 0 -3.553 0 4.646 4.646 0 0 0 -1.62.463c-.161.073-.2.5-.209.762 0 .086.289.251.448.255 1.044.024 2.09.013 3.134.013zm.018-8.057h3.707c.221 0 .512.11.56-.279.043-.346-.152-.439-.441-.513-1.125-.289-2.241-.611-3.368-.893a1.747 1.747 0 0 0 -.807-.009c-1.161.287-2.312.616-3.471.912-.286.073-.476.219-.366.494a.621.621 0 0 0 .479.282c1.237.017 2.473.006 3.709.006zm-7.844 7.076c-1.114 0-2.229.014-3.343-.007-.372-.007-.535.087-.534.488s.155.508.531.506q3.316-.018 6.632 0c.4 0 .5-.161.5-.528s-.15-.47-.5-.465c-1.091.018-2.188.007-3.284.006zm19.57.033h-7.531v.912h7.533zm-26.367.949c.7 0 1.394-.008 2.091 0 .312 0 .423-.119.433-.432.012-.348-.046-.632-.4-.755a4.589 4.589 0 0 0 -1.114-.317 11.337 11.337 0 0 0 -2.035.006 2.388 2.388 0 0 0 -1.164.453c-.174.135-.16.559-.148.849 0 .071.328.177.509.184.61.026 1.221.012 1.83.012zm26.923-.005c1.519 0 3.011.005 4.5-.009.1 0 .279-.127.289-.21.043-.372.125-.794-.359-.968a4.087 4.087 0 0 0 -1.063-.308c-.727-.048-1.46-.018-2.19-.013-.918.007-1.332.505-1.177 1.508zm2.851-9.972a6.47 6.47 0 0 0 -.735.008c-.094.012-.255.124-.251.182.028.426-.292.449-.568.534-.463.142-.937.26-1.382.447a.609.609 0 0 0 -.255.469c0 .086.241.263.375.264q2.32.03 4.64 0c.146 0 .29-.189.435-.29-.117-.159-.2-.395-.358-.461a9.912 9.912 0 0 0 -1.334-.427c-.356-.092-.604-.249-.572-.726zm-32.366 1.889c.156.011.293.028.429.028q2.223 0 4.446 0c.211 0 .477.081.507-.279.025-.292-.1-.409-.376-.522a4.84 4.84 0 0 0 -4.391-.083.666.666 0 0 1 -.2.05c-.444.078-.575.335-.415.806z" fill="#0060aa"/><path d="m53.209 50.229v-50.129h.583c4.8 0 9.593-.052 14.388.014a39.205 39.205 0 0 1 14.127 2.47 19.665 19.665 0 0 1 12.534 14.286 33.862 33.862 0 0 1 -.25 17.525c-1.894 6.661-6.271 11.08-12.7 13.519a35.03 35.03 0 0 1 -9.984 2.108c-5.939.428-11.888.119-17.832.207-.275.004-.552 0-.866 0zm10.039-7.914c.17.01.29.024.41.023 1.969-.012 3.944.062 5.907-.055 5.922-.351 10.543-3 13.509-8.177a18.336 18.336 0 0 0 1.7-13.573 15.919 15.919 0 0 0 -13.851-12.354c-2.5-.256-5.046-.128-7.571-.173-.029 0-.059.034-.1.062z"/><path d="m273.6 31.982a20.267 20.267 0 0 1 -2.241 9.567 16.776 16.776 0 0 1 -9.779 8.334 22.449 22.449 0 0 1 -14.434.095 16.7 16.7 0 0 1 -11.08-10.848 21.5 21.5 0 0 1 .509-15.825 16.785 16.785 0 0 1 10.025-9.511 21.283 21.283 0 0 1 14.9-.121c6.3 2.243 10.107 6.788 11.559 13.28.367 1.638.462 3.337.682 5.008zm-10.063-.447a15.1 15.1 0 0 0 -.73-5.265 8.937 8.937 0 0 0 -17.244.386 17.606 17.606 0 0 0 .583 11.431 7.878 7.878 0 0 0 7.368 5.485c3.866.23 7-1.3 8.674-5.121a18.275 18.275 0 0 0 1.353-6.916z"/><path d="m134.857 34.742h-25.537c.154.808.239 1.581.451 2.318 1.134 3.941 3.861 6.108 7.813 6.763a19.314 19.314 0 0 0 10.943-1.723c1.211-.521 2.381-1.134 3.614-1.727.013.144.034.273.034.4 0 2.3-.007 4.6.011 6.906a.653.653 0 0 1 -.421.676 23.775 23.775 0 0 1 -8.88 2.55 27.838 27.838 0 0 1 -9.913-.616c-6.609-1.767-10.718-6.011-12.182-12.683a24.509 24.509 0 0 1 1.467-15.85 15.131 15.131 0 0 1 13.187-9.222 21.116 21.116 0 0 1 9.022 1 13.92 13.92 0 0 1 8.655 8.9 32.149 32.149 0 0 1 1.733 10.1c.024.717.003 1.428.003 2.208zm-9.2-6.627c-.037-2.963-1.24-6.3-3.805-7.634a8.273 8.273 0 0 0 -8.916.494c-2.461 1.669-3.267 4.282-3.564 7.14z"/><path d="m149.889 13.322v.661c0 6.907 0 13.813.021 20.72a16.269 16.269 0 0 0 .588 4.652 5.5 5.5 0 0 0 6.277 4.227c3.343-.286 5.381-2.209 6.608-5.166a18.605 18.605 0 0 0 1.261-7.212q.009-8.607 0-17.214v-.665h9.6v36.884h-9.078v-4.949l-.2-.149a2.4 2.4 0 0 1 -.244.429 15.325 15.325 0 0 1 -9.649 5.365 14.112 14.112 0 0 1 -8.222-1.087 10.99 10.99 0 0 1 -5.737-7.042 18.154 18.154 0 0 1 -.841-5.456c-.019-7.849-.008-15.7-.008-23.546v-.452z"/><path d="m179.966 49.471c.193-2.639.382-5.222.57-7.806 1.236.479 2.4.988 3.6 1.383a16.753 16.753 0 0 0 7.1.894 7.1 7.1 0 0 0 3.464-1.21 3.71 3.71 0 0 0 -.139-6.306 21.592 21.592 0 0 0 -3.792-1.572c-1.815-.657-3.7-1.138-5.473-1.888-3.878-1.639-5.665-4.694-5.689-8.859a10.432 10.432 0 0 1 2.054-6.662 12.6 12.6 0 0 1 7.132-4.364 23.951 23.951 0 0 1 8.775-.473c2.349.261 4.677.711 7.057 1.085-.223 2.512-.435 4.9-.653 7.36-.439-.138-.845-.262-1.249-.393a21.1 21.1 0 0 0 -8.6-1.085 5.39 5.39 0 0 0 -3.489 1.475 3.038 3.038 0 0 0 .624 4.962 33.821 33.821 0 0 0 4.065 1.61c1.79.673 3.645 1.2 5.37 2.011 3.857 1.81 5.68 4.964 5.712 9.2a10.689 10.689 0 0 1 -3 7.945 13.91 13.91 0 0 1 -6.533 3.553 23.777 23.777 0 0 1 -9.13.57c-2.465-.307-4.9-.854-7.349-1.3a4.076 4.076 0 0 1 -.427-.13z"/><path d="m224.6 13.29h8.533v7.01h-8.49c-.013.155-.029.254-.029.354 0 5.824-.008 11.648.032 17.472a9.39 9.39 0 0 0 .416 2.566 3.791 3.791 0 0 0 3.938 2.893 12.231 12.231 0 0 0 2.285-.2 22.129 22.129 0 0 0 2.242-.671c.095 2.459.191 4.955.292 7.561-.889.175-1.778.4-2.681.52a22.955 22.955 0 0 1 -7.494-.024 10.125 10.125 0 0 1 -8.444-8.971 24.011 24.011 0 0 1 -.2-3.02c-.018-5.928-.009-11.857-.009-17.786v-.662h-7.073v-7.024h7.056v-7.424l9.633-3.09z"/><path d="m186.537 81.733v-14.789c.037-.029.064-.069.09-.068a51.5 51.5 0 0 1 5.676.217 5.877 5.877 0 0 1 5.2 5.459 10.685 10.685 0 0 1 -.13 4 6.377 6.377 0 0 1 -5.221 4.876 26.137 26.137 0 0 1 -5.615.305zm1.475-13.679v12.395a13.742 13.742 0 0 0 3.954-.316 5.025 5.025 0 0 0 3.919-3.779 8.719 8.719 0 0 0 .055-4.088 4.678 4.678 0 0 0 -4.029-3.912c-1.26-.211-2.556-.204-3.899-.3z"/><path d="m51.746 103.114v-15.014a33.025 33.025 0 0 1 6.056.258 6.074 6.074 0 0 1 4.913 5.533 11.055 11.055 0 0 1 -.152 3.944 6.129 6.129 0 0 1 -5.2 4.8 55.452 55.452 0 0 1 -5.617.479zm1.454-1.414a12.586 12.586 0 0 0 4.534-.493 4.959 4.959 0 0 0 3.415-3.878 9.038 9.038 0 0 0 .063-3.476 4.866 4.866 0 0 0 -2.412-3.666c-1.764-.982-3.685-.8-5.6-.785z"/><path d="m147.933 72.476v-6.616h1.293v15.84h-1.3v-1.582a10.72 10.72 0 0 1 -1.085 1.127 4.19 4.19 0 0 1 -5.947-1.328 7.43 7.43 0 0 1 -.791-4.662 7.993 7.993 0 0 1 .6-2.36 4.079 4.079 0 0 1 6.957-.628c.056.08.107.164.161.246zm-.011 3.894a5.84 5.84 0 0 0 -.949-3.421 2.807 2.807 0 0 0 -4.738.25 6.506 6.506 0 0 0 0 6.182 2.78 2.78 0 0 0 4.462.559 5.169 5.169 0 0 0 1.225-3.57z"/><path d="m126.375 72.633v-6.784h1.3v15.843h-1.289v-1.529c-.093.015-.14.009-.15.025a3.653 3.653 0 0 1 -3.808 1.734 3.854 3.854 0 0 1 -3.358-2.547 8.36 8.36 0 0 1 -.026-6.274 3.692 3.692 0 0 1 3.351-2.448 3.77 3.77 0 0 1 3.776 1.73c.029.042.066.079.204.25zm-.015 3.66a6.033 6.033 0 0 0 -.781-3.1 2.75 2.75 0 0 0 -2.629-1.393 2.628 2.628 0 0 0 -2.418 1.641 7.021 7.021 0 0 0 -.026 5.639 2.643 2.643 0 0 0 2.486 1.7 2.746 2.746 0 0 0 2.659-1.52 5.976 5.976 0 0 0 .709-2.967z"/><path d="m165.727 72.632v-6.783h1.3v15.844h-1.287v-1.531c-.093.016-.14.01-.15.027a3.655 3.655 0 0 1 -3.809 1.733 3.853 3.853 0 0 1 -3.358-2.548 8.362 8.362 0 0 1 -.023-6.274 3.692 3.692 0 0 1 3.352-2.448 3.77 3.77 0 0 1 3.776 1.73c.025.043.061.08.199.25zm-.019 3.556a5.681 5.681 0 0 0 -.8-3.03 2.718 2.718 0 0 0 -2.593-1.359 2.628 2.628 0 0 0 -2.424 1.632 7.013 7.013 0 0 0 -.035 5.639 2.652 2.652 0 0 0 2.531 1.712 2.755 2.755 0 0 0 2.639-1.558 6.093 6.093 0 0 0 .682-3.036z"/><path d="m170.5 101.38v1.555h-1.311v-15.835h1.273v6.76c.153-.186.225-.262.284-.346a3.806 3.806 0 0 1 3.686-1.619 3.651 3.651 0 0 1 3.278 2.242 8.179 8.179 0 0 1 -.007 6.654 4.152 4.152 0 0 1 -6.136 1.7 10.229 10.229 0 0 1 -1.067-1.111zm6.4-3.867.146-.039a24.473 24.473 0 0 0 -.743-2.794 2.558 2.558 0 0 0 -2.459-1.638 2.612 2.612 0 0 0 -2.594 1.429 6.245 6.245 0 0 0 .059 6.19 2.6 2.6 0 0 0 2.528 1.367 2.723 2.723 0 0 0 2.459-1.578 6.573 6.573 0 0 0 .597-2.937z"/><path d="m61.034 66.9h1.428c.013.131.036.264.036.4 0 3.173.021 6.346-.007 9.519a4.9 4.9 0 0 1 -1.674 3.907c-2.4 2.022-6.67 1.5-8.282-.994a5.112 5.112 0 0 1 -.8-2.775c-.026-3.26-.01-6.52-.009-9.78 0-.083.011-.166.019-.272h1.445v.55c0 2.911-.007 5.822.006 8.734a7.575 7.575 0 0 0 .139 1.557 3.9 3.9 0 0 0 7.6-.224 8.735 8.735 0 0 0 .1-1.352c.009-2.894 0-5.788 0-8.682z"/><path d="m140.052 88.135h1.465v.573c0 2.912-.008 5.823.007 8.735a7.2 7.2 0 0 0 .156 1.606 3.9 3.9 0 0 0 7.662-.981c.05-3.085.02-6.171.024-9.256v-.659h1.439c.009.135.025.269.025.4 0 3.155.018 6.311-.006 9.466a4.921 4.921 0 0 1 -1.69 3.952c-2.263 1.893-6.334 1.543-8.04-.676a5.44 5.44 0 0 1 -1.029-2.913c-.021-.225-.013-.453-.013-.679-.001-3.169 0-6.34 0-9.568z"/><path d="m245.641 76.5a17.319 17.319 0 0 1 -.625 2.523 4.441 4.441 0 0 1 -4.353 2.916 4.554 4.554 0 0 1 -4.721-2.847 6.956 6.956 0 0 1 .011-5.639 5 5 0 0 1 9.372.967c.142.606.19 1.234.316 2.08zm-8.781-.219a5.532 5.532 0 0 0 .8 2.988 3.32 3.32 0 0 0 5.588.026 5.471 5.471 0 0 0 .038-5.954 3.32 3.32 0 0 0 -5.673.041 5.553 5.553 0 0 0 -.753 2.899z"/><path d="m121.363 97.529a6.8 6.8 0 0 1 1.324-4.011c1.782-2.3 6.8-2.459 8.31 1.139a6.944 6.944 0 0 1 -.228 6.2 4.742 4.742 0 0 1 -4.99 2.3 4.649 4.649 0 0 1 -4.138-3.779c-.141-.604-.188-1.231-.278-1.849zm8.746.026.142-.04a18.687 18.687 0 0 0 -.743-2.58 3.079 3.079 0 0 0 -3-1.893 3.123 3.123 0 0 0 -3 1.829 5.786 5.786 0 0 0 .028 5.383 3.121 3.121 0 0 0 2.979 1.774 3.214 3.214 0 0 0 2.967-1.8 5.673 5.673 0 0 0 .627-2.673z"/><path d="m121.4 102.976c-.654 0-1.158.026-1.657-.014a.909.909 0 0 1 -.51-.292q-2.236-2.311-4.45-4.642c-.163-.171-.3-.362-.456-.544l-.145.086v5.377h-1.315v-15.836h1.3v9.362c.191-.145.314-.224.42-.321 1.31-1.2 2.628-2.395 3.921-3.616a1.346 1.346 0 0 1 1.153-.45 10.657 10.657 0 0 0 1.105.007l-5.29 4.813z"/><path d="m208.5 76.71h-7.386c-.188 2.811 1.929 4.553 4.73 3.927.6-.135 1.192-.354 1.855-.555a10.572 10.572 0 0 1 -.013 1.069.466.466 0 0 1 -.276.305 7.945 7.945 0 0 1 -4.419.311 3.873 3.873 0 0 1 -2.936-2.636 7.676 7.676 0 0 1 .31-6.139 4.278 4.278 0 0 1 6.57-1.391 5.391 5.391 0 0 1 1.562 3.921c.022.378.003.757.003 1.188zm-7.406-1.191h5.918c.059-2.193-1.048-3.706-2.7-3.728a3.5 3.5 0 0 0 -3.221 3.728z"/><path d="m248.068 101.378c-.009-.019 0 0 0 .013.035 1.479.25 1.25-1.11 1.535a10.23 10.23 0 0 1 -3.054.162 3.942 3.942 0 0 1 -3.616-3.2 7.685 7.685 0 0 1 .49-5.7 4.285 4.285 0 0 1 6.556-1.334 5.392 5.392 0 0 1 1.552 3.878c.027.38 0 .764 0 1.2h-7.359a3.541 3.541 0 0 0 4.064 4.05c.827-.123 1.622-.389 2.477-.604zm-.674-4.6c.119-2.191-1.064-3.766-2.775-3.74a3.488 3.488 0 0 0 -3.1 3.74z"/><path d="m73.7 97.951h-7.358a3.533 3.533 0 0 0 4.1 4.029c.815-.132 1.608-.4 2.459-.612a7.9 7.9 0 0 1 -.014.992.511.511 0 0 1 -.3.345 7.935 7.935 0 0 1 -4.318.331 3.9 3.9 0 0 1 -3.042-2.726 7.562 7.562 0 0 1 .473-6.31 4.267 4.267 0 0 1 6.446-1.141 5.422 5.422 0 0 1 1.547 3.876c.027.377.007.765.007 1.216zm-1.51-1.175c.156-2.115-1.026-3.731-2.71-3.739a3.483 3.483 0 0 0 -3.17 3.739z"/><path d="m188.1 101.376c0-.01.008.006.009.022.036 1.471.252 1.245-1.117 1.529a10.524 10.524 0 0 1 -3.1.15 3.837 3.837 0 0 1 -3.47-2.9 7.657 7.657 0 0 1 .405-5.994 4.276 4.276 0 0 1 6.514-1.361 5.355 5.355 0 0 1 1.59 3.911c.028.38 0 .764 0 1.219h-7.365a3.546 3.546 0 0 0 4.126 4.024c.795-.118 1.572-.388 2.408-.6zm-.674-4.6c.146-2.124-1.035-3.736-2.713-3.739a3.482 3.482 0 0 0 -3.166 3.739z"/><path d="m177.212 80.129c0-.005.012.011.012.027.017 1.458.267 1.237-1.125 1.526a10.2 10.2 0 0 1 -3.054.158 3.942 3.942 0 0 1 -3.61-3.212 7.669 7.669 0 0 1 .476-5.649 4.283 4.283 0 0 1 6.583-1.366 5.4 5.4 0 0 1 1.543 3.883c.027.379 0 .762 0 1.2h-7.369a3.551 3.551 0 0 0 4.137 4.033c.803-.129 1.581-.39 2.407-.6zm-.672-4.6c.127-2.178-1.066-3.768-2.774-3.74a3.49 3.49 0 0 0 -3.1 3.74z"/><path d="m97.283 80.122a7.893 7.893 0 0 1 -.014.992.512.512 0 0 1 -.294.346 7.922 7.922 0 0 1 -4.373.315 3.86 3.86 0 0 1 -2.935-2.575 7.648 7.648 0 0 1 .273-6.193 4.274 4.274 0 0 1 6.609-1.381 5.423 5.423 0 0 1 1.53 3.888c.025.378 0 .759 0 1.179h-7.338a3.523 3.523 0 0 0 4.079 4.04c.815-.127 1.609-.394 2.463-.611zm-.662-4.579c-.082-1.383-.259-2.686-1.555-3.434a2.488 2.488 0 0 0 -2.893.26 3.9 3.9 0 0 0 -1.507 3.174z"/><path d="m257.119 96.384c-.05-.576-.051-1.083-.144-1.574a1.953 1.953 0 0 0 -2.011-1.759 5.777 5.777 0 0 0 -3.038.608c-.149.075-.3.144-.471.223a.837.837 0 0 1 -.042-.181c.039-1.291-.306-1.033 1.073-1.473a6.772 6.772 0 0 1 3.252-.263 2.856 2.856 0 0 1 2.569 2.562 8.191 8.191 0 0 1 .109 1.3c.01 2.367 0 4.733 0 7.126h-1.216v-1.389c-.3.248-.631.548-.99.806a4.373 4.373 0 0 1 -4.224.528 2.634 2.634 0 0 1 -1.822-2.4 3.122 3.122 0 0 1 1.506-3.216 8.573 8.573 0 0 1 4.143-.9c.402-.014.801.002 1.306.002zm.075 1.245-.2-.2c-1.165.15-2.336.266-3.491.469a2.745 2.745 0 0 0 -1.108.554 2.035 2.035 0 0 0 0 3.206 3.077 3.077 0 0 0 4.345-1.388 16.543 16.543 0 0 0 .454-2.641z"/><path d="m231.82 102.961h-1.293v-1.561c-.1.048-.151.056-.17.085a4.27 4.27 0 0 1 -5.042 1.422 2.683 2.683 0 0 1 -1.838-2.445 3.114 3.114 0 0 1 1.541-3.2 8.664 8.664 0 0 1 4.147-.878c.382-.016.764 0 1.138 0a2.411 2.411 0 0 0 -2.481-3.338 7.171 7.171 0 0 0 -1.6.234 12.532 12.532 0 0 0 -1.442.567c-.019-.027-.051-.052-.052-.078-.058-1.245-.058-1.246 1.149-1.573a7.244 7.244 0 0 1 3.153-.234 2.847 2.847 0 0 1 2.574 2.5 7.523 7.523 0 0 1 .119 1.3c.017 1.988.011 3.976.022 5.964.006.393.048.791.075 1.235zm-1.314-5.331-.2-.2c-1.165.15-2.335.267-3.491.469a2.766 2.766 0 0 0 -1.109.553 2.037 2.037 0 0 0 0 3.206 3.078 3.078 0 0 0 4.347-1.384 16.336 16.336 0 0 0 .453-2.644z"/><path d="m137.942 81.715h-1.314v-1.66a4.194 4.194 0 0 1 -4.487 1.8 2.841 2.841 0 0 1 -2.516-2.373 3.253 3.253 0 0 1 1.51-3.461 8.738 8.738 0 0 1 4.149-.878c.4-.017.792 0 1.3 0a16.634 16.634 0 0 0 -.258-1.909 1.883 1.883 0 0 0 -1.906-1.423 5.78 5.78 0 0 0 -2.993.576l-.5.245c-.037-.052-.071-.077-.071-.1.018-1.381-.326-1.119 1.151-1.557a8.11 8.11 0 0 1 2.159-.316c2.451-.037 3.668 1.187 3.686 3.649.016 2.058.008 4.116.019 6.174.002.392.044.791.071 1.233zm-1.437-5.394c-.575 0-1.08-.028-1.581.007a7.766 7.766 0 0 0 -1.6.219 4.841 4.841 0 0 0 -1.505.676 2.023 2.023 0 0 0 -.026 3.169 3.172 3.172 0 0 0 4.371-1.276 6.607 6.607 0 0 0 .341-2.795z"/><path d="m65.532 70.868h1.216v1.67l.1.037c.151-.216.3-.435.455-.646a3.724 3.724 0 0 1 6.697 2.385c.031 2.4.01 4.81.008 7.214a1.018 1.018 0 0 1 -.036.174h-1.295c0-.2 0-.388 0-.574q-.012-3.215-.028-6.429a3.509 3.509 0 0 0 -.064-.622c-.263-1.392-.885-2.077-2.035-2.259a2.952 2.952 0 0 0 -3.126 1.518 5.511 5.511 0 0 0 -.555 2.682q0 2.535 0 5.071v.6h-1.337z"/><path d="m82.933 92.119h1.331v10.819h-1.216v-1.691c-.1.039-.139.042-.152.062a3.981 3.981 0 0 1 -5 1.614 3.182 3.182 0 0 1 -1.996-2.613 6.928 6.928 0 0 1 -.108-1.246c-.01-2.3-.005-4.6-.005-6.934h1.334v.541q.012 3.241.029 6.483a3.222 3.222 0 0 0 .058.57c.267 1.421.9 2.115 2.069 2.284a2.952 2.952 0 0 0 3.133-1.594 5.585 5.585 0 0 0 .518-2.639q0-2.535 0-5.071z"/><path d="m108.68 92.119h1.348v10.817h-1.234v-1.69c-.1.041-.14.044-.153.065a4.011 4.011 0 0 1 -5.1 1.572 3.176 3.176 0 0 1 -1.884-2.523 6.869 6.869 0 0 1 -.117-1.3c-.009-2.266 0-4.532 0-6.8a.808.808 0 0 1 .03-.136h1.3v.542c.009 2.161.015 4.322.03 6.483a4.123 4.123 0 0 0 .08.671 2.327 2.327 0 0 0 1.892 2.152 2.976 2.976 0 0 0 3.073-1.2 5.078 5.078 0 0 0 .732-2.944q0-2.562 0-5.124z"/><path d="m218.963 81.711h-1.211v-1.67l-.1-.036c-.141.2-.279.406-.424.6a4.031 4.031 0 0 1 -5.948.1 3.98 3.98 0 0 1 -.781-2.4c-.032-2.458-.011-4.917-.011-7.417h1.332v.684q.012 3.165.027 6.33a3.319 3.319 0 0 0 .057.571c.26 1.411.9 2.118 2.069 2.29a2.961 2.961 0 0 0 3.112-1.549 5.568 5.568 0 0 0 .541-2.687c0-1.865 0-3.729 0-5.638h1.335z"/><path d="m155.2 102.958h-1.343v-10.838h1.232v1.736c.1-.073.15-.09.171-.124a4.046 4.046 0 0 1 5.25-1.467 3.388 3.388 0 0 1 1.806 3.2c.064 2.456.018 4.914.015 7.371 0 .031-.025.061-.049.113h-1.276c0-.214 0-.4 0-.588q-.012-3.215-.028-6.43a4.246 4.246 0 0 0 -.078-.672 2.29 2.29 0 0 0 -1.88-2.157 2.872 2.872 0 0 0 -3.047 1.137 4.88 4.88 0 0 0 -.772 2.983q0 2.562 0 5.124z"/><path d="m79.673 70.859h1.47l2.989 9.383c.108-.276.179-.435.234-.6.916-2.741 1.838-5.48 2.735-8.227.139-.425.311-.658.793-.575a5.291 5.291 0 0 0 .806.007c-.1.318-.175.593-.269.861-1.112 3.192-2.231 6.372-3.331 9.565a.582.582 0 0 1 -.669.467c-1.09-.02-1.092 0-1.441-1.036l-3.144-9.3c-.056-.163-.105-.328-.173-.545z"/><path d="m112.461 72.278a6.147 6.147 0 0 0 -3.359-.388 1.568 1.568 0 0 0 -1.364 1.323 1.4 1.4 0 0 0 .873 1.564c.8.425 1.631.786 2.432 1.2a3.476 3.476 0 0 1 1.871 1.947 2.831 2.831 0 0 1 -1.656 3.613 6.825 6.825 0 0 1 -4.755-.014.472.472 0 0 1 -.244-.366 6.705 6.705 0 0 1 .088-.9 18.783 18.783 0 0 0 2.719.483 3.362 3.362 0 0 0 1.762-.49 1.573 1.573 0 0 0 .224-2.553 10.435 10.435 0 0 0 -1.756-1.1c-.6-.348-1.26-.61-1.823-1.009a2.621 2.621 0 0 1 .384-4.521 5.959 5.959 0 0 1 4.483-.029.383.383 0 0 1 .207.289 9.219 9.219 0 0 1 -.086.951z"/><path d="m210.738 93.526a6.122 6.122 0 0 0 -3.421-.381 1.547 1.547 0 0 0 -1.3 1.27 1.2 1.2 0 0 0 .49 1.338c.524.338 1.095.6 1.64.909a14.882 14.882 0 0 1 2.112 1.227 2.841 2.841 0 0 1 -.74 4.9 6.831 6.831 0 0 1 -4.755-.018.479.479 0 0 1 -.236-.372 6.99 6.99 0 0 1 .089-.887 19.982 19.982 0 0 0 2.725.484 3.33 3.33 0 0 0 1.721-.463 1.585 1.585 0 0 0 .253-2.586 9.959 9.959 0 0 0 -1.708-1.082c-.616-.356-1.295-.62-1.87-1.031a2.615 2.615 0 0 1 .4-4.518 5.947 5.947 0 0 1 4.484-.023.384.384 0 0 1 .2.3 9.192 9.192 0 0 1 -.084.933z"/><path d="m92.265 93.528a6.164 6.164 0 0 0 -3.384-.391 1.563 1.563 0 0 0 -1.335 1.292 1.344 1.344 0 0 0 .841 1.576c.79.438 1.627.792 2.429 1.21a3.442 3.442 0 0 1 1.919 2.031 2.953 2.953 0 0 1 -2.489 3.815 7.841 7.841 0 0 1 -3.871-.244c-.271-.08-.371-.213-.328-.486.046-.291.074-.585.111-.879a14.323 14.323 0 0 0 2.057.5 4.656 4.656 0 0 0 1.894-.159 1.7 1.7 0 0 0 .5-3.077 12.982 12.982 0 0 0 -1.723-.972 15.249 15.249 0 0 1 -1.635-.919 2.622 2.622 0 0 1 .38-4.5 5.948 5.948 0 0 1 4.532-.034.331.331 0 0 1 .182.255c0 .314-.045.619-.08.982z"/><path d="m220.952 80.27a18.787 18.787 0 0 0 2.743.48 3.386 3.386 0 0 0 1.759-.5 1.574 1.574 0 0 0 .217-2.522 10.173 10.173 0 0 0 -1.752-1.11c-.482-.276-1.009-.477-1.484-.764a2.514 2.514 0 0 1 -1.4-2.874 2.718 2.718 0 0 1 2.283-2.219 6.932 6.932 0 0 1 3.553.265.532.532 0 0 1 .269.394 4.019 4.019 0 0 1 -.07.767c-.8-.136-1.548-.307-2.3-.372a4.15 4.15 0 0 0 -1.337.162 1.442 1.442 0 0 0 -1.091 1.268 1.278 1.278 0 0 0 .682 1.407c.571.33 1.183.589 1.76.908a11.992 11.992 0 0 1 1.829 1.1 2.848 2.848 0 0 1 -.631 4.839 6.707 6.707 0 0 1 -4.9.027c-.106-.033-.16-.25-.225-.388-.02-.041 0-.1.009-.154.027-.266.061-.524.086-.714z"/><path d="m203.191 101.817c.229 1.109.206 1.16-.845 1.318a4.831 4.831 0 0 1 -1.146.035 1.945 1.945 0 0 1 -1.9-1.874 8.862 8.862 0 0 1 -.087-1.2c-.008-2.074 0-4.148 0-6.221v-.615h-2.091v-1.152h2.091c0-.718.036-1.392-.012-2.059a.649.649 0 0 1 .587-.794c.233-.051.457-.144.744-.237v3.056h2.463v1.164h-2.447v6.623c0 .157 0 .314.006.47.057 1.385.792 1.935 2.15 1.609.146-.04.296-.075.487-.123z"/><path d="m233.1 93.259v-1.159h2.109c0-.719.027-1.392-.009-2.062-.024-.435.1-.688.542-.774a7.627 7.627 0 0 0 .793-.247v3.059h2.465v1.165h-2.449v6.624.418c.048 1.423.783 1.984 2.16 1.652.15-.036.3-.075.513-.13a6.089 6.089 0 0 1 .06.889.413.413 0 0 1 -.279.288 13.324 13.324 0 0 1 -2.317.062 1.509 1.509 0 0 1 -1.262-1.251 7.312 7.312 0 0 1 -.2-1.6c-.022-2.108-.009-4.217-.009-6.326v-.612z"/><path d="m230.711 72h-2.093v-1.14h2.093c0-.718.027-1.391-.009-2.061-.023-.432.09-.689.54-.775a7.021 7.021 0 0 0 .805-.258v3.064h2.453v1.164h-2.449v1.551q0 2.484 0 4.967v.523c.044 1.424.773 1.984 2.155 1.658.149-.035.3-.073.518-.127a6.051 6.051 0 0 1 .058.88.451.451 0 0 1 -.277.3 4.059 4.059 0 0 1 -2.368.067 1.658 1.658 0 0 1 -1.211-1.256 7.443 7.443 0 0 1 -.2-1.6c-.022-2.091-.009-4.183-.009-6.274z"/><path d="m222.276 101.812a6.065 6.065 0 0 1 .049.9.424.424 0 0 1 -.295.277 9.085 9.085 0 0 1 -1.91.146 1.852 1.852 0 0 1 -1.77-1.814 8.391 8.391 0 0 1 -.089-1.2c-.009-2.091 0-4.182 0-6.274v-.606h-2.1v-1.14h2.1c0-.756.02-1.449-.008-2.139-.015-.369.078-.589.463-.671a8.9 8.9 0 0 0 .888-.287v3.085h2.449v1.125h-2.431c-.01.217-.025.385-.025.552q0 3.109 0 6.221v.314c.05 1.395.774 1.953 2.127 1.638.163-.033.329-.073.552-.127z"/><path d="m95.911 93.243h-2.094v-1.143h2.094c0-.718.026-1.391-.01-2.061-.022-.432.091-.689.541-.775a6.881 6.881 0 0 0 .793-.256v3.064h2.465v1.168h-2.454v6.622c0 .156 0 .313.006.47.055 1.381.794 1.933 2.151 1.608.15-.036.3-.077.518-.134a6.171 6.171 0 0 1 .059.885.413.413 0 0 1 -.275.292 13.629 13.629 0 0 1 -2.317.065 1.5 1.5 0 0 1 -1.264-1.249 7.2 7.2 0 0 1 -.2-1.6c-.023-2.109-.009-4.218-.009-6.326z"/><path d="m100.157 81.692v-10.816h1.243v1.838a16.46 16.46 0 0 1 1.541-1.669 2.347 2.347 0 0 1 2.225-.286v1.373a7.905 7.905 0 0 0 -.964-.089 2.315 2.315 0 0 0 -2.13 1.436 7.224 7.224 0 0 0 -.562 3.214v5z"/><path d="m196.02 93.377a8.336 8.336 0 0 0 -1-.085 2.313 2.313 0 0 0 -2.117 1.455 7.1 7.1 0 0 0 -.55 3.111v4.5.592h-1.344v-10.813h1.253v1.892c.836-1.481 1.863-2.518 3.755-2.024z"/><path d="m165.1 92.111h1.267v10.833h-1.267z"/><path d="m213.242 92.109h1.264v10.833h-1.264z"/><path d="m78.029 81.714h-1.26v-10.831h1.26z"/><path d="m116.233 81.713h-1.267v-10.834h1.267z"/><path d="m165.089 89.239v-1.725h1.278v1.725z"/><path d="m214.514 87.528v1.7h-1.264v-1.7z"/><path d="m116.237 68h-1.277v-1.716h1.277z"/><path d="m76.771 66.259h1.255v1.725h-1.255z"/><g fill="#0060aa"><path d="m15.18 24.814-.347.4c-.079-.142-.225-.288-.218-.425a1.511 1.511 0 0 1 .23-.5z"/><path d="m10.373 24.756-.363.46c-.077-.141-.217-.284-.214-.424a1.524 1.524 0 0 1 .2-.5z"/><path d="m10.377 22.775-.361.349c-.079-.121-.225-.245-.22-.362.007-.147.137-.289.214-.434z"/><path d="m15.194 22.734-.34.386c-.085-.114-.241-.232-.237-.343a1.3 1.3 0 0 1 .208-.452z"/><path d="m11.913 24.781-.261.423c-.082-.159-.222-.315-.228-.477 0-.139.143-.284.224-.427z"/><path d="m12.915 24.783.3-.481c.071.147.2.293.2.44a1.322 1.322 0 0 1 -.187.46z"/><path d="m11.306 22.745.321-.412a1.25 1.25 0 0 1 .187.412c.007.117-.108.241-.169.361z"/><path d="m13.506 22.742-.3.368c-.065-.117-.194-.243-.18-.35a1.378 1.378 0 0 1 .226-.429z"/><path d="m15.154 20.744-.321.291c-.078-.1-.23-.22-.215-.309.022-.135.16-.252.249-.376z"/><path d="m10.094 21.076c-.1-.118-.275-.226-.294-.356-.016-.106.15-.239.235-.36l.275.561z"/><path d="m12.921 20.7.31-.346a1.061 1.061 0 0 1 .171.37c0 .1-.117.2-.183.3z"/><path d="m11.726 20.338c.02.2.046.4.049.6a1.756 1.756 0 0 1 -.269.044l-.042-.625z"/><path d="m29.417 24.764-.366.452c-.073-.147-.211-.3-.2-.44a1.42 1.42 0 0 1 .235-.481z"/><path d="m29.426 22.78-.364.343c-.076-.141-.21-.28-.211-.421 0-.125.145-.252.226-.378z"/><path d="m26.166 24.805-.331.4a1.347 1.347 0 0 1 -.178-.474c0-.146.141-.289.219-.433z"/><path d="m30.977 24.787-.315.414c-.068-.136-.2-.276-.189-.405a1.654 1.654 0 0 1 .218-.5z"/><path d="m27.605 24.316a1.235 1.235 0 0 1 .042.367 4.012 4.012 0 0 1 -.182.52c-.073-.091-.216-.193-.2-.27.035-.225-.2-.633.34-.617z"/><path d="m26.166 22.725-.31.4c-.072-.107-.208-.217-.2-.318a1.651 1.651 0 0 1 .181-.477z"/><path d="m27.766 22.728-.333.385c-.062-.12-.179-.242-.173-.359a1.26 1.26 0 0 1 .18-.419z"/><path d="m30.375 22.768.285-.434c.072.13.2.258.2.388s-.124.258-.194.387z"/><path d="m29.414 20.733-.352.3c-.076-.105-.216-.211-.212-.313 0-.125.128-.246.2-.368z"/><path d="m26 20.348c0 .211.006.423-.013.633a1.749 1.749 0 0 1 -.282.018v-.65z"/><path d="m30.805 20.353c0 .209 0 .419-.01.628a1.144 1.144 0 0 1 -.226.009c-.027-.208-.038-.418-.052-.627z"/><path d="m27.152 20.7.307-.355a1.062 1.062 0 0 1 .179.366c0 .1-.115.2-.179.3z"/><path d="m22.674 25.183h-.9a4.69 4.69 0 0 1 .226-.808c.029-.064.38-.079.4-.03a5.788 5.788 0 0 1 .274.838z"/><path d="m20.712 25.172c-.389.058-.729.153-.72-.359 0-.269.03-.589.4-.519.535.106.26.535.32.878z"/><path d="m17.928 24.772c.276-.243.411-.464.561-.475.367-.026.35.287.359.552s-.092.432-.353.356c-.168-.049-.301-.222-.567-.433z"/><path d="m23.038 22.762-.36.361c-.079-.119-.228-.243-.221-.357a1.3 1.3 0 0 1 .222-.441z"/><path d="m21.454 22.748-.323.376c-.082-.1-.246-.214-.23-.294a1.985 1.985 0 0 1 .246-.5z"/><path d="m22.822 20.334.023.652h-.342l.038-.656z"/><path d="m18.324 22.763-.292.347c-.076-.129-.213-.259-.212-.386s.14-.26.218-.39z"/><path d="m19.89 22.707-.31.4c-.073-.114-.2-.229-.2-.342a1.283 1.283 0 0 1 .174-.433z"/><path d="m20.79 21.1.271-.78.19.005a1.939 1.939 0 0 1 .062.574c-.013.066-.249.101-.523.201z"/><path d="m17.617 20.928.39-.576c.074.113.2.223.207.339a.394.394 0 0 1 -.2.308c-.114.038-.262-.042-.397-.071z"/><path d="m19.716 20.347v.625a2.131 2.131 0 0 1 -.267-.01c-.016-.2-.012-.412-.012-.619z"/><path d="m6.091 25.2c-.335-.033-.7.221-.715-.311-.007-.273-.039-.64.369-.593.555.061.241.529.346.904z"/><path d="m6.078 22.72-.358.405c-.078-.119-.225-.244-.217-.357a1.292 1.292 0 0 1 .225-.441z"/><path d="m7.41 23.026c-.469.177-.605.034-.551-.276a1.523 1.523 0 0 1 .23-.422z"/><path d="m7.121 25.034a1.242 1.242 0 0 1 -.254-.4c-.018-.1.123-.222.192-.334l.34.554z"/><path d="m7.19 20.329.1.627-.376.023v-.627z"/><path d="m4.691 22.72-.256.391c-.078-.124-.216-.247-.219-.372s.122-.272.191-.408z"/><path d="m5.892 20.364v.616l-.374-.022.088-.624z"/><path d="m4.707 24.755-.335.211a1.282 1.282 0 0 1 -.152-.41c0-.084.14-.17.217-.255z"/><path d="m4.692 20.693-.262.327c-.075-.11-.2-.215-.212-.331s.107-.221.168-.332z"/><path d="m35.453 25.181h-.906a4.89 4.89 0 0 1 .189-.8c.025-.061.374-.087.4-.036a6 6 0 0 1 .317.836z"/><path d="m35.919 22.768.363-.446c.078.128.221.257.217.382-.005.142-.14.279-.219.419z"/><path d="m35.972 24.852.29-.556c.085.119.25.25.236.355-.02.139-.181.257-.281.384z"/><path d="m35.279 22.746-.328.364c-.064-.121-.182-.244-.177-.363a1.229 1.229 0 0 1 .181-.414z"/><path d="m36.426 20.35a1.9 1.9 0 0 1 .057.549c-.012.068-.228.1-.5.21l.191-.79z"/><path d="m33.948 22.722-.329.386c-.066-.116-.187-.233-.184-.348a1.319 1.319 0 0 1 .17-.425z"/><path d="m34.044 24.854c-.148.04-.3.132-.4.1a.4.4 0 0 1 -.2-.316c0-.114.133-.224.207-.336z"/><path d="m33.216 20.5c.162-.052.323-.16.411-.117a.47.47 0 0 1 .191.356c0 .091-.132.188-.206.283z"/><path d="m35.26 20.748-.3.268c-.067-.115-.181-.229-.185-.348 0-.1.123-.2.191-.3z"/><path d="m20.855 18.279c-.218.158-.352.329-.457.313-.137-.021-.25-.192-.373-.3.1-.117.205-.33.3-.328.149.004.29.162.53.315z"/></g></svg>