<svg viewBox="0 0 285.076 72.989" xmlns="http://www.w3.org/2000/svg"><path d="m158.334 37.638v21.3c0 1.223-.291 1.516-1.5 1.516q-2.737 0-5.476 0c-1.032 0-1.405-.37-1.407-1.428q-.009-4.528 0-9.058v-8.921c0-.158 0-.316 0-.473-.028-2.277-.857-3.124-3.116-3.092-1.011.015-2.019.17-3.03.2-.572.019-.694.263-.69.79.021 3.312.01 6.624.01 9.936q0 5.24 0 10.477c0 1.256-.313 1.565-1.546 1.565q-2.6 0-5.205 0c-1.353 0-1.631-.272-1.631-1.61q0-8.11 0-16.222 0-4.5 0-8.99c0-.978.228-1.344 1.145-1.557a43.054 43.054 0 0 1 12.164-1.4 10.217 10.217 0 0 1 5.344 1.878 1.045 1.045 0 0 0 1.214.079 16.376 16.376 0 0 1 7.9-1.984 20.852 20.852 0 0 1 4.587.675 8.361 8.361 0 0 1 6.222 7.16 15.731 15.731 0 0 1 .211 2.62c.018 5.925.01 11.851.009 17.777 0 1.311-.269 1.577-1.582 1.577q-2.67 0-5.339 0c-1.085 0-1.415-.323-1.416-1.4 0-5.9.008-11.806-.011-17.71a10.409 10.409 0 0 0 -.249-2.137 1.887 1.887 0 0 0 -1.828-1.626c-1.558-.051-3.126.032-4.78.058z"/><path d="m185.442 60.547v.819q0 3.549 0 7.1c0 1.174-.28 1.474-1.434 1.586-1.882.182-3.764.374-5.646.556-.973.094-1.3-.183-1.3-1.14q0-17.946 0-35.892c0-1.043.19-1.321 1.2-1.568a41.4 41.4 0 0 1 13.718-1.308 11.066 11.066 0 0 1 10.394 10.295 39.782 39.782 0 0 1 -.107 10.174 10.77 10.77 0 0 1 -9.918 9.5 55.911 55.911 0 0 1 -6.125-.045c-.224-.008-.444-.045-.782-.077zm.082-22.961a4.086 4.086 0 0 0 -.075.424q0 7.6-.014 15.2c0 .423.181.55.554.572 1.145.069 2.289.2 3.434.215 2.711.033 4.36-1.236 4.554-3.925a65.968 65.968 0 0 0 0-8.758 3.623 3.623 0 0 0 -3.412-3.743c-1.665-.141-3.355 0-5.041.015z"/><path d="m8.4 48.423a6.814 6.814 0 0 0 .8 3.658 3.975 3.975 0 0 0 3.739 1.871c2.61-.031 5.219-.137 7.828-.23.966-.035 1.93-.145 2.9-.177.772-.025 1.025.236 1.03.99q.015 1.892 0 3.784c-.008.851-.218 1.113-1.041 1.327a36.482 36.482 0 0 1 -9.416 1.2 25.788 25.788 0 0 1 -5.294-.376 10.175 10.175 0 0 1 -8.3-8.411 29.058 29.058 0 0 1 .068-12.471 11.433 11.433 0 0 1 10.529-8.913 15.733 15.733 0 0 1 7.051.758 11.043 11.043 0 0 1 7.223 9.116 49.342 49.342 0 0 1 .33 6.728c.021.725-.414 1.041-1.276 1.053q-2.668.036-5.336.047-5.134.027-10.269.046zm9.34-5.3c-.086-2.186-.332-4.266-2.459-5.339a4.5 4.5 0 0 0 -4.974.4c-1.615 1.23-1.9 3.029-1.9 4.935z" fill="#969696"/><path d="m45.6 53.763v-21.174c0-1.225.337-1.561 1.566-1.562h5.34c1.081 0 1.453.381 1.453 1.469q0 12.675 0 25.349c0 1.089-.2 1.366-1.292 1.637a48.089 48.089 0 0 1 -10.217 1.382 24.009 24.009 0 0 1 -6.514-.428 8.708 8.708 0 0 1 -7.1-8.487c-.157-3.553-.108-7.116-.129-10.674-.017-2.862 0-5.724 0-8.585 0-1.3.359-1.663 1.628-1.664 1.78 0 3.561-.005 5.341 0 1.041 0 1.411.382 1.411 1.438 0 5.948-.007 11.9.013 17.845a9.5 9.5 0 0 0 .257 2.068 1.858 1.858 0 0 0 1.55 1.523 31.437 31.437 0 0 0 6.693-.137z" fill="#969696"/><path d="m222.147 53.741v-.891q0-10.14 0-20.278c0-1.189.344-1.542 1.512-1.544q2.67-.006 5.34 0c1.141 0 1.507.366 1.507 1.487q0 12.675 0 25.348c0 1.048-.209 1.409-1.246 1.6-2.234.409-4.474.837-6.73 1.062a63.53 63.53 0 0 1 -7.006.309 10.736 10.736 0 0 1 -7.251-2.5 9.058 9.058 0 0 1 -2.878-6.008 21.165 21.165 0 0 1 -.12-2.494q-.015-8.618 0-17.236c0-1.219.345-1.565 1.565-1.567q2.67 0 5.34 0c1.081 0 1.453.382 1.454 1.467 0 5.9-.008 11.806.011 17.709a10.106 10.106 0 0 0 .249 2.135 1.89 1.89 0 0 0 1.849 1.6c1.548.052 3.1-.015 4.65-.053.553-.014 1.107-.087 1.754-.146z"/><path d="m122.626 42.88a26.674 26.674 0 0 0 -.018-2.837 2.553 2.553 0 0 0 -2.816-2.433c-2.156.006-4.314.178-6.468.32-1.055.069-2.1.26-3.155.341-.912.07-1.193-.212-1.2-1.11-.011-1.284 0-2.568-.005-3.852a1.153 1.153 0 0 1 .927-1.243 35.319 35.319 0 0 1 9.914-1.483 16.519 16.519 0 0 1 5.488.991 8.469 8.469 0 0 1 5.589 7.176 17.061 17.061 0 0 1 .159 2.423q.02 8.314.007 16.629c0 1.379-.137 1.668-1.5 1.846-3.5.459-7.009.865-10.524 1.194a16.787 16.787 0 0 1 -5.97-.395 7.2 7.2 0 0 1 -5.672-6.807 17.778 17.778 0 0 1 .184-4.56c.6-3.031 2.789-4.59 5.607-5.409a24.919 24.919 0 0 1 6.415-.787c.988-.024 1.978-.004 3.038-.004zm.216 4.907c-1.674.081-3.273.063-4.845.261a2.652 2.652 0 0 0 -2.508 2.569 11.352 11.352 0 0 0 -.03 1.816 2 2 0 0 0 2.158 2.168c1.592.051 3.188-.019 4.781-.074a.611.611 0 0 0 .425-.42c.028-2.046.019-4.091.019-6.32z"/><path d="m244.972 30.566a33.348 33.348 0 0 1 7.714 1.112c.92.238 1.2.588 1.207 1.52.008 1.217.01 2.434 0 3.65-.009 1.021-.382 1.286-1.387 1.2-2.8-.233-5.608-.431-8.415-.613a5.039 5.039 0 0 0 -1.471.144 1.274 1.274 0 0 0 -.612 2.24 7.431 7.431 0 0 0 1.435 1c1.987 1.151 3.991 2.272 5.981 3.418a10.7 10.7 0 0 1 4.442 4.129 8.241 8.241 0 0 1 -4.666 11.653 17.757 17.757 0 0 1 -7.669.774c-2.214-.187-4.418-.547-6.612-.913-1.388-.232-1.553-.518-1.553-1.892q0-1.623 0-3.245c0-1.1.363-1.425 1.436-1.321 2.106.205 4.21.435 6.319.594a23.24 23.24 0 0 0 3.306.03c1.34-.092 1.961-.748 1.875-1.895a1.861 1.861 0 0 0 -.452-1.075 6.333 6.333 0 0 0 -1.393-1.049c-2.271-1.332-4.569-2.617-6.837-3.955a8.545 8.545 0 0 1 -4.24-9.664 6.776 6.776 0 0 1 5.081-5.167 19.794 19.794 0 0 1 6.511-.675z"/><path d="m68.123 30.564a33.563 33.563 0 0 1 7.868 1.106c.986.254 1.223.554 1.225 1.553q0 1.824 0 3.649c0 .994-.358 1.261-1.323 1.182q-4.2-.347-8.412-.615a5.286 5.286 0 0 0 -1.538.148 1.268 1.268 0 0 0 -.618 2.2 6.022 6.022 0 0 0 1.25.906c2.081 1.21 4.19 2.372 6.256 3.605a22.046 22.046 0 0 1 2.583 1.83 8.237 8.237 0 0 1 -3.314 14.051 17.664 17.664 0 0 1 -6.817.63c-2.479-.224-4.944-.639-7.405-1.035-.933-.15-1.179-.559-1.185-1.513-.007-1.148 0-2.3 0-3.446 0-1.2.385-1.5 1.583-1.383 2.508.241 5.017.474 7.53.649a13.364 13.364 0 0 0 2.484-.137 1.445 1.445 0 0 0 1.327-1.172 1.766 1.766 0 0 0 -.568-1.9 10.356 10.356 0 0 0 -1.282-.872c-2.313-1.348-4.651-2.652-6.948-4.026a8.553 8.553 0 0 1 -3.985-10 6.73 6.73 0 0 1 5.466-4.842c1.9-.417 3.863-.522 5.8-.766z" fill="#969696"/><path d="m88.776 40.606q0 9.087 0 18.173c0 1.374-.284 1.654-1.67 1.654-1.757 0-3.513 0-5.27 0-1.034 0-1.44-.395-1.441-1.426q-.006-18.007.005-36.007c0-.935.341-1.285 1.287-1.38 1.859-.187 3.717-.365 5.575-.556 1.251-.129 1.519.1 1.519 1.373q0 5.64 0 11.282z" fill="#969696"/><path d="m102.5 60.433c-1.194 0-2.388-.019-3.581.007a1.678 1.678 0 0 1 -1.609-.887c-2.424-3.976-4.874-7.937-7.3-11.91a3.707 3.707 0 0 1 .088-4.308q3.792-5.667 7.548-11.359a2.051 2.051 0 0 1 1.9-1.028c2.206.035 4.414 0 6.621.029a3.857 3.857 0 0 1 1.082.353 4.07 4.07 0 0 1 -.387 1.068q-4.421 6.054-8.894 12.068a.883.883 0 0 0 0 1.222q4.461 6.641 8.87 13.318a1.26 1.26 0 0 1 .209 1.021c-.123.238-.62.376-.959.388-1.201.045-2.396.018-3.588.018z"/><path d="m272.248 27.268a12.622 12.622 0 0 0 11.195-11.844c.409 2.031-.845 5.8-2.779 8.287a14.084 14.084 0 0 1 -7.4 4.92 13.8 13.8 0 0 0 8.4-4.905 15.09 15.09 0 0 0 3.4-9.19 15.05 15.05 0 0 1 -3.342 10.287 14.879 14.879 0 0 1 -9.4 5.474 19.76 19.76 0 0 1 -2.072.239.622.622 0 0 1 -.486-.3 22.5 22.5 0 0 1 -1.78-10.352c.009-.106.041-.209.081-.4a4.517 4.517 0 0 0 4.331.6 5.641 5.641 0 0 0 3.2-3.112c.023 2.256-2.9 4.254-6.361 4.426 1.949.823 6.049.03 7.916-4.036a7.222 7.222 0 0 1 -3.074 4.277 8.03 8.03 0 0 1 -5.142 1.268 7.291 7.291 0 0 0 6.219-1.02 9.076 9.076 0 0 0 3.692-5.363 8.956 8.956 0 0 1 -9.445 7.866c1.454.736 4.9-.069 7.01-1.637a10.464 10.464 0 0 0 3.93-6.186c.212 1.228-.958 4.022-2.368 5.654-1.335 1.546-2.379 2.218-5.26 3.389 1.421.131 4.58-1.549 6.225-3.311 1.536-1.645 2.152-2.947 3.042-6.429.528 4.564-3.754 9.584-9.732 11.398z" fill="#df3e33"/><path d="m264.805 11.66a6.256 6.256 0 0 0 -1.82 4.269 7.344 7.344 0 0 0 1.468 4.561 6.851 6.851 0 0 1 -2.2-4.782 8.068 8.068 0 0 1 1.325-4.906 7.346 7.346 0 0 0 -2.075 5.887 8.97 8.97 0 0 0 2.7 5.654c-2.566-1.675-5.058-6.6-2.23-11.793-1.142.951-2.222 4.109-1.848 6.74a10.472 10.472 0 0 0 3.331 6.336c-1.249-.5-2.963-2.8-3.682-4.878a11.242 11.242 0 0 1 -.316-6.053 11.138 11.138 0 0 0 3.363 12.373c-1.189-.361-3.678-3.257-4.519-5.92a12.688 12.688 0 0 1 -.016-7.71c-1.007 1.559-1.455 5.575-.555 8.482a13.509 13.509 0 0 0 4.876 6.915 13.045 13.045 0 0 1 -5.507-6.58 13.874 13.874 0 0 1 -.488-8.611c-1.716 3.705-1.434 11.887 5.555 16.788-.491-.328-1.009-.623-1.469-.991a14.886 14.886 0 0 1 -6-12.063 15.43 15.43 0 0 1 1.678-7.221c.165-.323.328-.539.768-.464a22.893 22.893 0 0 1 9.429 3.454c.178.123.343.267.525.409-3 1.948-3.371 3.656-1.733 7.723-1.824-1.396-2.044-4.57-.56-7.619z" fill="#6060af"/><path d="m268.409 9.451c2.236-1.1 5.248.391 7.148 3.445-.02-1.1-1.322-3.012-2.791-3.91-1.141-.7-1.678-.838-4.913-1.077a7.5 7.5 0 0 1 5.308.467 8.057 8.057 0 0 1 3.7 3.672 7.35 7.35 0 0 0 -3.934-4.694 9.006 9.006 0 0 0 -6.187-.606c3.5-1.871 8.164-.1 11.286 4.2a9 9 0 0 0 -5.014-5.123 10.4 10.4 0 0 0 -7.239-.363 10.714 10.714 0 0 1 11.808 2.284c-3.547-3.9-7.829-5.1-12.892-3.473a11.557 11.557 0 0 1 7.584-.978 12.576 12.576 0 0 1 6.7 3.755 12.445 12.445 0 0 0 -7.045-4.629 12.933 12.933 0 0 0 -8.445.793c3.3-2.14 10.852-3.039 16.28 2.49-1.153-2.009-5.227-4.38-8.322-4.9a14.893 14.893 0 0 0 -9.539 1.537 12.777 12.777 0 0 1 4.262-1.875 15.249 15.249 0 0 1 16.557 6.606.787.787 0 0 1 -.069 1.108 22.952 22.952 0 0 1 -7.4 6.2c-.239.115-.484.218-.8.36a4.625 4.625 0 0 0 -1.708-4.1 5.691 5.691 0 0 0 -4.335-1.189z" fill="#6fba29"/><g fill="#969696"><path d="m207.878 69.282v3.539h-1.414v-.7c0-1.688-.008-3.375.007-5.063 0-.3-.186-.773.335-.805.475-.03 1.034-.25 1.378.373a34.008 34.008 0 0 0 2.088 3.38v-2.626c0-1.29.068-1.342 1.464-1.054v3.405c0 .765.031 1.532-.015 2.3-.017.283-.194.782-.331.794-.492.041-1.087.293-1.447-.35-.492-.883-1.009-1.753-1.519-2.626-.12-.2-.253-.4-.38-.6z"/><path d="m214.689 69.549c0-.9-.023-1.8.017-2.7.01-.2.231-.552.375-.563a15.1 15.1 0 0 1 2.551-.043 2.064 2.064 0 0 1 1.988 1.89 11.614 11.614 0 0 1 -.017 2.886 2.057 2.057 0 0 1 -1.962 1.841 18.83 18.83 0 0 1 -2.491-.008c-.382-.008-.47-.255-.465-.6.015-.9.004-1.801.004-2.703zm1.61 2.007c1.359.2 1.837-.2 1.857-1.463.006-.382.008-.765 0-1.147-.026-1.24-.61-1.681-1.857-1.377z"/><path d="m245.242 69.613v.539a2.6 2.6 0 0 1 -3.523 2.7 2.048 2.048 0 0 1 -1.652-1.763 11.668 11.668 0 0 1 0-3.079 2.346 2.346 0 0 1 2.787-1.867 2.442 2.442 0 0 1 2.38 2.529c.023.31.007.628.008.941zm-1.558-.09a9.555 9.555 0 0 0 -.086-1.2.919.919 0 0 0 -1-.8c-.545 0-.95.258-.992.8a17.083 17.083 0 0 0 -.009 2.405.893.893 0 0 0 1.028.842.96.96 0 0 0 1-.9 10.6 10.6 0 0 0 .059-1.147z"/><path d="m198.508 66.252h1.492v1.464c0 .945-.014 1.89 0 2.835.016.767.373 1.118 1.059 1.1.658-.019.955-.347.961-1.11.01-1.215.042-2.431-.012-3.643-.031-.7.347-.684.836-.68.459 0 .824-.031.794.643-.056 1.212 0 2.429-.029 3.643a2.114 2.114 0 0 1 -1.183 2.173 3.171 3.171 0 0 1 -3.154-.219 1.864 1.864 0 0 1 -.731-1.223c-.083-1.635-.033-3.272-.033-4.983z"/><path d="m252.837 72.834h-1.537a1.168 1.168 0 0 1 -.105-.2c-.46-1.5-.46-1.5-2.057-1.335-.181.519-.235 1.163-.584 1.5-.238.233-.889.045-1.433.045.309-1.312.6-2.555.9-3.8.156-.656.305-1.315.49-1.963.192-.668.636-.942 1.448-.951a1.337 1.337 0 0 1 1.491.9c.05.149.078.3.115.458.413 1.753.835 3.499 1.272 5.346zm-2.771-5.305-.175-.017c-.177.81-.354 1.62-.537 2.46h1.246c-.186-.85-.36-1.646-.534-2.443z"/><path d="m225.222 71.249c-.2 0-.35 0-.506 0-1.21-.008-1.218-.01-1.5 1.144-.08.326-.2.521-.58.485-.33-.031-.666-.006-1.137-.006.173-.739.328-1.4.486-2.065.28-1.179.556-2.36.845-3.537a1.591 1.591 0 0 1 3.039-.029c.429 1.721.84 3.446 1.252 5.171a2.732 2.732 0 0 1 0 .5c-.518-.056-1.153.055-1.47-.212s-.285-.9-.429-1.451zm-.231-1.268c-.2-.87-.382-1.673-.565-2.475h-.16l-.536 2.47z"/><path d="m231.586 67.557h-2.512v-1.333h1.382c.809 0 1.619.014 2.429-.005.434-.01.663.173.585.595a3.336 3.336 0 0 1 -.36 1.121c-.716 1.164-1.483 2.3-2.3 3.552h2.645v1.384h-1.778c-.608 0-1.216.022-1.822-.009-.312-.016-.87-.092-.886-.2a2.124 2.124 0 0 1 .132-1.28c.605-1.05 1.317-2.037 1.986-3.05.132-.204.262-.409.499-.775z"/><path d="m195.958 67.486h-1.4c-1.164 0-1.211.053-1.09 1.352h1.436c1.1 0 1.1 0 .946 1.229h-2.417v2.674a1.088 1.088 0 0 1 -.161.092c-1.411.174-1.411.174-1.411-1.241 0-1.149-.008-2.3 0-3.446.011-1.309.478-1.854 1.791-1.967a7.045 7.045 0 0 1 1.946.087c.744.148.268.74.36 1.22z"/><path d="m235.8 66.253h1.451v6.565h-1.451z"/></g></svg>