<svg enable-background="new 0 0 300 300" viewBox="0 0 300 300" xmlns="http://www.w3.org/2000/svg"><g fill="#fff"><path d="m165.8 151.1v1 20.3c0 1.2-.3 1.5-1.5 1.5-1.8 0-3.7 0-5.5 0-1 0-1.4-.4-1.4-1.4 0-3 0-6 0-9.1 0-3 0-5.9 0-8.9 0-.2 0-.3 0-.5 0-2.3-.9-3.1-3.1-3.1-1 0-2 .2-3 .2-.6 0-.7.3-.7.8v9.9 10.5c0 1.3-.3 1.6-1.5 1.6-1.7 0-3.5 0-5.2 0-1.4 0-1.6-.3-1.6-1.6 0-5.4 0-10.8 0-16.2 0-3 0-6 0-9 0-1 .2-1.3 1.1-1.6 4-.9 8-1.6 12.2-1.4 2 .1 3.7.8 5.3 1.9.4.3.8.3 1.2.1 2.5-1.2 5.1-2.1 7.9-2 1.5.1 3.1.3 4.6.7 3.6 1 5.6 3.5 6.2 7.2.1.9.2 1.7.2 2.6v17.8c0 1.3-.3 1.6-1.6 1.6-1.8 0-3.6 0-5.3 0-1.1 0-1.4-.3-1.4-1.4 0-5.9 0-11.8 0-17.7 0-.7-.1-1.4-.2-2.1-.2-1-.9-1.6-1.8-1.6-1.7-.2-3.2-.1-4.9-.1z"/><path d="m192.9 174.1v.8 7.1c0 1.2-.3 1.5-1.4 1.6-1.9.2-3.8.4-5.6.6-1 .1-1.3-.2-1.3-1.1 0-12 0-23.9 0-35.9 0-1 .2-1.3 1.2-1.6 4.5-1.1 9.1-1.7 13.7-1.3 5.7.5 9.8 4.5 10.4 10.3.4 3.4.4 6.8-.1 10.2-.8 5.3-4.6 9-9.9 9.5-2 .2-4.1 0-6.1 0-.3-.2-.6-.2-.9-.2zm.1-23c-.1.3-.1.4-.1.4v15.2c0 .4.2.6.6.6 1.1.1 2.3.2 3.4.2 2.7 0 4.4-1.2 4.6-3.9.2-2.9.2-5.8 0-8.8-.1-2.2-1.4-3.6-3.4-3.7-1.7-.2-3.4 0-5.1 0z"/><path d="m15.9 161.9c0 1.3.1 2.6.8 3.7.8 1.4 2.2 1.9 3.7 1.9 2.6 0 5.2-.1 7.8-.2 1 0 1.9-.1 2.9-.2.8 0 1 .2 1 1v3.8c0 .9-.2 1.1-1 1.3-3.1.8-6.2 1.2-9.4 1.2-1.8 0-3.6 0-5.3-.4-4.5-1-7.4-3.9-8.3-8.4-.8-4.1-.9-8.3.1-12.5 1.2-5.1 5.3-8.5 10.5-8.9 2.4-.2 4.8-.1 7.1.8 4.2 1.6 6.5 4.8 7.2 9.1.4 2.2.3 4.5.3 6.7 0 .7-.4 1-1.3 1.1-1.8 0-3.6 0-5.3 0-3.4 0-6.8 0-10.3 0-.1 0-.3 0-.5 0zm9.3-5.3c-.1-2.2-.3-4.3-2.5-5.3-1.7-.8-3.4-.8-5 .4s-1.9 3-1.9 4.9z"/><path d="m53.1 167.3c0-.4 0-.6 0-.9 0-6.8 0-13.5 0-20.3 0-1.2.3-1.6 1.6-1.6h5.3c1.1 0 1.5.4 1.5 1.5v25.3c0 1.1-.2 1.4-1.3 1.6-3.4.8-6.8 1.3-10.2 1.4-2.2.1-4.4.1-6.5-.4-4.3-1.1-6.9-4.1-7.1-8.5-.2-3.6-.1-7.1-.1-10.7 0-2.9 0-5.7 0-8.6 0-1.3.4-1.7 1.6-1.7h5.3c1 0 1.4.4 1.4 1.4v17.8c0 .7.1 1.4.3 2.1.2.8.7 1.4 1.6 1.5 2.1.5 4.3.2 6.6.1z"/><path d="m229.6 167.2c0-.4 0-.6 0-.9 0-6.8 0-13.5 0-20.3 0-1.2.3-1.5 1.5-1.5h5.3c1.1 0 1.5.4 1.5 1.5v25.3c0 1-.2 1.4-1.2 1.6-2.2.4-4.5.8-6.7 1.1-2.3.2-4.7.3-7 .3-2.7 0-5.2-.7-7.3-2.5-1.8-1.6-2.6-3.7-2.9-6-.1-.8-.1-1.7-.1-2.5 0-5.7 0-11.5 0-17.2 0-1.2.3-1.6 1.6-1.6h5.3c1.1 0 1.5.4 1.5 1.5v17.7c0 .7.1 1.4.2 2.1.2 1 .9 1.6 1.8 1.6 1.5.1 3.1 0 4.6-.1.7.1 1.3 0 1.9-.1z"/><path d="m130.1 156.4c0-1 .1-1.9 0-2.8-.2-1.5-1.1-2.4-2.8-2.4-2.2 0-4.3.2-6.5.3-1.1.1-2.1.3-3.2.3-.9.1-1.2-.2-1.2-1.1 0-1.3 0-2.6 0-3.9 0-.7.3-1.1.9-1.2 3.3-.8 6.5-1.6 9.9-1.5 1.9.1 3.7.3 5.5 1 3.3 1.3 5.1 3.7 5.6 7.2.1.8.2 1.6.2 2.4v16.6c0 1.4-.1 1.7-1.5 1.8-3.5.5-7 .9-10.5 1.2-2 .2-4 .1-6-.4-3.4-.9-5.4-3.3-5.7-6.8-.1-1.5-.1-3.1.2-4.6.6-3 2.8-4.6 5.6-5.4 2.1-.6 4.3-.7 6.4-.8 1 .1 2 .1 3.1.1zm.2 4.9c-1.7.1-3.3.1-4.8.3s-2.4 1.1-2.5 2.6c-.1.6-.1 1.2 0 1.8.1 1.4.8 2.1 2.2 2.2 1.6.1 3.2 0 4.8-.1.2 0 .4-.3.4-.4-.1-2.1-.1-4.2-.1-6.4z"/><path d="m252.4 144.1c2.5 0 5.1.4 7.7 1.1.9.2 1.2.6 1.2 1.5v3.7c0 1-.4 1.3-1.4 1.2-2.8-.2-5.6-.4-8.4-.6-.5 0-1 0-1.5.1-1.1.3-1.4 1.4-.6 2.2.4.4.9.7 1.4 1 2 1.2 4 2.3 6 3.4 1.8 1 3.4 2.2 4.4 4.1 2.4 4.5.2 9.9-4.7 11.7-2.5.9-5.1 1-7.7.8-2.2-.2-4.4-.5-6.6-.9-1.4-.2-1.6-.5-1.6-1.9 0-1.1 0-2.2 0-3.2 0-1.1.4-1.4 1.4-1.3 2.1.2 4.2.4 6.3.6 1.1.1 2.2.1 3.3 0 1.3-.1 2-.7 1.9-1.9 0-.4-.2-.8-.5-1.1-.4-.4-.9-.8-1.4-1-2.3-1.3-4.6-2.6-6.8-4-3.6-2.1-5.1-5.6-4.2-9.7.6-2.8 2.5-4.3 5.1-5.2 2.3-.6 4.4-.7 6.7-.6z"/><path d="m75.6 144.1c2.7 0 5.3.4 7.9 1.1 1 .3 1.2.6 1.2 1.6v3.6c0 1-.4 1.3-1.3 1.2-2.8-.2-5.6-.4-8.4-.6-.5 0-1 0-1.5.1-1.1.2-1.4 1.4-.6 2.2.4.4.8.6 1.2.9l6.3 3.6c.9.5 1.8 1.2 2.6 1.8 4.2 3.4 3.9 11.9-3.3 14.1-2.2.7-4.5.8-6.8.6-2.5-.2-4.9-.6-7.4-1-.9-.2-1.2-.6-1.2-1.5 0-1.1 0-2.3 0-3.4 0-1.2.4-1.5 1.6-1.4 2.5.2 5 .5 7.5.6.8.1 1.7 0 2.5-.1.7-.1 1.2-.5 1.3-1.2.2-.7 0-1.4-.6-1.9-.4-.3-.8-.6-1.3-.9-2.3-1.3-4.7-2.7-6.9-4-3.6-2.1-5.1-6-4-10 .8-2.8 2.8-4.3 5.5-4.8 1.9-.4 3.9-.5 5.8-.8-.1 0-.1.1-.1.2z"/><path d="m96.2 154.1v18.2c0 1.4-.3 1.7-1.7 1.7-1.8 0-3.5 0-5.3 0-1 0-1.4-.4-1.4-1.4 0-12 0-24 0-36 0-.9.3-1.3 1.3-1.4 1.9-.2 3.7-.4 5.6-.6 1.3-.1 1.5.1 1.5 1.4v11.3z"/><path d="m110 173.9c-1.2 0-2.4 0-3.6 0-.7 0-1.2-.3-1.6-.9-2.4-4-4.9-7.9-7.3-11.9-.9-1.4-.9-2.9.1-4.3 2.5-3.8 5-7.6 7.5-11.4.5-.7 1-1 1.9-1h6.6c.4 0 .7.2 1.1.4-.1.4-.2.8-.4 1.1-2.9 4-5.9 8.1-8.9 12.1-.4.5-.3.8 0 1.2 3 4.4 5.9 8.9 8.9 13.3.2.3.3.8.2 1s-.6.4-1 .4c-1.2.1-2.3 0-3.5 0z"/><path d="m279.7 140.8c4.3-.2 10.7-4.3 11.2-11.8.4 2-.8 5.8-2.8 8.3-1.9 2.5-4.4 4.1-7.4 4.9 3.4-.6 6.2-2.2 8.4-4.9s3.2-5.8 3.4-9.2c.1 3.8-.9 7.3-3.3 10.3s-5.6 4.8-9.4 5.5c-.7.1-1.4.2-2.1.2-.2 0-.4-.2-.5-.3-1.3-3.3-2.1-6.7-1.8-10.4 0-.1 0-.2.1-.4 1.4.9 2.8 1.2 4.3.6s2.5-1.6 3.2-3.1c0 2.3-2.9 4.3-6.4 4.4 1.9.8 6 0 7.9-4-.5 1.8-1.5 3.2-3.1 4.3-1.6 1-3.3 1.4-5.1 1.3 2.2.6 4.3.2 6.2-1s3-3.1 3.7-5.4c-.2 3.3-3.5 8.2-9.4 7.9 1.5.7 4.9-.1 7-1.6 2-1.5 3.1-3.3 3.9-6.2.2 1.2-1 4-2.4 5.7-1.3 1.5-2.4 2.2-5.3 3.4 1.4.1 4.6-1.5 6.2-3.3 1.5-1.6 2.2-2.9 3-6.4.8 4.3-3.5 9.4-9.5 11.2z"/><path d="m272.3 125.2c-1.2 1.2-1.7 2.6-1.8 4.3-.1 1.6.5 3.1 1.5 4.6-1.2-1-2.1-2.8-2.2-4.8-.1-1.8.4-3.4 1.3-4.9-1.6 1.6-2.2 3.6-2.1 5.9.2 2.2 1.2 4.1 2.7 5.7-2.6-1.7-5.1-6.6-2.2-11.8-1.1 1-2.2 4.1-1.8 6.7.4 2.5 1.4 4.6 3.3 6.3-1.2-.5-3-2.8-3.7-4.9-.7-2-.7-4-.3-6.1-1.2 2.7-1.3 8.4 3.4 12.4-1.2-.4-3.7-3.3-4.5-5.9-.8-2.5-.8-5 0-7.7-1 1.6-1.5 5.6-.6 8.5.9 2.8 2.5 5.1 4.9 6.9-2.6-1.6-4.4-3.8-5.5-6.6s-1.2-5.7-.5-8.6c-1.7 3.7-1.4 11.9 5.6 16.8-.5-.3-1-.6-1.5-1-3.9-3.1-6-7-6-12.1 0-2.6.5-5 1.7-7.2.2-.3.3-.5.8-.5 3.4.6 6.6 1.5 9.4 3.5.2.1.3.3.5.4-3 1.9-3.4 3.7-1.7 7.7-2-1.4-2.2-4.6-.7-7.6z"/><path d="m275.9 123c2.2-1.1 5.2.4 7.1 3.4 0-1.1-1.3-3-2.8-3.9-1.1-.7-1.7-.8-4.9-1.1 1.9-.5 3.6-.3 5.3.5s2.9 2.1 3.7 3.7c-.6-2.2-2-3.7-3.9-4.7-2-1-4.1-1.1-6.2-.6 3.5-1.9 8.2-.1 11.3 4.2-.9-2.4-2.7-4.1-5-5.1-2.4-1-4.8-1.1-7.2-.4 4.4-1.7 8.3-.9 11.8 2.3-3.5-3.9-7.8-5.1-12.9-3.5 2.4-1.2 5-1.5 7.6-1s4.8 1.8 6.7 3.8c-1.8-2.4-4.2-3.9-7-4.6-2.9-.7-5.7-.4-8.4.8 3.3-2.1 10.9-3 16.3 2.5-1.2-2-5.2-4.4-8.3-4.9-3.4-.6-6.5 0-9.5 1.5 1.3-.9 2.7-1.5 4.3-1.9 6.3-1.6 13.1 1.1 16.6 6.6.3.4.3.7-.1 1.1-2.1 2.5-4.4 4.8-7.4 6.2-.2.1-.5.2-.8.4.1-1.7-.4-3.1-1.7-4.1-1.5-1.1-3-1.4-4.6-1.2z"/><path d="m215.3 182.8v3.5c-.5 0-.9 0-1.4 0 0-.2 0-.5 0-.7 0-1.7 0-3.4 0-5.1 0-.3-.2-.8.3-.8s1-.2 1.4.4c.6 1.1 1.3 2.3 2.1 3.4 0-.6 0-1.2 0-1.8 0-.3 0-.5 0-.8 0-1.3.1-1.3 1.5-1.1v3.4 2.3c0 .3-.2.8-.3.8-.5 0-1.1.3-1.4-.3-.5-.9-1-1.8-1.5-2.6-.1-.2-.3-.4-.4-.6-.1 0-.2 0-.3 0z"/><path d="m222.2 183.1c0-.9 0-1.8 0-2.7 0-.2.2-.6.4-.6.8-.1 1.7-.1 2.6 0 1.1.1 1.9.8 2 1.9.1.9.1 1.9 0 2.9-.1 1.1-.9 1.7-2 1.8-.8.1-1.7 0-2.5 0-.4 0-.5-.3-.5-.6 0-.9 0-1.8 0-2.7zm1.6 2c1.4.2 1.8-.2 1.9-1.5 0-.4 0-.8 0-1.1 0-1.2-.6-1.7-1.9-1.4z"/><path d="m252.7 183.1v.5c0 2.1-1.5 3.2-3.5 2.7-.9-.2-1.5-.8-1.7-1.8-.1-1-.2-2.1 0-3.1.2-1.3 1.4-2 2.8-1.9 1.5.1 2.3 1 2.4 2.5zm-1.6-.1c0-.3 0-.8-.1-1.2-.1-.5-.5-.8-1-.8s-1 .3-1 .8c-.1.8-.1 1.6 0 2.4 0 .6.5.9 1 .8.6 0 .9-.4 1-.9.1-.3.1-.6.1-1.1z"/><path d="m206 179.8h1.5v1.5 2.8c0 .8.4 1.1 1.1 1.1s1-.3 1-1.1c0-1.2 0-2.4 0-3.6 0-.7.3-.7.8-.7s.8 0 .8.6c-.1 1.2 0 2.4 0 3.6 0 .9-.2 1.8-1.2 2.2-1.1.4-2.2.5-3.2-.2-.4-.3-.7-.8-.7-1.2-.2-1.7-.1-3.3-.1-5z"/><path d="m260.3 186.3c-.6 0-1 0-1.5 0 0-.1-.1-.1-.1-.2-.5-1.5-.5-1.5-2.1-1.3-.2.5-.2 1.2-.6 1.5-.2.2-.9 0-1.4 0 .3-1.3.6-2.6.9-3.8.2-.7.3-1.3.5-2s.6-.9 1.4-1c.8 0 1.3.3 1.5.9 0 .1.1.3.1.5.4 1.8.9 3.6 1.3 5.4zm-2.8-5.3c-.1 0-.1 0-.2 0-.2.8-.4 1.6-.5 2.5h1.2c-.1-.9-.3-1.7-.5-2.5z"/><path d="m232.7 184.8c-.2 0-.4 0-.5 0-1.2 0-1.2 0-1.5 1.1-.1.3-.2.5-.6.5-.3 0-.7 0-1.1 0 .2-.7.3-1.4.5-2.1.3-1.2.6-2.4.8-3.5.2-.8.6-1.1 1.5-1.1s1.3.3 1.5 1.1c.4 1.7.8 3.4 1.3 5.2v.5c-.5-.1-1.2.1-1.5-.2-.3-.4-.3-1-.4-1.5zm-.2-1.3c-.2-.9-.4-1.7-.6-2.5-.1 0-.1 0-.2 0-.2.8-.4 1.6-.5 2.5z"/><path d="m239 181.1c-.9 0-1.7 0-2.5 0 0-.5 0-.8 0-1.3h1.4 2.4c.4 0 .7.2.6.6s-.2.8-.4 1.1c-.7 1.2-1.5 2.3-2.3 3.6h2.6v1.4c-.6 0-1.2 0-1.8 0s-1.2 0-1.8 0c-.3 0-.9-.1-.9-.2-.1-.4-.1-.9.1-1.3.6-1 1.3-2 2-3 .3-.4.4-.6.6-.9z"/><path d="m203.4 181c-.5 0-1 0-1.4 0-1.2 0-1.2.1-1.1 1.4h1.4c1.1 0 1.1 0 .9 1.2-.8 0-1.5 0-2.4 0v2.7c-.1.1-.1.1-.2.1-1.4.2-1.4.2-1.4-1.2 0-1.1 0-2.3 0-3.4 0-1.3.5-1.9 1.8-2 .6-.1 1.3 0 1.9.1.9 0 .4.6.5 1.1z"/><path d="m243.3 179.8h1.5v6.6c-.5 0-.9 0-1.5 0 0-2.2 0-4.4 0-6.6z"/></g></svg>