<svg viewBox="0 0 279.77 118.829" xmlns="http://www.w3.org/2000/svg"><path d="m40.612 102.583h-37.005l-3.607-15.343 39.709-47.832h21.359v46.93h9.624v15.944h-9.624v15.041h-20.456zm0-15.944v-22.262l-18.351 22.261z" fill="#009e8e"/><path d="m238.256 98.973v-12.335h37v-17.147h-37v-11.732h40.91v-18.347h-62.566v41.214l-31.591-41.214h-19.855v43.921c0 10.83-5.715 15.943-14.139 15.943-8.722 0-14.139-5.414-14.139-16.545v-43.319h-39.412v17.443h16.846v8.425c-3.606 2.407-7.821 3.607-13.537 3.607-13.537 0-22.862-9.927-22.862-23.766v-.3c-.3-13.237 9.325-23.766 21.359-23.766 8.423 0 14.44 3.008 20.456 8.122l13.837-16.847c-9.021-7.818-19.549-12.33-34.29-12.33-21.96 0-39.107 13.837-43.921 33.091h12.334v44.224c8.122 7.521 19.253 11.733 32.188 11.733a51.7 51.7 0 0 0 15.644-2.407c1.2 21.96 14.74 32.188 35.5 32.188 21.961 0 36.1-11.13 36.1-36.4v-7.22l32.482 42.116h60.17v-18.352z" fill="#020202"/></svg>