<svg enable-background="new 0 0 300 300" viewBox="0 0 300 300" xmlns="http://www.w3.org/2000/svg"><g fill="#fff"><path d="m50.7 133.1h-37l-3.6-15.3 39.7-47.8h21.4v46.9h9.6v15.9h-9.6v15h-20.5zm0-16v-22.2l-18.4 22.3z" transform="translate(0 60.095)"/><path d="m248.4 189.6v-12.3h37v-17.1h-37v-11.7h40.9v-18.5h-62.6v41.2l-31.6-41.2h-19.9v43.9c0 10.8-5.7 15.9-14.1 15.9-8.7 0-14.1-5.4-14.1-16.5v-43.3h-39.4v17.4h16.8v8.4c-3.6 2.4-7.8 3.6-13.5 3.6-13.5 0-22.9-9.9-22.9-23.8v-.3c-.3-13.2 9.3-23.8 21.4-23.8 8.4 0 14.4 3 20.5 8.1l13.8-16.8c-9-7.8-19.5-12.3-34.3-12.3-22 0-39.1 13.8-43.9 33.1h12.3v44.2c8.1 7.5 19.3 11.7 32.2 11.7 5.3 0 10.6-.8 15.6-2.4 1.2 22 14.7 32.2 35.5 32.2 22 0 36.1-11.1 36.1-36.4v-7.2l32.5 42.1h60.2v-18.4h-41.5z"/></g></svg>