<?xml version="1.0" encoding="utf-8"?>
<!-- Generator: Adobe Illustrator 22.0.1, SVG Export Plug-In . SVG Version: 6.00 Build 0)  -->
<svg version="1.1" id="Capa_1" xmlns="http://www.w3.org/2000/svg" xmlns:xlink="http://www.w3.org/1999/xlink" x="0px" y="0px"
	 viewBox="0 0 300 300" style="enable-background:new 0 0 300 300;" xml:space="preserve">
<style type="text/css">
	.st0{fill:#009E8E;}
	.st1{fill:#FFFFFF;}
</style>
<g>
	<path class="st0" d="M50.7,193.2h-37l-3.6-15.3l39.7-47.8h21.4V177h9.6v15.9h-9.6v15H50.7L50.7,193.2z M50.7,177.2V155l-18.4,22.3
		L50.7,177.2z"/>
	<path class="st1" d="M248.4,189.6v-12.3h37v-17.1h-37v-11.7h40.9V130h-62.6v41.2L195.1,130h-19.9v43.9c0,10.8-5.7,15.9-14.1,15.9
		c-8.7,0-14.1-5.4-14.1-16.5V130h-39.4v17.4h16.8v8.4c-3.6,2.4-7.8,3.6-13.5,3.6c-13.5,0-22.9-9.9-22.9-23.8v-0.3
		c-0.3-13.2,9.3-23.8,21.4-23.8c8.4,0,14.4,3,20.5,8.1l13.8-16.8c-9-7.8-19.5-12.3-34.3-12.3c-22,0-39.1,13.8-43.9,33.1h12.3v44.2
		c8.1,7.5,19.3,11.7,32.2,11.7c5.3,0,10.6-0.8,15.6-2.4c1.2,22,14.7,32.2,35.5,32.2c22,0,36.1-11.1,36.1-36.4v-7.2l32.5,42.1h60.2
		v-18.4h-41.5V189.6z"/>
</g>
</svg>
