<svg viewBox="0 0 280.547 88.157" xmlns="http://www.w3.org/2000/svg"><path d="m13.2 11.725v4.5c0 1.284-.539 1.848-1.841 1.856q-4.54.027-9.081 0c-1.288-.008-1.835-.581-1.838-1.865q-.011-4.5 0-9c0-1.306.594-1.909 1.888-1.913 3-.009 6 .014 9-.011a1.746 1.746 0 0 1 1.887 1.936c-.06 1.494-.015 2.996-.015 4.497z" fill="#495057"/><path d="m13.566 24.068c-.205-1.184-.813-1.661-2.113-1.668-2.954-.017-5.907-.02-8.86-.024a5.042 5.042 0 0 0 -.852.057 1.892 1.892 0 0 0 -1.641 1.621 5.166 5.166 0 0 0 -.1 1c.006 1.113.051 2.226.051 3.34q.006 21.336.005 42.673c0 .776.018 1.554.077 2.328a1.6 1.6 0 0 0 1.6 1.678 14.925 14.925 0 0 0 1.78.125c1.865.015 3.73 0 5.6.008a19.251 19.251 0 0 0 2.173.03c1.392-.156 2.05-.608 2.287-1.472z" fill="#495057"/><path d="m125.313 9.274a1.725 1.725 0 0 0 -1.368-1.836 7.077 7.077 0 0 0 -1.833-.234c-1.6-.033-3.211 0-4.816-.026a19.654 19.654 0 0 0 -3.869.236 1.764 1.764 0 0 0 -1.522 1.455 6.7 6.7 0 0 0 -.161 1.46q0 4.819.033 9.638c.022 2.616.08 5.231.1 7.847a8.213 8.213 0 0 1 -.146 1.618 1.845 1.845 0 0 1 -1.346 1.471 4.407 4.407 0 0 1 -1.143.181q-1.824.061-3.651.067-7.113.011-14.224 0a18.536 18.536 0 0 1 -3.172-.2 1.635 1.635 0 0 1 -1.443-1.116 6.845 6.845 0 0 1 -.327-1.9c-.024-1.19.083-2.381.086-3.572.012-4.742.005-9.483 0-14.225a5.564 5.564 0 0 0 -.034-.775 2.081 2.081 0 0 0 -2.192-2.06c-.361-.027-.724-.042-1.087-.045-1.451-.012-2.9-.017-4.352-.025h-.718l-5.489 18.784v.5c.047-.116.1-.231.146-.347l.1.027v.929q0 19.081 0 38.164a18.221 18.221 0 0 0 .135 2.324 1.792 1.792 0 0 0 1.655 1.689 13.375 13.375 0 0 0 1.857.119c1.553.02 3.106.034 4.659.013 1.138-.016 2.279-.05 3.412-.153 1.159-.105 1.6-.545 1.785-1.691a9.652 9.652 0 0 0 .121-1.547q.012-8.978 0-17.955c0-.311-.033-.622-.028-.932a20.822 20.822 0 0 1 .077-2.476c.191-1.387.513-1.7 1.719-1.955a5.385 5.385 0 0 1 1.071-.128q9.91-.011 19.821 0a4.253 4.253 0 0 1 .774.046 1.939 1.939 0 0 1 1.783 1.926c-.009.929.042 1.859.041 2.788-.012 5.8-.042 11.607-.04 17.41a21.443 21.443 0 0 0 .209 2.863c.155 1.144.567 1.52 1.709 1.656a20.1 20.1 0 0 0 2.246.157c2.175.015 4.351.013 6.525-.025a5.568 5.568 0 0 0 1.669-.29 1.663 1.663 0 0 0 1.208-1.636c.007-.31.021-.621.021-.932q0-28.254 0-56.508c.006-.261.011-.52-.001-.779z" fill="#9d9d9e"/><path d="m13.623 42.135a8.412 8.412 0 0 0 .576-.983c3.538-6.152 7.024-12.331 10.614-18.452 2.4-4.087 4.941-8.087 7.417-12.128a41.768 41.768 0 0 1 5.57-6.663 4.9 4.9 0 0 1 5.021-1.461 7.1 7.1 0 0 1 4.079 2.379 3.891 3.891 0 0 1 .978 2.789c-.132 1.937-.253 3.874-.4 5.81-.109 1.445-.25 2.887-.379 4.33q-.459 5.14-.918 10.282c-.013.153 0 .309 0 .655.245-.344.4-.556.551-.776q5.917-8.9 11.839-17.788a40.782 40.782 0 0 1 6.575-7.636 13.969 13.969 0 0 1 2.539-1.767 5.352 5.352 0 0 1 4.5-.413 20.406 20.406 0 0 1 3.81 1.535 3.806 3.806 0 0 1 2.092 2.827 9.655 9.655 0 0 1 -.018 1.625c-.012.277-.07.553-.122.948h.184l-5.492 18.769v.5a1.433 1.433 0 0 0 -.065.176c-3.354 12.121-6.774 24.221-9.869 36.407-.79 3.114-1.353 6.27-1.954 9.421a66.765 66.765 0 0 1 -2.476 9.932 24.976 24.976 0 0 1 -1.275 2.826 2.775 2.775 0 0 1 -1.487 1.3 18.406 18.406 0 0 1 -4.655 1.452c-.791.1-1.6.091-2.4.123a1.6 1.6 0 0 1 -1.673-1.138 11.239 11.239 0 0 1 -.592-2.241 23.236 23.236 0 0 1 .046-6.816q1.559-9.771 3.772-19.419a219.71 219.71 0 0 1 7.315-25.34c.6-1.677 1.233-3.343 1.778-5.057-.107.167-.228.327-.32.5q-7.428 14.128-14.849 28.26a13.241 13.241 0 0 1 -3.07 4.066c-2.329 1.98-4.925 2.094-7.65 1.047a4.7 4.7 0 0 1 -2.633-2.716 9.8 9.8 0 0 1 -.69-4.951c.424-3.778.926-7.547 1.445-11.314.557-4.049 1.17-8.09 1.758-12.134.074-.507.145-1.014.218-1.521l-.184-.049c-.7 1.082-1.448 2.142-2.108 3.251a159.5 159.5 0 0 0 -11.341 23.211c-.36.914-.742 1.824-1.184 2.7a5.291 5.291 0 0 1 -4.523 3.092 1.92 1.92 0 0 0 -.28.073" fill="#e33916"/><g fill="#495057"><path d="m242.731 9.341c.745 0 1.439.008 2.132 0 .364-.006.469.271.616.509q1.242 2.018 2.484 4.036c.174.282.356.559.626.982v-5.48a10.278 10.278 0 0 1 2.061-.008v8.7c-.743 0-1.462.036-2.173-.023-.191-.016-.4-.292-.529-.494-.855-1.359-1.689-2.731-2.532-4.1a2.494 2.494 0 0 0 -.595-.706c-.008.571-.018 1.141-.021 1.712s0 1.14 0 1.71v1.811a6.562 6.562 0 0 1 -2.068.052z"/><path d="m182.293 24.544a4.626 4.626 0 0 1 .692 9.222 5.5 5.5 0 0 1 -2.728-.356 4.467 4.467 0 0 1 -2.7-4.771 4.3 4.3 0 0 1 3.668-3.948c.352-.061.711-.099 1.068-.147zm.008 2a2.464 2.464 0 0 0 -2.458 2.635 2.48 2.48 0 1 0 4.947-.026 2.471 2.471 0 0 0 -2.49-2.609z"/><path d="m210.014 9.041a15.249 15.249 0 0 1 1.878.388 4.352 4.352 0 0 1 2.851 4.784c-.45 4.089-5.007 5.006-7.578 3.3a4.69 4.69 0 0 1 -1.745-5.291 4.337 4.337 0 0 1 4.188-3.088h.387zm2.45 4.667a2.537 2.537 0 0 0 -1.6-2.51 2.426 2.426 0 0 0 -3.167 1.446 2.732 2.732 0 0 0 1.388 3.525 2.4 2.4 0 0 0 .6.15 2.476 2.476 0 0 0 2.779-2.611z"/><path d="m153.491 33.539h-2.053v-8.7c.759 0 1.48-.034 2.193.024.19.015.4.284.528.485.882 1.4 1.742 2.816 2.613 4.225.128.209.274.407.521.769v-5.461h2v8.7c-.725 0-1.441.028-2.152-.021-.169-.012-.361-.259-.475-.44-.893-1.425-1.769-2.861-2.653-4.292-.131-.211-.278-.413-.526-.78z"/><path d="m152.381 9.338c1.092 0 2.147-.021 3.2.009a6.643 6.643 0 0 1 1.682.2 2.023 2.023 0 0 1 1.4 2.8 6.136 6.136 0 0 1 -.911 1.153 1.894 1.894 0 0 0 .229.139 1.956 1.956 0 0 1 1.207 1.834 2.119 2.119 0 0 1 -1.111 2.07 3.357 3.357 0 0 1 -1.387.457c-1.416.059-2.836.021-4.309.021zm1.99 7.016a17.768 17.768 0 0 0 1.895-.115.833.833 0 0 0 .746-.927.806.806 0 0 0 -.817-.851c-.576-.055-1.162-.012-1.824-.012v1.9zm.044-3.639a13.913 13.913 0 0 0 1.64-.015.728.728 0 0 0 .652-.821c0-.433-.135-.612-.628-.743a3.431 3.431 0 0 0 -1.664-.006z"/><path d="m231.035 14.381 2.22 3.694c-.864 0-1.578.029-2.286-.021-.167-.012-.357-.265-.463-.449-.488-.852-.947-1.721-1.426-2.579-.217-.39-.228-.385-.889-.344v3.352h-2.1v-8.558c.032-.03.07-.1.107-.094 1.5.025 3-.033 4.482.117a2.215 2.215 0 0 1 2.038 1.853 2.388 2.388 0 0 1 -1.261 2.8c-.107.063-.221.121-.422.229zm-2.826-3.381v2.02a4.341 4.341 0 0 0 1.849-.14.867.867 0 0 0 .593-.9.782.782 0 0 0 -.691-.8c-.545-.104-1.107-.117-1.751-.18z"/><path d="m211.583 24.86c1.409 0 2.7-.011 3.991.009a3.135 3.135 0 0 1 .908.18 2.31 2.31 0 0 1 1.772 2.029 2.365 2.365 0 0 1 -1.311 2.578c-.091.048-.182.1-.272.145a.916.916 0 0 0 -.112.117l2.156 3.61h-2.49c-.535-.975-1.089-1.966-1.625-2.968-.179-.335-.386-.549-.878-.36v3.288a7.222 7.222 0 0 1 -2.139.051c-.001-2.903-.001-5.779 0-8.679zm2.147 3.755c.63-.07 1.169-.089 1.69-.2a.849.849 0 0 0 .718-.889.837.837 0 0 0 -.725-.877 3.5 3.5 0 0 0 -1.683 0z"/><path d="m171.4 33.544h-2.046v-8.644a3.929 3.929 0 0 1 .507-.066c.983-.007 1.968-.043 2.948.012a5.86 5.86 0 0 1 1.731.346 2.16 2.16 0 0 1 1.443 2.021 2.336 2.336 0 0 1 -1.174 2.356c-.174.1-.35.2-.555.321l2.171 3.616a19.81 19.81 0 0 1 -2.448.084c-.563-1.025-1.116-2.017-1.652-3.018-.192-.36-.41-.588-.925-.336zm.069-6.935v1.991c.566-.054 1.078-.063 1.573-.16a.912.912 0 0 0 -.042-1.819 13.544 13.544 0 0 0 -1.534-.012z"/><path d="m163.162 14.709v3.278a7.7 7.7 0 0 1 -2.08.077v-8.726c.833 0 1.628-.019 2.423.006a13.051 13.051 0 0 1 2.233.163 2.355 2.355 0 0 1 2 2.636 2.225 2.225 0 0 1 -1.076 1.87c-.194.125-.4.23-.658.375l2.151 3.6a7.583 7.583 0 0 1 -2.264.068c-.144-.007-.314-.243-.409-.409q-.729-1.282-1.419-2.585a.617.617 0 0 0 -.901-.353zm.006-1.716a3.692 3.692 0 0 0 1.873-.124.849.849 0 0 0 .563-.923.818.818 0 0 0 -.654-.771 4.075 4.075 0 0 0 -1.828-.061c0 .412-.005.8 0 1.178.006.228.03.455.046.701z"/><path d="m241.835 29.881 2.215 3.7c-.845 0-1.555.028-2.261-.02-.169-.012-.37-.248-.474-.429-.491-.851-.949-1.721-1.428-2.58-.241-.432-.25-.427-.939-.356v3.343h-2.021v-8.639a4.7 4.7 0 0 1 .52-.059c.983 0 1.969-.043 2.949.013a5.933 5.933 0 0 1 1.731.348 2.161 2.161 0 0 1 1.446 2.022 2.331 2.331 0 0 1 -1.18 2.353c-.155.086-.314.169-.558.304zm-2.857-1.273c.628-.065 1.188-.08 1.729-.19a.847.847 0 0 0 .721-.949.783.783 0 0 0 -.759-.824 13.752 13.752 0 0 0 -1.691-.015z"/><path d="m225.2 29.9c.721 1.2 1.423 2.368 2.213 3.681-.845 0-1.555.028-2.259-.02-.17-.012-.373-.245-.477-.425-.492-.851-.971-1.71-1.421-2.584a.64.64 0 0 0 -.945-.337v3.323h-2.026v-8.638a4.313 4.313 0 0 1 .509-.062c.984 0 1.969-.038 2.95.012a5.977 5.977 0 0 1 1.662.315 2.191 2.191 0 0 1 1.525 2.048 2.346 2.346 0 0 1 -1.174 2.359c-.169.102-.344.203-.557.328zm-2.853-3.3a9.831 9.831 0 0 0 .007 2.007c.608-.06 1.122-.072 1.619-.169a.872.872 0 0 0 .816-.952c-.012-.5-.285-.809-.89-.875a14.521 14.521 0 0 0 -1.548-.011z"/><path d="m176.234 14.39v3.591a7.077 7.077 0 0 1 -2.065.081v-8.724h2.02c.113 1.111 0 2.192.076 3.37a4.906 4.906 0 0 0 .43-.369c.739-.833 1.488-1.657 2.2-2.514a1.237 1.237 0 0 1 1.138-.5c.59.04 1.185.009 1.957.009-1.212 1.447-2.472 2.652-3.688 4.027l3.933 4.678c-.593.019-1.038.049-1.482.043-1.591-.024-1.086.222-2.112-1.016-.754-.909-1.487-1.836-2.229-2.755z"/><path d="m267.964 24.872h2.047c.047.081.1.125.095.168-.019 1.938.042 3.88-.091 5.81a3.131 3.131 0 0 1 -2.792 2.887 4.742 4.742 0 0 1 -2.223-.111 3.19 3.19 0 0 1 -2.407-3.078c-.07-1.857-.017-3.718-.017-5.621a7.7 7.7 0 0 1 2.125-.059c.015.287.038.537.039.788 0 1.5-.012 3 .008 4.5a1.6 1.6 0 1 0 3.2.082c.029-.412.008-.827.008-1.241z"/><path d="m201.939 24.858h2.079c.017.242.046.464.047.686v4.274a4.772 4.772 0 0 0 .026.7 1.48 1.48 0 0 0 1.622 1.339 1.423 1.423 0 0 0 1.5-1.45c.038-1.371.015-2.745.017-4.118 0-.459 0-.917 0-1.414h2.128c.015.233.038.432.038.632 0 1.58-.017 3.161.006 4.741.03 2.049-1.395 3.634-3.969 3.579a4.314 4.314 0 0 1 -1.214-.234 2.983 2.983 0 0 1 -2.261-2.766c-.097-1.959-.019-3.927-.019-5.969z"/><path d="m280.547 33.552h-2.373l-.7-1.649h-3.294l-.668 1.639h-2.32c1.231-2.939 2.435-5.811 3.637-8.68h2.113c1.184 2.86 2.37 5.715 3.605 8.69zm-4.627-6.079h-.156c-.314.858-.629 1.716-.951 2.6h2.043z"/><path d="m251.44 33.529-.672-1.605h-3.32l-.658 1.62h-2.322l3.63-8.663h2.131l3.589 8.648zm-1.288-3.429-.96-2.655-.146.026c-.314.858-.627 1.716-.961 2.629z"/><path d="m200.8 33.551h-2.37l-.71-1.651h-3.287l-.675 1.642h-2.32c1.234-2.942 2.437-5.814 3.639-8.682h2.113c1.188 2.863 2.374 5.718 3.61 8.691zm-4.63-6.084-.156.011c-.312.856-.625 1.713-.944 2.585h2.042c-.335-.917-.64-1.756-.944-2.596z"/><path d="m191.693 18.085c-.785 0-1.426 0-2.068 0-.282 0-.4-.164-.492-.406-.161-.432-.347-.856-.533-1.308h-3.27l-.7 1.677h-2.3c1.2-2.949 2.421-5.8 3.631-8.681h2.106zm-4.64-6.091-.164.01c-.308.843-.616 1.685-.945 2.589a8.284 8.284 0 0 0 2.044-.05z"/><path d="m147.534 9.338 3.611 8.708h-2.377l-.7-1.678h-3.294l-.639 1.656h-2.265c.069-.226.111-.42.186-.6 1.045-2.507 2.106-5.008 3.135-7.521a.753.753 0 0 1 .862-.573c.462.039.929.008 1.481.008zm-2.129 5.252h2.065l-.94-2.59h-.16z"/><path d="m222.515 18.045-.708-1.681h-3.264l-.681 1.671h-2.32c1.223-2.92 2.419-5.773 3.625-8.653h2.118c1.193 2.825 2.38 5.7 3.6 8.663zm-1.3-3.45-1.026-2.824-1.035 2.829z"/><path d="m195.112 16.2h4.235v1.741a44.416 44.416 0 0 1 -6.882.041c0-.516-.03-1.054.016-1.585a1.252 1.252 0 0 1 .321-.592c1.049-1.314 2.11-2.618 3.165-3.927.157-.194.3-.4.53-.7h-3.865v-1.778h6.636c0 .5.032.981-.015 1.459a1.258 1.258 0 0 1 -.315.594c-1.069 1.331-2.15 2.652-3.225 3.977-.16.192-.313.397-.601.77z"/><path d="m236.87 12.759h3.514v1.681c-1.12.069-2.275 0-3.454.042a3.854 3.854 0 0 0 -.057 1.753h3.927v1.69a41.812 41.812 0 0 1 -6 .058v-8.6c1.905-.084 3.827-.019 5.8-.043v1.8h-3.73z"/><path d="m145.541 29.969v1.731h3.94v1.842h-6v-8.661h5.8v1.754h-3.739v1.586c1.142.081 2.3-.008 3.49.053v1.7z"/><path d="m141.512 24.965c0 .322-.018.658 0 .992a1.423 1.423 0 0 1 -.378 1.057c-1.109 1.335-2.2 2.689-3.287 4.037-.13.16-.247.328-.46.612 1.444.093 2.8-.012 4.18.066v1.732a50.181 50.181 0 0 1 -6.81.07c-.008-.919-.205-1.809.571-2.642 1.038-1.116 1.944-2.357 2.9-3.546.143-.178.274-.367.512-.688h-3.91v-1.7a42.954 42.954 0 0 1 6.682.01z"/><path d="m234.55 28.226v1.744h-3.534v1.737h3.926v1.743a34.555 34.555 0 0 1 -6 .034v-8.6h5.8v1.71c-1.215.127-2.45-.014-3.722.086v1.551z"/><path d="m141.046 11.179h-3.6v1.709c1.058.063 2.135-.005 3.273.043v1.769h-3.311v3.338h-2.111v-8.559a31.018 31.018 0 0 1 5.657-.08 6.572 6.572 0 0 1 .092 1.78z"/><path d="m261.234 24.881v1.788h-2.416v6.818a9.433 9.433 0 0 1 -2.139.089c-.07-.771-.026-1.514-.034-2.254s0-1.5 0-2.252v-2.333h-2.295a3.281 3.281 0 0 1 -.081-1.856z"/><path d="m163.266 26.677h-2.408v-1.792h6.948v1.806h-2.4v6.846h-2.143z"/><path d="m225.108 43.112h.884v8.606c-1.008.211-1.025.2-1.546-.564q-2.026-2.987-4.056-5.971c-.129-.19-.262-.377-.461-.664a6.7 6.7 0 0 0 -.1 1.813c-.02.62 0 1.242 0 1.863v3.586h-.881v-8.639a2.011 2.011 0 0 1 .314-.062c.257-.008.515 0 .8 0l4.941 7.2a6.134 6.134 0 0 0 .109-1.8c.021-.595 0-1.191 0-1.786v-3.582z"/><path d="m159.641 51.734a1.215 1.215 0 0 1 -1.582-.587c-1.3-1.995-2.659-3.947-4-5.915a1.6 1.6 0 0 0 -.548-.542c-.011.569-.026 1.139-.031 1.708-.006.595 0 1.19 0 1.785v3.592h-.83a75.22 75.22 0 0 1 -.077-8.581c.968-.258 1.045-.232 1.584.554l3.947 5.761c.146.212.3.421.5.706a5.456 5.456 0 0 0 .121-1.786c.023-.594.006-1.19.006-1.785v-1.707c0-.59 0-1.179 0-1.817l.808-.046a66.847 66.847 0 0 1 .102 8.66z"/><path d="m235.732 58.616a1.229 1.229 0 0 1 1.61.617c1.31 1.986 2.676 3.935 4.022 5.9.116.169.241.333.416.573a5.685 5.685 0 0 0 .113-1.775c.022-.595 0-1.19 0-1.786v-3.566l.89-.039v8.651a1.256 1.256 0 0 1 -1.622-.64c-1.262-1.956-2.6-3.863-3.907-5.788-.154-.228-.316-.451-.474-.676l-.16.04v7.106h-.893z"/><path d="m182.006 42.868a4.586 4.586 0 1 1 -4.565 4.555 4.416 4.416 0 0 1 4.565-4.555zm-.047 8.3a3.5 3.5 0 0 0 3.613-3.7 3.582 3.582 0 1 0 -7.153.007 3.474 3.474 0 0 0 3.54 3.689z"/><path d="m233.347 62.891a4.535 4.535 0 1 1 -4.523-4.579 4.4 4.4 0 0 1 4.523 4.579zm-8.107.008c.007.155.009.31.024.465a3.544 3.544 0 0 0 3.26 3.289 3.441 3.441 0 0 0 3.744-2.789 4.369 4.369 0 0 0 .089-1.459 3.5 3.5 0 0 0 -4.512-3.132 3.577 3.577 0 0 0 -2.605 3.627z"/><path d="m264.01 47.428a4.553 4.553 0 1 1 -4.561-4.561 4.427 4.427 0 0 1 4.561 4.561zm-4.566 3.737a3.485 3.485 0 0 0 3.59-3.732 3.58 3.58 0 1 0 -7.153-.019 3.51 3.51 0 0 0 3.563 3.751z"/><path d="m245.525 51.818v-8.664a2.909 2.909 0 0 1 .515-.075 24.15 24.15 0 0 1 3.556.159 3.925 3.925 0 0 1 3.269 2.964 4.1 4.1 0 0 1 -1.185 4.4 4.844 4.844 0 0 1 -1.662.959c-1.453.48-2.96.21-4.493.257zm.974-7.824v6.97a11.857 11.857 0 0 0 2.883-.125 3.4 3.4 0 0 0 2.661-3.534 3.351 3.351 0 0 0 -2.948-3.293 20.926 20.926 0 0 0 -2.595-.018z"/><path d="m173.207 67.257v-8.633c.228-.019.451-.051.674-.052.828-.005 1.658-.032 2.485.009a2.14 2.14 0 0 1 2.248 2.326 2.032 2.032 0 0 1 -1.2 1.687c.166.1.279.177.4.239a2.081 2.081 0 0 1 1.225 1.917 2.121 2.121 0 0 1 -1.153 2.045 3.319 3.319 0 0 1 -.939.352 19.7 19.7 0 0 1 -3.74.11zm.915-.769c.683 0 1.277.036 1.863-.012a3.9 3.9 0 0 0 1.194-.3 1.426 1.426 0 0 0 .925-1.469 1.445 1.445 0 0 0 -1.021-1.408 8.668 8.668 0 0 0 -2.961-.182zm0-4.186c.777 0 1.475.05 2.163-.012a1.422 1.422 0 0 0 1.4-1.4 1.4 1.4 0 0 0 -1.236-1.458 7.307 7.307 0 0 0 -2.322-.032z"/><path d="m135.389 67.265v-8.665a2.075 2.075 0 0 1 .381-.073c1.008.008 2.02-.026 3.024.048a4.271 4.271 0 0 1 3.855 5.774 4.1 4.1 0 0 1 -3.776 2.888 31.453 31.453 0 0 1 -3.484.028zm.963-.778a26 26 0 0 0 2.693-.154 3.382 3.382 0 0 0 2.857-3.294 3.418 3.418 0 0 0 -2.6-3.506 9.743 9.743 0 0 0 -2.95-.125z"/><path d="m182.454 63.267v3.941h-.883v-8.572a4.354 4.354 0 0 1 .516-.064c.8-.006 1.606-.019 2.409 0a4.086 4.086 0 0 1 1.066.165 2.057 2.057 0 0 1 1.557 2 2.215 2.215 0 0 1 -1.362 2.158c-.235.1-.485.17-.815.284l2.451 4.046h-1.131c-.638-1.075-1.319-2.146-1.917-3.262a1.154 1.154 0 0 0 -1.345-.739c-.147.028-.3.025-.546.043zm.048-3.892v2.979c.654 0 1.27.04 1.877-.014a2.881 2.881 0 0 0 1.168-.334 1.355 1.355 0 0 0 .155-2.182 2.335 2.335 0 0 0 -1.129-.43 20.507 20.507 0 0 0 -2.073-.019z"/><path d="m170.962 51.778-.89.042v-8.7c.227-.016.451-.049.674-.043a27.584 27.584 0 0 1 2.937.125 2.072 2.072 0 0 1 1.931 2.079 2.231 2.231 0 0 1 -1.648 2.268c-.143.048-.288.092-.532.17l2.413 3.987c-1 .214-1 .214-1.448-.532-.555-.934-1.142-1.851-1.649-2.81a1.013 1.013 0 0 0 -1.17-.629c-.173.027-.351.021-.618.034zm.019-4.841c.481 0 .891.025 1.3-.007a6.926 6.926 0 0 0 1.441-.2 1.339 1.339 0 0 0 .958-1.354 1.355 1.355 0 0 0 -1.016-1.314 6.66 6.66 0 0 0 -2.679-.154z"/><path d="m195.182 43.1h.924l3.725 8.662h-1.031l-.947-2.187h-4.479c-.216.526-.436 1.072-.664 1.615-.294.7-.336.719-1.246.511zm2.3 5.548-1.83-4.393a20.659 20.659 0 0 0 -1.738 4.393z"/><path d="m241.784 49.574h-4.478c-.224.535-.451 1.077-.68 1.619-.3.717-.315.721-1.24.51l3.705-8.565c.914-.1.917-.1 1.226.622q1.561 3.633 3.12 7.268c.091.212.176.426.265.64-.849.291-.918.262-1.234-.483-.221-.522-.443-1.044-.684-1.611zm-4.091-.953h3.623a19.27 19.27 0 0 0 -1.86-4.249z"/><path d="m215.176 49.573h-4.469c-.227.534-.459 1.074-.687 1.615-.3.715-.3.716-1.246.526 1.244-2.877 2.482-5.738 3.723-8.609h.93c1.23 2.866 2.46 5.729 3.7 8.61-.953.185-.955.185-1.26-.525-.227-.521-.447-1.043-.691-1.617zm-2.159-5.21-.176.023c-.578 1.4-1.156 2.8-1.75 4.232h3.7c-.615-1.471-1.191-2.863-1.774-4.255z"/><path d="m169.41 65.013h-4.44l-.952 2.216h-.962c.075-.226.125-.422.2-.606q1.613-3.743 3.236-7.48a1.3 1.3 0 0 1 .374-.559.682.682 0 0 1 .958.329q1.738 4.028 3.458 8.061a.889.889 0 0 1 .015.263h-.916zm-2.139-5.2-.156-.019-1.809 4.365c1.3 0 2.472.025 3.762-.019-.634-1.527-1.216-2.926-1.797-4.326z"/><path d="m209.782 67.24h-.95l-.949-2.218h-4.454l-.954 2.208h-.955c.075-.227.125-.423.2-.607q1.614-3.744 3.24-7.482a1.3 1.3 0 0 1 .368-.564.694.694 0 0 1 .954.344q1.74 4.028 3.464 8.062a1.1 1.1 0 0 1 .036.257zm-2.326-3.119a18.04 18.04 0 0 0 -1.9-4.281l-1.775 4.281z"/><path d="m149.831 46.844v.813h-4.1v3.287h4.546l.04.835h-5.53v-8.657h5.322a2.692 2.692 0 0 1 .058.37 3.475 3.475 0 0 1 -.054.447h-4.393v2.905z"/><path d="m169.742 18.036v-8.636h2.1v8.637z"/><path d="m201.219 9.384h2.07v8.643h-2.07z"/><path d="m228.126 51.713a1.117 1.117 0 0 1 .262-1.135q2.077-2.9 4.137-5.82c.158-.223.3-.458.524-.8h-4.805l-.047-.841h6a1.234 1.234 0 0 1 -.245 1.249c-1.387 1.934-2.755 3.881-4.129 5.824-.146.208-.282.424-.472.711a16.682 16.682 0 0 0 2.5.072c.8.015 1.6 0 2.459 0l.077.652a28.5 28.5 0 0 1 -6.261.088z"/><path d="m150.3 62.277v.828h-4.112v3.317h4.541l.067.685a25.419 25.419 0 0 1 -5.544.074v-8.607h5.336l.064.777h-4.469v2.926z"/><path d="m200.309 59.729-.693.541a3.182 3.182 0 0 0 -3.074-1.063 3.291 3.291 0 0 0 -2.086 1.238 4.071 4.071 0 0 0 .367 5.315c1.394 1.3 3.326 1.185 5.024-.342l.594.409c-.72 1.415-2.7 1.925-4.325 1.552a4.318 4.318 0 0 1 -3.464-4.308 4.383 4.383 0 0 1 2.857-4.455 4.18 4.18 0 0 1 4.8 1.113z"/><path d="m142.571 44.281-.681.5c-1.71-1.438-3.644-1.443-4.964-.05a4.075 4.075 0 0 0 .025 5.438c1.4 1.435 3.392 1.376 5.134-.182a3.163 3.163 0 0 1 .317.161 3.553 3.553 0 0 1 .291.235 3.9 3.9 0 0 1 -4.383 1.523 4.36 4.36 0 0 1 -3.377-3.97 4.518 4.518 0 0 1 2.752-4.749c1.772-.712 4.064-.197 4.886 1.094z"/><path d="m218.348 65.428.6.376a1.689 1.689 0 0 1 -.776.928 4.46 4.46 0 0 1 -6.933-2.972 5.017 5.017 0 0 1 .18-2.454 4.533 4.533 0 0 1 6.571-2.377 8.239 8.239 0 0 1 .888.727l-.741.611a3.223 3.223 0 0 0 -3.017-1.067 3.306 3.306 0 0 0 -2.112 1.191 4.071 4.071 0 0 0 .272 5.322c1.399 1.353 3.339 1.252 5.068-.285z"/><path d="m207.122 43.1h.844a75.661 75.661 0 0 1 -3.2 8.671h-.978c-1.079-2.823-2.174-5.684-3.3-8.622a4.64 4.64 0 0 1 .475-.07c.153-.005.306.016.524.029l2.817 7.481c.979-2.599 1.89-5.022 2.818-7.489z"/><path d="m157.579 59.352v2.974h3.977l.063.784h-4.086v4.122l-.832.04a73.088 73.088 0 0 1 -.082-8.6 25.981 25.981 0 0 1 5.259-.043v.727z"/><path d="m165.305 51.738a2.418 2.418 0 0 1 -.39.075c-.152 0-.3-.021-.547-.041-.1-2.585.013-5.159-.065-7.809h-2.778v-.848h6.638v.8h-2.858z"/><path d="m189.408 58.577h.788a78.223 78.223 0 0 1 .055 8.638h-.843z"/><path d="m221.1 58.563h.716a79.657 79.657 0 0 1 .065 8.657l-.713.061a71.408 71.408 0 0 1 -.068-8.718z"/><path d="m230.351 56.231-1.284 1.408c-.245.269-.533.225-.92.126a9.46 9.46 0 0 1 1.053-1.465c.228-.219.689-.2 1.045-.282z"/></g></svg>