<svg enable-background="new 0 0 300 300" viewBox="0 0 300 300" xmlns="http://www.w3.org/2000/svg"><g fill="#fff"><path d="m68.2 80.6c6.4-5.2 13.7-7.8 21.8-6.8 10.2 1.3 17.9 6.6 22.7 15.9 2.2 4.3 3.2 8.9 3.1 13.7-.1 3.1-.1 6.2 0 9.3.2 4.6 3.9 8 8.5 8 4.8 0 8.1-3.7 8.3-8.2.2-3.9-.1-7.8.1-11.7.4-7.4 3.3-13.7 8.6-18.9 6.2-6 13.7-8.9 22.3-8.2 8.8.7 16 4.8 21.2 12 3.8 5.3 5.6 11.2 5.5 17.7-.1 9.4-.1 18.9 0 28.3 0 4.6-3.9 8.6-7.7 9.5-6.3 1.5-11.2-2.9-12.4-7.5-.3-1.1-.1-2.4-.1-3.6 0-8.8 0-17.7 0-26.5 0-5-3.1-8.8-7.9-9.2-4.5-.4-8.9 3-9 8.2-.1 4 .2 7.9-.1 11.9-.5 8-4 14.7-10 20.1-3.5 3.1-7.5 5.1-11.9 6.2-3.7.9-7.4 1.1-11.2.4-9.5-1.8-16.6-6.9-21.1-15.4-2.4-4.5-3.4-9.2-3.2-14.3.1-2.6.1-5.2 0-7.8-.1-3.8-1.5-6.8-5.1-8.4-4.1-1.9-9.2-.1-11 4.3-.5 1.3-.7 2.8-.7 4.2-.1 9.3-.1 18.5 0 27.8 0 4.6-3.7 8.7-7.9 9.7-5.5 1.3-10.5-2.2-12.1-6.7-.4-1.1-.3-2.4-.3-3.5 0-9.2.1-18.4-.1-27.6-.1-5.1-2.7-8.5-8.1-8.9-4.7-.4-8.7 3.7-8.7 8.1.1 9.7.1 19.4 0 29.1-.1 4.3-3.2 8.2-7.6 9.5-5.1 1.6-11-2.1-12.3-6.4-.4-1.3-.5-2.8-.5-4.2 0-9.1 0-18.2 0-27.3 0-11.7 5.3-20.5 15.3-26.2 5.1-2.9 10.9-4.1 16.8-3.3 5.2.8 10.5 2.8 14.8 6.7z"/><path d="m35.1 175.6c.5-1.7 1-3.4 1.5-5.2.7-2.5 1.4-5 2.1-7.6.3-1.2.5-2.4.9-3.6.2-.5.9-1 1.4-1.1 2.4-.1 4.9 0 7.3-.1 1.1 0 1.4.4 1.4 1.3v23.7c0 .9-.4 1.2-1.3 1.1-1.2-.1-2.5-.1-3.7 0s-1.5-.4-1.5-1.5c.1-5.6.1-11.3.2-16.9 0-.1-.1-.3-.3-.9-.6 2-1.1 3.7-1.6 5.3-1.1 4.2-2.2 8.4-3.3 12.6-.2.9-.8 1.5-1.9 1.3-.2 0-.3 0-.5 0-4.2 0-4.4-.2-5.1-4.3-.4-2.3-1.1-4.6-1.7-6.9-.7-2.5-1.4-5-2.5-7.5v1.6 15.6c0 1.2-.3 1.6-1.6 1.5-4.2-.1-4.2 0-4.2-4.2 0-6.7 0-13.4 0-20.1 0-1.3.4-1.8 1.8-1.8 2.1.1 4.1.1 6.2 0 1.2-.1 1.7.5 2 1.4.6 2.2 1.1 4.4 1.7 6.5.6 2.4 1.3 4.8 2 7.3.2.7.3 1.5.4 2.2 0 .3.1.3.3.3z"/><path d="m174.8 167.7c.3-.9.7-1.6.9-2.3.2-1 .8-1.1 1.7-1.1 3.3 0 3.3 0 3.3 3.4 0 4.8 0 9.5-.1 14.3 0 3.9-3.4 7.8-7.7 8.4-3.2.4-6.2.4-9.3-.7-1.5-.5-2.2-1.4-2.1-3 .1-.9.1-1.9.1-2.9 3.4 2.1 6.7 2.4 10.1 1.1 2-.8 2.8-2.6 2.5-4.8-1.1.8-2.2 1.9-3.5 2.4-5.1 1.7-9.9-.8-10.6-6.5-.3-2.4-.5-4.9.7-7.3 1.3-2.7 3.3-4.3 6.3-4.7 3.2-.4 5.8.5 7.3 3.6.1-.1.3 0 .4.1zm-4.7.5c-.9.6-2.2 1-2.8 1.8-1.3 1.8-1.3 3.9-.6 6 .5 1.7 1.5 2.8 3.5 2.8 1.8 0 3-.7 3.6-2.8.4-1.3.6-2.8.3-4.1-.2-1.8-1.4-3.5-4-3.7z"/><path d="m27.1 209.2c0 2.4.2 4.8 0 7.1-.3 3.8 3.1 5.2 6 4.6 2.4-.5 3.5-1.9 3.5-4.5 0-5.1.1-10.2 0-15.3 0-1.3.3-1.9 1.7-1.7 1.1.2 2.3.1 3.4 0 1-.1 1.5.3 1.5 1.4-.1 5.8 0 11.6-.5 17.4-.4 4.4-3.4 7.2-7.9 7.8-2.9.3-5.8.5-8.6-.7-2.9-1.2-4.5-3.4-5.2-6.3-1.4-6-.4-12.2-.7-18.3 0-.8.2-1.3 1.2-1.2 1.3.1 2.7.1 4.1 0 1.3-.1 1.6.4 1.6 1.6-.2 2.7-.1 5.4-.1 8.1z"/><path d="m113.7 180.7c-.5.7-.8 1.5-1.4 2.1-3.2 3.5-9.1 2.8-11.4-1.6-2.4-4.5-2.4-9.2.1-13.7 2.3-4.2 9.4-5.2 11.9-.8.1.2.3.2.7.5 0-3 .1-5.7 0-8.4-.1-1.5.5-1.9 1.9-1.8 1 .1 2 .1 2.9 0 1.4-.2 1.9.3 1.8 1.7-.1 7.1 0 14.2 0 21.3v4.5c-1.6 0-3.1.3-4.5-.1-.7-.2-1.2-1.4-1.6-2.3-.2-.3 0-.8 0-1.2-.2-.2-.3-.2-.4-.2zm-.1-6.5c-.1-.9-.1-1.9-.3-2.9-.3-1.8-1.8-2.7-4-2.7-1.8 0-3.1 1.1-3.1 2.8-.1 1.9-.2 3.9 0 5.8.3 2.3 3.4 4 5.4 2.4 1.8-1.4 1.8-3.3 2-5.4z"/><path d="m87.7 209.3c1.8-3.7 5.3-4.8 8.5-3.9 2.1.6 5 3.4 5.4 7 .4 3 .3 5.9-.8 8.7-1 2.5-2.8 4.3-5.4 4.9-2.7.6-5.3.1-7.2-2.3-.5-.6-.8-1.4-1.4-2.5-.1 1.2-.1 1.9-.3 2.6-.2 1.3-.8 2.1-2.4 2-3.1-.2-3.2-.1-3.2-3.3 0-7.6 0-15.2 0-22.8 0-1.3.4-1.8 1.7-1.6 1 .1 2.1.1 3.1 0 1.4-.2 1.7.3 1.7 1.6-.1 2.9-.1 5.8-.1 8.8.2.1.2.3.4.8zm7.9 6.2c-.1 0-.2 0-.3-.1 0-.6 0-1.3 0-1.9-.1-1.8-1.3-3.1-3.2-3.5-1.3-.3-3.2.4-3.8 1.6-1.4 2.8-1.3 5.6.1 8.3.6 1.2 1.9 1.8 3.3 1.7 1.4-.2 2.6-.8 2.9-2.3.4-1.4.7-2.6 1-3.8z"/><path d="m213.8 167.7c1.4-1.2 2.7-2.7 4.3-3.4 3.4-1.5 8.5-.2 8.8 5.1.2 4.6.2 9.2.2 13.8 0 .9-.4 1.1-1.2 1.1-1.7 0-3.3 0-5.2 0 0-1.1 0-2.2 0-3.2 0-3 0-6 0-8.9 0-2.1-1.1-3.5-2.7-3.5-1.8 0-3.7 1.6-3.7 3.5-.1 3.5-.1 6.9 0 10.4 0 1.2-.1 2-1.7 1.7-1.2-.2-2.5 0-3.7 0-.9 0-1.3-.4-1.3-1.2 0-5.8 0-11.7 0-17.5 0-.4.3-1 .5-1 1.2-.2 2.4-.2 3.5-.2 1.8-.1 1.7 1.3 2 2.4-.1.3.1.8.2.9z"/><path d="m53.7 209.4c.6-.7 1-1.4 1.6-2 2.3-2.6 6.3-3.1 9.1-1.1 1.4 1 2.2 2.4 2.3 4.1.1 4.7.1 9.4.1 14.1 0 .9-.3 1.4-1.4 1.3-1.2-.1-2.4-.1-3.6 0-1.4.2-1.4-.7-1.4-1.6 0-3.6 0-7.2 0-10.7 0-2.4-.9-3.3-2.8-3.3s-3.5 1.3-3.6 3.4c-.1 3.4-.1 6.7-.1 10.1 0 2.2 0 2.2-2.1 2.2-1 0-2-.1-2.9 0-1.3.1-1.7-.5-1.7-1.7 0-5.7 0-11.4 0-17.1 0-1.2.4-1.6 1.5-1.5 1.3.1 2.8-.2 3.7.4.8.5.9 2.1 1.3 3.4z"/><path d="m83.2 168.7c.8-2.5 2.2-4 4.3-4.7 3.1-.9 7.4-.2 8.2 3.9.3 1.9.5 3.8.6 5.7.1 3.1 0 6.2 0 9.3 0 1-.3 1.5-1.4 1.3-1.2-.1-2.5-.1-3.7 0s-1.6-.4-1.6-1.6c.1-3.3.1-6.6 0-9.9 0-1.1-.1-2.5-.8-3.3-1.2-1.5-4.2-.9-5 1-.5 1.1-.7 2.3-.8 3.4-.1 3-.1 6 0 8.9 0 1.1-.3 1.6-1.5 1.4-1-.1-2-.1-2.9 0-1.5.2-1.9-.3-1.9-1.8.1-5.6.1-11.1 0-16.7 0-1.2.3-1.8 1.6-1.5h.6c3.3-.1 3.6.2 4 3.5.1.3.2.5.3 1.1z"/><path d="m183.8 173.9c-.2-6.6 4.8-10.2 10.5-10.2 5.3.1 11 3.7 10 12-.6 5.7-4 9.2-10.5 9.1-6.1 0-10.2-4-10-10.9zm6.2.4c.3 1.4.5 2.7.9 4.1.5 1.6 1.6 2.2 3.5 2.1 1.5-.1 2.9-1.2 3-2.7.1-2.1.2-4.3 0-6.4-.1-1.7-1.5-2.9-3.2-3.1-1.4-.1-3 .8-3.5 2.3-.2 1.1-.4 2.3-.7 3.7z"/><path d="m63.3 163.8c5.7 0 10.4 3.6 10.3 10.5-.1 7.1-4.3 10.5-10.2 10.6s-10.3-3.5-10.3-11c-.1-6.1 4.5-10.3 10.2-10.1zm4 10.5c-.1 0-.2 0-.3 0 0-.9.1-1.7 0-2.6-.1-.5-.4-1-.6-1.5-.6-1.5-1.9-2-3.4-1.9-1.7 0-3 1.2-3.1 2.7-.1 2.1-.2 4.2 0 6.2.2 2.1 1.1 3.1 2.9 3.1 1.7.1 3 .2 3.7-2.4.4-1.2.6-2.4.8-3.6z"/><path d="m215.7 222.8c-.7.7-1.1 1.4-1.7 1.9-1.4 1.3-5 1.9-6.7 1.1-2.3-1-3.4-2.9-3.3-5.6 0-2.4 2.1-4.3 5.1-5.1 1.7-.5 3.4-.9 5.1-1.5.5-.2 1.1-.9 1-1.3 0-.5-.6-1.2-1.1-1.4-2.5-1.1-5-.3-7.3.7-1.1.4-1.5.4-1.6-.8-.2-2.7.3-3.5 2.9-4.7 3-1.4 6.1-1.4 9.2-.4 3.2 1 4.4 3.8 4.6 7 .2 4 .2 8 .2 12 0 .4-.7.9-1.1 1.1-.5.2-1.1 0-1.6 0-2.9-.1-2.9-.1-3.7-3zm0-6.6c-1.5.7-2.7 1.1-3.5 1.7-.7.6-1.4 1.6-1.5 2.4 0 .6 1 1.8 1.6 1.8.8.1 2.2-.5 2.5-1.2.5-1.2.5-2.9.9-4.7z"/><path d="m111.2 217.1c-.2 1.7.5 2.7 2 3.4 3 1.3 5.9.6 8.8-.5 1 2 .6 3.7-1.2 4.8-3.7 2.1-11.4 2-14.3-2.3-2.1-3-2.4-6.3-1.8-9.7.6-3.2 2.4-5.8 5.6-7 4.4-1.7 10.7-1 12.5 4.6.6 1.8.3 3.8.2 5.7 0 .3-1.1.8-1.6.8-3.1.1-6.2 0-9.3 0-.3.2-.6.2-.9.2zm6.4-3.4c-.1-1.6-.2-3.3-1.6-4-.9-.4-2.4-.3-3.4.2-1.4.7-1.6 2.2-1.4 3.8z"/><path d="m247.5 217.1c-.1 1.8.7 2.8 2.2 3.4 2.7 1.1 5.4.5 8.1-.3.2-.1.4-.1.6-.1.9 3.1.3 4.2-2.7 5.2-3.4 1.2-6.8 1.1-10.1-.4-4.3-2-5.6-7.6-4.7-11.7.7-3.3 2.4-6 5.6-7.3 4.4-1.8 10.6-1 12.4 4.2.7 1.9.3 4.2.3 6.4 0 .2-1 .6-1.5.6-3.1.1-6.2 0-9.3 0-.2 0-.5 0-.9 0zm6.4-3.3c.1-1.6-.1-3.2-1.4-3.9-.9-.5-2.5-.4-3.5.1-1.4.7-1.7 2.2-1.3 3.8z"/><path d="m273.4 222.4c-2.8 4.5-7.9 5-10.5 1.6-2.1-2.7-1.4-7 2.1-8.1 2.2-.7 4.5-1.3 6.7-2.1.6-.2 1.4-1 1.4-1.4 0-.6-.8-1.2-1.4-1.5-1.5-.8-5.1-.4-8.2 1.2-1.2-1.7-.9-4 .8-5.2 2.7-1.8 5.7-2.2 8.8-1.6 2.1.4 4 1 5.1 3 .6 1.1 1.1 2.4 1.2 3.6.2 4.2.2 8.4.4 12.7 0 .9-.3 1.3-1.2 1.3-.2 0-.4 0-.6 0-2.3 0-4.5.2-4.6-3.5zm.1-5.9c-.2-.1-.4-.1-.6-.2-1.2.6-2.4 1.2-3.5 1.8-1.2.6-1.2 1.8-.9 2.8.2.6 1.2 1.4 1.7 1.3.8-.1 2-.7 2.3-1.4.6-1.2.7-2.8 1-4.3z"/><path d="m157.2 184.2c-1.9 0-3.7 0-5.6 0-.3-.8-.7-1.7-.9-2.2-1.3.9-2.4 2-3.8 2.4-1.3.4-3 .4-4.3 0-2.5-.7-3.6-2.7-3.5-5.3.1-3 1.7-4.1 4.1-4.9 1.8-.6 3.7-1 5.6-1.5.9-.3 2-.8 1.6-1.8-.2-.6-1.2-1.3-2-1.4-2.7-.4-5.4-.1-7.9 1.5-1-2.6-.4-4.4 1.8-5.7 3.4-2 9.3-2 11.9.1 1.7 1.4 2.6 3.1 2.7 5.3 0 3 0 6 .1 8.9-.1 1.4.1 2.9.2 4.6zm-6.4-9.4c-1.7.8-2.9 1.4-4 2-1 .5-1.7 1.4-1.2 2.5.2.6.9 1.4 1.5 1.6 1.1.3 2.4.1 2.7-1.3.5-1.4.6-2.9 1-4.8z"/><path d="m173.8 210.6c-2.5-.3-4.7-.7-7-.9-.5-.1-1.1.2-1.5.5s-.9.8-.9 1.2.6.9 1 1c1.9.5 3.8.8 5.7 1.3s3.3 2.1 3.6 4.1c.7 4.7-1.9 8.2-6.8 8.3-2.2 0-4.4-.2-6.5-.7-2.7-.7-3.3-2.3-2.2-5 1.7.4 3.4 1 5.1 1.2 1.2.2 2.5-.1 3.7-.4.5-.1 1.2-.9 1.1-1.4s-.8-1-1.4-1.2c-1.4-.4-2.8-.6-4.3-.8-3.7-.5-5.3-4.9-4.3-7.9 1.3-3.8 4.3-4.7 7.7-4.9 1.7-.1 3.4.3 5.1.7 1.5.4 2.2 1.4 1.9 3-.1.8 0 1.5 0 1.9z"/><path d="m233.3 205.5c1.6 0 2.9.1 4.2 0 .9-.1 1.2.3 1.3 1.2.1 3.2.1 3.2-3.2 3.2-2.3 0-2.3 0-2.3 2.3 0 1.9.1 3.9 0 5.8-.1 2.9 1 3.3 3.5 3.3.6 0 1.3.2 1.9.3-.2 1.1-.4 2.2-.8 3.3-.1.4-.9.6-1.3.8-4.5 2.2-9.7-.9-9.9-5.8-.1-2.9-.1-5.7-.1-8.6 0-1 0-1.8-1.4-1.4-.3.1-.9-.4-1-.7-.2-.7-.3-1.5 0-2.1.2-.4 1-.6 1.5-.9 1.5-.7 2.5-1.9 2.9-3.5.6-2.4 1.5-3 3.9-2.3.3.1.7.8.7 1.2.2 1.2.1 2.5.1 3.9z"/><path d="m192.5 200.3c.9 0 1.7.1 2.5 0 1-.1 1.3.3 1.3 1.1v4.1h4.3c1 0 1.6.3 1.5 1.4v.8c0 2.1-.1 2.2-2.2 2.2-1.1 0-2.3 0-3.6 0 0 3.2-.1 6.3 0 9.3.1 1.5 1.5 2.2 3.6 2.1.7 0 1.3.2 2 .3-.3 1.1-.2 2.6-.9 3.2-2.8 2.7-9.4 1.1-10.8-2.5-.4-1.1-.3-2.5-.3-3.7 0-2.4 0-4.9 0-7.3 0-1-.1-1.7-1.4-1.6-.4 0-1.2-.7-1.2-1.1 0-.8.1-2.1.6-2.4 3.2-1.3 3.9-2.1 4.6-5.9z"/><path d="m150.8 200.3v5.2h4.6c.9 0 1.2.3 1.2 1.2.1 3.2.1 3.1-3.1 3.2-2.9.1-2.8-.6-2.8 2.8 0 1.8-.1 3.6 0 5.4.1 2.5 1.2 3.4 3.7 3.3.7 0 1.9.2 2 .5.2 1.3.4 2.8-1.1 3.4-1.5.5-3.2.8-4.8.9-2.7.2-4.5-1.1-5.6-3.5-.3-.6-.4-1.2-.4-1.9 0-3.1 0-6.2 0-9.3 0-1 0-1.7-1.4-1.6-.4 0-1.1-.8-1.2-1.3-.1-.8-.5-2 .8-2.3 2.6-.6 3.6-2.5 4-4.7.2-1.1.6-1.4 1.6-1.3z"/><path d="m132.8 210.3c.6-1.2 1-2.2 1.6-3 .8-1.3 2-2 3.7-2 1.2 0 1.9.6 2 1.7.2 1.2.1 2.4 0 3.5 0 .3-.5.6-.8.8-.3.1-.6.1-1 .1-3.8.3-5.5 2.4-5.4 6.1.1 2.3 0 4.7 0 7 0 1-.3 1.3-1.3 1.3-1.2-.1-2.4 0-3.6 0-1.1 0-1.6-.3-1.6-1.5 0-5.8 0-11.7 0-17.5 0-.3.2-1 .3-1 1.5-.1 3-.3 4.5-.1.4.1.8 1.4 1 2.1s.3 1.5.6 2.5z"/><path d="m130.2 169.3c.7-1.4 1.2-2.4 1.8-3.4.3-.5.7-1 1.2-1.3 2.4-1.3 4.6-1.3 4.4 2.4 0 .4-.1.9 0 1.3.2 1.5-.4 1.9-1.8 1.8-2.8-.1-5.4 2.2-5.2 5.3.1 2.5 0 5 0 7.5 0 1-.3 1.4-1.3 1.3-1.4 0-2.7 0-4.1 0-1 0-1.3-.4-1.3-1.4 0-5.8 0-11.6 0-17.4 0-.4.2-1 .3-1 1.5-.1 3-.4 4.5-.1.5.1.9 1.4 1.2 2.2.2.9.2 1.6.3 2.8z"/><path d="m178 215.4c0-2.7.1-5.4 0-8.1 0-1.4.2-2.1 1.8-1.8 1.1.2 2.2.1 3.2 0 1.1-.1 1.5.3 1.5 1.3v17.5c0 1-.4 1.5-1.5 1.4-1.2-.1-2.4-.1-3.6 0-1.1.1-1.4-.4-1.4-1.4 0-3 0-5.9 0-8.9z"/><path d="m70.7 215.4c0-2.8.1-5.5 0-8.3 0-1.2.2-1.8 1.6-1.7 1.2.1 2.4.1 3.6 0 1-.1 1.3.4 1.3 1.2v17.5c0 1.2-.4 1.7-1.7 1.5-1-.1-2.1-.1-3.1 0-1.4.2-1.7-.5-1.7-1.7 0-2.7 0-5.6 0-8.5z"/><path d="m73.9 197.2c2 0 3.3 1.4 3.3 3.5 0 2-1.5 3.6-3.4 3.6-1.6 0-3.5-1.9-3.5-3.6-.1-1.9 1.6-3.5 3.6-3.5z"/><path d="m178 200.7c0-2.2 1.3-3.5 3.5-3.5 2.3 0 3.3 1.9 3.4 3.6s-1.9 3.6-3.6 3.5c-1.9 0-3.3-1.5-3.3-3.6z"/></g></svg>