<svg viewBox="0 0 259.648 152.875" xmlns="http://www.w3.org/2000/svg"><path d="m47.977 7.085c6.431-5.223 13.7-7.831 21.8-6.779 10.207 1.326 17.944 6.629 22.689 15.939a28.371 28.371 0 0 1 3.052 13.7c-.065 3.087-.113 6.182.02 9.265a8.431 8.431 0 0 0 16.846-.188c.219-3.89-.073-7.807.121-11.7a27.589 27.589 0 0 1 8.631-18.891 27.608 27.608 0 0 1 22.264-8.201 28.031 28.031 0 0 1 21.17 11.961 28.784 28.784 0 0 1 5.504 17.709q-.186 14.142-.044 28.287c.042 4.571-3.9 8.574-7.728 9.509a10.346 10.346 0 0 1 -12.43-7.514 14.256 14.256 0 0 1 -.138-3.563q0-13.251.027-26.5c.01-5-3.061-8.76-7.919-9.183a8.39 8.39 0 0 0 -9.042 8.164c-.147 3.951.157 7.925-.108 11.865a28.522 28.522 0 0 1 -10.032 20.072 27.46 27.46 0 0 1 -11.945 6.186 26.793 26.793 0 0 1 -11.239.432c-9.543-1.783-16.576-6.866-21.108-15.432a27.43 27.43 0 0 1 -3.2-14.3c.116-2.6.054-5.2.008-7.8-.067-3.781-1.478-6.791-5.089-8.446a8.272 8.272 0 0 0 -11.04 4.281 11.521 11.521 0 0 0 -.732 4.227q-.1 13.9-.028 27.8c.015 4.562-3.671 8.7-7.935 9.739a10.36 10.36 0 0 1 -12.052-6.671 11.234 11.234 0 0 1 -.349-3.536c-.023-9.212.127-18.426-.056-27.634-.1-5.1-2.715-8.474-8.122-8.932a8.235 8.235 0 0 0 -8.7 8.058c.07 9.7.126 19.4-.023 29.1a10.522 10.522 0 0 1 -7.634 9.546c-5.1 1.6-10.97-2.068-12.319-6.435a14.454 14.454 0 0 1 -.522-4.168q-.056-13.652.004-27.31c.043-11.684 5.272-20.478 15.321-26.198a26.1 26.1 0 0 1 16.849-3.269 28.082 28.082 0 0 1 15.228 6.81z" fill="#00a6ad"/><g fill="#014b58"><path d="m14.889 102.044c.49-1.722.99-3.442 1.468-5.167q1.043-3.783 2.066-7.577a33.343 33.343 0 0 1 .933-3.554 1.959 1.959 0 0 1 1.38-1.068c2.431-.11 4.872.009 7.3-.081 1.051-.039 1.356.372 1.355 1.3q-.007 11.862.006 23.724c0 .941-.379 1.209-1.284 1.148a24.179 24.179 0 0 0 -3.729-.009c-1.2.106-1.5-.358-1.48-1.473.1-5.626.147-11.253.2-16.88a4.672 4.672 0 0 0 -.313-.871c-.609 2.042-1.139 3.672-1.578 5.326-1.114 4.193-2.174 8.4-3.288 12.593-.244.92-.807 1.523-1.9 1.268a2.152 2.152 0 0 0 -.486.013c-4.162.049-4.351-.182-5.083-4.272-.414-2.314-1.068-4.589-1.676-6.864a51.153 51.153 0 0 0 -2.523-7.53v1.566c.007 5.2-.015 10.4.042 15.6.013 1.192-.288 1.551-1.559 1.517-4.225-.114-4.233-.053-4.24-4.227-.01-6.716 0-13.432-.029-20.147-.006-1.3.41-1.846 1.813-1.765a47.017 47.017 0 0 0 6.169-.014 1.7 1.7 0 0 1 2.012 1.4c.6 2.161 1.1 4.353 1.672 6.522.644 2.428 1.344 4.842 1.991 7.271.189.713.28 1.452.415 2.179z"/><path d="m154.642 94.147a17.37 17.37 0 0 0 .892-2.346c.219-.982.808-1.086 1.661-1.086 3.326 0 3.333-.023 3.316 3.369-.023 4.767-.042 9.535-.1 14.3a8.979 8.979 0 0 1 -7.736 8.383 19.44 19.44 0 0 1 -9.25-.672 2.667 2.667 0 0 1 -2.055-3.021c.074-.923.087-1.851.135-2.946a10.858 10.858 0 0 0 10.064 1.075c2-.784 2.781-2.6 2.52-4.778-1.141.791-2.212 1.926-3.518 2.37-5.057 1.72-9.935-.772-10.593-6.489-.282-2.446-.453-4.941.716-7.314a7.849 7.849 0 0 1 6.279-4.722c3.167-.405 5.758.541 7.3 3.557.071.126.227.201.369.32zm-4.695.508c-.944.585-2.155.969-2.777 1.8-1.349 1.8-1.285 3.931-.607 6.022.542 1.672 1.541 2.8 3.476 2.792a3.479 3.479 0 0 0 3.645-2.782 9.015 9.015 0 0 0 .334-4.107 4.194 4.194 0 0 0 -4.071-3.725z"/><path d="m6.91 135.671c0 2.382.161 4.778-.037 7.143-.318 3.806 3.139 5.184 5.99 4.595 2.417-.5 3.461-1.912 3.474-4.514.027-5.09.051-10.181 0-15.271-.014-1.325.288-1.886 1.743-1.668a16.251 16.251 0 0 0 3.4-.015c1.046-.068 1.484.308 1.457 1.384-.147 5.785 0 11.592-.466 17.35-.356 4.419-3.368 7.245-7.9 7.751-2.9.323-5.793.464-8.615-.714a8.47 8.47 0 0 1 -5.2-6.3c-1.391-6.039-.381-12.182-.675-18.271-.04-.836.162-1.3 1.2-1.207a25.772 25.772 0 0 0 4.055.009c1.253-.086 1.6.425 1.569 1.607-.065 2.706-.021 5.415-.021 8.123z"/><path d="m93.514 107.1a15.793 15.793 0 0 1 -1.4 2.071 7.093 7.093 0 0 1 -11.4-1.587 13.8 13.8 0 0 1 .073-13.736c2.3-4.2 9.383-5.2 11.921-.827.088.15.289.234.657.519 0-2.98.079-5.71-.032-8.433-.061-1.5.525-1.931 1.9-1.816a13.472 13.472 0 0 0 2.916 0c1.437-.2 1.86.276 1.844 1.742-.077 7.089-.041 14.179-.045 21.269v4.521a18.2 18.2 0 0 1 -4.473-.106c-.694-.186-1.151-1.437-1.6-2.269-.175-.327-.028-.826-.028-1.247zm-.12-6.482c-.09-.866-.149-1.894-.313-2.9-.286-1.761-1.753-2.721-3.97-2.668a2.957 2.957 0 0 0 -3.147 2.779 32.974 32.974 0 0 0 .024 5.8c.288 2.347 3.35 3.965 5.408 2.357 1.779-1.394 1.867-3.271 1.998-5.37z"/><path d="m67.48 135.691a7 7 0 0 1 8.532-3.9 8.82 8.82 0 0 1 5.441 6.961 17.681 17.681 0 0 1 -.764 8.739 7.407 7.407 0 0 1 -5.395 4.882c-2.683.561-5.309.114-7.152-2.282a24.855 24.855 0 0 1 -1.431-2.47c-.111 1.155-.13 1.863-.256 2.552-.233 1.285-.753 2.1-2.356 2.008-3.139-.185-3.154-.095-3.157-3.293-.007-7.588.024-15.176-.033-22.764-.01-1.3.392-1.76 1.677-1.642a12.355 12.355 0 0 0 3.081-.022c1.36-.222 1.731.305 1.7 1.559-.072 2.924-.072 5.849-.091 8.774a5.356 5.356 0 0 0 .204.898zm7.989 6.221-.262-.065c0-.648.037-1.3-.007-1.944a3.781 3.781 0 0 0 -3.169-3.546 3.826 3.826 0 0 0 -3.8 1.6 8.717 8.717 0 0 0 .124 8.328 3.138 3.138 0 0 0 3.281 1.657 3.039 3.039 0 0 0 2.925-2.345c.29-1.228.605-2.455.908-3.685z"/><path d="m193.583 94.118c1.439-1.185 2.67-2.694 4.258-3.4 3.377-1.508 8.52-.224 8.77 5.115.215 4.59.157 9.192.236 13.788.015.858-.406 1.134-1.2 1.124-1.667-.022-3.334-.007-5.248-.007v-3.213q0-4.466 0-8.932c0-2.112-1.055-3.457-2.736-3.5a3.819 3.819 0 0 0 -3.734 3.544c-.061 3.463-.058 6.929-.013 10.393.017 1.223-.124 1.953-1.67 1.721a19.985 19.985 0 0 0 -3.725.008c-.907.037-1.293-.378-1.292-1.242 0-5.845-.006-11.69.029-17.535 0-.366.3-1.016.525-1.047 1.165-.161 2.352-.163 3.532-.219 1.751-.082 1.719 1.268 1.961 2.418a7.625 7.625 0 0 0 .307.984z"/><path d="m33.538 135.8c.561-.721 1.035-1.4 1.578-2.017a6.959 6.959 0 0 1 9.085-1.132 5.121 5.121 0 0 1 2.255 4.1c.13 4.711.1 9.427.117 14.141 0 .883-.339 1.392-1.392 1.293a17.3 17.3 0 0 0 -3.568-.013c-1.363.156-1.4-.658-1.4-1.576-.019-3.576 0-7.152-.049-10.728-.033-2.358-.865-3.309-2.771-3.349a3.421 3.421 0 0 0 -3.6 3.38c-.118 3.354-.071 6.713-.095 10.07-.015 2.184-.02 2.193-2.11 2.2-.975 0-1.956-.082-2.925 0-1.317.106-1.687-.5-1.68-1.718q.054-8.536 0-17.072c-.008-1.158.437-1.568 1.544-1.453 1.259.13 2.813-.2 3.7.434.793.561.866 2.153 1.311 3.44z"/><path d="m63.058 95.166a6.49 6.49 0 0 1 4.307-4.656c3.079-.949 7.435-.166 8.19 3.943a38.588 38.588 0 0 1 .6 5.724c.1 3.083-.005 6.171.043 9.255.017 1.049-.264 1.451-1.392 1.334a22.636 22.636 0 0 0 -3.728 0c-1.211.074-1.612-.425-1.594-1.6.052-3.3.082-6.6-.008-9.9a5.844 5.844 0 0 0 -.751-3.322c-1.234-1.522-4.223-.851-5.031 1.028a9.648 9.648 0 0 0 -.78 3.409c-.1 2.973-.065 5.953-.012 8.93.019 1.106-.256 1.607-1.481 1.444a10.764 10.764 0 0 0 -2.913.016c-1.49.212-1.916-.3-1.892-1.8.087-5.573.054-11.149.014-16.724-.009-1.166.263-1.789 1.562-1.473a2.69 2.69 0 0 0 .645-.04c3.332-.052 3.565.153 3.986 3.471.027.17.087.346.235.961z"/><path d="m163.632 100.327c-.191-6.6 4.844-10.224 10.456-10.154 5.344.066 10.957 3.694 10.035 11.958-.639 5.722-4.038 9.181-10.479 9.135-6.153-.044-10.236-4.053-10.012-10.939zm6.241.366c.3 1.372.5 2.745.9 4.06.5 1.635 1.587 2.206 3.517 2.053a3.059 3.059 0 0 0 2.982-2.669 51.93 51.93 0 0 0 .032-6.41 3.411 3.411 0 0 0 -3.163-3.113 3.485 3.485 0 0 0 -3.455 2.283 34.9 34.9 0 0 0 -.813 3.796z"/><path d="m43.118 90.191c5.686-.035 10.411 3.647 10.267 10.5-.15 7.12-4.329 10.524-10.236 10.58-5.85.055-10.323-3.481-10.329-10.957a9.783 9.783 0 0 1 10.298-10.123zm4.016 10.559-.262-.046a23.289 23.289 0 0 0 -.026-2.59 6.267 6.267 0 0 0 -.574-1.487 3.2 3.2 0 0 0 -3.382-1.941 3.046 3.046 0 0 0 -3.132 2.692 42.253 42.253 0 0 0 -.008 6.244c.175 2.144 1.087 3.07 2.921 3.144 1.68.067 2.956.171 3.7-2.439.329-1.171.511-2.383.763-3.577z"/><path d="m195.565 149.191c-.651.746-1.126 1.38-1.69 1.92a7.533 7.533 0 0 1 -6.682 1.138 5.542 5.542 0 0 1 -3.315-5.6c.038-2.406 2.113-4.254 5.1-5.053 1.712-.459 3.44-.886 5.106-1.48a1.783 1.783 0 0 0 1.023-1.331 2.121 2.121 0 0 0 -1.111-1.431c-2.525-1.127-4.963-.273-7.311.661-1.07.425-1.476.355-1.556-.842-.181-2.7.289-3.48 2.945-4.687a12.393 12.393 0 0 1 9.153-.4c3.213 1.044 4.385 3.84 4.552 6.965.213 3.993.223 8 .22 12 0 .376-.656.9-1.116 1.085a4.626 4.626 0 0 1 -1.606.024c-2.992-.005-2.992-.005-3.712-2.969zm-.089-6.572a18.481 18.481 0 0 0 -3.5 1.748 4.008 4.008 0 0 0 -1.481 2.44 2.432 2.432 0 0 0 1.571 1.843 2.963 2.963 0 0 0 2.479-1.154 23.092 23.092 0 0 0 .931-4.877z"/><path d="m91.04 143.544a2.984 2.984 0 0 0 1.972 3.359c3 1.278 5.9.591 8.789-.451.988 2.006.584 3.742-1.223 4.766-3.748 2.124-11.387 1.952-14.339-2.274a12.092 12.092 0 0 1 -1.75-9.686 8.889 8.889 0 0 1 5.589-6.985c4.375-1.677 10.742-1.02 12.548 4.626.562 1.758.258 3.823.15 5.736-.017.314-1.067.8-1.65.815-3.084.084-6.173.042-9.26.047-.254.003-.508.029-.826.047zm6.379-3.38c-.136-1.646-.153-3.315-1.588-3.97a4.385 4.385 0 0 0 -3.35.2c-1.4.7-1.636 2.218-1.371 3.767z"/><path d="m227.363 143.546a3.1 3.1 0 0 0 2.184 3.425c2.736 1.071 5.4.543 8.064-.3a5.918 5.918 0 0 1 .591-.124c.886 3.141.277 4.218-2.7 5.24a12.987 12.987 0 0 1 -10.05-.433c-4.264-2.007-5.576-7.633-4.716-11.706.706-3.348 2.378-6.015 5.646-7.334 4.384-1.77 10.567-1 12.42 4.215.681 1.917.3 4.226.27 6.355 0 .21-.955.573-1.471.582-3.083.055-6.167.026-9.251.029-.314-.001-.623.031-.987.051zm6.357-3.342c.083-1.616-.109-3.222-1.444-3.9a4.4 4.4 0 0 0 -3.464.092c-1.389.682-1.718 2.19-1.3 3.812z"/><path d="m253.225 148.84c-2.778 4.454-7.871 5.034-10.486 1.631-2.105-2.74-1.363-7.014 2.1-8.136 2.242-.726 4.528-1.32 6.743-2.115.6-.215 1.439-.987 1.4-1.435-.049-.559-.807-1.21-1.413-1.535-1.526-.818-5.1-.431-8.214 1.244a3.575 3.575 0 0 1 .831-5.165 11.983 11.983 0 0 1 8.844-1.64c2.1.355 4.04 1 5.085 2.994a9.138 9.138 0 0 1 1.165 3.57c.233 4.216.241 8.444.369 12.666.028.919-.344 1.31-1.234 1.265a5.645 5.645 0 0 0 -.649-.027c-2.214.143-4.482.384-4.541-3.317zm.109-5.871-.565-.167c-1.18.6-2.365 1.189-3.539 1.8a2.123 2.123 0 0 0 -.907 2.792 2.3 2.3 0 0 0 1.731 1.332 3.192 3.192 0 0 0 2.293-1.377 21.644 21.644 0 0 0 .987-4.38z"/><path d="m137.014 110.636h-5.6l-.9-2.245c-1.29.877-2.412 2.027-3.76 2.447a7.963 7.963 0 0 1 -4.333.024c-2.52-.722-3.641-2.695-3.513-5.309.145-2.967 1.681-4.133 4.1-4.92 1.835-.6 3.744-.965 5.6-1.5.9-.261 1.961-.768 1.572-1.844a2.82 2.82 0 0 0 -1.976-1.4 11.124 11.124 0 0 0 -7.864 1.466c-.979-2.578-.381-4.446 1.756-5.714 3.424-2.031 9.278-1.964 11.862.141a6.665 6.665 0 0 1 2.654 5.314c.025 2.978.023 5.957.09 8.934.027 1.448.19 2.896.312 4.606zm-6.4-9.413c-1.691.836-2.859 1.353-3.966 1.977a2.076 2.076 0 0 0 -1.248 2.528 2.768 2.768 0 0 0 1.529 1.584 2.024 2.024 0 0 0 2.745-1.285c.403-1.437.584-2.936.938-4.804z"/><path d="m153.591 137.069c-2.5-.348-4.733-.7-6.975-.939a2.453 2.453 0 0 0 -1.488.479c-.4.276-.918.8-.894 1.182a1.6 1.6 0 0 0 1.034 1.047c1.87.5 3.781.835 5.665 1.281a4.885 4.885 0 0 1 3.63 4.055c.734 4.663-1.927 8.242-6.823 8.3a25.746 25.746 0 0 1 -6.522-.711c-2.744-.691-3.307-2.268-2.24-4.985a46.034 46.034 0 0 0 5.119 1.207 10.1 10.1 0 0 0 3.652-.357 1.793 1.793 0 0 0 1.092-1.366c-.063-.456-.812-1.019-1.361-1.167a32 32 0 0 0 -4.289-.793c-3.65-.467-5.292-4.887-4.306-7.855 1.262-3.8 4.318-4.74 7.719-4.934a18.08 18.08 0 0 1 5.083.736 2.413 2.413 0 0 1 1.921 3.044 10.287 10.287 0 0 0 -.017 1.776z"/><path d="m213.13 131.928c1.605 0 2.9.057 4.178-.019.936-.056 1.245.3 1.274 1.2.107 3.194.126 3.193-3.167 3.219-2.3.018-2.3.018-2.3 2.321 0 1.948.077 3.9-.013 5.842-.133 2.877.99 3.293 3.51 3.282a11.8 11.8 0 0 1 1.876.285 23.886 23.886 0 0 1 -.784 3.28c-.149.392-.858.6-1.34.834a6.838 6.838 0 0 1 -9.88-5.793c-.126-2.863-.08-5.734-.063-8.6.006-.987.022-1.775-1.376-1.446-.265.062-.89-.416-.964-.734a3.476 3.476 0 0 1 0-2.068c.2-.445.987-.648 1.535-.911a5.108 5.108 0 0 0 2.918-3.463c.59-2.385 1.52-3.023 3.851-2.346.333.1.677.758.707 1.18.097 1.274.038 2.563.038 3.937z"/><path d="m172.293 126.715a17.351 17.351 0 0 0 2.475-.023c.986-.147 1.277.263 1.266 1.145-.016 1.348 0 2.7 0 4.112 1.525 0 2.92.031 4.313-.01.993-.028 1.577.273 1.463 1.381a7.594 7.594 0 0 0 .009.812c.015 2.108-.051 2.178-2.15 2.193-1.126.007-2.251 0-3.6 0 0 3.186-.108 6.256.046 9.314.076 1.516 1.532 2.189 3.6 2.145a10.167 10.167 0 0 1 2 .347c-.274 1.1-.191 2.581-.885 3.236-2.826 2.663-9.443 1.087-10.782-2.51a11.325 11.325 0 0 1 -.338-3.692c-.038-2.436-.008-4.875.027-7.312.015-1-.124-1.663-1.421-1.569a1.614 1.614 0 0 1 -1.16-1.1c-.02-.814.113-2.135.607-2.374 3.114-1.51 3.825-2.286 4.53-6.095z"/><path d="m130.587 126.736v5.23c1.705 0 3.153.033 4.6-.012.9-.028 1.221.282 1.248 1.213.089 3.153.124 3.122-3.071 3.178-2.936.052-2.772-.61-2.794 2.758-.012 1.786-.051 3.575.019 5.359.1 2.518 1.215 3.415 3.72 3.291.686-.034 1.939.184 1.99.461.232 1.254.366 2.823-1.139 3.363a17.955 17.955 0 0 1 -4.823.929 5.391 5.391 0 0 1 -5.613-3.539 4.867 4.867 0 0 1 -.381-1.86c-.039-3.085-.032-6.172-.01-9.258.006-.971-.023-1.7-1.386-1.551-.361.039-1.106-.786-1.167-1.278-.1-.8-.542-2 .793-2.3 2.567-.562 3.553-2.479 3.968-4.717.2-1.085.568-1.368 1.552-1.284.74.067 1.49.017 2.494.017z"/><path d="m112.6 136.746c.6-1.187 1-2.158 1.554-3.029a4.051 4.051 0 0 1 3.66-1.962 1.807 1.807 0 0 1 2.017 1.658 15.864 15.864 0 0 1 -.046 3.544c-.028.3-.48.633-.812.815a2.551 2.551 0 0 1 -.958.105c-3.8.316-5.493 2.419-5.41 6.055.054 2.327-.026 4.657.027 6.984.022 1-.311 1.34-1.322 1.266a30.8 30.8 0 0 0 -3.569.011c-1.056.046-1.616-.281-1.611-1.455.027-5.847.006-11.693.024-17.54 0-.349.176-.992.309-1a19.026 19.026 0 0 1 4.462-.089c.45.071.759 1.357 1.032 2.122.259.734.391 1.515.643 2.515z"/><path d="m110.028 95.743c.724-1.371 1.217-2.415 1.816-3.395a3.512 3.512 0 0 1 1.212-1.264c2.385-1.277 4.561-1.278 4.355 2.376a6.3 6.3 0 0 0 -.013 1.294c.224 1.46-.381 1.895-1.819 1.849a5.058 5.058 0 0 0 -5.238 5.323c.132 2.486-.025 4.985.029 7.476.022 1-.323 1.366-1.305 1.334-1.353-.046-2.71-.037-4.062.011-1 .036-1.337-.42-1.334-1.367.017-5.8 0-11.594.02-17.391 0-.351.186-.992.33-1.005a17.362 17.362 0 0 1 4.476-.124c.513.089.9 1.414 1.17 2.232a15.986 15.986 0 0 1 .363 2.651z"/><path d="m157.838 141.832c0-2.7.061-5.413-.026-8.116-.043-1.358.195-2.052 1.778-1.793a13.042 13.042 0 0 0 3.238 0c1.064-.095 1.468.261 1.463 1.343-.03 5.844-.021 11.689-.011 17.533 0 1.023-.386 1.462-1.474 1.374a21.3 21.3 0 0 0 -3.563 0c-1.138.1-1.421-.421-1.413-1.413.021-2.974.007-5.951.008-8.928z"/><path d="m50.542 141.875c0-2.762.055-5.524-.024-8.283-.036-1.239.218-1.821 1.614-1.663a17.747 17.747 0 0 0 3.562-.03c1-.089 1.254.411 1.254 1.228 0 5.847-.021 11.694-.014 17.541 0 1.154-.395 1.681-1.656 1.514a12.538 12.538 0 0 0 -3.079-.013c-1.382.165-1.684-.511-1.672-1.686.028-2.869.009-5.739.009-8.608z"/><path d="m53.757 123.666a3.184 3.184 0 0 1 3.3 3.529 3.529 3.529 0 0 1 -3.376 3.6 4.1 4.1 0 0 1 -3.545-3.62 3.545 3.545 0 0 1 3.621-3.509z"/><path d="m157.786 127.164a3.272 3.272 0 0 1 3.476-3.532c2.275-.031 3.264 1.934 3.373 3.6.114 1.739-1.876 3.557-3.565 3.539a3.393 3.393 0 0 1 -3.284-3.607z"/></g></svg>