<svg viewBox="0 0 273.452 133.594" xmlns="http://www.w3.org/2000/svg"><g fill="#982a32"><path d="m94.869 64.925a63.863 63.863 0 0 1 -15.199 41.175 51.938 51.938 0 0 1 -15.482 13.064c-3.777 2.026-7.739 3.47-12.121 3.195a25.08 25.08 0 0 1 -11.031-3.69c-8.21-4.756-14.5-11.479-19.581-19.389a61.811 61.811 0 0 1 -9.924-28.68 58.092 58.092 0 0 1 5.463-29.7c5.053-10.831 12.224-19.918 22.292-26.546a31.5 31.5 0 0 1 9.334-4.249c4.985-1.311 9.667-.259 14.16 1.942 7.447 3.646 13.356 9.14 18.387 15.624a63.711 63.711 0 0 1 12.987 29.629c.446 2.87.551 5.8.715 7.625zm-64.484 12.233c-.052.252-.089.442-.13.631-.856 3.927-1.781 7.842-2.52 11.792a11.121 11.121 0 0 0 .342 3.189l.629.3.963-1.765.5.428a7.2 7.2 0 0 1 -2.1 2.613c-.638-1.6-1.234-2.975-1.73-4.382a16.615 16.615 0 0 1 -.911-3.3 2.621 2.621 0 0 0 -3.5-1.871l.964 1.108-1.214.434c.69.556 1.69.7 1.093 1.458.585.372 1.506.65 1.556 1.04.256 2 .293 4.028.393 6.047.019.386-.183.883-.009 1.145a38.827 38.827 0 0 0 2.581 3.445 1.16 1.16 0 0 0 1.11.081c.807-.5 1.515-1.164 2.291-1.723a2.611 2.611 0 0 1 .8-.247c-.077.266-.073.612-.244.783a8.294 8.294 0 0 1 -1.642 1.389c-.779.449-.81.947-.432 1.652.224.42.339.9.575 1.312a.942.942 0 0 0 .6.441 5.764 5.764 0 0 0 5.807-5.118c.081-3.483.835-6.5 4.225-8.381 1.645-.913 2.2-2.692 2.281-4.5l-1.966.554 1.615-4.571-.3-.134a5.858 5.858 0 0 1 -.709.606 4.7 4.7 0 0 1 -.8.323 3.009 3.009 0 0 1 .008-.849c.236-.783.53-1.548.879-2.543l-1.806 1.28-.252-.244.986-3.132a43.139 43.139 0 0 1 -3.762 3.5 13 13 0 0 0 -4.985 6.834c-.076.247-.381.424-.579.633-.061-.3-.269-.677-.161-.9.77-1.566 1.275-3.465 2.492-4.56a6.133 6.133 0 0 0 2.105-5.956c-.016-.117-.039-.232-.056-.336l-1.208-.158-.2-.364c1.458-.354 2.551-1 2.5-3l-3.315 1.725-.184-.224.787-1.252c-.427-.278-.994-.462-1.25-.851a1.829 1.829 0 0 0 -2.061-.75 5.646 5.646 0 0 1 -4.327-1.368 15.026 15.026 0 0 0 -1.333-.837l-.681 1.525 3.766 2.99-.109.418-5.252.363-.034.375a21.965 21.965 0 0 1 2.319 1.022 16.338 16.338 0 0 0 2.474 1.641 12.275 12.275 0 0 0 3.121.239zm25-18.114c-.623 3.817-1.242 7.873-1.957 11.911-.783 4.423-.084 9.254-3.7 13.063a65.407 65.407 0 0 0 14.4-1.087c3.167-.6 4.272-2.306 3.646-5.6-.96-5.047-2.109-10.059-3.19-15.141-.57 0-1.2-.04-1.834.01-.836.067-1.323-.114-1.441-1.1a21.9 21.9 0 0 0 -.709-2.87zm-15.8 2.35c.688.729 1.4 1.27 2.422.831a6.094 6.094 0 0 0 1.974-1.093c2.338-2.393 4.607-4.855 6.86-7.329a1.473 1.473 0 0 0 .2-1.108c-.636-3.487-1.314-6.965-1.972-10.448a7.535 7.535 0 0 1 -.064-.892l.472-.079c1.682 3.595 1.8 7.58 2.386 11.035l4.849.447c1.558-6.244 1.982-12.82 2.288-19.705-2.755 3.09-6.625 2.786-8.406-.391a6.562 6.562 0 0 0 -5.494 5.471c-.741 4-1.207 8.047-1.725 12.083a21.8 21.8 0 0 0 -.316 5c.341 3.162-.475 4.884-3.468 6.178zm28.186-17.654c3.605 16.634 7.229 33.377 10.862 50.12h.214l2.224-6.533c-1.744-.193-2.936-.94-3.306-2.531a3.127 3.127 0 0 1 1.484-3.508 1.045 1.045 0 0 0 .324-.886c-.765-3.587-1.573-7.162-2.382-10.789a3.313 3.313 0 0 1 -3.352-2.433c-.5-1.845.483-3.033 1.953-3.937l-2.463-11.095c-2.125-.265-3.27-1.272-3.474-2.973a3.254 3.254 0 0 1 2.229-3.322c1.609-.514 2.949.155 4.11 2.078 1.478-.23 2.972-.467 4.468-.7 1.087-.166 2.169-.2 2.3-1.771.044-.535.754-1.094 1.278-1.485a6.846 6.846 0 0 1 1.636-.663l-.715-3.1zm7.859-2.369a1.036 1.036 0 0 0 0-.329c-2.283-6.542-4.53-13.094-6.889-19.609a7.714 7.714 0 0 0 -1.843-2.6 2.165 2.165 0 0 0 -3.371.144 5.876 5.876 0 0 0 -1.227 2.011c-.561 1.74-.987 3.525-1.433 5.3-.306 1.218-.555 2.451-.855 3.793 3.414.157 5.213 2.335 6.841 4.722.943 1.384 1.811 2.819 2.736 4.216 2.092 3.155 2.1 3.152 5.807 2.462a1.039 1.039 0 0 0 .234-.11zm-4.846.843c-1.726-2.6-3.337-5.119-5.051-7.565a14.6 14.6 0 0 0 -2.35-2.538 4.407 4.407 0 0 0 -3.246-1.138c-.582 6.542-1.154 12.961-1.726 19.374 3.209.061 4.407 2.756 6 4.9 3.186-1.764 4.146-3.775 3.457-7.148-.356-1.742-.728-3.482-1.105-5.281zm-19.184 14.503c-.14.489-.218.833-.337 1.162-1.073 2.948-2.1 5.914-3.251 8.831-.7 1.777-1.621 3.466-2.395 5.215a14.375 14.375 0 0 0 -1.464 6.234 5.263 5.263 0 0 0 2.544 4.724c1.471.888 2.671.7 3.551-.8a9.859 9.859 0 0 0 1.263-3.183c.471-2.667.694-5.377 1.11-8.055.647-4.164 1.371-8.316 2.085-12.6zm6.63 27.935c.055.4.108.785.161 1.172a47.11 47.11 0 0 1 .682 5.2c.056 2.147-.147 4.3-.3 6.452a60.374 60.374 0 0 1 -.669 7.358 6.471 6.471 0 0 0 1.922 6.3c1.112 1.1 2.259 2.2 3.921 2.343a1.862 1.862 0 0 0 1.377-.43c.174-.188-.041-.933-.29-1.276-.821-1.128-1.716-2.2-2.622-3.267a4.4 4.4 0 0 1 -.928-3.916c1.089-5.834 3-11.507 3.4-17.479.081-1.188.382-2.362.574-3.5zm-9.172-52.4c-5.562-1.531-8.289-4.829-8.037-9.711.06-1.161-.5-1.478-1.381-1.663a1.351 1.351 0 0 0 -1.8 1.235 12.025 12.025 0 0 0 -.21 2.137 68.305 68.305 0 0 0 2.186 16.215c.769 2.95 1.677 5.864 2.522 8.794.6-2.768.9-5.487 1.3-8.191.533-3.636 1.353-7.135 5.42-8.82zm-2.926 51.618c0 1.681-.054 3.594.019 5.5.05 1.307.376 2.605.409 3.911.086 3.507.016 7.018.153 10.522a1.982 1.982 0 0 1 -1.088 2.208c-.951.5-1.772 1.262-2.748 1.687a2.011 2.011 0 0 0 -1.183 2.542c.115.722.493 1.127 1.243.75 1.955-.984 3.921-1.955 5.816-3.045a2.169 2.169 0 0 0 .846-1.46c.381-3.084.6-6.189 1-9.269.394-2.989.5-6.03 1.633-8.9a18.36 18.36 0 0 0 .682-3.076zm40.748-21.943v-12.091a3.508 3.508 0 0 1 -3.965-1.8.825.825 0 0 0 -.7-.242c-1.962.3-3.919.649-5.819.972a6.216 6.216 0 0 1 -.536 1.534 1.235 1.235 0 0 0 .182 1.769c1.041 1.208 1.989 2.5 2.979 3.747 1.728 2.183 3.458 4.363 5.152 6.5a9.751 9.751 0 0 1 1.259-.369 11.569 11.569 0 0 1 1.448-.02zm-34.757-36.478.554.024a5.018 5.018 0 0 1 -.023 1.415 16.149 16.149 0 0 1 -1.024 2.529c-.508 1.006-.3 3.512.519 4.161a4.477 4.477 0 0 0 4.333.488c1.467-.452 1.979-1.753 2.413-3.061a.606.606 0 0 0 -.167-.511c-2.25-2.07-4.185-4.535-7.124-5.868a4.152 4.152 0 0 0 .606-.848 1.675 1.675 0 0 0 .024-.912c-.018-.093-.416-.234-.477-.177a2.062 2.062 0 0 0 -.528.732 9.754 9.754 0 0 0 -.311 1.3c-.3-.275-.452-.356-.515-.48a3.684 3.684 0 0 0 -3.854-1.56c-.889.388-1.756.829-2.713 1.285l.5 1.1 1.215-.359.763 2.728 1.555 1.019 1.19-.106-.379 1.043c.8.875 1.571.652 2.118-.248a13.749 13.749 0 0 0 1.01-2.384 10.768 10.768 0 0 0 .315-1.31zm25.977 44.392c.707 3.219 1.469 6.727 2.265 10.226a1.186 1.186 0 0 0 .562.766 16.9 16.9 0 0 0 2.087.534c1.005-4.324 2-8.617 2.882-12.4-1.2-1.081-2.046-1.857-2.915-2.6a1.108 1.108 0 0 0 -.692-.283c-.709.042-1.415.161-2.122.25l.246.229zm-41.207-27.236c-.595.921-2.065.618-1.862 2.037.447 3.121.845 6.253 1.447 9.345a27.441 27.441 0 0 0 1.668 5.443c.526 1.241 1.462 1.288 2.552.477a4.034 4.034 0 0 0 1.328-5.028c-.465-1.315-1.026-2.595-1.569-3.879-1.141-2.711-2.297-5.414-3.564-8.395zm13.714-11.495-.054-.352c-1.4.214-2.264-.595-3.209-1.428-.91-.8-2.146-1.268-2.216-2.737 0-.066-.19-.124-.291-.185a3.419 3.419 0 0 1 -1.408-4.871 10.768 10.768 0 0 1 2.271-2.747c4.508-3.9 8.422-2.752 10.17 2.962.5 1.644.874 3.329 1.306 5l.327.043a19.282 19.282 0 0 0 .671-3.3 7.772 7.772 0 0 0 -4.426-7.624 7.775 7.775 0 0 0 -8.683.754 7.916 7.916 0 0 0 -3.068 8.288 8.155 8.155 0 0 0 7.656 6.449 3.563 3.563 0 0 0 .954-.252zm-20.2 73.063c.945 1.342 1.843 2.653 2.792 3.927a.952.952 0 0 0 .793.323c3.044-.784 5.973-2.9 5.832-6.466a14.591 14.591 0 0 0 -.706-3.462c-.425-1.448-.983-2.857-1.483-4.283a21.153 21.153 0 0 0 -.667 4.024 5.67 5.67 0 0 1 -3.322 4.785 27.465 27.465 0 0 1 -3.236 1.152zm46.193-41.087a3.575 3.575 0 0 1 3.236 1.978.916.916 0 0 0 .723.366c.7-.034 1.4-.171 2.017-.255a5.742 5.742 0 0 1 .548-1.55c.484-.646.216-1.069-.18-1.567-2.561-3.218-5.1-6.449-7.676-9.659a3.536 3.536 0 0 0 -.868-.586 4.224 4.224 0 0 0 -.053 1.093c.727 3.349 1.48 6.694 2.253 10.18zm-30.282 54.254a8.669 8.669 0 0 0 7.691-1.323 2.018 2.018 0 0 0 .8-1.108c.515-3.181-.536-6.268-4.433-7.361-.982 1.105-.911 1.1-.845 2.566a5.348 5.348 0 0 1 -.344 2.57c-.811 1.598-1.871 3.071-2.869 4.656zm23.139-61.9a7.08 7.08 0 0 1 -.88 1.086c-.923.726-.882 1.569-.631 2.628 1.254 5.276 2.434 10.569 3.606 15.863.409 1.844.72 3.709 1.119 5.791.839-1.04 1.945-1.619 1.651-2.978-1.606-7.402-3.216-14.803-4.865-22.39zm7.568 34.907c-3.734.983-6.656 2.575-7.74 6.42-.519 1.841-1.069 3.678-1.707 5.481-.84 2.376-1.761 4.728-4.156 6.161l2.646 3.24c.278-.425.527-.785.754-1.158 1.948-3.2 2.637-6.807 3.461-10.389.9-3.9 2.006-7.732 7.026-8.263zm-35.51 21.44c-.093-.157-.2-.316-.284-.484a2.916 2.916 0 0 1 1.269-4.293c.786-.459 1.54-.973 2.309-1.462l-.4.286-3.653-4.026a6.1 6.1 0 0 1 -1.894 4.732 49.182 49.182 0 0 1 -4.785 3.211c.825.708 1.757 1.455 2.629 2.266 2.135 1.984 2.278 2 4.548.094a2.513 2.513 0 0 0 .261-.324zm-8.074-68.442-.361.234 5.52 33.259c.844-.775 1.358-1.418 1.126-2.5-1.25-5.832-1.649-11.8-3.445-17.569-1.181-3.769-1.361-7.849-2.046-11.781a6.656 6.656 0 0 0 -.794-1.643zm6.052 70.684-.034.583c1.617.724 3.231 1.458 4.857 2.16a.952.952 0 0 0 .675-.035c2.513-1.071 4.18-4.606 3.461-7.58zm32.452-5.6.4.291c.3-.422.615-.838.91-1.266.313-.454.61-.919.914-1.379 1.463.545 1.62-.764 2-1.514.745-1.471-.967-.971-1.39-1.491a5.316 5.316 0 0 1 3.5-3.955 6.779 6.779 0 0 0 3.638-3.3c.913-1.727.445-3.289-1.444-4.6.028.581-.1 1.081.092 1.4.825 1.389.8 2.523-.359 3.624a7.366 7.366 0 0 1 -2.206 1.61 6.427 6.427 0 0 0 -4.226 5.195c-.009.054-.119.09-.071.056-.613-.034-1.506-.208-1.559-.068a22.3 22.3 0 0 0 -.719 2.87l1.261-.092c-.163.578-.278.983-.392 1.389s-.234.822-.349 1.234zm-50.516-43.815c.634 2.032 1.388 2.737 2.678 2.556a2.214 2.214 0 0 0 1.987-2.07c-.1-2-1.783-1.871-3.162-2.116l-.123-.316 2.227-1.435-.174 1.436 3.294-.341-1.816-3.181c-.5.518-.894 1.318-1.418 1.411a3.744 3.744 0 0 0 -3.085 2.325 1.406 1.406 0 0 1 -.491.629c-1.7 1.049-2.05 2.681-1.9 4.477.273 3.239 3.6 5.649 6.609 4.586-1.88-.689-3.827-.906-4.971-2.575a4.409 4.409 0 0 1 .345-5.386zm43.92-3.387c-.15-.791-.218-1.424-.392-2.027a13.962 13.962 0 0 0 -4.332-7.294c-1.133-.927-2.674-1.038-3.032.8 1.974.423 2.617 2.083 3.221 3.679s1.007 3.261 1.533 5.012zm-1.8 53.464-4.949-3.532a26.243 26.243 0 0 1 -1.742 3.161 27.846 27.846 0 0 1 -2.56 2.729 7.8 7.8 0 0 0 9.249-2.358zm-3.249-57.578c-.452-.887-.829-1.714-1.293-2.489a1.43 1.43 0 0 0 -.815-.553c-.907-.233-1.862-.3-2.747-.591-2.244-.735-3.8-.065-4.726 2.043 1.3.591 2.632 1.122 3.893 1.784a5.689 5.689 0 0 0 5.688-.194zm6.642 1.256a1.192 1.192 0 0 0 -.965 1.69c.142.558.354 1.4.081 1.7-.583.651-.355 1.235-.259 1.871.106.708.232 1.414.373 2.116.466 2.321.943 4.64 1.424 7l2.4-.864zm-10.862 55.753a11.266 11.266 0 0 0 1.17-2.122 8.43 8.43 0 0 0 .35-2.749c-.033-.883-.449-1.75-.5-2.636-.05-.851-.4-1.147-1.176-1.094a5.883 5.883 0 0 0 -3.711 1.836c2.642 1.501 3.639 3.835 3.867 6.765zm-.1-87.228c-.1-1.62-.017-3.122-1.7-4.117-2.264-1.34-4.335-3.006-6.542-4.569l-1.738 1.361a6.826 6.826 0 0 0 4.389 3.022 3.55 3.55 0 0 1 1.949-.649c.8.137.942.946.853 1.74a1.026 1.026 0 0 0 .279.722c.818.849 1.672 1.663 2.513 2.49zm-29.41 61.685.442-.057a41.077 41.077 0 0 0 -.038-4.9c-.272-2.259-2.18-3.649-3.329-5.444-.259-.406-.9-.566-1.369-.839l-.339.25c.866.816 1.193 1.546-.6 2.036l1.464.748-.985 1.09a6.054 6.054 0 0 0 1.345.194c1.016-.112 1.436.376 1.611 1.309a9.086 9.086 0 0 0 .561 1.547c.3.782.65 1.55.9 2.347a14.263 14.263 0 0 1 .337 1.719zm16.787 13.015c.356-2.251.66-4.174.984-6.221l-1.116.7-1.111-6.679a1.8 1.8 0 0 0 -1.084 2.294c.315 1.468.5 2.963.753 4.5l-1.095-.16zm32.016-52.658a2.333 2.333 0 1 0 -4.666-.08 2.378 2.378 0 0 0 2.293 2.428 2.351 2.351 0 0 0 2.373-2.348zm3.843 17.438a2.262 2.262 0 0 0 -2.302-2.374 2.349 2.349 0 0 0 -.044 4.7 2.243 2.243 0 0 0 2.346-2.326zm-45.816-30.704c-.274-1.689-.54-3.332-.806-4.975-.272-1.676-.543-3.353-.82-5.063l-1.654.118c.495 2.941 1.03 5.758 1.417 8.595.153 1.096.495 1.628 1.863 1.325zm47.5 50.781c.147-.141.509-.334.619-.623a20.773 20.773 0 0 0 .877-2.841c.063-.281-.224-.916-.375-.923a5.41 5.41 0 0 0 -2.566.16 2 2 0 0 0 -.823 2.6 2.41 2.41 0 0 0 2.268 1.627zm-50.012-48.71c-.629 3.072.629 4.862 3.269 4.65.314-3.549-.498-4.174-3.269-4.65zm16.9 27.116.291.08c.544-1.509 1.105-3.012 1.612-4.534.063-.191-.108-.509-.252-.71-.342-.474-.733-.913-1.068-1.322-1.754 1.013-2.25 2.376-1.26 4.242a11.718 11.718 0 0 1 .672 2.244zm.806-46.96c2.256 1.5 4.364 2.9 6.474 4.3-.777-3.906-3.407-5.755-6.479-4.297zm38.113 30.967-.636-4.446a2.118 2.118 0 0 0 -2.336 1.182 2.211 2.211 0 0 0 .25 2.565 2.317 2.317 0 0 0 2.722.699zm-.138 13.956a2.3 2.3 0 0 0 -2.524.825 2.231 2.231 0 0 0 -.185 2.586 2.133 2.133 0 0 0 2.2 1.172c.177-1.206.354-2.347.5-3.492a9.4 9.4 0 0 0 .009-1.091zm-21.017-4.707c2.938-1.892 3.861-3.634 3.333-5.208l-3.734 3.719-.343-.344zm18.148-18.513-.055-.291h-5.908v1.791zm-28.327 64.833a3.974 3.974 0 0 0 -4.552 1.025c-.213.275-.129.781-.182 1.181.36 0 .789.119 1.069-.034 1.235-.675 2.426-1.428 3.665-2.172zm-19.167-62.211c-.345-1.351-.693-2.481-.911-3.636a2.589 2.589 0 0 0 -3.645-1.648c3.426.785 3.6 3.241 3.44 5.94zm7.565-19.613.256.339 2.68-1.192-1.477-1.617zm5.808 36.379.533-.04.551-2.227-.241-.25c-.328.166-.912.3-.937.5a10.849 10.849 0 0 0 .094 2.017z"/><path d="m184.1 29.586h4.646v4.653l.2.05c.357-.593.692-1.2 1.076-1.777a7.844 7.844 0 0 1 8.233-3.413 6.229 6.229 0 0 1 4.928 5.772 44.228 44.228 0 0 1 .235 4.9c.029 4.794.011 9.589.011 14.5h-4.775c0-.441 0-.868 0-1.3q-.025-7.194-.058-14.389a15.779 15.779 0 0 0 -.153-1.787c-.313-2.572-2.038-3.656-4.521-2.836a5.822 5.822 0 0 0 -3.184 2.765 13.936 13.936 0 0 0 -1.943 7.073c-.026 3.038-.006 6.076-.006 9.114v1.382h-4.689z"/><path d="m234.228 54.379v-24.763h4.634v4.529l.251.074.61-1.058a7.915 7.915 0 0 1 8.48-4.1c2.873.471 4.973 2.826 5.134 6.232.2 4.227.144 8.467.186 12.7.018 1.8-.018 3.6.015 5.4.012.69-.159 1.032-.932 1-1.229-.05-2.461-.013-3.845-.013 0-.592 0-1.057 0-1.522q-.051-7.553-.1-15.1 0-.06-.006-.12c-.13-1.488-.176-3.093-1.9-3.666a4.387 4.387 0 0 0 -4.88 1.421 11.757 11.757 0 0 0 -2.89 7.571c-.139 3.352-.124 6.714-.061 10.069.021 1.151-.365 1.449-1.429 1.367s-2.145-.021-3.267-.021z"/><path d="m209.026 29.6h4.579c.027.446.076.905.079 1.363.024 5.038.018 10.077.075 15.115.017 1.569.11 3.192 1.931 3.89a4.54 4.54 0 0 0 4.95-1.556 12.509 12.509 0 0 0 2.808-8.1c.048-3.119.011-6.239.012-9.359v-1.353h4.7v24.773c-1.383 0-2.734.042-4.077-.042-.225-.014-.574-.564-.594-.882a31.626 31.626 0 0 0 -.241-3.606c-.3.492-.569 1-.889 1.475a7.771 7.771 0 0 1 -7.844 3.564c-3.278-.379-5.432-2.928-5.512-6.78-.126-6-.06-12-.071-17.995a3.1 3.1 0 0 1 .094-.507z"/><path d="m158.412 40.187h-14.234c.169 3.671 1 6.918 3.88 9.255 3 2.439 6.389 1.975 9.943.919 0 1.127.031 2.149-.024 3.167a.881.881 0 0 1 -.49.66c-3.948.905-7.895 1.315-11.733-.459a9.26 9.26 0 0 1 -4.691-4.77 18.621 18.621 0 0 1 -.71-13.9c1.94-5.687 9.429-8.067 14.413-4.677 2.78 1.891 3.55 4.779 3.775 7.906.034.477 0 .959-.008 1.438a2.566 2.566 0 0 1 -.121.461zm-4.7-3.276c.081-2.257-1.662-4.244-4.523-4.224-2.593.019-4.718 1.986-4.631 4.224z"/><path d="m180.816 37.608h-5.335c-.069-.6-.094-1.15-.2-1.686-.314-1.544-1.007-2.771-2.715-3.118a3.785 3.785 0 0 0 -4.27 1.688 10.815 10.815 0 0 0 -1.388 3.641 12.9 12.9 0 0 0 1.022 8.067 8.239 8.239 0 0 0 7.253 4.915c1.7.128 3.409.023 5.2.023-.015-.136.023.057.026.25.048 2.8.061 2.922-2.673 3.227a28.325 28.325 0 0 1 -6.433.109c-4.746-.566-7.658-3.488-9.083-7.93a18.954 18.954 0 0 1 -.447-9.593c1.078-5.4 4.889-8.364 10.431-8.213a13.345 13.345 0 0 1 2.26.223c4.204.848 6.573 3.944 6.352 8.397z"/><path d="m126.052 33.231h-4.352v-3.684h4.419c0-1.732-.061-3.323.035-4.905a2.1 2.1 0 0 1 .768-1.395c1.19-.858 2.476-1.581 3.918-2.477v8.73h6.765v3.76h-6.634c-.036.473-.084.82-.084 1.167q-.009 6.174 0 12.347a10.082 10.082 0 0 0 .089 1.433 3.117 3.117 0 0 0 3.2 2.951c.98.047 1.969-.074 3.083-.125 0 .98.04 2.012-.031 3.037a.915.915 0 0 1 -.648.612 37.57 37.57 0 0 1 -6.3-.123c-2.762-.449-4.141-2.424-4.153-5.328-.021-4.914-.005-9.829-.008-14.744-.002-.354-.037-.706-.067-1.256z"/><path d="m165.035 94.841v20.509h-2.758v-25.264c1.114 0 2.189-.066 3.247.041.308.031.661.511.834.863q4.637 9.459 9.233 18.936a2.471 2.471 0 0 0 .732.954v-20.639a2.371 2.371 0 0 1 .437-.149c2.366-.2 2.366-.2 2.366 2.16v23.172a30.337 30.337 0 0 1 -3.283-.043c-.337-.037-.726-.523-.909-.894q-4.687-9.5-9.326-19.025c-.105-.214-.224-.421-.336-.631z"/><path d="m134.52 59.583h2.933v1.3c0 5.359.008 10.717-.009 16.076a17.344 17.344 0 0 1 -.2 2.5 6.03 6.03 0 0 1 -5.3 5.531 15.789 15.789 0 0 1 -4.98.047c-3.017-.488-4.931-2.785-5.325-5.985a23.138 23.138 0 0 1 -.166-2.748c-.016-5.078-.009-10.157-.01-15.236v-1.468h2.949v1.386c.021 5.6-.021 11.2.083 16.792.078 4.229 3.574 6.3 7.475 4.577a3.984 3.984 0 0 0 2.357-3.235 15.541 15.541 0 0 0 .191-2.505c.009-5.634.002-11.269.002-17.032z"/><path d="m238.713 69.491v-9.881h2.49v25.233h-2.47v-2.413c-.317.35-.476.493-.6.664a5.047 5.047 0 0 1 -8.718-.484 13.932 13.932 0 0 1 .334-13.134c1.877-3.4 6.311-3.367 8.508-.155a1.946 1.946 0 0 1 .145.325zm-7.849 6.925c.252 1.532.368 2.89.718 4.185a3.012 3.012 0 0 0 2.724 2.492 3.1 3.1 0 0 0 3.167-1.93 11.1 11.1 0 0 0 .147-9.922 3.127 3.127 0 0 0 -3.093-2.064 2.907 2.907 0 0 0 -2.7 2.363c-.451 1.635-.669 3.337-.963 4.876z"/><path d="m132.019 100.107v-5.291c0-1.16.06-2.324-.018-3.479-.067-.987.246-1.42 1.262-1.271.386.056.784.041 1.24.061v25.243h-2.43v-2.432c-.472.6-.714.934-.979 1.246a5.1 5.1 0 0 1 -8.422-1.2 14.33 14.33 0 0 1 .181-12.519c1.872-3.8 6.364-3.984 8.831-.539.036.047.116.064.335.181zm-7.79 6.738c.247 1.511.393 2.94.733 4.321a2.992 2.992 0 0 0 2.729 2.485 3.1 3.1 0 0 0 3.146-1.958 11.14 11.14 0 0 0 .134-9.921 3.051 3.051 0 0 0 -3.1-2.023 2.871 2.871 0 0 0 -2.68 2.362c-.428 1.561-.655 3.179-.962 4.734z"/><path d="m271.008 69.421v-9.833h2.444v25.247h-2.421c-.031-.691-.06-1.356-.1-2.188a3.244 3.244 0 0 0 -.464.434 4.7 4.7 0 0 1 -4.719 2.178 4.847 4.847 0 0 1 -4.4-3.374 16.013 16.013 0 0 1 .083-11.251 5.332 5.332 0 0 1 9.577-1.213zm.275 6.673c-.479-1.72-.811-3.4-1.425-4.968a2.925 2.925 0 0 0 -3.017-1.947 2.969 2.969 0 0 0 -2.657 2.266 15.268 15.268 0 0 0 -.3 9.059 3.086 3.086 0 0 0 5.96.533 46.89 46.89 0 0 0 1.439-4.943z"/><path d="m254.415 74.893c.384-3.63-.269-5.167-2.275-5.616-2.282-.509-3.666.285-4.495 2.625h-2.563a4.222 4.222 0 0 1 3.731-4.615 15.4 15.4 0 0 1 4.617-.022 3.82 3.82 0 0 1 3.47 3.605c.139 4.618.045 9.243.045 13.958h-2.319c-.029-.591-.058-1.177-.095-1.935a7.124 7.124 0 0 1 -4.826 2.4 4.5 4.5 0 0 1 -4.845-2.7 4.679 4.679 0 0 1 1.622-5.846 11.729 11.729 0 0 1 6.461-1.848c.47-.025.944-.006 1.472-.006zm.007 2.161a8.484 8.484 0 0 0 -5.59 1.112 2.834 2.834 0 0 0 -1.083 3.759c.605 1.122 1.974 1.485 3.474.922 2.189-.821 3.458-3.07 3.199-5.793z"/><path d="m195.05 115.385h-2.34l-.114-1.962a7.035 7.035 0 0 1 -4.536 2.405 4.585 4.585 0 0 1 -5.158-2.779 4.741 4.741 0 0 1 2.039-6.026 12.89 12.89 0 0 1 6.31-1.592c.395-.018.789-.038 1.162-.056.672-2.835-.145-5.073-1.977-5.538-2.323-.589-3.991.316-4.638 2.568h-2.698a4.2 4.2 0 0 1 2.833-4.278 9.038 9.038 0 0 1 6.1-.194 3.858 3.858 0 0 1 2.97 3.668c.126 4.545.047 9.099.047 13.784zm-2.506-7.85a8.791 8.791 0 0 0 -5.854 1.341 2.809 2.809 0 0 0 -.9 3.516 2.521 2.521 0 0 0 3.079 1.134c2.365-.577 3.831-2.885 3.675-5.991z"/><path d="m260.964 105.369c.327-3.568-.31-5.236-2.188-5.527-2.626-.407-4.049.278-4.525 2.564h-2.691a4.185 4.185 0 0 1 2.811-4.265 9.06 9.06 0 0 1 5.87-.281 4.06 4.06 0 0 1 3.216 3.6 30.258 30.258 0 0 1 .2 3.7c.026 3.384.009 6.769.009 10.211h-2.541l-.071-1.446a24.657 24.657 0 0 1 -4.1 1.769c-2.7.646-4.905-.557-5.642-2.775-.877-2.641 0-5.032 2.656-6.123a33.787 33.787 0 0 1 5.763-1.351 8.074 8.074 0 0 1 1.233-.076zm0 2.074a16.2 16.2 0 0 0 -2.781.277 11.141 11.141 0 0 0 -3.141 1.3 2.676 2.676 0 0 0 -.763 3.424 2.5 2.5 0 0 0 3.1 1.078c2.363-.615 3.836-3.011 3.59-6.079z"/><path d="m223.608 105.355c0-1.009.037-1.847-.008-2.681a2.81 2.81 0 0 0 -2.5-2.887c-2.192-.306-3.479.331-4.072 2.016-.066.188-.129.377-.21.614h-2.7a4.268 4.268 0 0 1 2.742-4.237 8.855 8.855 0 0 1 6.545-.126 3.594 3.594 0 0 1 2.6 3.29c.111 4.653.04 9.311.04 14.025h-2.262l-.166-1.932a6.9 6.9 0 0 1 -4.432 2.374c-2.413.326-4.427-.7-5.188-2.7a4.735 4.735 0 0 1 1.935-6.048 12.5 12.5 0 0 1 6.294-1.633c.424-.018.853-.045 1.382-.075zm-.036 2.095a16 16 0 0 0 -2.785.265 11.164 11.164 0 0 0 -3.142 1.294 2.648 2.648 0 0 0 -.782 3.414 2.5 2.5 0 0 0 3.089 1.1c2.354-.593 3.764-2.867 3.62-6.073z"/><path d="m141.387 67.456h2.479v3.209l.2.065c.136-.238.28-.471.406-.713a5.307 5.307 0 0 1 5.625-2.994c2.174.37 3.64 1.909 3.744 4.615.166 4.309.043 8.63.038 12.946 0 .07-.067.14-.135.273h-2.37c0-.471 0-.934 0-1.4-.051-3.715-.076-7.431-.173-11.145-.03-1.154-.368-2.278-1.666-2.639a3.082 3.082 0 0 0 -3.3 1.2 10.32 10.32 0 0 0 -2.289 6.662c-.062 2.4-.013 4.793-.013 7.284h-2.546z"/><path d="m149.782 113.244c.3 2.171.271 2.212-1.685 2.448-.515.062-1.031.133-1.549.164-4.907.3-8.044-2.081-8.962-6.891a13.848 13.848 0 0 1 .373-7.1c1.152-3.416 4.435-5.066 8.1-4.125 2.9.745 4.679 3.823 4.127 7.307h-9.842c-.159 2.777.263 5.248 2.242 7.162 2.073 2.006 4.614 1.579 7.196 1.035zm-2.537-10.374a2.992 2.992 0 0 0 -3.3-3.128 3.143 3.143 0 0 0 -3.251 3.2q3.045 0 6.095 0a2.853 2.853 0 0 0 .456-.072z"/><path d="m192.721 82.755c.368 2.006.22 2.264-1.638 2.4a22.76 22.76 0 0 1 -3.692.025 6.745 6.745 0 0 1 -6-4.115 13.152 13.152 0 0 1 -.151-10.465c1.237-3.059 4.809-4.393 8.181-3.262a6.154 6.154 0 0 1 3.679 7.162h-9.8c-.161 2.737.272 5.191 2.205 7.125 2.085 2.085 4.695 1.532 7.216 1.13zm-2.527-10.41a3.013 3.013 0 0 0 -2.943-3.184 3.383 3.383 0 0 0 -3.654 3.184z"/><path d="m207.041 82.385a31.388 31.388 0 0 0 3.965.671 7.721 7.721 0 0 0 3.147-.475 2.209 2.209 0 0 0 .59-3.941 27.388 27.388 0 0 0 -3.374-2.024c-.859-.5-1.767-.94-2.569-1.524a4.273 4.273 0 0 1 .748-7.44c2.351-1.065 4.763-.729 7.16-.166.178.042.38.385.4.6a17.573 17.573 0 0 1 .019 1.767 23.946 23.946 0 0 0 -3.162-.6 6.561 6.561 0 0 0 -2.794.329 2.539 2.539 0 0 0 -1.455 1.634 2.562 2.562 0 0 0 1.134 1.857c1.42.95 2.987 1.677 4.484 2.515 2.434 1.362 3.252 3.053 2.78 5.634a4.451 4.451 0 0 1 -3.269 3.621 12.741 12.741 0 0 1 -7.309-.122c-.745-.201-.816-.66-.495-2.336z"/><path d="m205.029 111.662c1.114-3.407 2.155-6.585 3.192-9.765.2-.606.38-1.218.576-1.825.741-2.307.742-2.306 3.344-2.05-.106.421-.179.833-.312 1.225-1.709 5.065-3.441 10.121-5.126 15.194-.235.707-.513 1.119-1.318.99-.746-.119-1.57.329-2.009-.889-1.908-5.29-3.943-10.534-5.931-15.8-.081-.217-.14-.443-.218-.692a1.9 1.9 0 0 1 .381-.11c2.286-.082 2.284-.08 3.085 2.074 1.416 3.811 2.835 7.616 4.336 11.648z"/><path d="m163.753 67.505a1.345 1.345 0 0 1 .249-.066c2.362-.121 2.361-.12 3.18 2.083q1.919 5.157 3.841 10.313c.117.316.253.624.492 1.21.7-2.14 1.315-4.019 1.927-5.9.679-2.085 1.435-4.149 2-6.265.315-1.18.837-1.693 2.053-1.464a7.381 7.381 0 0 0 1.217.01c-.822 2.45-1.6 4.787-2.39 7.12-1.086 3.208-2.2 6.408-3.255 9.626-.206.631-.547.861-1.131.739-.664-.139-1.545.463-1.948-.612q-3.082-8.232-6.194-16.453a1.421 1.421 0 0 1 -.041-.341z"/><path d="m196.654 67.463h2.478v2.811c2.864-2.875 3.642-3.3 5.975-3.227v2.635c-.519.077-.985.109-1.433.219a5.324 5.324 0 0 0 -4.022 4.3 21.1 21.1 0 0 0 -.449 4.144c-.071 2.144-.019 4.291-.019 6.5h-2.53z"/><path d="m241.366 98h2.453v2.718a6.509 6.509 0 0 1 5.839-3.153v2.607c-4.106.865-5.774 3.087-5.828 7.818-.028 2.428-.005 4.857-.005 7.363h-2.459z"/><path d="m232.726 115.376h-2.535v-17.343h2.446v2.661a6.571 6.571 0 0 1 5.817-3.127v2.664a5.571 5.571 0 0 0 -3.966 1.834 8.123 8.123 0 0 0 -1.746 5.112c-.062 2.704-.016 5.41-.016 8.199z"/><path d="m160.564 67.5v17.364h-2.421v-17.364z"/><path d="m224.394 84.888h-2.4v-17.382h2.4z"/><path d="m21.863 105.827-8.594 1.864c1.338-1.422 2.6-2.781 3.887-4.121.524-.547 1.078-1.069 1.644-1.573.67-.6 1.194-1.206.675-2.222l1.371 1.921-4.8 4.449.109.23 7.451-1.561-3.273 6.656.184.225c1.677-1.261 3.689-2.052 5.217-3.682l1.009 1.3a6.77 6.77 0 0 0 -1.626.46c-2.333 1.361-4.63 2.782-6.94 4.181l-.253-.2z"/><path d="m66.926 119.721c-.614 1.452 2.782 8.337 4.159 8.633-1.73.738-3.415 1.618-5.2 2.177a4.217 4.217 0 0 1 -5.28-2.356 4.781 4.781 0 0 1 1.228-6.05 5.463 5.463 0 0 1 1.11-.7c1.294-.58 2.606-1.119 3.983-1.704zm-.934 10.116c.49-.178 1.472-.485 2.4-.91a.983.983 0 0 0 .281-.916c-.912-2.034-1.857-4.055-2.884-6.032a1.438 1.438 0 0 0 -1.2-.575c-2.155.353-3.76 2.2-3.581 3.969a4.773 4.773 0 0 0 4.984 4.464z"/><path d="m74.515 5.765c.309 3.707.592 7.11.9 10.855 1.475-1.984 2.8-3.7 4.028-5.488.17-.246-.119-.807-.2-1.269l1.834 1.425a7.96 7.96 0 0 0 -1.4 1.1c-1.64 2-3.224 4.045-4.829 6.073l-.369-.04-1-10.523c-1.422 2.272-3.322 3.9-4.145 6.308l-1.507-1.159a5.241 5.241 0 0 0 1.386-.863c1.479-1.784 2.887-3.628 4.327-5.438.243-.304.55-.557.975-.981z"/><path d="m10.886 78.039-5.46 9.018c2.266-.714 4.3-1.322 6.306-2.024.285-.1.41-.657.633-1.045l.629 2.264a6.579 6.579 0 0 0 -1.78-.06c-2.167.527-4.311 1.153-6.466 1.734-.374.1-.758.16-1.493.313l5.637-9.1c-2.363.848-5.078.668-7.044 2.5l-.5-1.846a7.555 7.555 0 0 0 1.74-.019c2.506-.627 4.994-1.321 7.489-1.992z"/><path d="m24.311 25.869a6.828 6.828 0 0 0 -.886-1.474c-1.576-1.529-3.205-3-4.828-4.483a11.642 11.642 0 0 0 -1.067-.777l.2-.372h10.381l.1-.279c-1.593-1.413-3.164-2.853-4.8-4.21-.251-.208-.822-.029-1.348-.029l1.283-1.374 6.849 6.548-.067.293h-10.299c1.207 1.849 4.76 4.632 5.939 4.58z"/><path d="m50.866 127.608a4.918 4.918 0 0 1 -4.842 5.14 4.977 4.977 0 0 1 -5.2-4.676 5.1 5.1 0 0 1 5.057-5.257 4.7 4.7 0 0 1 4.985 4.793zm-1.108-.085a4.2 4.2 0 0 0 -3.266-4.154c-1.718-.3-3.226.721-3.9 2.794a7.76 7.76 0 0 0 -.39 2.689 3.586 3.586 0 0 0 3.079 3.341 3.316 3.316 0 0 0 3.663-2.075 21.616 21.616 0 0 0 .814-2.595z"/><path d="m94.706 40.033c-1 .818-2.818.477-3.185 2.419l-1.1-2.572c1.551.548 8.456-2.4 8.725-3.947a35.186 35.186 0 0 1 1.512 3.877c.507 1.955-.938 3.363-2.957 3.015-.467-.08-.922-.226-1.383-.343a9.2 9.2 0 0 0 -2.361 5.676c-.823-1.264-1.069-2.4-.271-3.628.39-.6.662-1.288 1.1-1.843a1.87 1.87 0 0 0 -.08-2.654zm4.686-1.9-4.332 1.833c.7.816 1.112 1.728 1.774 1.976a2.487 2.487 0 0 0 2.811-1.083c.702-.907.37-1.787-.253-2.724z"/><path d="m36.207 128.908c-.87-.542-1.751-1.079-2.619-1.636a2.649 2.649 0 0 1 -1.535-2.733 2.825 2.825 0 0 1 2.121-2.2c.26-.1.528-.179.948-.319-.341-1.985.1-4.16-1.633-6.007 1.574.571 2.416 1.461 2.443 3.022.011.676.181 1.355.147 2.026a1.788 1.788 0 0 0 1.411 2.018c1.656-1.776 1.993-2.763 1.333-3.8l2.131 1.329c-2.141 2.064-3.316 4.754-4.871 7.164-.147.228.066.69.124 1.136zm.99-5.157c-.788-.661-1.4-1.5-2.458-.971a2.821 2.821 0 0 0 -1.6 2.605c0 1.075.752 1.659 1.78 1.981.611-.958 1.208-1.891 1.8-2.826.15-.23.281-.468.481-.789z"/><path d="m9.514 43.628c1.805-.829 4.053-.85 5.4-2.976a3.213 3.213 0 0 1 -2.491 3.148c-.577.147-1.126.437-1.708.525a1.919 1.919 0 0 0 -1.815 1.845c1.968 1.2 3.1 1.349 4.107.228l-1.046 3.026c-.578-1.384-7.746-3.884-9.122-3a38.241 38.241 0 0 1 1.7-4.172 2.243 2.243 0 0 1 3.6-.339 15.794 15.794 0 0 1 1.375 1.715zm-1.029 2.541c.091-.98.463-1.924.174-2.572a2.246 2.246 0 0 0 -2.659-1.106 3.672 3.672 0 0 0 -1.638 1.32c-.325.392-.247.875.42 1.08 1.127.348 2.235.767 3.703 1.278z"/><path d="m12.839 36.881c1.265.24 2.151 1.912 3.9.847l-1.209 2.347a6.051 6.051 0 0 0 -1.151-1.122c-1.953-1.083-3.929-2.13-5.937-3.108a3.7 3.7 0 0 0 -1.466-.028c.433-.84.921-1.877 1.492-2.865a2.547 2.547 0 0 1 2.479-1.567 2.836 2.836 0 0 1 2.318 1.838c.16.315.293.645.47 1.04 1.968-.574 4.206-.245 5.718-2.042a2.749 2.749 0 0 1 -2.615 2.56c-.746.134-1.5.245-2.242.379-1.269.228-1.268.232-1.757 1.721zm-4.5-2.42c.931.5 1.816 1.023 2.742 1.456.427.2.9.85 1.419.106.484-.7 1.007-1.408.338-2.256a2.892 2.892 0 0 0 -2.7-1.187c-1.071.12-1.494.909-1.803 1.881z"/><path d="m.215 72.119c2.379-1.185 4.776-2.336 7.127-3.573a17.912 17.912 0 0 0 2.151-1.546v1.862a11.866 11.866 0 0 0 -2.859 1.454c-.422.379-.369 1.4-.338 2.124a1.449 1.449 0 0 0 .756.968 5.154 5.154 0 0 0 1.728.445 4.856 4.856 0 0 0 1.253-.208l.232 1.954a10.87 10.87 0 0 0 -1.928-.999c-2.679-.777-5.382-1.471-8.076-2.2zm2.306.022.04.26 3.2.688-.22-2.339z"/><path d="m1.183 53.43c2.455-.453 4.917-.868 7.359-1.377a26.919 26.919 0 0 0 2.874-.925l-.3 1.714c-.733.112-1.427.2-2.113.326-1.921.361-2.073.537-2.148 2.52a.916.916 0 0 0 .231.7 16.386 16.386 0 0 0 2.194 1.2c.227.1.586-.1.96-.179l-.419 2.138a8.686 8.686 0 0 0 -1.437-1.447c-2.054-1.294-4.164-2.5-6.25-3.744-.334-.2-.655-.419-.981-.63zm5 2.475.46-2.305-3.254.475-.067.257z"/><path d="m105.579 76.491c-2.912.631-5.486 1.143-8.033 1.764a16.885 16.885 0 0 0 -2.521 1.045l.3-1.847c.936-.167 1.819-.354 2.711-.476.869-.118 1.377-.481 1.3-1.446-.045-.564.223-1.42-.055-1.646a10.3 10.3 0 0 0 -2.53-1.285c-.147-.062-.428.193-.717.336l.347-2.245a9.069 9.069 0 0 0 1.529 1.446c2.059 1.213 4.175 2.328 6.265 3.488.373.203.725.444 1.404.866zm-5.464-2.22-.357 2.334 3.274-.647v-.256z"/><path d="m71.406 4a10.511 10.511 0 0 0 -1.684.989c-1.868 1.626-3.686 3.309-5.53 4.963-.343.308-.721.577-1.348 1.075.111-2.009.2-3.7.3-5.381.073-1.276.211-2.552.208-3.827a8.2 8.2 0 0 0 -.432-1.819l2.322 1.082a3.89 3.89 0 0 0 -.569 1.141c-.234 2.221-.4 4.448-.6 6.7 1.959-1.014 5.588-4.937 5.247-5.895z"/><path d="m0 64.61c.411.088.747.273 1 .2a56.168 56.168 0 0 0 6.72-2.371c-2.173-.95-4.339-1.916-6.527-2.828-.2-.085-.546.162-.851.264l.1-1.988a11.322 11.322 0 0 0 1.525 1.1c2.282 1.146 4.592 2.237 6.888 3.354.347.169.677.373 1.28.708-1.066.391-1.862.7-2.67.976-1.964.668-3.945 1.287-5.893 2a8.463 8.463 0 0 0 -1.572.975z"/><path d="m87.819 18.283 1.555 2.043c-.336.157-.786.217-.95.466-1.289 1.955-2.522 3.946-3.933 6.18 2.517-.735 4.768-1.373 7-2.072.269-.084.436-.495.7-.814l1.223 1.585a16.488 16.488 0 0 0 -2.267.228c-2.365.554-4.712 1.181-7.069 1.771-.377.094-.767.137-1.417.25.435-.771.741-1.344 1.075-1.9 1.172-1.948 2.385-3.87 3.51-5.844a8.669 8.669 0 0 0 .573-1.893z"/><path d="m81.092 120.805-1.971 1.575c-.164-.324-.234-.736-.469-.884-1.982-1.248-3.994-2.448-6.32-3.857.818 2.583 1.518 4.846 2.272 7.091.075.225.481.338.793.542l-1.6 1.276a10.925 10.925 0 0 0 -.157-1.885c-.639-2.507-1.343-5-2.013-7.495-.1-.365-.142-.745-.261-1.389 2.784 1.6 5.316 3.094 7.886 4.516a8.1 8.1 0 0 0 1.84.51z"/><path d="m27.72 123.218-1.911-1.73c.346-.182.823-.269.929-.516.921-2.147 1.776-4.322 2.787-6.83-2.4 1.209-4.5 2.244-6.565 3.331-.24.126-.329.54-.525.886l-1.219-1.152 9.666-4.279.212.226q-1.1 2.936-2.205 5.87c-.267.709-.606 1.4-.81 2.121a18.927 18.927 0 0 0 -.359 2.073z"/><path d="m94.951 28.305 2.406 4.155-1.549.734c.987-1.3.01-2.042-.458-3.077l-3.17 1.783 1.552 2.415-1.051.472-.807-2.687a25.469 25.469 0 0 0 -2.555 1.495c-.4.3-.937.967-.833 1.267.275.786.494 1.867 1.772 1.7a1.352 1.352 0 0 1 .349.061c-1.411.871-1.482.858-2.217-.475-.576-1.045-1.143-2.1-1.664-3.051a6.136 6.136 0 0 0 1.614-.378q2.894-1.559 5.7-3.268c.396-.237.614-.757.911-1.146z"/><path d="m16.855 27.179 1.53-2.422 1.315 1.094c-1.494-.321-1.7.861-2.392 1.644.962.674 1.849 1.34 2.788 1.921.234.144.837.135.932-.016a17.5 17.5 0 0 0 1.052-2.137c.036-.08-.04-.212-.106-.511.9.5 1.229.919.563 1.752-.794.994-1.51 2.049-2.267 3.088-.6-1.395-6.713-5.531-7.926-5.271l2.8-4.031.886.684-2.3 2.018z"/><path d="m83.25 118.7-.771-.737 2.7-2.043c-2.08-1.876-3.946-3.606-5.879-5.256-.315-.269-.93-.189-1.4-.269l1.727-1.876a3.711 3.711 0 0 0 .54 1.137c1.828 1.772 3.7 3.5 5.737 5.414l1.941-2.912.657.831z"/><path d="m96.439 67.271v-2.542a3.859 3.859 0 0 0 1.212.459c2.506.044 5.013.022 7.826.022-.238-1.353-.43-2.448-.621-3.535l1.1.207v7.63h-1.05l.543-3.05c-2.832 0-5.451-.029-8.068.037-.327.008-.644.517-.942.772z"/><path d="m95.878 48.625c-.447.755-1.106 1.365-1.056 1.911a2.534 2.534 0 0 0 1.154 1.835c.472.214 1.436-.205 1.939-.631a5.688 5.688 0 0 0 1.058-1.848c.919-1.842 2.054-2.623 3.357-2.283 1.326.347 2.019 1.673 1.925 3.8l-1.191.247a6.366 6.366 0 0 0 .469-1.97 1.612 1.612 0 0 0 -.979-1.164 2.025 2.025 0 0 0 -1.555.515 6.543 6.543 0 0 0 -.944 1.642 11.965 11.965 0 0 1 -1.1 1.838 2.69 2.69 0 0 1 -3.482.483c-.939-.606-1.816-2.658-1.279-3.484.306-.482 1.139-.623 1.684-.891z"/><path d="m41.6 2.215a5.517 5.517 0 0 0 -1.955-.107 1.719 1.719 0 0 0 -1.038 1.222 1.948 1.948 0 0 0 .915 1.456 25.511 25.511 0 0 0 2.944.94 2.768 2.768 0 0 1 2.069 2.641 2.813 2.813 0 0 1 -1.8 2.6c-1.634.812-2.054.613-2.591-1.206a4.464 4.464 0 0 0 1.329.764 1.774 1.774 0 0 0 2.12-1.155 1.674 1.674 0 0 0 -.975-2.183 15.016 15.016 0 0 0 -1.7-.542 10.462 10.462 0 0 1 -1.891-.722 2.341 2.341 0 0 1 0-4.177 14.559 14.559 0 0 1 2.017-.787z"/><path d="m102.129 88.5-1.572-.565a5.93 5.93 0 0 0 .92-.216 1.935 1.935 0 0 0 .909-2.345 1.53 1.53 0 0 0 -2.182-.518c-.773.41-1.475.95-2.237 1.382a2.91 2.91 0 0 1 -3.9-.48 3.228 3.228 0 0 1 .263-3.978c.379-.347 1.265-.143 1.919-.19l-.012.305a4.533 4.533 0 0 0 -1.528.611 1.734 1.734 0 0 0 -.376 2.377 1.681 1.681 0 0 0 2.324.549c.638-.323 1.234-.727 1.847-1.1 1.672-1.012 2.87-1.057 3.852-.142.886.826.912 2.119.073 3.767-.069.143-.151.279-.3.543z"/><path d="m90.514 110.148-1.223-.937a4.092 4.092 0 0 0 1.453-.176 1.612 1.612 0 0 0 .976-1.959 1.541 1.541 0 0 0 -1.942-.983c-1.133.2-2.246.574-3.384.663a2.5 2.5 0 0 1 -2.7-2.032c-.239-1.242.649-3.258 1.752-3.484.533-.109 1.2.439 1.61.608a6.918 6.918 0 0 0 -2.2.823 1.873 1.873 0 0 0 -.433 1.752 2.745 2.745 0 0 0 1.749 1.106 5.084 5.084 0 0 0 1.969-.383c2.034-.506 3.422-.139 4.028 1.08.589 1.191.04 2.529-1.655 3.922z"/><path d="m30.3 16.455a8.29 8.29 0 0 0 .948.539 2.032 2.032 0 0 0 2.452-1.189 1.686 1.686 0 0 0 -1.2-2.145 11.928 11.928 0 0 0 -2-.234 11.032 11.032 0 0 1 -2.12-.249 2.293 2.293 0 0 1 -.974-3.977 14.412 14.412 0 0 1 1.787-1.3l.854 1.118a5.868 5.868 0 0 0 -1.971.394 1.735 1.735 0 0 0 -.69 1.455 1.822 1.822 0 0 0 1.18 1.125 15.881 15.881 0 0 0 2.847.189 2.86 2.86 0 0 1 2.89 1.89 2.707 2.707 0 0 1 -1.068 3.163c-1.3 1.124-1.771 1.04-2.935-.779z"/><path d="m96.06 59.65-.36-2.679c1.124.8 8.541-.2 9.422-1.377l.381 2.564c-1.219-.913-8.653.186-9.443 1.492z"/><path d="m39.02 12.785-2.239 1.446c.467-1.4-3.808-7.9-5.227-7.984l2.13-1.395a3.638 3.638 0 0 0 .216 1.318c1.231 1.954 2.5 3.884 3.825 5.775.26.376.821.544 1.295.84z"/><path d="m53.654 124.127 2.432-.279c-.74 1.108.038 8.42 1.009 9.491l-2.135.255a9.929 9.929 0 0 0 .181-1.88c-.186-2.067-.41-4.132-.718-6.184a4.585 4.585 0 0 0 -.769-1.403z"/><path d="m78.9 22.812-1.642-1.791c1.785-.372 2.7-1.844 3.837-2.958 1.1-1.077 2.652-1.845 3.044-3.489l1.552 1.531a3.5 3.5 0 0 0 -1.215.455q-2.6 2.382-5.09 4.881c-.296.295-.319.859-.486 1.371z"/><path d="m160.92 59.607v3.239h-3.195v-3.239z"/><path d="m224.807 59.63v3.213h-3.262v-3.213z"/><path d="m54.116 2.264-1.832 2.128-.415-2.5z"/><path d="m95.615 95.531-1.371 1.808-1.034-2.66z"/><path d="m11.119 97.009-.554-2.1 2.735.691z"/><path d="m31.815 73.471-2.825-1.359c1.464-.819 2.441-.363 2.825 1.359z"/><path d="m48.777 23.792a18.7 18.7 0 0 1 -1.221 1.588.8.8 0 0 1 -.719.145.884.884 0 0 1 -.462-.615.737.737 0 0 1 .4-.585c.636-.225 1.304-.355 2.002-.533z"/><path d="m22.531 64.116a2.093 2.093 0 0 1 2.416.451 1.131 1.131 0 0 1 -.109 1.114 1.9 1.9 0 0 1 -1.446.453c-.886-.297-.973-1.143-.861-2.018z"/></g></svg>