<svg enable-background="new 0 0 300 300" viewBox="0 0 300 300" xmlns="http://www.w3.org/2000/svg"><g fill="#fefefe"><path d="m108.1 148.1c-.2 16.3-5.6 29.5-15.2 41.2-4.4 5.3-9.4 9.8-15.5 13.1-3.8 2-7.7 3.5-12.1 3.2-4-.3-7.6-1.7-11-3.7-8.2-4.8-14.5-11.5-19.6-19.4-5.6-8.8-9.1-18.3-9.9-28.7s1.1-20.3 5.5-29.7c5.1-10.8 12.2-19.9 22.3-26.5 2.9-1.9 6-3.4 9.3-4.2 5-1.3 9.7-.3 14.2 1.9 7.4 3.6 13.4 9.1 18.4 15.6 6.8 8.8 11.3 18.6 13 29.6.4 2.9.5 5.8.6 7.6zm-64.4 12.3c-.1.3-.1.4-.1.6-.9 3.9-1.8 7.8-2.5 11.8-.2 1 .2 2.1.3 3.2.2.1.4.2.6.3.3-.6.6-1.2 1-1.8.2.1.3.3.5.4-.3 1-1.2 1.7-2.1 2.6-.6-1.6-1.2-3-1.7-4.4-.4-1.1-.8-2.2-.9-3.3-.2-1.4-2.1-2.6-3.5-1.9.2.3.5.5 1 1.1-.4.1-.8.3-1.2.4.7.6 1.7.7 1.1 1.5.6.4 1.5.7 1.6 1 .3 2 .3 4 .4 6 0 .4-.2.9 0 1.1.8 1.2 1.7 2.3 2.6 3.4.2.2.8.2 1.1.1.8-.5 1.5-1.2 2.3-1.7.2-.2.5-.2.8-.2-.1.3-.1.6-.2.8-.5.5-1 1-1.6 1.4-.8.4-.8.9-.4 1.7.2.4.3.9.6 1.3.1.2.4.4.6.4 2.7.2 5.7-2.4 5.8-5.1.1-3.5.8-6.5 4.2-8.4 1.6-.9 2.2-2.7 2.3-4.5-.7.2-1.2.3-2 .6.6-1.7 1.1-3.2 1.6-4.6-.1 0-.2-.1-.3-.1-.2.2-.4.4-.7.6-.2.2-.5.2-.8.3 0-.3-.1-.6 0-.8.2-.8.5-1.5.9-2.5-.8.5-1.3.9-1.8 1.3-.1-.1-.2-.2-.3-.2.3-1 .6-2 1-3.1-1.4 1.3-2.5 2.5-3.8 3.5-2.4 1.8-4.1 4-5 6.8-.1.2-.4.4-.6.6-.1-.3-.3-.7-.2-.9.8-1.6 1.3-3.5 2.5-4.6 1.9-1.7 2.4-3.6 2.1-6 0-.1 0-.2-.1-.3-.4-.1-.8-.1-1.2-.2-.1-.1-.1-.2-.2-.4 1.5-.4 2.6-1 2.5-3-1.2.6-2.3 1.2-3.3 1.7-.1-.1-.1-.1-.2-.2.3-.4.5-.8.8-1.3-.4-.3-1-.5-1.2-.9-.5-.8-1.2-.9-2.1-.8-1.6.2-3.1-.4-4.3-1.4-.4-.3-.8-.5-1.3-.8-.3.6-.5 1.1-.7 1.5 1.3 1 2.5 2 3.8 3 0 .1-.1.3-.1.4-1.8.1-3.5.2-5.3.4v.4c.8.3 1.6.6 2.3 1 .9.5 1.6 1.3 2.5 1.6.6.6 1.7.5 2.9.6zm25-18.2c-.6 3.8-1.2 7.9-2 11.9-.8 4.4-.1 9.3-3.7 13.1 5 .2 9.7-.2 14.4-1.1 3.2-.6 4.3-2.3 3.6-5.6-1-5-2.1-10.1-3.2-15.1-.6 0-1.2 0-1.8 0-.8.1-1.3-.1-1.4-1.1s-.5-2-.7-2.9c-1.7.3-3.2.5-5.2.8zm-15.8 2.4c.7.7 1.4 1.3 2.4.8.7-.3 1.5-.6 2-1.1 2.3-2.4 4.6-4.9 6.9-7.3.2-.2.3-.8.2-1.1-.6-3.5-1.3-7-2-10.4-.1-.3 0-.6-.1-.9.2 0 .3-.1.5-.1 1.7 3.6 1.8 7.6 2.4 11 1.7.2 3.2.3 4.8.4 1.6-6.2 2-12.8 2.3-19.7-2.8 3.1-6.6 2.8-8.4-.4-3 .6-4.9 2.5-5.5 5.5-.7 4-1.2 8-1.7 12.1-.2 1.7-.5 3.4-.3 5 .3 3.2-.5 4.9-3.5 6.2zm28.1-17.7c3.6 16.6 7.2 33.4 10.9 50.1h.2c.7-2.2 1.5-4.3 2.2-6.5-1.7-.2-2.9-.9-3.3-2.5-.3-1.5.2-2.6 1.5-3.5.2-.1.4-.6.3-.9-.8-3.6-1.6-7.2-2.4-10.8-1.6-.1-2.9-.8-3.4-2.4-.5-1.8.5-3 2-3.9-.8-3.8-1.7-7.4-2.5-11.1-2.1-.3-3.3-1.3-3.5-3-.2-1.4.8-2.9 2.2-3.3 1.6-.5 2.9.2 4.1 2.1 1.5-.2 3-.5 4.5-.7 1.1-.2 2.2-.2 2.3-1.8 0-.5.8-1.1 1.3-1.5.4-.3 1.1-.4 1.6-.7-.3-1.2-.5-2.3-.7-3.1-5.7 1.2-11.4 2.4-17.3 3.5zm7.9-2.3c0-.1 0-.2 0-.3-2.3-6.5-4.5-13.1-6.9-19.6-.4-1-1.1-1.9-1.8-2.6-1-1-2.4-1-3.4.1-.5.6-1 1.3-1.2 2-.6 1.7-1 3.5-1.4 5.3-.3 1.2-.6 2.5-.9 3.8 3.4.2 5.2 2.3 6.8 4.7.9 1.4 1.8 2.8 2.7 4.2 2.1 3.2 2.1 3.2 5.8 2.5.1 0 .2-.1.3-.1zm-4.8.8c-1.7-2.6-3.3-5.1-5.1-7.6-.7-.9-1.5-1.8-2.3-2.5-.9-.8-2.1-1.2-3.2-1.1-.6 6.5-1.2 13-1.7 19.4 3.2.1 4.4 2.8 6 4.9 3.2-1.8 4.1-3.8 3.5-7.1-.4-1.7-.7-3.5-1.1-5.3 1.3-.3 2.5-.5 3.9-.7zm-19.2 14.5c-.1.5-.2.8-.3 1.2-1.1 2.9-2.1 5.9-3.3 8.8-.7 1.8-1.6 3.5-2.4 5.2-.9 2-1.5 4-1.5 6.2.1 2 .8 3.6 2.5 4.7 1.5.9 2.7.7 3.6-.8.6-1 1.1-2.1 1.3-3.2.5-2.7.7-5.4 1.1-8.1.6-4.2 1.4-8.3 2.1-12.6-.9-.3-2-.8-3.1-1.4zm6.6 28c.1.4.1.8.2 1.2.2 1.7.6 3.5.7 5.2.1 2.1-.1 4.3-.3 6.5-.2 2.5-.2 5-.7 7.4-.5 2.6.2 4.6 1.9 6.3 1.1 1.1 2.3 2.2 3.9 2.3.5 0 1.1-.1 1.4-.4.2-.2 0-.9-.3-1.3-.8-1.1-1.7-2.2-2.6-3.3-1-1.2-1.2-2.4-.9-3.9 1.1-5.8 3-11.5 3.4-17.5.1-1.2.4-2.4.6-3.5-2.6.3-4.9.6-7.3 1zm-9.2-52.4c-5.6-1.5-8.3-4.8-8-9.7.1-1.2-.5-1.5-1.4-1.7-1-.2-1.6.2-1.8 1.2-.1.7-.2 1.4-.2 2.1.1 5.5.8 10.9 2.2 16.2.8 3 1.7 5.9 2.5 8.8.6-2.8.9-5.5 1.3-8.2.5-3.6 1.4-7.1 5.4-8.7zm-2.9 51.6c0 1.7-.1 3.6 0 5.5.1 1.3.4 2.6.4 3.9.1 3.5 0 7 .2 10.5 0 1.1-.1 1.7-1.1 2.2s-1.8 1.3-2.7 1.7c-1.2.5-1.4 1.4-1.2 2.5.1.7.5 1.1 1.2.7 2-1 3.9-2 5.8-3 .4-.2.8-.9.8-1.5.4-3.1.6-6.2 1-9.3.4-3 .5-6 1.6-8.9.4-1 .5-2.2.7-3.1-2.2-.3-4.5-.8-6.7-1.2zm40.8-22c0-4.1 0-8 0-12.1-1.8.2-3.1-.3-4-1.8-.1-.2-.5-.3-.7-.2-2 .3-3.9.6-5.8 1-.2.6-.3 1.1-.5 1.5-.5.7-.3 1.2.2 1.8 1 1.2 2 2.5 3 3.7 1.7 2.2 3.5 4.4 5.2 6.5.5-.2.9-.3 1.3-.4zm-34.8-36.4h.6c0 .5.1 1 0 1.4-.3.9-.6 1.7-1 2.5-.5 1-.3 3.5.5 4.2 1.3 1 2.8.9 4.3.5 1.5-.5 2-1.8 2.4-3.1 0-.1 0-.4-.2-.5-2.2-2.1-4.2-4.5-7.1-5.9.2-.2.5-.5.6-.8s.1-.6 0-.9c0-.1-.4-.2-.5-.2-.2.2-.4.5-.5.7-.1.4-.2.8-.3 1.3-.3-.3-.5-.4-.5-.5-.6-1.1-2.7-2-3.9-1.6-.9.4-1.8.8-2.7 1.3.2.3.3.7.5 1.1.4-.1.8-.2 1.2-.4.3 1 .6 2 .8 2.7.7.4 1.1.7 1.6 1 .4 0 .8-.1 1.2-.1-.1.3-.2.7-.4 1 .8.9 1.6.7 2.1-.2.4-.7.7-1.6 1-2.4.1-.3.2-.7.3-1.1zm26 44.3c.7 3.2 1.5 6.7 2.3 10.2.1.3.3.7.6.8.6.2 1.3.3 2.1.5 1-4.3 2-8.6 2.9-12.4-1.2-1.1-2-1.9-2.9-2.6-.2-.2-.5-.3-.7-.3-.7 0-1.4.2-2.1.2.1.1.2.2.2.2-.8 1.2-1.5 2.2-2.4 3.4zm-41.2-27.2c-.6.9-2.1.6-1.9 2 .4 3.1.8 6.3 1.4 9.3.4 1.9.9 3.7 1.7 5.4.5 1.2 1.5 1.3 2.6.5 1.6-1.2 2.1-2.9 1.3-5-.5-1.3-1-2.6-1.6-3.9-1.1-2.6-2.3-5.3-3.5-8.3zm13.7-11.5c0-.1 0-.2-.1-.4-1.4.2-2.3-.6-3.2-1.4s-2.1-1.3-2.2-2.7c0-.1-.2-.1-.3-.2-1.8-1.1-2.5-3-1.4-4.9.6-1 1.4-2 2.3-2.7 4.5-3.9 8.4-2.8 10.2 3 .5 1.6.9 3.3 1.3 5h.3c.2-1.1.6-2.2.7-3.3.1-3.4-1.4-6.1-4.4-7.6s-6-1.3-8.7.8c-2.8 2.1-3.7 5-3.1 8.3.6 3.6 4 6.3 7.7 6.4.2 0 .6-.2.9-.3zm-20.2 73.1c.9 1.3 1.8 2.7 2.8 3.9.2.2.6.4.8.3 3-.8 6-2.9 5.8-6.5 0-1.2-.4-2.3-.7-3.5-.4-1.4-1-2.9-1.5-4.3-.4 1.4-.5 2.7-.7 4-.2 2.2-1.4 3.8-3.3 4.8-.9.6-2 .8-3.2 1.3zm46.2-41.1c1.5.1 2.6.7 3.2 2 .1.2.5.4.7.4.7 0 1.4-.2 2-.3.2-.6.3-1.2.5-1.6.5-.6.2-1.1-.2-1.6-2.6-3.2-5.1-6.4-7.7-9.7-.2-.3-.6-.4-.9-.6 0 .4-.1.7-.1 1.1.9 3.5 1.7 6.8 2.5 10.3zm-30.3 54.2c2.6.7 5.3.5 7.7-1.3.4-.3.7-.7.8-1.1.5-3.2-.5-6.3-4.4-7.4-1 1.1-.9 1.1-.8 2.6 0 .9 0 1.8-.3 2.6-1 1.6-2 3.1-3 4.6zm23.1-61.9c-.4.5-.6.8-.9 1.1-.9.7-.9 1.6-.6 2.6 1.3 5.3 2.4 10.6 3.6 15.9.4 1.8.7 3.7 1.1 5.8.8-1 1.9-1.6 1.7-3-1.6-7.4-3.2-14.8-4.9-22.4zm7.6 35c-3.7 1-6.7 2.6-7.7 6.4-.5 1.8-1.1 3.7-1.7 5.5-.8 2.4-1.8 4.7-4.2 6.2.9 1.1 1.7 2.1 2.6 3.2.3-.4.5-.8.8-1.2 1.9-3.2 2.6-6.8 3.5-10.4.9-3.9 2-7.7 7-8.3-.1-.5-.2-.9-.3-1.4zm-35.5 21.4c-.1-.2-.2-.3-.3-.5-.9-1.8-.5-3.3 1.3-4.3.8-.5 1.5-1 2.3-1.5-.1.1-.3.2-.4.3-1.2-1.3-2.4-2.7-3.7-4 0 1.8-.5 3.5-1.9 4.7-1.3 1.2-3 2-4.8 3.2.8.7 1.8 1.5 2.6 2.3 2.1 2 2.3 2 4.5.1.2-.1.3-.2.4-.3zm-8.1-68.5c-.1.1-.2.2-.4.2 1.8 11 3.7 22.1 5.5 33.3.8-.8 1.4-1.4 1.1-2.5-1.3-5.8-1.6-11.8-3.4-17.6-1.2-3.8-1.4-7.9-2-11.8-.1-.5-.5-1-.8-1.6zm6.1 70.7v.6c1.6.7 3.2 1.5 4.9 2.2.2.1.5 0 .7 0 2.5-1.1 4.2-4.6 3.5-7.6-3.2 1.6-6.2 3.2-9.1 4.8zm32.4-5.6c.1.1.3.2.4.3.3-.4.6-.8.9-1.3s.6-.9.9-1.4c1.5.5 1.6-.8 2-1.5.7-1.5-1-1-1.4-1.5.5-2 1.6-3.2 3.5-4 1.7-.6 2.8-1.8 3.6-3.3.9-1.7.4-3.3-1.4-4.6 0 .6-.1 1.1.1 1.4.8 1.4.8 2.5-.4 3.6-.7.6-1.4 1.3-2.2 1.6-2.4 1-3.8 2.7-4.2 5.2 0 .1-.1.1-.1.1-.6 0-1.5-.2-1.6-.1-.3.9-.5 1.9-.7 2.9.4 0 .8-.1 1.3-.1-.2.6-.3 1-.4 1.4-.1.5-.2.9-.3 1.3zm-50.5-43.8c.6 2 1.4 2.7 2.7 2.6 1.1-.2 2-1.1 2-2.1-.1-2-1.8-1.9-3.2-2.1 0-.1-.1-.2-.1-.3.7-.4 1.3-.9 2.2-1.4-.1.7-.1 1-.2 1.4 1.1-.1 2.1-.2 3.3-.3-.7-1.2-1.3-2.2-1.8-3.2-.5.5-.9 1.3-1.4 1.4-1.5.3-2.5 1-3.1 2.3-.1.2-.3.5-.5.6-1.7 1-2 2.7-1.9 4.5.3 3.2 3.6 5.6 6.6 4.6-1.9-.7-3.8-.9-5-2.6-1-1.6-.9-3.9.4-5.4zm43.9-3.4c-.1-.8-.2-1.4-.4-2-.8-2.8-2-5.4-4.3-7.3-1.1-.9-2.7-1-3 .8 2 .4 2.6 2.1 3.2 3.7s1 3.3 1.5 5c.9-.1 1.9-.1 3-.2zm-1.8 53.5c-1.7-1.2-3.4-2.4-4.9-3.5-.5 1-1 2.1-1.7 3.2-.7 1-1.7 1.8-2.6 2.7 3.2 1.4 7 .4 9.2-2.4zm-3.2-57.6c-.5-.9-.8-1.7-1.3-2.5-.2-.3-.5-.5-.8-.6-.9-.2-1.9-.3-2.7-.6-2.2-.7-3.8-.1-4.7 2 1.3.6 2.6 1.1 3.9 1.8 1.8 1.1 3.6 1 5.6-.1zm6.6 1.3c-1 .3-1.2.9-1 1.7.1.6.4 1.4.1 1.7-.6.7-.4 1.2-.3 1.9s.2 1.4.4 2.1c.5 2.3.9 4.6 1.4 7 .9-.3 1.7-.6 2.4-.9-1-4.5-2-9-3-13.5zm-10.8 55.7c.4-.7.9-1.4 1.2-2.1.3-.9.4-1.8.4-2.7s-.4-1.8-.5-2.6c-.1-.9-.4-1.1-1.2-1.1-1.5.1-2.6.8-3.7 1.8 2.5 1.5 3.5 3.8 3.8 6.7zm-.1-87.2c-.1-1.6 0-3.1-1.7-4.1-2.3-1.3-4.3-3-6.5-4.6-.6.5-1.2.9-1.7 1.4 1 1.8 2.7 2.5 4.4 3 .6-.3 1.3-.8 1.9-.6.8.1.9.9.9 1.7 0 .2.1.5.3.7.7.9 1.5 1.7 2.4 2.5zm-29.5 61.7c.1 0 .3 0 .4-.1 0-1.6.2-3.3 0-4.9-.3-2.3-2.2-3.6-3.3-5.4-.3-.4-.9-.6-1.4-.8-.1.1-.2.2-.3.2.9.8 1.2 1.5-.6 2 .7.3 1.1.5 1.5.7-.4.5-.6.7-1 1.1.6.1 1 .2 1.3.2 1-.1 1.4.4 1.6 1.3.1.5.4 1 .6 1.5.3.8.6 1.6.9 2.3.2.7.2 1.3.3 1.9zm16.8 13c.4-2.3.7-4.2 1-6.2-.5.3-.8.5-1.1.7-.4-2.3-.7-4.5-1.1-6.7-1.1.5-1.3 1.3-1.1 2.3.3 1.5.5 3 .8 4.5-.4-.1-.7-.1-1.1-.2.8 1.9 1.7 3.6 2.6 5.6zm32-52.7c0-1.3-1-2.4-2.3-2.4s-2.4 1-2.4 2.3 1 2.4 2.3 2.4c1.4.1 2.4-.9 2.4-2.3zm3.9 17.5c0-1.4-1-2.4-2.3-2.4s-2.4 1-2.4 2.3 1 2.4 2.3 2.4c1.4 0 2.4-1 2.4-2.3zm-45.8-30.7c-.3-1.7-.5-3.3-.8-5s-.5-3.4-.8-5.1c-.6 0-1.1.1-1.7.1.5 2.9 1 5.8 1.4 8.6.2 1.1.5 1.7 1.9 1.4zm47.5 50.8c.1-.1.5-.3.6-.6.4-.9.7-1.9.9-2.8.1-.3-.2-.9-.4-.9-.9 0-1.9-.2-2.6.2-.9.5-1.2 1.5-.8 2.6.3.8 1 1.3 2.3 1.5zm-50-48.8c-.6 3.1.6 4.9 3.3 4.7.2-3.6-.6-4.2-3.3-4.7zm16.9 27.2c.1 0 .2.1.3.1.5-1.5 1.1-3 1.6-4.5.1-.2-.1-.5-.3-.7-.3-.5-.7-.9-1.1-1.3-1.8 1-2.2 2.4-1.3 4.2.4.6.5 1.4.8 2.2zm.8-47c2.3 1.5 4.4 2.9 6.5 4.3-.8-3.9-3.5-5.8-6.5-4.3zm38.1 31c-.2-1.5-.4-3-.6-4.4-1.1-.1-1.9.3-2.3 1.2-.5.9-.4 1.8.2 2.6.6.7 1.5.9 2.7.6zm-.2 13.9c-1.1-.2-1.9 0-2.5.8s-.7 1.7-.2 2.6c.5.8 1.2 1.3 2.2 1.2.2-1.2.4-2.3.5-3.5.1-.3 0-.6 0-1.1zm-21-4.7c2.9-1.9 3.9-3.6 3.3-5.2-1.1 1.1-2.4 2.4-3.7 3.7-.1-.1-.2-.2-.3-.3.2.6.5 1.2.7 1.8zm18.2-18.5c0-.1 0-.2-.1-.3-2 0-3.9 0-5.9 0v1.8c2.1-.5 4-1 6-1.5zm-28.4 64.8c-1.5-.7-3.5-.3-4.6 1-.2.3-.1.8-.2 1.2.4 0 .8.1 1.1 0 1.3-.7 2.5-1.4 3.7-2.2zm-19.1-62.2c-.3-1.4-.7-2.5-.9-3.6-.3-1.4-1.9-2.3-3.6-1.6 3.4.8 3.6 3.2 3.4 5.9.4-.3.8-.5 1.1-.7zm7.5-19.6c.1.1.2.2.3.3.9-.4 1.7-.8 2.7-1.2-.5-.6-.9-1-1.5-1.6-.5 1-1 1.7-1.5 2.5zm5.9 36.4h.5c.2-.7.4-1.5.6-2.2-.1-.1-.2-.2-.2-.2-.3.2-.9.3-.9.5-.2.5-.1 1.2 0 1.9z"/><path d="m197.4 112.8h4.6v4.7h.2c.4-.6.7-1.2 1.1-1.8 1.8-2.8 5-4.1 8.2-3.4 2.7.6 4.6 2.7 4.9 5.8.2 1.6.2 3.3.2 4.9v14.5c-1.6 0-3.1 0-4.8 0 0-.4 0-.9 0-1.3 0-4.8 0-9.6-.1-14.4 0-.6-.1-1.2-.2-1.8-.3-2.6-2-3.7-4.5-2.8-1.4.5-2.4 1.5-3.2 2.8-1.3 2.2-1.9 4.6-1.9 7.1v9.1 1.4c-1.6 0-3.1 0-4.7 0 .2-8.3.2-16.5.2-24.8z"/><path d="m247.5 137.6c0-8.3 0-16.5 0-24.8h4.6v4.5c.1 0 .2 0 .3.1.2-.4.4-.7.6-1.1 1.8-3.2 4.9-4.7 8.5-4.1 2.9.5 5 2.8 5.1 6.2.2 4.2.1 8.5.2 12.7v5.4c0 .7-.2 1-.9 1-1.2 0-2.5 0-3.8 0 0-.6 0-1.1 0-1.5 0-5-.1-10.1-.1-15.1v-.1c-.1-1.5-.2-3.1-1.9-3.7-1.9-.6-3.6 0-4.9 1.4-1.9 2.1-2.8 4.8-2.9 7.6-.1 3.4-.1 6.7-.1 10.1 0 1.2-.4 1.4-1.4 1.4-1.1-.1-2.2 0-3.3 0z"/><path d="m222.3 112.8h4.6c0 .4.1.9.1 1.4 0 5 0 10.1.1 15.1 0 1.6.1 3.2 1.9 3.9 1.6.6 3.6 0 4.9-1.6 2-2.3 2.8-5.1 2.8-8.1 0-3.1 0-6.2 0-9.4 0-.4 0-.9 0-1.4h4.7v24.8c-1.4 0-2.7 0-4.1 0-.2 0-.6-.6-.6-.9-.1-1.2 0-2.4-.2-3.6-.3.5-.6 1-.9 1.5-1.9 2.8-4.6 3.9-7.8 3.6-3.3-.4-5.4-2.9-5.5-6.8-.1-6-.1-12-.1-18 0-.1.1-.3.1-.5z"/><path d="m171.7 123.4c-4.7 0-9.4 0-14.2 0 .2 3.7 1 6.9 3.9 9.3 3 2.4 6.4 2 9.9.9v3.2c0 .2-.3.6-.5.7-3.9.9-7.9 1.3-11.7-.5-2.1-1-3.7-2.6-4.7-4.8-2-4.5-2.3-9.2-.7-13.9 1.9-5.7 9.4-8.1 14.4-4.7 2.8 1.9 3.6 4.8 3.8 7.9v1.4c-.1.1-.2.3-.2.5zm-4.7-3.3c.1-2.3-1.7-4.2-4.5-4.2-2.6 0-4.7 2-4.6 4.2z"/><path d="m194.1 120.8c-1.8 0-3.6 0-5.3 0-.1-.6-.1-1.1-.2-1.7-.3-1.5-1-2.8-2.7-3.1-1.8-.4-3.3.2-4.3 1.7-.7 1.1-1.2 2.4-1.4 3.6-.5 2.8-.2 5.5 1 8.1 1.5 3 3.9 4.7 7.3 4.9 1.7.1 3.4 0 5.2 0 0-.1 0 .1 0 .3 0 2.8.1 2.9-2.7 3.2-2.1.2-4.3.4-6.4.1-4.7-.6-7.7-3.5-9.1-7.9-1-3.1-1.1-6.4-.4-9.6 1.1-5.4 4.9-8.4 10.4-8.2.8 0 1.5.1 2.3.2 4.1.9 6.5 4 6.3 8.4z"/><path d="m139.3 116.4c-1.5 0-2.9 0-4.3 0 0-1.3 0-2.4 0-3.7h4.4c0-1.7-.1-3.3 0-4.9 0-.5.4-1.1.8-1.4 1.2-.9 2.5-1.6 3.9-2.5v8.7h6.8v3.8c-2.2 0-4.4 0-6.6 0 0 .5-.1.8-.1 1.2v12.3c0 .5 0 1 .1 1.4.3 1.8 1.3 2.9 3.2 3 1 0 2-.1 3.1-.1v3c0 .2-.4.6-.6.6-2.1 0-4.2.2-6.3-.1-2.8-.4-4.1-2.4-4.2-5.3 0-4.9 0-9.8 0-14.7-.1-.4-.1-.7-.2-1.3z"/><path d="m178.3 178v20.5c-1 0-1.8 0-2.8 0 0-8.4 0-16.7 0-25.3 1.1 0 2.2-.1 3.2 0 .3 0 .7.5.8.9 3.1 6.3 6.2 12.6 9.2 18.9.2.3.4.7.7 1 0-6.9 0-13.8 0-20.6.2-.1.3-.1.4-.1 2.4-.2 2.4-.2 2.4 2.2v21.6 1.6c-1.2 0-2.2.1-3.3 0-.3 0-.7-.5-.9-.9-3.1-6.3-6.2-12.7-9.3-19-.1-.2-.2-.4-.3-.6.1-.2 0-.2-.1-.2z"/><path d="m147.8 142.8h2.9v1.3 16.1c0 .8-.1 1.7-.2 2.5-.5 3.1-2.2 5-5.3 5.5-1.6.3-3.4.3-5 0-3-.5-4.9-2.8-5.3-6-.1-.9-.2-1.8-.2-2.7 0-5.1 0-10.2 0-15.2 0-.5 0-.9 0-1.5h2.9v1.4c0 5.6 0 11.2.1 16.8.1 4.2 3.6 6.3 7.5 4.6 1.4-.6 2.1-1.8 2.4-3.2.1-.8.2-1.7.2-2.5 0-5.7 0-11.4 0-17.1z"/><path d="m252 152.7c0-3.3 0-6.5 0-9.9h2.5v25.2c-.8 0-1.6 0-2.5 0 0-.7 0-1.4 0-2.4-.3.4-.5.5-.6.7-2.2 3.2-7.1 3-8.7-.5-2-4.3-2-8.9.3-13.1 1.9-3.4 6.3-3.4 8.5-.2.1.1.1.2.1.3.2 0 .3-.1.4-.1zm-7.9 6.9c.3 1.5.4 2.9.7 4.2.4 1.3 1.2 2.4 2.7 2.5s2.5-.7 3.2-1.9c1.6-3.3 1.6-6.6.1-9.9-.6-1.3-1.6-2.1-3.1-2.1-1.5.1-2.3 1.1-2.7 2.4-.4 1.6-.6 3.3-.9 4.8z"/><path d="m145.3 183.3c0-1.8 0-3.6 0-5.3 0-1.2.1-2.3 0-3.5-.1-1 .2-1.4 1.3-1.3.4.1.8 0 1.2.1v25.2c-.8 0-1.5 0-2.4 0 0-.7 0-1.4 0-2.4-.5.6-.7.9-1 1.2-2.3 2.7-6.9 2.2-8.4-1.2-1.8-4.1-1.8-8.4.2-12.5 1.9-3.8 6.4-4 8.8-.5 0 .1.1.1.3.2zm-7.8 6.7c.2 1.5.4 2.9.7 4.3s1.2 2.4 2.7 2.5 2.5-.7 3.1-2c1.6-3.3 1.6-6.6.1-9.9-.6-1.3-1.6-2.1-3.1-2s-2.3 1.1-2.7 2.4c-.3 1.6-.5 3.2-.8 4.7z"/><path d="m284.3 152.6c0-3.3 0-6.5 0-9.8h2.4v25.2c-.8 0-1.5 0-2.4 0 0-.7-.1-1.4-.1-2.2-.2.2-.4.3-.5.4-1.1 1.7-2.7 2.4-4.7 2.2-2.2-.2-3.7-1.4-4.4-3.4-1.3-3.7-1.3-7.5.1-11.3 1.6-4.3 7.1-4.8 9.6-1.1zm.3 6.7c-.5-1.7-.8-3.4-1.4-5-.5-1.3-1.6-2-3-1.9s-2.2 1-2.7 2.3c-1 3-1.1 6-.3 9.1.4 1.4 1.2 2.4 2.8 2.6 1.6.1 2.7-.7 3.2-2.1.6-1.6.9-3.3 1.4-5z"/><path d="m267.7 158.1c.4-3.6-.3-5.2-2.3-5.6-2.3-.5-3.7.3-4.5 2.6-.8 0-1.7 0-2.6 0-.3-2.1 1.2-4.2 3.7-4.6 1.5-.3 3.1-.2 4.6 0 1.9.3 3.4 1.7 3.5 3.6.1 4.6 0 9.2 0 14-.7 0-1.5 0-2.3 0 0-.6-.1-1.2-.1-1.9-1.4 1.4-2.9 2.3-4.8 2.4-2.3.2-4.1-.8-4.8-2.7-.9-2.3-.3-4.5 1.6-5.8 1.9-1.4 4.2-1.7 6.5-1.8.5-.2 1-.2 1.5-.2zm0 2.2c-2-.2-3.9 0-5.6 1.1-1.4.9-1.8 2.5-1.1 3.8.6 1.1 2 1.5 3.5.9 2.2-.9 3.5-3.1 3.2-5.8z"/><path d="m208.3 198.6c-.8 0-1.5 0-2.3 0 0-.6-.1-1.2-.1-2-1.3 1.4-2.8 2.2-4.5 2.4-2.4.3-4.4-.8-5.2-2.8-.9-2.5-.1-4.7 2-6 1.9-1.2 4.1-1.5 6.3-1.6.4 0 .8 0 1.2-.1.7-2.8-.1-5.1-2-5.5-2.3-.6-4 .3-4.6 2.6-.9 0-1.8 0-2.7 0-.1-1.9.9-3.5 2.8-4.3 2-.8 4.1-.8 6.1-.2 1.8.6 2.9 1.8 3 3.7.1 4.5 0 9.1 0 13.8zm-2.5-7.9c-2.1-.1-4.1.1-5.9 1.3-1.1.8-1.5 2.3-.9 3.5.5 1.1 1.7 1.5 3.1 1.1 2.4-.4 3.9-2.8 3.7-5.9z"/><path d="m274.2 188.6c.3-3.6-.3-5.2-2.2-5.5-2.6-.4-4 .3-4.5 2.6-.9 0-1.8 0-2.7 0-.1-1.9.9-3.5 2.8-4.3s3.9-.8 5.9-.3c1.8.5 3 1.7 3.2 3.6.2 1.2.2 2.5.2 3.7v10.2c-.9 0-1.7 0-2.5 0 0-.6-.1-1.1-.1-1.4-1.3.6-2.7 1.4-4.1 1.8-2.7.6-4.9-.6-5.6-2.8-.9-2.6 0-5 2.7-6.1 1.8-.7 3.8-.9 5.8-1.4.3-.1.7-.1 1.1-.1zm0 2c-1 .1-1.9 0-2.8.3-1.1.3-2.2.7-3.1 1.3-1.1.7-1.4 2.3-.8 3.4s1.7 1.4 3.1 1.1c2.4-.6 3.9-3 3.6-6.1z"/><path d="m236.9 188.6c0-1 0-1.8 0-2.7-.1-1.6-1-2.7-2.5-2.9-2.2-.3-3.5.3-4.1 2-.1.2-.1.4-.2.6-.9 0-1.8 0-2.7 0 0-1.9.9-3.5 2.7-4.2 2.1-.9 4.4-.9 6.5-.1 1.5.5 2.6 1.7 2.6 3.3.1 4.7 0 9.3 0 14-.7 0-1.4 0-2.3 0-.1-.6-.1-1.2-.2-1.9-1.3 1.4-2.7 2.1-4.4 2.4-2.4.3-4.4-.7-5.2-2.7-.9-2.4-.2-4.7 1.9-6 1.9-1.2 4.1-1.5 6.3-1.6.6-.2 1.1-.2 1.6-.2zm-.1 2.1c-1 .1-1.9 0-2.8.3-1.1.3-2.2.7-3.1 1.3-1.1.7-1.4 2.3-.8 3.4.5 1.1 1.7 1.5 3.1 1.1 2.4-.7 3.8-2.9 3.6-6.1z"/><path d="m154.7 150.7h2.5v3.2c.1 0 .1 0 .2.1.1-.2.3-.5.4-.7 1.2-2.2 3.3-3.4 5.6-3 2.2.4 3.6 1.9 3.7 4.6.2 4.3 0 8.6 0 12.9 0 .1-.1.1-.1.3-.7 0-1.5 0-2.4 0 0-.5 0-.9 0-1.4-.1-3.7-.1-7.4-.2-11.1 0-1.2-.4-2.3-1.7-2.6-1.3-.4-2.4.2-3.3 1.2-1.6 1.9-2.2 4.2-2.3 6.7-.1 2.4 0 4.8 0 7.3-.9 0-1.7 0-2.5 0 .1-5.9.1-11.7.1-17.5z"/><path d="m163.1 196.4c.3 2.2.3 2.2-1.7 2.4-.5.1-1 .1-1.5.2-4.9.3-8-2.1-9-6.9-.5-2.4-.4-4.8.4-7.1 1.2-3.4 4.4-5.1 8.1-4.1 2.9.7 4.7 3.8 4.1 7.3-3.2 0-6.5 0-9.8 0-.2 2.8.3 5.2 2.2 7.2 2 2 4.6 1.6 7.2 1zm-2.6-10.3c-.1-2-1.3-3.2-3.3-3.1-1.9.1-3.3 1.4-3.3 3.2h6.1c.2-.1.4-.1.5-.1z"/><path d="m206 166c.4 2 .2 2.3-1.6 2.4-1.2.1-2.5.1-3.7 0-2.7-.2-4.9-1.5-6-4.1-1.5-3.4-1.6-7-.2-10.5 1.2-3.1 4.8-4.4 8.2-3.3 2.7.9 4.4 4.1 3.7 7.2-3.2 0-6.4 0-9.8 0-.2 2.7.3 5.2 2.2 7.1 2.1 2.1 4.7 1.6 7.2 1.2zm-2.5-10.5c0-1.9-1.2-3.1-2.9-3.2-1.9-.1-3.4 1.2-3.7 3.2z"/><path d="m220.3 165.6c1.3.2 2.6.6 4 .7 1 .1 2.2-.1 3.1-.5 1.8-.7 2.1-2.7.6-3.9-1-.8-2.2-1.4-3.4-2-.9-.5-1.8-.9-2.6-1.5-2.8-2-2.3-6 .7-7.4 2.4-1.1 4.8-.7 7.2-.2.2 0 .4.4.4.6.1.5 0 1.1 0 1.8-1.1-.2-2.1-.5-3.2-.6-.9-.1-2 0-2.8.3-.6.3-1.4 1-1.5 1.6s.6 1.5 1.1 1.9c1.4 1 3 1.7 4.5 2.5 2.4 1.4 3.3 3.1 2.8 5.6-.3 1.9-1.5 3.1-3.3 3.6-2.4.8-4.9.5-7.3-.1-.5-.3-.6-.7-.3-2.4z"/><path d="m218.3 194.9c1.1-3.4 2.2-6.6 3.2-9.8.2-.6.4-1.2.6-1.8.7-2.3.7-2.3 3.3-2.1-.1.4-.2.8-.3 1.2-1.7 5.1-3.4 10.1-5.1 15.2-.2.7-.5 1.1-1.3 1-.7-.1-1.6.3-2-.9-1.9-5.3-3.9-10.5-5.9-15.8-.1-.2-.1-.4-.2-.7.2-.1.3-.1.4-.1 2.3-.1 2.3-.1 3.1 2.1 1.3 3.8 2.7 7.6 4.2 11.7z"/><path d="m177 150.7c.1 0 .2-.1.2-.1 2.4-.1 2.4-.1 3.2 2.1 1.3 3.4 2.6 6.9 3.8 10.3.1.3.3.6.5 1.2.7-2.1 1.3-4 1.9-5.9.7-2.1 1.4-4.1 2-6.3.3-1.2.8-1.7 2.1-1.5.3.1.7 0 1.2 0-.8 2.4-1.6 4.8-2.4 7.1-1.1 3.2-2.2 6.4-3.3 9.6-.2.6-.5.9-1.1.7-.7-.1-1.5.5-1.9-.6-2.1-5.5-4.1-11-6.2-16.5 0 .1 0 0 0-.1z"/><path d="m209.9 150.7h2.5v2.8c2.9-2.9 3.6-3.3 6-3.2v1.2 1.4c-.5.1-1 .1-1.4.2-2.3.6-3.5 2.2-4 4.3-.3 1.3-.4 2.8-.4 4.1-.1 2.1 0 4.3 0 6.5-.9 0-1.7 0-2.5 0-.2-5.7-.2-11.5-.2-17.3z"/><path d="m254.6 181.2h2.5v2.7c1.4-2.1 3.3-3.2 5.8-3.2v2.6c-4.1.9-5.8 3.1-5.8 7.8v7.4c-.8 0-1.6 0-2.5 0 0-5.7 0-11.4 0-17.3z"/><path d="m246 198.6c-1 0-1.7 0-2.5 0 0-5.8 0-11.5 0-17.3h2.4v2.7c1.4-2.1 3.3-3.2 5.8-3.1v2.7c-1.5.2-2.9.6-4 1.8-1.2 1.5-1.7 3.2-1.7 5.1z"/><path d="m173.8 150.7v17.4c-.8 0-1.6 0-2.4 0 0-5.8 0-11.5 0-17.4z"/><path d="m237.7 168.1c-.9 0-1.6 0-2.4 0 0-5.8 0-11.5 0-17.4h2.4z"/><path d="m35.1 189c-3 .7-5.8 1.3-8.6 1.9 1.3-1.4 2.6-2.8 3.9-4.1l1.6-1.6c.7-.6 1.2-1.2.7-2.2.4.6.9 1.2 1.4 1.9-1.6 1.5-3.2 3-4.8 4.4 0 .1.1.2.1.2 2.4-.5 4.8-1 7.5-1.6-1.2 2.4-2.2 4.5-3.3 6.7.1.1.1.1.2.2 1.7-1.3 3.7-2.1 5.2-3.7.2.3.7.9 1 1.3-.6.2-1.2.2-1.6.5-2.3 1.4-4.6 2.8-6.9 4.2-.1-.1-.2-.1-.3-.2 1.3-2.5 2.6-5.1 3.9-7.9z"/><path d="m80.2 202.9c-.6 1.5 2.8 8.3 4.2 8.6-1.7.7-3.4 1.6-5.2 2.2-2.3.7-4.3-.3-5.3-2.4-1.1-2.2-.6-4.6 1.2-6.1.3-.3.7-.5 1.1-.7 1.3-.5 2.6-1 4-1.6zm-.9 10.1c.5-.2 1.5-.5 2.4-.9.2-.1.4-.7.3-.9-.9-2-1.9-4.1-2.9-6-.2-.3-.8-.6-1.2-.6-2.2.4-3.8 2.2-3.6 4 .2 2.6 2.1 4.4 5 4.4z"/><path d="m87.8 89c.3 3.7.6 7.1.9 10.9 1.5-2 2.8-3.7 4-5.5.2-.2-.1-.8-.2-1.3.7.5 1.3 1 1.8 1.4-.5.4-1 .6-1.4 1.1-1.6 2-3.2 4-4.8 6.1-.1 0-.2 0-.4 0-.3-3.4-.6-6.8-1-10.5-1.4 2.3-3.3 3.9-4.1 6.3-.4-.3-1-.8-1.5-1.2.5-.3 1.1-.5 1.4-.9 1.5-1.8 2.9-3.6 4.3-5.4.3-.4.6-.6 1-1z"/><path d="m24.2 161.2c-1.8 2.9-3.5 5.8-5.5 9 2.3-.7 4.3-1.3 6.3-2 .3-.1.4-.7.6-1 .2.8.5 1.6.6 2.3-.6 0-1.2-.2-1.8-.1-2.2.5-4.3 1.2-6.5 1.7-.4.1-.8.2-1.5.3 2-3.2 3.8-6.2 5.6-9.1-2.4.8-5.1.7-7 2.5-.1-.5-.3-1.2-.5-1.8.6 0 1.2.1 1.7 0 2.5-.6 5-1.3 7.5-2 .3.1.4.2.5.2z"/><path d="m37.6 109.1c-.3-.5-.5-1.1-.9-1.5-1.6-1.5-3.2-3-4.8-4.5-.3-.3-.7-.5-1.1-.8.1-.1.1-.2.2-.4h10.4c0-.1.1-.2.1-.3-1.6-1.4-3.2-2.9-4.8-4.2-.3-.2-.8 0-1.3 0 .5-.5 1-1 1.3-1.4 2.3 2.2 4.6 4.4 6.8 6.5 0 .1 0 .2-.1.3-3.4 0-6.8 0-10.3 0 1.2 1.8 4.8 4.6 5.9 4.6-.6.8-1.1 1.3-1.4 1.7z"/><path d="m64.1 210.8c0 2.9-2.1 5.1-4.8 5.1-2.9 0-5.2-2.1-5.2-4.7 0-2.9 2.2-5.3 5.1-5.3 2.9.1 4.9 2.1 4.9 4.9zm-1.1-.1c-.1-2.1-1.4-3.8-3.3-4.2-1.7-.3-3.2.7-3.9 2.8-.3.9-.4 1.8-.4 2.7.1 1.7 1.4 3 3.1 3.3 1.5.3 3-.5 3.7-2.1.4-.7.6-1.6.8-2.5z"/><path d="m108 123.2c-1 .8-2.8.5-3.2 2.4-.4-.9-.7-1.7-1.1-2.6 1.6.5 8.5-2.4 8.7-3.9.6 1.4 1.2 2.6 1.5 3.9.5 2-.9 3.4-3 3-.5-.1-.9-.2-1.4-.3-1.3 1.3-2.4 3.9-2.4 5.7-.8-1.3-1.1-2.4-.3-3.6.4-.6.7-1.3 1.1-1.8.9-1 .8-1.8.1-2.8zm4.7-1.9c-1.4.6-2.7 1.1-4.3 1.8.7.8 1.1 1.7 1.8 2 1.1.4 2.1-.2 2.8-1.1.6-.8.3-1.7-.3-2.7z"/><path d="m49.5 212.1c-.9-.5-1.8-1.1-2.6-1.6-1-.6-1.7-1.4-1.5-2.7.2-1.2 1.1-1.8 2.1-2.2.3-.1.5-.2.9-.3-.3-2 .1-4.2-1.6-6 1.6.6 2.4 1.5 2.4 3 0 .7.2 1.4.1 2-.1 1.1.4 1.7 1.4 2 1.7-1.8 2-2.8 1.3-3.8.8.5 1.5 1 2.1 1.3-2.1 2.1-3.3 4.8-4.9 7.2 0 .2.2.7.3 1.1zm1-5.1c-.8-.7-1.4-1.5-2.5-1-1 .5-1.6 1.5-1.6 2.6s.8 1.7 1.8 2c.6-1 1.2-1.9 1.8-2.8.1-.3.3-.5.5-.8z"/><path d="m22.8 126.8c1.8-.8 4.1-.9 5.4-3-.2 1.7-.9 2.8-2.5 3.1-.6.1-1.1.4-1.7.5-1.1.2-1.7.8-1.8 1.8 2 1.2 3.1 1.3 4.1.2-.4 1.2-.7 2-1 3-.6-1.4-7.7-3.9-9.1-3 .6-1.6 1-3 1.7-4.2.7-1.3 2.4-1.4 3.6-.3.4.7.8 1.3 1.3 1.9zm-1 2.6c.1-1 .5-1.9.2-2.6-.4-1-1.6-1.4-2.7-1.1-.6.2-1.2.8-1.6 1.3-.3.4-.2.9.4 1.1 1.1.3 2.2.8 3.7 1.3z"/><path d="m26.1 120.1c1.3.2 2.2 1.9 3.9.8-.4.8-.9 1.7-1.2 2.3-.4-.4-.7-.9-1.2-1.1-2-1.1-3.9-2.1-5.9-3.1-.4-.2-1 0-1.5 0 .4-.8.9-1.9 1.5-2.9.5-.9 1.3-1.7 2.5-1.6s1.8.9 2.3 1.8c.2.3.3.6.5 1 2-.6 4.2-.2 5.7-2-.4 1.6-1 2.3-2.6 2.6-.7.1-1.5.2-2.2.4-1.3.3-1.3.3-1.8 1.8zm-4.5-2.4 2.7 1.5c.4.2.9.9 1.4.1.5-.7 1-1.4.3-2.3s-1.6-1.3-2.7-1.2c-1 .1-1.4.9-1.7 1.9z"/><path d="m13.5 155.3c2.4-1.2 4.8-2.3 7.1-3.6.8-.4 1.5-1.1 2.2-1.6v1.9c-1 .5-2.1.8-2.9 1.5-.4.4-.4 1.4-.3 2.1 0 .3.4.8.8 1 .5.3 1.1.4 1.7.4.4 0 .8-.1 1.3-.2.1.6.2 1.4.2 2-.6-.3-1.2-.8-1.9-1-2.7-.8-5.4-1.5-8.1-2.2-.1-.1-.1-.2-.1-.3zm2.3 0v.3c1 .2 2 .4 3.2.7-.1-.9-.1-1.5-.2-2.3-1.1.5-2.1.9-3 1.3z"/><path d="m14.5 136.6c2.5-.5 4.9-.9 7.4-1.4 1-.2 1.9-.6 2.9-.9-.1.4-.2 1-.3 1.7-.7.1-1.4.2-2.1.3-1.9.4-2.1.5-2.1 2.5 0 .2.1.6.2.7.7.4 1.4.9 2.2 1.2.2.1.6-.1 1-.2-.1.8-.3 1.6-.4 2.1-.5-.5-.9-1.1-1.4-1.4-2.1-1.3-4.2-2.5-6.3-3.7-.3-.2-.7-.4-1-.6-.2-.1-.2-.2-.1-.3zm5 2.5c.2-.8.3-1.5.5-2.3-1.2.2-2.2.3-3.3.5 0 .1 0 .2-.1.3.9.4 1.8.9 2.9 1.5z"/><path d="m118.9 159.7c-2.9.6-5.5 1.1-8 1.8-.9.2-1.7.7-2.5 1 .1-.4.2-1.1.3-1.8.9-.2 1.8-.4 2.7-.5s1.4-.5 1.3-1.4c0-.6.2-1.4-.1-1.6-.7-.6-1.7-.9-2.5-1.3-.1-.1-.4.2-.7.3.1-.9.3-1.6.3-2.2.5.5.9 1.1 1.5 1.4 2.1 1.2 4.2 2.3 6.3 3.5.3.1.7.4 1.4.8zm-5.5-2.2c-.1.8-.2 1.5-.4 2.3 1.2-.2 2.2-.4 3.3-.6 0-.1 0-.2 0-.3-.9-.5-1.9-.9-2.9-1.4z"/><path d="m84.7 87.2c-.6.3-1.2.6-1.7 1-1.9 1.6-3.7 3.3-5.5 5-.3.3-.7.6-1.3 1.1.1-2 .2-3.7.3-5.4.1-1.3.2-2.6.2-3.8 0-.6-.3-1.2-.4-1.8.8.4 1.6.7 2.3 1.1-.2.4-.5.8-.6 1.1-.2 2.2-.4 4.4-.6 6.7 2-1 5.6-4.9 5.2-5.9.8.3 1.5.6 2.1.9z"/><path d="m13.3 147.8c.4.1.7.3 1 .2 2.2-.7 4.5-1.4 6.7-2.4-2.2-1-4.3-1.9-6.5-2.8-.2-.1-.5.2-.9.3 0-.6.1-1.4.1-2 .5.4 1 .8 1.5 1.1 2.3 1.1 4.6 2.2 6.9 3.4.3.2.7.4 1.3.7-1.1.4-1.9.7-2.7 1-2 .7-3.9 1.3-5.9 2-.6.2-1.1.7-1.6 1 .1-.8.1-1.6.1-2.5z"/><path d="m101.1 101.5c.5.6 1 1.3 1.6 2-.3.2-.8.2-1 .5-1.3 2-2.5 3.9-3.9 6.2 2.5-.7 4.8-1.4 7-2.1.3-.1.4-.5.7-.8.3.4.8 1.1 1.2 1.6-.7.1-1.5.1-2.3.2-2.4.6-4.7 1.2-7.1 1.8-.4.1-.8.1-1.4.3.4-.8.7-1.3 1.1-1.9 1.2-1.9 2.4-3.9 3.5-5.8.3-.7.4-1.4.6-2z"/><path d="m94.4 204c-.6.4-1.3 1-2 1.6-.2-.3-.2-.7-.5-.9-2-1.2-4-2.4-6.3-3.9.8 2.6 1.5 4.8 2.3 7.1.1.2.5.3.8.5-.5.4-1.1.9-1.6 1.3 0-.6 0-1.3-.2-1.9-.6-2.5-1.3-5-2-7.5-.1-.4-.1-.7-.3-1.4 2.8 1.6 5.3 3.1 7.9 4.5.6.4 1.2.4 1.9.6z"/><path d="m41 206.4c-.6-.5-1.3-1.1-1.9-1.7.3-.2.8-.3.9-.5.9-2.1 1.8-4.3 2.8-6.8-2.4 1.2-4.5 2.2-6.6 3.3-.2.1-.3.5-.5.9-.4-.3-.9-.8-1.2-1.2 3.2-1.4 6.4-2.9 9.7-4.3.1.1.1.2.2.2-.7 2-1.5 3.9-2.2 5.9-.3.7-.6 1.4-.8 2.1s-.3 1.4-.4 2.1z"/><path d="m108.2 111.5c.7 1.3 1.6 2.7 2.4 4.2-.5.2-.9.4-1.5.7 1-1.3 0-2-.5-3.1-1 .6-2 1.1-3.2 1.8.5.8 1 1.6 1.6 2.4-.4.2-.9.4-1.1.5-.3-.8-.5-1.7-.8-2.7-1 .6-1.8 1-2.6 1.5-.4.3-.9 1-.8 1.3.3.8.5 1.9 1.8 1.7.1 0 .2 0 .3.1-1.4.9-1.5.9-2.2-.5-.6-1-1.1-2.1-1.7-3.1.5-.1 1.1-.1 1.6-.4 1.9-1 3.8-2.1 5.7-3.3.5-.2.7-.7 1-1.1z"/><path d="m30.1 110.4c.5-.8 1-1.6 1.5-2.4.3.3.8.6 1.3 1.1-1.5-.3-1.7.9-2.4 1.6 1 .7 1.8 1.3 2.8 1.9.2.1.8.1.9 0 .4-.7.7-1.4 1.1-2.1 0-.1 0-.2-.1-.5.9.5 1.2.9.6 1.8-.8 1-1.5 2-2.3 3.1-.6-1.4-6.7-5.5-7.9-5.3.9-1.4 1.8-2.7 2.8-4 .4.3.7.6.9.7-.7.6-1.5 1.3-2.3 2 1.2.7 2.1 1.4 3.1 2.1z"/><path d="m96.5 201.9c-.3-.3-.6-.6-.8-.7.9-.6 1.7-1.3 2.7-2-2.1-1.9-3.9-3.6-5.9-5.3-.3-.3-.9-.2-1.4-.3.5-.6 1.1-1.2 1.7-1.9.2.4.3.9.5 1.1 1.8 1.8 3.7 3.5 5.7 5.4.7-1 1.3-2 1.9-2.9.1.1.3.4.7.8-1.6 2-3.3 3.9-5.1 5.8z"/><path d="m109.7 150.5c0-.8 0-1.7 0-2.5.4.2.8.5 1.2.5h7.8c-.2-1.4-.4-2.4-.6-3.5.1 0 .6.1 1.1.2v7.6c-.4 0-.9 0-1.1 0 .2-1 .4-2 .5-3-2.8 0-5.5 0-8.1 0-.2-.1-.5.4-.8.7z"/><path d="m109.2 131.8c-.4.8-1.1 1.4-1.1 1.9.1.7.6 1.6 1.2 1.8.5.2 1.4-.2 1.9-.6s.7-1.2 1.1-1.8c.9-1.8 2.1-2.6 3.4-2.3s2 1.7 1.9 3.8c-.4.1-.9.2-1.2.2.2-.7.5-1.3.5-2 0-.4-.6-1.1-1-1.2-.5-.1-1.2.2-1.6.5-.4.4-.6 1.1-.9 1.6-.4.6-.6 1.3-1.1 1.8-.9 1-2.4 1.2-3.5.5-.9-.6-1.8-2.7-1.3-3.5.3-.3 1.1-.4 1.7-.7z"/><path d="m54.9 85.4c-.7-.1-1.4-.3-2-.1-.5.1-1 .8-1 1.2 0 .5.5 1.2.9 1.5.9.5 2 .6 2.9.9 1.3.5 2.1 1.4 2.1 2.6 0 1.3-.7 2.1-1.8 2.6-1.6.9-2 .7-2.6-1.1.4.3.9.7 1.3.8.9.2 1.8-.2 2.1-1.2s-.1-1.7-1-2.2c-.5-.3-1.1-.3-1.7-.5s-1.3-.4-1.9-.7c-1.7-1-1.7-3.2 0-4.2.6-.3 1.3-.5 2-.8.4.5.6 1 .7 1.2z"/><path d="m115.4 171.7c-.5-.2-.9-.3-1.6-.6.4-.1.7-.1.9-.2.8-.4 1.3-1.6.9-2.3-.3-.7-1.3-1-2.2-.5-.8.4-1.5 1-2.2 1.4-1.5.8-3 .6-3.9-.5-.8-1-.8-3 .3-4 .4-.3 1.3-.1 1.9-.2v.3c-.5.2-1.2.3-1.5.6-.7.6-1 1.5-.4 2.4.6.8 1.4 1 2.3.5.6-.3 1.2-.7 1.8-1.1 1.7-1 2.9-1.1 3.9-.1.9.8.9 2.1.1 3.8-.1.1-.1.2-.3.5z"/><path d="m103.8 193.4c-.4-.3-.8-.6-1.2-.9.6-.1 1.1 0 1.5-.2.7-.4 1.3-1 1-2-.3-.9-1.1-1.1-1.9-1-1.1.2-2.2.6-3.4.7-1.4.1-2.5-.8-2.7-2s.6-3.3 1.8-3.5c.5-.1 1.2.4 1.6.6-.8.3-1.6.4-2.2.8-.4.3-.7 1.3-.4 1.8s1.1 1 1.7 1.1 1.3-.2 2-.4c2-.5 3.4-.1 4 1.1.4 1.1-.1 2.5-1.8 3.9z"/><path d="m43.6 99.7c.5.3.7.4.9.5.9.3 2.1-.3 2.4-1.2.3-.8-.2-1.9-1.2-2.1-.6-.2-1.3-.2-2-.2-.7-.1-1.5 0-2.1-.2-1.9-.6-2.3-2.6-1-4 .5-.5 1.1-.8 1.8-1.3.4.5.7.9.9 1.1-.7.1-1.4.1-2 .4-.4.2-.8 1-.7 1.5.1.4.7 1 1.2 1.1.9.2 1.9.1 2.8.2 1.5.1 2.5.7 2.9 1.9s.1 2.2-1.1 3.2-1.7.9-2.8-.9z"/><path d="m109.3 142.9c-.1-1-.2-1.8-.4-2.7 1.1.8 8.5-.2 9.4-1.4.1.9.3 1.7.4 2.6-1.1-1-8.6.1-9.4 1.5z"/><path d="m52.3 96c-.6.4-1.4.9-2.2 1.4.5-1.4-3.8-7.9-5.2-8 .8-.5 1.5-1 2.1-1.4.1.5 0 1 .2 1.3 1.2 2 2.5 3.9 3.8 5.8.3.4.8.6 1.3.9z"/><path d="m66.9 207.3c.6-.1 1.5-.2 2.4-.3-.7 1.1 0 8.4 1 9.5-.8.1-1.5.2-2.1.3.1-.6.2-1.3.2-1.9-.2-2.1-.4-4.1-.7-6.2-.1-.5-.5-.9-.8-1.4z"/><path d="m92.2 106c-.4-.5-1-1.1-1.6-1.8 1.8-.4 2.7-1.8 3.8-3 1.1-1.1 2.7-1.8 3-3.5.5.5 1.1 1 1.6 1.5-.4.1-.9.2-1.2.5-1.7 1.6-3.4 3.2-5.1 4.9-.3.3-.4.9-.5 1.4z"/><path d="m174.2 142.8v3.2c-1.1 0-2.1 0-3.2 0 0-1.1 0-2.1 0-3.2z"/><path d="m238.1 142.8v3.2c-1.1 0-2.1 0-3.3 0 0-1.1 0-2.1 0-3.2z"/><path d="m67.4 85.5c-.7.9-1.3 1.5-1.8 2.1-.2-.9-.3-1.7-.4-2.5.5.1 1.2.2 2.2.4z"/><path d="m108.9 178.7c-.3.4-.8 1-1.4 1.8-.4-1-.7-1.8-1-2.7.9.4 1.6.7 2.4.9z"/><path d="m24.4 180.2c-.1-.5-.3-1.2-.6-2.1 1 .3 1.8.4 2.7.7-.7.5-1.4.9-2.1 1.4z"/><path d="m45.1 156.7c-1-.5-1.9-.9-2.8-1.4 1.4-.8 2.4-.3 2.8 1.4z"/><path d="m62.1 107c-.5.7-.8 1.2-1.2 1.6-.1.2-.5.2-.7.1s-.4-.4-.5-.6c0-.2.2-.5.4-.6.6-.2 1.3-.3 2-.5z"/><path d="m35.8 147.3c.9-.4 1.8-.2 2.4.5.2.2.1.9-.1 1.1-.4.3-1 .6-1.4.5-.9-.4-1-1.2-.9-2.1z"/></g></svg>