<svg viewBox="0 0 286.791 123.504" xmlns="http://www.w3.org/2000/svg"><path d="m164.837 15.448h4.611c3.261.009 6.523.046 9.783.016a2.543 2.543 0 0 1 2.07.859c.705.782 1.433 1.543 2.125 2.337a3.313 3.313 0 0 0 2.161 1.2c2.659.342 5.311.74 7.965 1.118a5.865 5.865 0 0 1 .7.134c.843.229 1.073.476 1.132 1.339.042.608 0 1.222 0 1.833q0 9.885 0 19.772c0 .61-.071 1.22-.09 1.83a1.381 1.381 0 0 1 -.919 1.342 38.173 38.173 0 0 1 -3.814 1.414 5.014 5.014 0 0 1 -2.11-.066c-1.2-.209-2.387-.518-3.577-.793a3.92 3.92 0 0 0 -3.015.594 1.24 1.24 0 0 0 -.647 1.178c.016.883-.021 1.767.01 2.65a3.918 3.918 0 0 1 -.552 2.133c-.607 1.061-1.2 2.129-1.748 3.223a1.508 1.508 0 0 1 -1.452.893q-4.632.207-9.261.462c-2.78.156-5.561.312-8.337.53a3.339 3.339 0 0 0 -2.948 3.293c-.008 4.688 0 9.376-.035 14.064a4.4 4.4 0 0 1 -.4 1.646 2.124 2.124 0 0 1 -2.194 1.308c-7.233-.044-14.467-.041-21.7-.063-.952 0-1.052-.1-1.07-1.053-.031-1.63 0-3.262-.043-4.891-.068-2.513-.175-5.024-.271-7.536-.013-.339-.046-.678-.089-1.014-.108-.859-.208-.963-1.087-1.006-1.73-.084-3.461-.17-5.192-.214a2.938 2.938 0 0 1 -1.641-.451c-1.628-1.106-3.243-2.231-4.871-3.337a1.44 1.44 0 0 1 -.558-1.338c-.033-2.343-.077-4.686-.118-7.029a1.855 1.855 0 0 0 -.05-.7 1.225 1.225 0 0 0 -.544-.626 4.181 4.181 0 0 0 -1.2-.164c-3.052-.171-6.106-.307-9.156-.507-2.263-.149-3.324-1.3-3.4-3.595q-.117-3.717-.2-7.435-.252-11.409-.487-22.818v-.1c-.025-1.713.132-1.861 1.817-1.882q9.016-.11 18.034-.239c2.071-.03 2.157.047 2.229 2.136.039 1.12.082 2.24.168 3.357.059.763.162.876.907.991.871.134 1.752.215 2.632.286 1.692.138 3.385.3 5.08.361a13.254 13.254 0 0 1 4.937 1.073c1.846.806 1.752.295 1.8 2.586a27.271 27.271 0 0 1 -1.324 8.108c-.221.773-.346.9-1.173.745-1.932-.368-3.849-.82-5.771-1.238-.376-.082-.446-.343-.447-.687 0-.473-.044-.947-.08-1.419a1.419 1.419 0 0 0 -.964-1.324c-1.089-.374-2.19-.723-3.307-1-.647-.161-.891.037-1.2.663-.03.061-.048.127-.073.191a75.39 75.39 0 0 1 -3.619 7.857c-.78 1.489-.458 2.4 1.022 3.157.392.2.785.408 1.192.575a5.279 5.279 0 0 0 3.378.355c1.052-.265 2.12-.471 3.181-.7s1.13-.18 1.439.832a21.026 21.026 0 0 1 .622 6.461 1.092 1.092 0 0 1 -.834 1.134c-1.2.372-2.384.792-3.6 1.058-1.714.373-1.746.326-1.7 2.109.024.949.074 1.9.192 2.843.153 1.227.55 1.569 1.786 1.623 3.019.13 6.04.239 9.06.366a9.871 9.871 0 0 1 1.417.14c.7.131.834.312.856 1.033.044 1.459.079 2.918.119 4.377q.012.408.034.815c.085 1.494.54 2 2.012 2.151 1.25.13 2.5.232 3.756.325 1.119.083 1.654-.42 1.659-1.539q.029-5.706.048-11.411a4.587 4.587 0 0 0 -.035-.609c-.19-1.4-.612-1.926-2-2.194-1.1-.211-2.22-.292-3.334-.4-1.031-.095-1.278-.26-1.309-1.274-.047-1.523-.019-3.048-.006-4.572a2.524 2.524 0 0 1 .147-.694c.244-.794.313-.883 1.149-.832q3.406.206 6.808.486c1.623.137 3.242.337 4.862.508.1.011.2.015.305.029 1.411.192 1.873.678 1.994 2.1.141 1.658.262 3.317.427 4.973.127 1.265.463 1.493 1.722 1.376 2.6-.244 5.209-.462 7.813-.7.777-.071 1.555-.154 2.325-.279.863-.14.989-.285.976-1.121-.026-1.6-.066-3.192-.132-4.787-.04-.978-.271-1.166-1.259-1.115-1.357.069-2.713.153-4.069.232-.169.009-.339.03-.508.032-.651.007-.787-.083-.854-.723-.107-1.013-.183-2.029-.254-3.046q-.3-4.269-.579-8.539c-.012-.169-.024-.339-.025-.509 0-.787.208-1.071 1-1.09 2-.048 4.008-.057 6.012-.057.608 0 .766.175.85.9.108.944.168 1.894.254 2.841.061.676.138 1.351.193 2.028.039.489.264.748.777.725 1.56-.069 3.122-.106 4.68-.21.739-.049.979-.349 1.1-1.1a2.707 2.707 0 0 0 .041-.508 45.81 45.81 0 0 0 -.85-7.679c-.276-1.334-.912-2.138-2.352-2.147a2.652 2.652 0 0 1 -.8-.16 36.256 36.256 0 0 0 -7.218-1.194 1.046 1.046 0 0 1 -1.066-.874 4.809 4.809 0 0 1 -.178-1.1c.037-1.663.108-3.326.173-4.989a2.062 2.062 0 0 1 .154-.429z"/><path d="m225.668 89.6h1.744v5.788a41.016 41.016 0 0 0 7.349.054v-5.819h1.821v13.87h-1.753v-6.293c-2.5-.03-4.885-.012-7.387-.013v6.309h-1.7c-.203-.722-.275-12.319-.074-13.896z"/><path d="m164.355 95.554h7.145v1.595c-2.326.08-4.686-.011-7.192.052-.017 1.58-.018 3.115 0 4.787h7.8c.03.33.062.529.064.727 0 .233-.024.465-.041.764h-9.621v-13.871h9.523v1.528h-7.678z"/><path d="m26.328 89.647h1.819v1.147c0 2.376 0 4.751.005 7.127a9.738 9.738 0 0 0 .1 1.418 3.123 3.123 0 0 0 2.722 2.876 5.97 5.97 0 0 0 1.919.036 3.089 3.089 0 0 0 2.724-2.866 8.32 8.32 0 0 0 .044-1.117q.006-3.717 0-7.432v-1.172h1.772a6.278 6.278 0 0 1 .087.743c.007 2.783.034 5.566-.015 8.348a7.462 7.462 0 0 1 -.424 2.278 4.061 4.061 0 0 1 -2.927 2.594 7.973 7.973 0 0 1 -4.713-.1 4.2 4.2 0 0 1 -2.963-3.32 7.5 7.5 0 0 1 -.185-1.511c-.017-2.783-.009-5.566-.006-8.348 0-.199.022-.397.041-.701z"/><path d="m162.434 109.219h1.766c.016.38.043.739.043 1.1q.006 3.665 0 7.33c0 .339 0 .68.026 1.017a3.2 3.2 0 0 0 2.726 3.1 5.96 5.96 0 0 0 1.917.061 3 3 0 0 0 2.712-2.63 8.641 8.641 0 0 0 .126-1.516c.013-2.443.006-4.887.006-7.33v-1.14h1.8c.022.33.057.625.058.92 0 2.681.011 5.362 0 8.042a7.927 7.927 0 0 1 -.166 1.512 4.353 4.353 0 0 1 -3.37 3.554 8.031 8.031 0 0 1 -4.227-.04 4.379 4.379 0 0 1 -3.407-3.974 12.13 12.13 0 0 1 -.06-1.321q-.009-3.817 0-7.635c0-.33.03-.661.05-1.05z"/><path d="m192.223 122.057-.173 1.017h-1.558v-13.848l1.608-.07c.06 1.653 0 3.222.048 5.017a4.136 4.136 0 0 1 3.252-1.414 4.293 4.293 0 0 1 4.22 2.933 6.822 6.822 0 0 1 .017 4.784 4.445 4.445 0 0 1 -6.88 2.016c-.157-.117-.304-.247-.534-.435zm6.145-4.038a12.783 12.783 0 0 0 -.538-2.03 2.946 2.946 0 0 0 -5.412.134 5.133 5.133 0 0 0 -.011 3.876 2.856 2.856 0 0 0 2.955 1.89 2.689 2.689 0 0 0 2.617-2.034 18.681 18.681 0 0 0 .389-1.836z"/><path d="m34.636 117.429v5.623h-1.794v-13.765a1.671 1.671 0 0 1 .438-.117c2 0 4.01-.057 6.01.042a4.143 4.143 0 0 1 3.266 6.551 3.554 3.554 0 0 1 -3.01 1.633c-1.254.057-2.513.026-3.769.032-.333.002-.666.001-1.141.001zm.054-1.647c1.572 0 3.062.08 4.539-.024a2.187 2.187 0 0 0 2.1-2.321 2.273 2.273 0 0 0 -1.942-2.566 28.648 28.648 0 0 0 -4.693-.138z"/><path d="m124.025 94.616v-4.968h1.5c.215.743.266 12.614.059 13.858h-1.455l-.226-1a4.06 4.06 0 0 1 -3.052 1.292 4.325 4.325 0 0 1 -4.477-3.265 6.98 6.98 0 0 1 .027-4.211 4.427 4.427 0 0 1 7.16-2.048c.075.063.159.118.464.342zm-6.208 3.8-.1.036a15.419 15.419 0 0 0 .62 2.227 2.686 2.686 0 0 0 2.694 1.645 2.719 2.719 0 0 0 2.625-1.755 5.163 5.163 0 0 0 .169-3.684 2.885 2.885 0 0 0 -3.059-2.172 2.765 2.765 0 0 0 -2.748 2.4c-.097.422-.136.863-.201 1.299z"/><path d="m102.3 94.6v-4.935h1.578v13.821c-.267.028-.524.068-.781.076-.234.008-.468-.019-.747-.032l-.113-.949c-.088.021-.2.013-.253.063a4.444 4.444 0 0 1 -7.239-1.788 6.774 6.774 0 0 1 -.095-4.5 4.429 4.429 0 0 1 7.145-2.114c.105.083.213.152.505.358zm.1 3.94a5.312 5.312 0 0 0 -.725-2.54 2.852 2.852 0 0 0 -2.808-1.281 2.5 2.5 0 0 0 -2.293 1.591 5.191 5.191 0 0 0 -.04 4.248 2.76 2.76 0 0 0 2.827 1.762 2.7 2.7 0 0 0 2.616-1.908 14.672 14.672 0 0 0 .431-1.87z"/><path d="m9.572 123.093h-1.553c-.049-.292-.1-.578-.146-.864-.064 0-.15-.018-.189.015a4.488 4.488 0 0 1 -7.417-2.28 6.855 6.855 0 0 1 .033-3.912 4.429 4.429 0 0 1 7.168-2.23c.1.077.2.149.459.346v-4.942h1.645zm-1.465-4.972a6.036 6.036 0 0 0 -.7-2.47 2.942 2.942 0 0 0 -4.9-.181 4.785 4.785 0 0 0 -.094 5.039 2.712 2.712 0 0 0 2.743 1.391 2.573 2.573 0 0 0 2.377-1.639 16.194 16.194 0 0 0 .574-2.14z"/><path d="m220.151 114.555v3.431c0 .849-.011 1.7 0 2.546.015.9.184 1.079 1.053 1.134.268.017.538 0 .861 0 .039.275.086.5.1.724a6.711 6.711 0 0 1 -.033.672c-.794 0-1.564.052-2.325-.015a1.33 1.33 0 0 1 -1.228-1.181 6.163 6.163 0 0 1 -.078-1.113c-.007-2.032 0-4.063 0-6.183a6.3 6.3 0 0 0 -3.43.371 3.055 3.055 0 0 0 -1.67 2.836c-.071 1.32-.035 2.647-.044 3.971v1.3h-1.521a83.808 83.808 0 0 1 -.052-9.983h1.416v1.871c.31-.358.48-.536.63-.73a3.225 3.225 0 0 1 2.194-1.351 7.545 7.545 0 0 1 1.077.057c.428.012.858 0 1.379 0v-2.87l1.66-.075v2.95l1.966.121v1.415z"/><path d="m107.637 96.562h-1.444a2.814 2.814 0 0 1 1.475-2.7 6.018 6.018 0 0 1 5.212-.212 2.33 2.33 0 0 1 1.372 2.406c.008 1.357 0 2.713 0 4.07v1.018c.016 1.044.017 1.044 1.035 1.316a3.514 3.514 0 0 1 -.015.773.724.724 0 0 1 -.338.444 1.6 1.6 0 0 1 -2.226-.907c-.037-.088-.076-.175-.136-.314-.237.179-.445.346-.661.5a4.815 4.815 0 0 1 -4.272.632 2.424 2.424 0 0 1 -1.88-2.372 2.489 2.489 0 0 1 1.562-2.8 23.841 23.841 0 0 1 3.044-.759c.4-.091.8-.128 1.2-.225.48-.118.908-.329.976-.9a1.44 1.44 0 0 0 -.551-1.442 3.554 3.554 0 0 0 -3.558.156 6.747 6.747 0 0 0 -.795 1.316zm4.89 1.993c-1.1.179-2.135.329-3.158.522a3.563 3.563 0 0 0 -1.043.377 1.478 1.478 0 0 0 -.757 1.637 1.332 1.332 0 0 0 1.146 1.14 3.506 3.506 0 0 0 2.907-.539 1.916 1.916 0 0 0 .9-1.415c.038-.566.005-1.137.005-1.722z"/><path d="m270.162 116.133h-1.491a2.817 2.817 0 0 1 1.481-2.708 6.015 6.015 0 0 1 5.217-.209 2.359 2.359 0 0 1 1.378 2.412c.02 1.29.006 2.58.007 3.87 0 .476-.008.951 0 1.426.018.836.022.835.892 1.024.033.056.1.115.094.171-.017.411.234.909-.351 1.147a1.812 1.812 0 0 1 -1.96-.417 6.035 6.035 0 0 1 -.377-.792c-.249.176-.483.352-.727.514a4.865 4.865 0 0 1 -4.289.552 2.412 2.412 0 0 1 -1.792-2.34 2.471 2.471 0 0 1 1.472-2.755 24.044 24.044 0 0 1 3.137-.808c.395-.094.8-.133 1.2-.227.53-.125.962-.389.994-1a1.391 1.391 0 0 0 -.747-1.445 3.971 3.971 0 0 0 -2.4-.2 1.859 1.859 0 0 0 -1.617 1.606c-.009.059-.069.107-.121.179zm4.867 1.948c-.594.125-1.054.234-1.518.315-.5.087-1.015.105-1.5.231a4.236 4.236 0 0 0 -1.4.544 1.462 1.462 0 0 0 .236 2.51 2.92 2.92 0 0 0 4.182-2.574z"/><path d="m206.291 96.527h-1.44a3 3 0 0 1 1.923-2.908 6.308 6.308 0 0 1 4.481-.118 2.347 2.347 0 0 1 1.686 2.5c.027 1.492.007 2.985.007 4.478v.814c.02.879.022.879.938 1.1.026.061.075.121.074.181 0 .417.191.905-.406 1.115a1.773 1.773 0 0 1 -1.948-.456 5.82 5.82 0 0 1 -.349-.787c-.249.183-.481.367-.725.532a4.855 4.855 0 0 1 -4.285.561 2.413 2.413 0 0 1 -1.8-2.33 2.477 2.477 0 0 1 1.455-2.763 23.482 23.482 0 0 1 3.133-.809c.428-.1.873-.135 1.3-.251a1.054 1.054 0 0 0 .916-.956 1.451 1.451 0 0 0 -.63-1.411 3.594 3.594 0 0 0 -3.4.124 7.186 7.186 0 0 0 -.93 1.384zm4.922 2c-.841.137-1.57.24-2.293.378a9.84 9.84 0 0 0 -1.665.4 1.5 1.5 0 0 0 -1.017 1.677 1.463 1.463 0 0 0 1.361 1.282 2.872 2.872 0 0 0 3.665-3c-.003-.228-.031-.464-.051-.734z"/><path d="m45.03 116.138a3.074 3.074 0 0 1 2.089-2.984 6.553 6.553 0 0 1 4.2-.094 2.354 2.354 0 0 1 1.8 2.526c.024 1.494.006 2.989.006 4.483 0 .272-.005.544 0 .816.024.888.025.887.936 1.1.027.06.079.122.075.18-.024.408.219.91-.393 1.119a1.785 1.785 0 0 1 -1.952-.452 6.112 6.112 0 0 1 -.356-.777c-.262.193-.5.383-.75.547a4.91 4.91 0 0 1 -4.3.52 2.416 2.416 0 0 1 -1.764-2.365 2.452 2.452 0 0 1 1.423-2.69 23.975 23.975 0 0 1 3.233-.844c.4-.095.8-.134 1.2-.229a1.11 1.11 0 0 0 .973-1.027 1.47 1.47 0 0 0 -.891-1.469 2.835 2.835 0 0 0 -3.98 1.635zm6.369 1.928c-.479.125-.8.227-1.13.29-.366.069-.744.077-1.107.156a10.921 10.921 0 0 0 -1.858.481 1.441 1.441 0 0 0 -.872 1.666 1.4 1.4 0 0 0 1.233 1.181 3.624 3.624 0 0 0 2.65-.438 2.045 2.045 0 0 0 1.073-1.53c.054-.562.012-1.134.012-1.806z"/><path d="m87.471 116.131h-1.445a2.993 2.993 0 0 1 1.916-2.905 6.353 6.353 0 0 1 4.479-.124 2.328 2.328 0 0 1 1.691 2.495c.025 1.526.007 3.052.007 4.578v.712c.019.894.02.894.932 1.093.028.059.082.12.078.177-.025.408.226.909-.378 1.127a1.814 1.814 0 0 1 -1.955-.431 6.009 6.009 0 0 1 -.372-.783c-.255.184-.488.362-.731.525a4.89 4.89 0 0 1 -4.192.575 2.46 2.46 0 0 1 -1.892-2.373 2.526 2.526 0 0 1 1.571-2.8 25.663 25.663 0 0 1 3.143-.776c.363-.084.734-.131 1.1-.212a1.11 1.11 0 0 0 1.012-.989 1.444 1.444 0 0 0 -.654-1.4 3.646 3.646 0 0 0 -3.395.135 6.968 6.968 0 0 0 -.915 1.376zm4.808 2.012c-.677.116-1.28.2-1.875.324a13.726 13.726 0 0 0 -2.063.5 1.5 1.5 0 0 0 .346 2.891c2.487.542 4.172-1.191 3.592-3.715z"/><path d="m251.692 121.984v1.054c-1.342.65-1.987.418-2.725-1.01a4.8 4.8 0 0 1 -4.111 1.295 2.75 2.75 0 0 1 -2.558-3.6 2.4 2.4 0 0 1 1.702-1.855c.933-.294 1.911-.447 2.871-.653.4-.086.805-.129 1.2-.231a1.1 1.1 0 0 0 .968-1.032 1.445 1.445 0 0 0 -.711-1.375 3.7 3.7 0 0 0 -3.315.141 7.311 7.311 0 0 0 -.957 1.4h-1.42a2.9 2.9 0 0 1 1.692-2.806 6.176 6.176 0 0 1 4.856-.164 2.246 2.246 0 0 1 1.506 2.311c.007 1.528 0 3.056 0 4.585v.815c.034.893.036.893 1.002 1.125zm-2.649-3.876c-1.1.182-2.107.319-3.1.522a3.693 3.693 0 0 0 -1.313.5 1.468 1.468 0 0 0 .118 2.524 2.964 2.964 0 0 0 4.291-2.56c.006-.308.004-.61.004-.986z"/><path d="m246.534 100.355h1.529a3.92 3.92 0 0 1 -2.207 3 4.718 4.718 0 0 1 -6.784-3.349 6.441 6.441 0 0 1 .192-3.706 4.586 4.586 0 0 1 7.243-2.093 5.444 5.444 0 0 1 1.615 4.8h-7.354a2.77 2.77 0 0 0 1.957 3.141c1.675.524 2.832-.015 3.809-1.793zm-.158-2.905a2.784 2.784 0 0 0 -3.067-2.759 2.557 2.557 0 0 0 -2.473 2.759z"/><path d="m84.091 109.21h1.909c-1.6 4.676-3.273 9.235-4.908 13.861h-2.192l-4.879-13.829c.33-.039.525-.077.72-.082.4-.01.8 0 1.276 0 1.316 3.98 2.612 7.9 3.908 11.815 1.565-3.841 2.78-7.77 4.166-11.765z"/><path d="m203.225 93.626-3.767 3.491 4.243 6.369h-2.122c-1.09-1.652-2.209-3.346-3.379-5.118-.877.639-1.748 1.15-1.607 2.448a25.039 25.039 0 0 1 .018 2.677h-1.638v-13.881l1.572-.078a21.647 21.647 0 0 1 .063 2.686c.014.882 0 1.764 0 2.646v2.794a7.531 7.531 0 0 0 .665-.485c1.058-1 2.141-1.985 3.15-3.036a2.1 2.1 0 0 1 1.886-.729 6.718 6.718 0 0 0 .8.005z"/><path d="m73.205 99.021h-7.346a2.705 2.705 0 0 0 1.917 3.14c1.66.529 2.779.017 3.83-1.772h1.38a3.552 3.552 0 0 1 -3.047 3.306c-3.44.567-5.354-1.18-5.846-3.879a6.3 6.3 0 0 1 .388-3.88 4.628 4.628 0 0 1 4.391-2.749 4.277 4.277 0 0 1 4.057 3.144 5.554 5.554 0 0 1 .276 2.69zm-7.371-1.567a20.672 20.672 0 0 0 5.644-.136 2.82 2.82 0 0 0 -3.145-2.6 2.67 2.67 0 0 0 -2.499 2.736z"/><path d="m208.691 119.961h1.5a3.735 3.735 0 0 1 -1.93 2.862 4.738 4.738 0 0 1 -6.926-2.878 6.263 6.263 0 0 1 .268-4.475c1.465-3.143 5.8-3.69 7.72-.969a5.939 5.939 0 0 1 1.023 4.069h-7.39a2.736 2.736 0 0 0 1.9 3.154c1.666.544 2.869.002 3.835-1.763zm-.157-2.915a2.754 2.754 0 0 0 -2.854-2.768 2.66 2.66 0 0 0 -2.739 2.768z"/><path d="m267.413 118.63h-7.434a2.774 2.774 0 0 0 2.08 3.138c1.632.457 2.8-.1 3.66-1.79h1.562a3.86 3.86 0 0 1 -2.462 3.074 5.466 5.466 0 0 1 -3.6.057 3.714 3.714 0 0 1 -2.249-1.8 6.261 6.261 0 0 1 -.284-5.87 4.546 4.546 0 0 1 5.724-2.405 4.244 4.244 0 0 1 1.6 1.04 5.773 5.773 0 0 1 1.403 4.556zm-1.836-1.594a2.8 2.8 0 0 0 -5.592 0z"/><path d="m13.472 118.6a2.9 2.9 0 0 0 2.222 3.227c1.6.376 2.71-.192 3.55-1.854.231-.018.5-.053.759-.054.228 0 .457.039.79.07a3.791 3.791 0 0 1 -2.426 3.063 5.418 5.418 0 0 1 -3.976-.052 3.527 3.527 0 0 1 -1.829-1.554 6.172 6.172 0 0 1 -.186-6.3 4.353 4.353 0 0 1 4.309-2.342 4.112 4.112 0 0 1 3.862 2.959 5.384 5.384 0 0 1 .35 2.838c-1.226 0-2.467 0-3.708.006-1.216-.007-2.432-.007-3.717-.007zm5.621-1.5a2.728 2.728 0 0 0 -3-2.809 2.586 2.586 0 0 0 -2.529 2.809z"/><path d="m270.627 98.324a15.062 15.062 0 0 0 -1.293 1.214 1.412 1.412 0 0 0 -.247.83c-.028 1.012-.011 2.026-.011 3.11h-1.592v-13.84h1.554v8.056a6.213 6.213 0 0 0 .683-.468c1.012-.956 2.081-1.862 3-2.9.84-.953 1.8-1.027 3.142-.814-1.345 1.264-2.591 2.377-3.9 3.6l4.286 6.435c-.722 0-1.245-.013-1.766 0-.43.014-.569-.314-.751-.59-.822-1.247-1.636-2.5-2.458-3.745-.188-.275-.393-.537-.647-.888z"/><path d="m121.294 123.366c-2.884-.022-4.742-1.919-4.846-5.014a7.3 7.3 0 0 1 .222-2.012 4.579 4.579 0 0 1 4.914-3.556 4.528 4.528 0 0 1 4.538 3.89 8.443 8.443 0 0 1 .048 2.519 4.506 4.506 0 0 1 -4.876 4.173zm3.214-5.223a4.621 4.621 0 0 0 -.556-2.348 2.942 2.942 0 0 0 -5.122-.076 4.521 4.521 0 0 0 0 4.754 2.94 2.94 0 0 0 5.071 0 4.342 4.342 0 0 0 .607-2.33z"/><path d="m276.95 98.267a10 10 0 0 1 .125-1.179 4.893 4.893 0 0 1 9.674.625 6.563 6.563 0 0 1 -.37 3.1 4.34 4.34 0 0 1 -4.019 2.939c-3.334.21-5.403-1.816-5.41-5.485zm8.17.234a14.569 14.569 0 0 0 -.608-2.161 2.73 2.73 0 0 0 -2.695-1.658 2.76 2.76 0 0 0 -2.607 1.646 4.811 4.811 0 0 0 0 4.319 2.783 2.783 0 0 0 2.7 1.658 2.737 2.737 0 0 0 2.6-1.651 13.874 13.874 0 0 0 .61-2.154z"/><path d="m88.629 96.347h-1.359c-.489-.511-.843-1.138-1.367-1.358a5.853 5.853 0 0 0 -2.082-.21 1.538 1.538 0 0 0 -.76.257 1.008 1.008 0 0 0 -.11 1.763 4.388 4.388 0 0 0 1.292.565c.649.193 1.322.3 1.978.471a11.287 11.287 0 0 1 1.254.414c2.26.884 1.9 3.755.458 4.734a6.347 6.347 0 0 1 -6.114.052 3.106 3.106 0 0 1 -1.312-2.6h1.52a3.145 3.145 0 0 0 4.243 1.69 1.339 1.339 0 0 0 1.035-1.24 1.234 1.234 0 0 0 -.87-1.249c-.632-.235-1.3-.389-1.944-.579-.747-.219-1.517-.381-2.235-.671a2.3 2.3 0 0 1 -1.556-2.186 2.465 2.465 0 0 1 1.4-2.412 5.486 5.486 0 0 1 5-.048 2.775 2.775 0 0 1 1.529 2.607z"/><path d="m231.121 115.913h-1.557a2.134 2.134 0 0 0 -.286-.565 3.284 3.284 0 0 0 -.957-.851 3.415 3.415 0 0 0 -2.487-.032 1.088 1.088 0 0 0 -.846 1.027 1.013 1.013 0 0 0 .682 1.036c.692.266 1.416.45 2.13.661s1.45.361 2.141.63a2.3 2.3 0 0 1 1.614 2.032 2.8 2.8 0 0 1 -1.209 2.74 6.318 6.318 0 0 1 -5.939.08 3.137 3.137 0 0 1 -1.416-2.7h1.494a3.142 3.142 0 0 0 4.164 1.756c.747-.241 1.121-.648 1.141-1.261a1.28 1.28 0 0 0 -.948-1.3c-.6-.22-1.234-.359-1.851-.538a22.57 22.57 0 0 1 -2.236-.666 2.309 2.309 0 0 1 -1.564-2.281 2.47 2.47 0 0 1 1.479-2.362 5.51 5.51 0 0 1 4.913-.014 2.788 2.788 0 0 1 1.538 2.608z"/><path d="m184.479 100.393h1.441a3.2 3.2 0 0 0 4.481 1.623 1.245 1.245 0 0 0 .143-2.273 5.537 5.537 0 0 0 -1.325-.5c-1.008-.3-2.055-.481-3.029-.859a2.536 2.536 0 0 1 -.312-4.546 5.469 5.469 0 0 1 5.185-.08 2.545 2.545 0 0 1 1.385 2.566h-1.473a2.754 2.754 0 0 0 -3.639-1.5 1.2 1.2 0 0 0 -.944 1.074 1.08 1.08 0 0 0 .77 1.09c.7.25 1.428.423 2.143.633a19.185 19.185 0 0 1 2.137.648 2.68 2.68 0 0 1 .548 4.545 4.147 4.147 0 0 1 -.967.552 6.505 6.505 0 0 1 -4.49.069 2.928 2.928 0 0 1 -2.054-3.042z"/><path d="m104.1 115.929h-1.463a2.724 2.724 0 0 0 -3.537-1.529c-.65.191-1.049.586-1.065 1.089a1.133 1.133 0 0 0 .852 1.139c.636.229 1.3.384 1.948.573a16.92 16.92 0 0 1 2.236.67 2.69 2.69 0 0 1 .427 4.662 3.64 3.64 0 0 1 -.988.516 6.775 6.775 0 0 1 -4.011.091 3.075 3.075 0 0 1 -2.425-3.091h1.485a3.158 3.158 0 0 0 4.185 1.683c.731-.249 1.134-.687 1.125-1.28a1.322 1.322 0 0 0 -.992-1.279c-.639-.22-1.305-.362-1.954-.553a14.282 14.282 0 0 1 -2.224-.7 2.475 2.475 0 0 1 -.2-4.436 5.373 5.373 0 0 1 5.267-.095 2.574 2.574 0 0 1 1.334 2.54z"/><path d="m59.477 120.016h1.444a3.208 3.208 0 0 0 4.393 1.643 1.311 1.311 0 0 0 .9-1.13 1.2 1.2 0 0 0 -.817-1.278c-.659-.256-1.356-.416-2.036-.618-.746-.221-1.514-.386-2.231-.677a2.275 2.275 0 0 1 -1.512-2.209 2.419 2.419 0 0 1 1.336-2.343 5.553 5.553 0 0 1 5.093-.063 2.507 2.507 0 0 1 1.393 2.56h-1.47a2.721 2.721 0 0 0 -3.625-1.463 1.206 1.206 0 0 0 -.952 1.067 1.07 1.07 0 0 0 .777 1.083c.665.243 1.356.414 2.038.612.714.208 1.447.368 2.141.629a2.357 2.357 0 0 1 1.648 2.125 2.77 2.77 0 0 1 -1.215 2.639 6.345 6.345 0 0 1 -5.938.107 2.935 2.935 0 0 1 -1.367-2.684z"/><path d="m180.9 93.484h1.582v9.986h-1.47l-.111-1.234a2.756 2.756 0 0 0 -.363.283c-1.177 1.368-2.69 1.446-4.291 1.084a2.546 2.546 0 0 1 -1.944-2.016 5 5 0 0 1 -.171-1.208c-.015-2.174 0-4.348 0-6.522a1.82 1.82 0 0 1 .093-.362h1.524c.023.324.062.619.063.914.006 1.834.032 3.669 0 5.5-.033 1.644.72 2.142 1.5 2.34a2.759 2.759 0 0 0 3.067-1.277 4.792 4.792 0 0 0 .445-1.85c.065-1.526.024-3.056.032-4.585-.002-.329.028-.66.044-1.053z"/><path d="m177.571 123.089h-1.6v-10.01a3.438 3.438 0 0 1 .51-.086c.3 0 .6.023.951.039l.131 1.217a2.8 2.8 0 0 0 .467-.348 4.141 4.141 0 0 1 4.529-.82 2.562 2.562 0 0 1 1.569 1.874 4.685 4.685 0 0 1 .152 1.1c.013 2.3.007 4.608.007 6.994h-1.587c-.019-.284-.055-.578-.055-.873-.006-1.832 0-3.664 0-5.5 0-1.36-.429-2.075-1.362-2.33a2.74 2.74 0 0 0 -3.233 1.3 6.079 6.079 0 0 0 -.451 2.16c-.068 1.387-.02 2.781-.02 4.172z"/><path d="m48.385 103.5h-1.566c-.022-.366-.057-.695-.058-1.024-.006-1.765 0-3.53-.006-5.3a5.5 5.5 0 0 0 -.072-1.011 1.716 1.716 0 0 0 -1.517-1.431 2.775 2.775 0 0 0 -3.408 2.722c-.07 1.32-.024 2.646-.029 3.97v2.071h-1.492a75.869 75.869 0 0 1 -.021-10.034h1.31l.132 1.23a3.529 3.529 0 0 0 .468-.333 4.063 4.063 0 0 1 4.518-.87 2.433 2.433 0 0 1 1.573 1.746 5.343 5.343 0 0 1 .223 1.4c.024 2.138.013 4.276.01 6.414a3.576 3.576 0 0 1 -.065.45z"/><path d="m113.4 116.2c-.079-.162-.144-.28-.2-.4a2.318 2.318 0 0 0 -2.311-1.513 2.651 2.651 0 0 0 -2.679 1.5 5.3 5.3 0 0 0 -.063 4.538 2.583 2.583 0 0 0 2.713 1.581 2.522 2.522 0 0 0 2.422-1.842c.057-.157.1-.32.164-.537.265-.025.526-.066.787-.07s.534.029.8.046a3.794 3.794 0 0 1 -2.773 3.649c-3.663.952-6.1-1.034-6.309-4.327a7.167 7.167 0 0 1 .392-3.108 4.222 4.222 0 0 1 3.527-2.856 5.48 5.48 0 0 1 3.183.419 3.38 3.38 0 0 1 1.992 2.928z"/><path d="m59.489 103.525h-1.832l-3.722-10.02h1.865c.9 2.653 1.82 5.361 2.739 8.069l.2.019c.887-2.685 1.773-5.37 2.677-8.109h1.746z"/><path d="m257.175 121.72c.018.294.04.492.039.691s-.022.395-.039.655a19.961 19.961 0 0 1 -2.339-.02c-.825-.1-1.237-.643-1.271-1.588-.042-1.186-.018-2.375-.02-3.562 0-1.081 0-2.161 0-3.324l-1.655-.113v-1.414l1.618-.115v-2.878h1.665v2.85l1.99.155v1.393l-1.891.105c-.027.287-.071.548-.072.809q-.009 2.494 0 4.988c0 1.158.119 1.269 1.274 1.32.199.009.399.028.701.048z"/><path d="m241.262 121.729v1.306a5.827 5.827 0 0 1 -2.48-.02 1.343 1.343 0 0 1 -1.082-1.209 6.471 6.471 0 0 1 -.053-1.015c0-1.73 0-3.461 0-5.191v-1.037l-1.675-.1v-1.393l1.678-.166v-2.875h1.629v2.9l1.968.108v1.405l-1.948.139v1.761c0 1.391-.008 2.783 0 4.174.008.952.166 1.1 1.125 1.159.264.011.526.032.838.054z"/><path d="m249.889 93.486h1.537l.111 1.909a3.78 3.78 0 0 1 3.616-2.191v1.707c-.265.035-.525.059-.78.1a2.95 2.95 0 0 0 -2.665 2.656 14.337 14.337 0 0 0 -.158 2.02c-.029 1.185-.02 2.37-.031 3.555a.928.928 0 0 1 -.1.242h-1.484c-.093-3.284-.016-6.584-.046-9.998z"/><path d="m256.414 93.468h1.534l.09 1.686a16.841 16.841 0 0 1 1.547-1.443 2.949 2.949 0 0 1 2.085-.5v1.679c-.316.052-.642.1-.963.16a2.891 2.891 0 0 0 -2.447 2.412 10.741 10.741 0 0 0 -.184 1.921c-.027 1.35-.009 2.7-.009 4.108h-1.609c-.092-3.305-.016-6.614-.044-10.023z"/><path d="m80.029 93.231v1.669c-.414.08-.775.145-1.135.221a2.77 2.77 0 0 0 -2.246 2.224 9.878 9.878 0 0 0 -.22 2.011c-.032 1.35-.009 2.7-.009 4.133h-1.586v-9.989h1.434l.148 1.785c.937-1.319 1.969-2.17 3.614-2.054z"/><path d="m217.187 103.519h-1.387c-.229-.708-.28-12.744-.052-13.92h1.443z"/><path d="m24.41 109.15v13.922c-.3.023-.554.058-.813.06-.229 0-.457-.034-.738-.057v-13.845z"/><path d="m234.719 123.08c-.248.021-.445.052-.642.052-.266 0-.532-.021-.865-.037v-10.056h1.507z"/><path d="m264.653 103.5h-1.5v-10.028h1.441a82.473 82.473 0 0 1 .059 10.028z"/><path d="m92.436 103.524h-1.518v-10.024h1.518z"/><path d="m188.1 123.074h-1.537v-10h1.537z"/><path d="m52.456 103.526h-1.45a83.323 83.323 0 0 1 -.067-10.026h1.517z"/><path d="m55.858 113.092h1.422a75.72 75.72 0 0 1 .093 9.97h-1.515z"/><path d="m115.56 6.043v-4.478l.826.423c1.172-.59 1.59-.574 2.357.023a11.546 11.546 0 0 1 1.937-.384 1.033 1.033 0 0 1 1.12 1.078c.05 1.109.014 2.223.014 3.375h-.758c0-.986 0-1.929 0-2.872 0-.494-.165-.865-.7-.959a1.084 1.084 0 0 0 -1.178.6 2.289 2.289 0 0 0 -.146.787c-.021.541 0 1.084-.009 1.626 0 .266-.034.532-.051.781-.473.177-.7.039-.7-.424 0-.61 0-1.22-.006-1.83a6.235 6.235 0 0 0 -.018-.711.854.854 0 0 0 -1.392-.674 1.305 1.305 0 0 0 -.6 1.213q0 1.017-.012 2.034c-.005.403-.19.557-.684.392z"/><path d="m153.538 6.2c0-2.042 0-3.873 0-5.7 0-.461.213-.606.722-.426v1.89c.305-.111.5-.189.705-.256a2.008 2.008 0 0 1 2.8 1.755 4 4 0 0 1 -.061 1.31 1.914 1.914 0 0 1 -2.219 1.488c-.231-.037-.447-.154-.675-.214a1.459 1.459 0 0 0 -.515-.072 5.075 5.075 0 0 0 -.757.225zm3.493-2.381a4.1 4.1 0 0 0 -.24-.874 1.234 1.234 0 0 0 -1.635-.612 1.571 1.571 0 0 0 -.875 1.594 1.541 1.541 0 0 0 .89 1.579c.973.394 1.792-.26 1.86-1.683z"/><path d="m171.853 2.969a1.331 1.331 0 0 1 1.19-1.317 4.287 4.287 0 0 1 1.314-.018 1.089 1.089 0 0 1 1.065 1.149c.044.676-.009 1.358.03 2.034a3.637 3.637 0 0 0 .246.817c.045.146.159.386.111.425a.718.718 0 0 1 -.518.2 2.195 2.195 0 0 1 -.588-.331 10.571 10.571 0 0 1 -1.805.329 1.174 1.174 0 0 1 -1.256-1.09 1.22 1.22 0 0 1 .943-1.375 15.055 15.055 0 0 1 1.487-.321c.323-.066.653-.212.553-.576a.984.984 0 0 0 -.571-.6 1.08 1.08 0 0 0 -1.354.4.577.577 0 0 1 -.847.274zm2.771.979a11.807 11.807 0 0 0 -1.74.394.886.886 0 0 0 -.388.714c0 .176.308.433.527.5.923.305 1.613-.333 1.601-1.608z"/><path d="m148.822 2.963a2.081 2.081 0 0 1 3.178-1.031 1.683 1.683 0 0 1 .385 1c.061.638 0 1.287.029 1.929a3.444 3.444 0 0 0 .205.743q.073.257.146.513a1.652 1.652 0 0 1 -.65.114 1.247 1.247 0 0 1 -.452-.319 10.283 10.283 0 0 1 -1.741.351 1.2 1.2 0 0 1 -1.3-1.043 1.255 1.255 0 0 1 .979-1.45 12.923 12.923 0 0 1 1.39-.287c.319-.06.617-.161.625-.543a.649.649 0 0 0 -.633-.671c-.518-.08-1.051-.08-1.338.462-.191.351-.423.382-.823.232zm2.7 1.052c-.359.04-.722.074-1.082.125a2.211 2.211 0 0 0 -.488.13.692.692 0 0 0 -.52.769c.059.408.39.531.737.575.944.122 1.497-.514 1.353-1.599z"/><path d="m161.464 5.9a9.029 9.029 0 0 1 -1.589.372 1.243 1.243 0 0 1 -1.431-1.132 1.259 1.259 0 0 1 1.061-1.4c.454-.128.94-.147 1.386-.294a.885.885 0 0 0 .523-.5c.094-.337-.165-.58-.49-.654-.548-.125-1.111-.145-1.441.42a.521.521 0 0 1 -.824.231 2.067 2.067 0 0 1 3.151-1.028 1.622 1.622 0 0 1 .394.984c.062.637-.009 1.286.032 1.927a3.682 3.682 0 0 0 .269.8c.047.148.142.388.085.439a.68.68 0 0 1 -.517.182 2.362 2.362 0 0 1 -.609-.347zm-.1-1.94a10.517 10.517 0 0 0 -1.637.363.845.845 0 0 0 -.427.677.9.9 0 0 0 .578.566c.945.272 1.59-.39 1.487-1.61z"/><path d="m137.569 2.944a1.315 1.315 0 0 1 1.2-1.295 4.1 4.1 0 0 1 1.212-.028 1.1 1.1 0 0 1 1.131 1.185c.032.438.011.88.012 1.321a2.51 2.51 0 0 0 .468 1.9c-.51.516-.886.173-1.169-.1a10.675 10.675 0 0 1 -1.821.328 1.148 1.148 0 0 1 -1.238-1.095 1.188 1.188 0 0 1 .937-1.372c.482-.152.991-.215 1.488-.319.321-.068.652-.219.553-.579a.993.993 0 0 0 -.579-.6 1.086 1.086 0 0 0 -1.353.4c-.221.37-.452.465-.841.254zm2.766 1a11.758 11.758 0 0 0 -1.746.4.883.883 0 0 0 -.375.719c0 .177.307.434.525.5.923.292 1.612-.351 1.596-1.617z"/><path d="m127.068 5.9c-.694.643-1.067.294-1.337.006a10.21 10.21 0 0 1 -1.731.354 1.183 1.183 0 0 1 -1.3-1.03 1.213 1.213 0 0 1 .955-1.456c.482-.148 1-.174 1.483-.329.218-.07.554-.357.528-.481a.971.971 0 0 0 -.5-.65 1.18 1.18 0 0 0 -1.453.382c-.216.294-.243.274-.839.3a2.953 2.953 0 0 1 .243-.734 2.343 2.343 0 0 1 2.942-.332 1.563 1.563 0 0 1 .366.9 15.417 15.417 0 0 1 .021 1.624c0 .533-.1 1.099.622 1.446zm-1.426-1.941a11.663 11.663 0 0 0 -1.729.388.889.889 0 0 0 -.373.718c0 .176.307.431.524.5.928.29 1.618-.348 1.578-1.61z"/><path d="m114.782 4.141h-3.239a.989.989 0 0 0 .543 1.31 1.3 1.3 0 0 0 1.592-.224c.24-.249.344-.736.855-.414a1.546 1.546 0 0 1 -1.4 1.447 2.044 2.044 0 0 1 -2.191-.949 2.818 2.818 0 0 1 -.136-2.46 1.95 1.95 0 0 1 2.011-1.261 1.8 1.8 0 0 1 1.767 1.42 9.925 9.925 0 0 1 .198 1.131zm-.961-.716c-.135-.823-.529-1.2-1.2-1.187-.64.018-.982.374-1.1 1.187z"/><path d="m177.284 5.4c.984.1 1.806.189 2.626.291a1.847 1.847 0 0 1 .034.372h-3.607c-.26-.433.048-.7.278-.982.682-.833 1.37-1.662 2.212-2.681-.614-.018-1.029-.032-1.443-.042a2.294 2.294 0 0 1 -.606-.021c-.158-.051-.279-.217-.416-.332.133-.116.264-.329.4-.333 1.007-.029 2.016-.016 3.238-.016a5.886 5.886 0 0 1 -.447.906c-.519.669-1.072 1.312-1.606 1.969-.207.258-.399.525-.663.869z"/><path d="m169.755 2.357h-1.693c-.353 0-.613-.086-.461-.61a26.077 26.077 0 0 1 3.219-.1c.347.477.038.745-.19 1.025-.577.709-1.162 1.411-1.738 2.119-.142.175-.264.365-.519.72.665 0 1.157-.03 1.644.01.4.032.946-.23 1.221.58-1.343.1-2.569.032-3.751.045-.283-.469 0-.708.207-.963q1.056-1.291 2.119-2.58z"/><path d="m148.118 6.1h-3.689c-.255-.487.092-.736.315-1.012.677-.837 1.368-1.664 2.207-2.68-.782-.019-1.366-.037-1.949-.048-.375-.007-.595-.13-.424-.628h3.291c.253.354 0 .614-.208.875-.6.735-1.209 1.464-1.808 2.2-.141.173-.26.363-.429.6.954.1 1.8.179 2.651.278a2.171 2.171 0 0 1 .043.415z"/><path d="m130.6 6.039c0-.919.024-1.829-.008-2.737-.024-.69-.32-1.011-.864-1.062a1.2 1.2 0 0 0 -1.27.812 3.4 3.4 0 0 0 -.1.9c-.017.577 0 1.155-.012 1.732 0 .438-.26.5-.689.367v-4.437c.715.485 1.349.053 2.015-.011a1.286 1.286 0 0 1 1.621 1.36c.064.878.033 1.764.037 2.646-.001.362-.12.606-.73.43z"/><path d="m184.415 1.734v4.331c-.169.012-.427.086-.465.025-.24-.391-.446-.18-.747-.072a3.315 3.315 0 0 1 -1.365.211 1.085 1.085 0 0 1 -1.038-1.072c-.046-1.139-.013-2.28-.013-3.392.594-.215.689.083.693.468.009.779-.011 1.559.017 2.336.023.656.26.944.761 1.032a1.19 1.19 0 0 0 1.313-.728 3.569 3.569 0 0 0 .13-1c.021-.575.008-1.151.012-1.726 0-.401.203-.547.702-.413z"/><path d="m136.764 1.757c-.18.531-.18.531-.815.705v2.774c.1.442.93.052.763.813a3.241 3.241 0 0 1 -.628.092c-.721-.027-.916-.193-.943-.907-.034-.881-.008-1.764-.008-2.543-.156-.463-.9-.2-.737-.766.053-.18.406-.271.686-.441l.091-1.067h.646l.13 1.151z"/><path d="m55.364 111.716c.618-1.026 1.089-1.836 1.6-2.623a.728.728 0 0 1 .506-.249c.5-.033 1-.012 1.657-.012a16.072 16.072 0 0 1 -2.368 2.658c-.231.217-.744.134-1.395.226z"/><path d="m163.486.046c.615-.154.665.176.666.55q0 1.425 0 2.85 0 1.068 0 2.137c0 .414-.14.652-.664.455z"/><path d="m234.727 111.165h-1.519v-1.921h1.519z"/><path d="m90.912 91.553v-1.909h1.518v1.909z"/><path d="m264.693 91.546h-1.525v-1.932h1.525z"/><path d="m188.106 109.152v2.009h-1.518v-1.931z"/><path d="m52.452 91.58h-1.552v-1.907h1.548z"/></svg>