<svg enable-background="new 0 0 300 300" viewBox="0 0 300 300" xmlns="http://www.w3.org/2000/svg"><path d="m171.4 103.7h4.6 9.8c.9 0 1.5.2 2.1.9.7.8 1.4 1.5 2.1 2.3.6.7 1.3 1.1 2.2 1.2 2.7.3 5.3.7 8 1.1.2 0 .5.1.7.1.8.2 1.1.5 1.1 1.3v1.8 19.8c0 .6-.1 1.2-.1 1.8 0 .7-.3 1.1-.9 1.3-1.3.5-2.5 1.1-3.8 1.4-.7.2-1.4.1-2.1-.1-1.2-.2-2.4-.5-3.6-.8-1.1-.3-2.1 0-3 .6-.5.3-.7.6-.6 1.2v2.6c0 .8-.2 1.5-.6 2.1-.6 1.1-1.2 2.1-1.7 3.2-.3.6-.8.9-1.5.9-3.1.1-6.2.3-9.3.5-2.8.2-5.6.3-8.3.5-1.6.1-2.9 1.6-2.9 3.3v14.1c0 .6-.2 1.1-.4 1.6-.4.9-1.1 1.3-2.2 1.3-7.2 0-14.5 0-21.7-.1-1 0-1.1-.1-1.1-1.1 0-1.6 0-3.3 0-4.9-.1-2.5-.2-5-.3-7.5 0-.3 0-.7-.1-1-.1-.9-.2-1-1.1-1-1.7-.1-3.5-.2-5.2-.2-.6 0-1.2-.1-1.6-.5-1.6-1.1-3.2-2.2-4.9-3.3-.5-.3-.6-.8-.6-1.3 0-2.3-.1-4.7-.1-7 0-.2 0-.5 0-.7-.1-.2-.3-.5-.5-.6-.4-.1-.8-.1-1.2-.2-3.1-.2-6.1-.3-9.2-.5-2.3-.1-3.3-1.3-3.4-3.6-.1-2.5-.1-5-.2-7.4-.2-7.6-.3-15.2-.5-22.8v-.1c0-1.7.1-1.9 1.8-1.9 6-.1 12-.2 18-.2 2.1 0 2.2 0 2.2 2.1 0 1.1.1 2.2.2 3.4.1.8.2.9.9 1 .9.1 1.8.2 2.6.3 1.7.1 3.4.3 5.1.4s3.4.4 4.9 1.1c1.8.8 1.8.3 1.8 2.6.1 2.8-.6 5.5-1.3 8.1-.2.8-.3.9-1.2.7-1.9-.4-3.8-.8-5.8-1.2-.4-.1-.4-.3-.4-.7 0-.5 0-.9-.1-1.4 0-.6-.4-1.1-1-1.3-1.1-.4-2.2-.7-3.3-1-.6-.2-.9 0-1.2.7 0 .1 0 .1-.1.2-1 2.7-2.3 5.3-3.6 7.9-.8 1.5-.5 2.4 1 3.2.4.2.8.4 1.2.6 1.1.4 2.2.7 3.4.4 1.1-.3 2.1-.5 3.2-.7s1.1-.2 1.4.8c.6 2.1.6 4.3.6 6.5 0 .6-.3 1-.8 1.1-1.2.4-2.4.8-3.6 1.1-1.7.4-1.7.3-1.7 2.1 0 .9.1 1.9.2 2.8.2 1.2.6 1.6 1.8 1.6 3 .1 6 .2 9.1.4.5 0 1 .1 1.4.1.7.1.8.3.9 1 0 1.5.1 2.9.1 4.4v.8c.1 1.5.5 2 2 2.2 1.2.1 2.5.2 3.8.3 1.1.1 1.7-.4 1.7-1.5 0-3.8 0-7.6 0-11.4 0-.2 0-.4 0-.6-.2-1.4-.6-1.9-2-2.2-1.1-.2-2.2-.3-3.3-.4-1-.1-1.3-.3-1.3-1.3 0-1.5 0-3 0-4.6 0-.2.1-.5.1-.7.2-.8.3-.9 1.1-.8 2.3.1 4.5.3 6.8.5 1.6.1 3.2.3 4.9.5h.3c1.4.2 1.9.7 2 2.1.1 1.7.3 3.3.4 5 .1 1.3.5 1.5 1.7 1.4 2.6-.2 5.2-.5 7.8-.7.8-.1 1.6-.2 2.3-.3.9-.1 1-.3 1-1.1 0-1.6-.1-3.2-.1-4.8 0-1-.3-1.2-1.3-1.1-1.4.1-2.7.2-4.1.2-.2 0-.3 0-.5 0-.7 0-.8-.1-.9-.7-.1-1-.2-2-.3-3-.2-2.8-.4-5.7-.6-8.5 0-.2 0-.3 0-.5 0-.8.2-1.1 1-1.1 2 0 4-.1 6-.1.6 0 .8.2.8.9.1.9.2 1.9.3 2.8.1.7.1 1.4.2 2 0 .5.3.7.8.7 1.6-.1 3.1-.1 4.7-.2.7 0 1-.3 1.1-1.1 0-.2 0-.3 0-.5-.1-2.6-.3-5.1-.8-7.7-.3-1.3-.9-2.1-2.4-2.1-.3 0-.5-.1-.8-.2-2.3-.8-4.8-.9-7.2-1.2-.6-.1-.9-.3-1.1-.9-.1-.4-.2-.7-.2-1.1 0-1.7.1-3.3.2-5 .2-.1.3-.2.3-.4z"/><path d="m232.3 177.9h1.7v5.8c.8.2 6.2.3 7.3.1 0-1.9 0-3.8 0-5.8h1.8v13.9c-.6 0-1.1 0-1.8 0 0-2.1 0-4.1 0-6.3-2.5 0-4.9 0-7.4 0v6.3c-.6 0-1.2 0-1.7 0-.1-.9-.1-12.5.1-14z"/><path d="m171 183.8h7.1v1.6c-2.3.1-4.7 0-7.2.1v4.8h7.8c0 .3.1.5.1.7v.8c-3.2 0-6.4 0-9.6 0 0-4.6 0-9.2 0-13.9h9.5v1.5c-2.6 0-5.1 0-7.7 0z"/><path d="m32.9 177.9h1.8v1.1 7.1c0 .5 0 1 .1 1.4.2 1.6 1.1 2.6 2.7 2.9.6.1 1.3.1 1.9 0 1.5-.2 2.5-1.3 2.7-2.9 0-.4 0-.7 0-1.1 0-2.5 0-5 0-7.4 0-.4 0-.7 0-1.2h1.8c0 .2.1.5.1.7v8.3c0 .8-.2 1.6-.4 2.3-.5 1.4-1.5 2.2-2.9 2.6-1.6.4-3.2.4-4.7-.1-1.6-.5-2.6-1.7-3-3.3-.1-.5-.2-1-.2-1.5 0-2.8 0-5.6 0-8.3.1-.1.1-.3.1-.6z"/><path d="m169 197.5h1.8v1.1 7.3 1c.1 1.7 1.1 2.8 2.7 3.1.6.1 1.3.1 1.9.1 1.5-.2 2.4-1.1 2.7-2.6.1-.5.1-1 .1-1.5 0-2.4 0-4.9 0-7.3 0-.4 0-.7 0-1.1h1.8c0 .3.1.6.1.9v8c0 .5-.1 1-.2 1.5-.4 1.9-1.5 3.1-3.4 3.6-1.4.4-2.8.3-4.2 0-2-.5-3.2-1.9-3.4-4 0-.4-.1-.9-.1-1.3 0-2.5 0-5.1 0-7.6.2-.5.2-.8.2-1.2z"/><path d="m198.8 210.3c-.1.4-.1.7-.2 1-.5 0-1 0-1.6 0 0-4.6 0-9.2 0-13.8.5 0 1 0 1.6-.1.1 1.7 0 3.2 0 5 1-1.1 2.1-1.4 3.3-1.4 2 0 3.5 1.1 4.2 2.9.6 1.6.6 3.2 0 4.8-1 2.8-4.5 3.8-6.9 2 0-.1-.1-.2-.4-.4zm6.2-4c-.2-.6-.2-1.4-.5-2-.5-1.2-1.5-1.7-2.8-1.7s-2.2.7-2.7 1.8c-.5 1.3-.5 2.6 0 3.9s1.6 1.9 3 1.9c1.3 0 2.2-.7 2.6-2 .2-.6.2-1.2.4-1.9z"/><path d="m41.2 205.7v5.6c-.6 0-1.2 0-1.8 0 0-4.6 0-9.1 0-13.8.1 0 .3-.1.4-.1 2 0 4-.1 6 0 3.4.2 5.1 3.7 3.3 6.6-.7 1.1-1.8 1.6-3 1.6-1.3.1-2.5 0-3.8 0-.3.1-.6.1-1.1.1zm.1-1.7c1.6 0 3.1.1 4.5 0 1.3-.1 2-1 2.1-2.3.1-1.4-.6-2.3-1.9-2.6-1.5-.3-3.1-.1-4.7-.1z"/><path d="m130.6 182.9c0-1.8 0-3.3 0-5h1.5c.2.7.3 12.6.1 13.9-.4 0-.9 0-1.5 0-.1-.3-.1-.6-.2-1-.9.9-1.9 1.3-3.1 1.3-2.2 0-3.8-1.1-4.5-3.3-.4-1.4-.4-2.8 0-4.2 1-3.1 4.6-4.1 7.2-2 .1 0 .2 0 .5.3zm-6.2 3.8c.1.8.2 1.6.5 2.3.5 1.1 1.5 1.7 2.7 1.6 1.3 0 2.1-.6 2.6-1.8s.6-2.4.2-3.7c-.5-1.5-1.5-2.2-3.1-2.2-1.4 0-2.4.9-2.7 2.4-.1.5-.1.9-.2 1.4z"/><path d="m108.9 182.9c0-1.8 0-3.3 0-4.9h1.6v13.8c-.3 0-.5.1-.8.1-.2 0-.5 0-.7 0 0-.3-.1-.6-.1-.9-.1 0-.2 0-.3.1-2.5 2.2-6.1 1.3-7.2-1.8-.6-1.5-.6-3-.1-4.5 1-3.1 4.6-4.2 7.1-2.1.1-.1.2-.1.5.2zm.1 3.9c-.1-.9-.2-1.8-.7-2.5-.7-1-1.6-1.4-2.8-1.3-1.1.1-1.9.6-2.3 1.6-.6 1.4-.7 2.8 0 4.2.5 1.2 1.5 1.8 2.8 1.8s2.2-.7 2.6-1.9c.2-.6.3-1.3.4-1.9z"/><path d="m16.2 211.3c-.6 0-1 0-1.6 0 0-.3-.1-.6-.1-.9-.1 0-.2 0-.2 0-2.7 2.3-6.5 1.1-7.4-2.3-.4-1.3-.4-2.6 0-3.9 1-3.2 4.5-4.3 7.2-2.2.1.1.2.1.5.3 0-1.7 0-3.3 0-4.9h1.6zm-1.5-4.9c-.1-.9-.2-1.7-.7-2.5-1.1-1.8-3.8-1.9-4.9-.2-1 1.6-1 3.4-.1 5 .6 1 1.6 1.5 2.7 1.4s2-.6 2.4-1.6c.3-.7.4-1.4.6-2.1z"/><path d="m226.8 202.8v3.4 2.5c0 .9.2 1.1 1.1 1.1h.9c0 .3.1.5.1.7v.7c-.8 0-1.6.1-2.3 0s-1.1-.5-1.2-1.2c-.1-.4-.1-.7-.1-1.1 0-2 0-4.1 0-6.2-1.2-.1-2.4-.1-3.4.4-1.2.6-1.6 1.6-1.7 2.8-.1 1.3 0 2.6 0 4v1.3c-.6 0-1 0-1.5 0-.2-.7-.2-8.7-.1-10h1.4v1.9c.3-.4.5-.5.6-.7.6-.7 1.3-1.2 2.2-1.4.4 0 .7 0 1.1.1h1.4c0-.9 0-1.9 0-2.9.6 0 1.1 0 1.7-.1v3c.7 0 1.3.1 2 .1v1.4c-.9.1-1.5.2-2.2.2z"/><path d="m114.2 184.8c-.4 0-.9 0-1.4 0 0-1.2.4-2.2 1.5-2.7 1.7-.9 3.5-.9 5.2-.2 1 .4 1.4 1.4 1.4 2.4v4.1 1c0 1 0 1 1 1.3v.8c0 .2-.2.4-.3.4-.9.4-1.8 0-2.2-.9 0-.1-.1-.2-.1-.3-.2.2-.4.3-.7.5-1.3.9-2.8 1.1-4.3.6-1.2-.3-1.8-1.2-1.9-2.4-.1-1.4.4-2.4 1.6-2.8 1-.4 2-.5 3-.8.4-.1.8-.1 1.2-.2.5-.1.9-.3 1-.9s-.1-1.1-.6-1.4c-.8-.6-2.9-.5-3.6.2-.3.3-.5.8-.8 1.3zm4.9 2c-1.1.2-2.1.3-3.2.5-.4.1-.7.2-1 .4-.6.3-.9.9-.8 1.6s.6 1 1.1 1.1c1 .2 2 .1 2.9-.5.5-.3.9-.8.9-1.4.2-.5.1-1.1.1-1.7z"/><path d="m276.8 204.4c-.5 0-.9 0-1.5 0 0-1.2.5-2.2 1.5-2.7 1.7-.9 3.5-.9 5.2-.2 1 .4 1.4 1.4 1.4 2.4v3.9 1.4c0 .8 0 .8.9 1 0 .1.1.1.1.2 0 .4.2.9-.4 1.1-.7.3-1.6.1-2-.4-.1-.2-.2-.5-.4-.8-.2.2-.5.4-.7.5-1.3.9-2.8 1-4.3.6-1.1-.3-1.7-1.2-1.8-2.3-.1-1.2.3-2.3 1.5-2.8 1-.4 2.1-.6 3.1-.8.4-.1.8-.1 1.2-.2.5-.1 1-.4 1-1s-.2-1.1-.7-1.4c-.8-.4-1.6-.3-2.4-.2-.9.1-1.4.7-1.6 1.6 0 0-.1 0-.1.1zm4.8 1.9c-.6.1-1.1.2-1.5.3-.5.1-1 .1-1.5.2s-1 .3-1.4.5c-.9.7-.8 2 .2 2.5 1.9.9 4.2-.5 4.2-2.6 0-.1 0-.4 0-.9z"/><path d="m212.9 184.8c-.4 0-.9 0-1.4 0 .1-1.4.7-2.4 1.9-2.9 1.5-.6 3-.6 4.5-.1 1.1.4 1.7 1.2 1.7 2.5v4.5.8c0 .9 0 .9.9 1.1 0 .1.1.1.1.2 0 .4.2.9-.4 1.1-.7.2-1.6.1-1.9-.5-.1-.2-.2-.5-.3-.8-.2.2-.5.4-.7.5-1.3.9-2.8 1-4.3.6-1.1-.3-1.7-1.2-1.8-2.3-.1-1.2.3-2.3 1.5-2.8 1-.4 2.1-.6 3.1-.8.4-.1.9-.1 1.3-.3.5-.1.9-.4.9-1s-.1-1.1-.6-1.4c-.8-.5-2.7-.5-3.4.1-.6.4-.8 1-1.1 1.5zm4.9 2c-.8.1-1.6.2-2.3.4-.6.1-1.1.2-1.7.4-.8.3-1.1.9-1 1.7.1.7.5 1.1 1.4 1.3 2.1.4 3.7-.9 3.7-3 0-.3-.1-.5-.1-.8z"/><path d="m51.6 204.4c.1-1.5.8-2.5 2.1-3 1.4-.5 2.8-.5 4.2-.1 1.2.4 1.8 1.2 1.8 2.5v4.5.8c0 .9 0 .9.9 1.1 0 .1.1.1.1.2 0 .4.2.9-.4 1.1-.7.2-1.6.1-2-.5-.1-.2-.2-.5-.4-.8-.3.2-.5.4-.8.5-1.3.9-2.8 1-4.3.5-1.1-.3-1.7-1.2-1.8-2.4s.3-2.2 1.4-2.7c1-.4 2.1-.6 3.2-.8.4-.1.8-.1 1.2-.2.5-.1.9-.4 1-1s-.3-1.2-.9-1.5c-1.6-.8-3.3-.1-4 1.6-.2.2-.7.2-1.3.2zm6.4 1.9c-.5.1-.8.2-1.1.3-.4.1-.7.1-1.1.2-.6.1-1.3.2-1.9.5-.7.3-1 .9-.9 1.7.1.6.5 1 1.2 1.2.9.2 1.8.1 2.6-.4.6-.4 1-.8 1.1-1.5s.1-1.3.1-2z"/><path d="m94.1 204.4c-.4 0-.9 0-1.4 0 .1-1.4.7-2.4 1.9-2.9 1.5-.6 3-.6 4.5-.1 1.2.4 1.7 1.2 1.7 2.5v4.6.7c0 .9 0 .9.9 1.1 0 .1.1.1.1.2 0 .4.2.9-.4 1.1-.7.2-1.6.1-2-.4-.1-.2-.2-.5-.4-.8-.3.2-.5.4-.7.5-1.3.9-2.7 1-4.2.6-1.2-.3-1.8-1.2-1.9-2.4-.1-1.3.4-2.4 1.6-2.8 1-.4 2.1-.5 3.1-.8.4-.1.7-.1 1.1-.2.5-.1 1-.4 1-1s-.2-1.1-.7-1.4c-.8-.5-2.7-.5-3.4.1-.3.4-.5.9-.8 1.4zm4.8 2c-.7.1-1.3.2-1.9.3-.7.1-1.4.3-2.1.5-.7.3-1 .9-.9 1.6.1.6.5 1.1 1.3 1.3 2.5.5 4.2-1.2 3.6-3.7z"/><path d="m258.3 210.2v1.1c-1.3.6-2 .4-2.7-1-1.2 1.1-2.6 1.5-4.1 1.3-2-.2-3-1.7-2.6-3.6.2-1 .8-1.6 1.7-1.9s1.9-.4 2.9-.7c.4-.1.8-.1 1.2-.2.5-.1.9-.4 1-1 0-.6-.2-1.1-.7-1.4-.8-.5-2.7-.4-3.3.1-.4.3-.6.9-1 1.4-.4 0-.9 0-1.4 0 0-1.3.5-2.3 1.7-2.8 1.6-.7 3.2-.8 4.9-.2 1 .4 1.5 1.2 1.5 2.3v4.6.8c-.1 1-.1 1 .9 1.2zm-2.7-3.8c-1.1.2-2.1.3-3.1.5-.5.1-.9.2-1.3.5-.9.6-.9 2 .1 2.5 1.9 1 4.3-.4 4.3-2.6 0-.3 0-.6 0-.9z"/><path d="m253.1 188.6h1.5c-.3 1.4-1 2.4-2.2 3-2.9 1.4-6.1-.2-6.8-3.3-.3-1.3-.3-2.5.2-3.7.9-2.4 3.2-3.6 5.6-2.9.6.2 1.1.5 1.6.8 1.2 1 1.9 3.1 1.6 4.8-2.4 0-4.9 0-7.4 0-.1 1.6.6 2.7 2 3.1 1.8.5 3 0 3.9-1.8zm-.1-2.9c-.1-1.8-1.4-2.9-3.1-2.8-1.5.1-2.6 1.3-2.5 2.8z"/><path d="m90.7 197.5h1.9c-1.6 4.7-3.3 9.2-4.9 13.9-.7 0-1.4 0-2.2 0-1.6-4.6-3.2-9.2-4.9-13.8.3 0 .5-.1.7-.1h1.3c1.3 4 2.6 7.9 3.9 11.8 1.6-3.9 2.8-7.8 4.2-11.8z"/><path d="m209.8 181.9c-1.2 1.1-2.5 2.3-3.8 3.5 1.4 2.1 2.8 4.2 4.2 6.4-.8 0-1.4 0-2.1 0-1.1-1.7-2.2-3.3-3.4-5.1-.9.6-1.7 1.2-1.6 2.4.1.9 0 1.7 0 2.7-.6 0-1.1 0-1.6 0 0-4.6 0-9.2 0-13.9.5 0 1 0 1.6-.1.1.9 0 1.8.1 2.7v2.6 2.8c.3-.2.5-.3.7-.5 1.1-1 2.1-2 3.2-3 .5-.6 1.1-.8 1.9-.7h.8z"/><path d="m79.8 187.3c-2.4 0-4.9 0-7.3 0-.2 1.6.5 2.7 1.9 3.1 1.7.5 2.8 0 3.8-1.8h1.4c0 1.6-1.3 3-3 3.3-3.4.6-5.4-1.2-5.8-3.9-.2-1.3-.2-2.6.4-3.9.8-1.8 2.5-2.8 4.4-2.7 2 .1 3.4 1.2 4.1 3.1.1 1 .2 1.8.1 2.8zm-7.4-1.6c1.8.2 5 .1 5.6-.1-.3-1.8-1.5-2.7-3.1-2.6-1.4.1-2.4 1.1-2.5 2.7z"/><path d="m215.3 208.2h1.5c-.2 1.3-.8 2.3-1.9 2.9-2.7 1.5-6.1.1-6.9-2.9-.4-1.5-.4-3 .3-4.5 1.5-3.1 5.8-3.7 7.7-1 .8 1.2 1.1 2.5 1 4.1-2.5 0-4.9 0-7.4 0-.2 1.5.5 2.7 1.9 3.2 1.6.5 2.8 0 3.8-1.8zm-.2-2.9c-.1-1.7-1.3-2.8-2.9-2.8s-2.7 1.1-2.7 2.8z"/><path d="m274 206.9c-2.6 0-5 0-7.4 0-.1 1.6.7 2.7 2.1 3.1 1.6.5 2.8-.1 3.7-1.8h1.6c-.3 1.5-1.1 2.6-2.5 3.1-1.2.4-2.4.4-3.6.1-1-.3-1.8-.9-2.2-1.8-1-1.9-1.2-3.9-.3-5.9 1-2.2 3.5-3.2 5.7-2.4.6.2 1.2.6 1.6 1 1.1 1.2 1.4 2.8 1.3 4.6zm-1.8-1.6c-.1-1.6-1.2-2.7-2.7-2.8-1.6 0-2.7 1-2.9 2.8z"/><path d="m20.1 206.8c0 1.7.8 2.9 2.2 3.2 1.6.4 2.7-.2 3.6-1.9.2 0 .5-.1.8-.1.2 0 .5 0 .8.1-.3 1.5-1.1 2.5-2.4 3.1-1.3.5-2.7.5-4-.1-.8-.3-1.4-.8-1.8-1.6-1.2-2.1-1.3-4.2-.2-6.3.9-1.7 2.4-2.4 4.3-2.3s3.2 1.2 3.9 3c.3.9.5 1.8.4 2.8-1.2 0-2.5 0-3.7 0-1.4.2-2.6.1-3.9.1zm5.6-1.4c0-1.8-1.3-2.9-3-2.8-1.5.1-2.7 1.3-2.5 2.8z"/><path d="m277.2 186.6c-.5.4-.9.8-1.3 1.2-.2.2-.2.5-.2.8v3.1c-.6 0-1 0-1.6 0 0-4.6 0-9.2 0-13.8h1.6v8.1c.3-.2.5-.3.7-.5 1-1 2.1-1.9 3-2.9.8-1 1.8-1 3.1-.8-1.3 1.3-2.6 2.4-3.9 3.6 1.4 2.1 2.8 4.2 4.3 6.4-.7 0-1.2 0-1.8 0-.4 0-.6-.3-.8-.6-.8-1.2-1.6-2.5-2.5-3.7-.1-.3-.3-.6-.6-.9z"/><path d="m127.9 211.6c-2.9 0-4.7-1.9-4.8-5 0-.7.1-1.4.2-2 .6-2.3 2.5-3.7 4.9-3.6s4.1 1.5 4.5 3.9c.1.8.2 1.7 0 2.5-.3 2.7-2.1 4.2-4.8 4.2zm3.2-5.2c0-.9-.2-1.7-.6-2.3-1.1-2-4-2.1-5.1-.1-.9 1.6-.9 3.2 0 4.8 1.1 1.9 3.9 1.9 5.1 0 .4-.8.6-1.6.6-2.4z"/><path d="m283.6 186.5c0-.2 0-.7.1-1.2.5-2.5 2.5-4 5.1-3.9s4.4 1.9 4.6 4.5c.1 1.1 0 2.1-.4 3.1-.7 1.8-2.1 2.8-4 2.9-3.4.3-5.4-1.7-5.4-5.4zm8.1.2c-.2-.7-.3-1.5-.6-2.2-.5-1.1-1.5-1.7-2.7-1.7s-2.1.6-2.6 1.6c-.7 1.4-.7 2.9 0 4.3.5 1.1 1.5 1.7 2.7 1.7s2.1-.6 2.6-1.7c.3-.5.4-1.2.6-2z"/><path d="m95.2 184.6c-.6 0-1 0-1.4 0-.5-.5-.8-1.1-1.4-1.4s-1.4-.2-2.1-.2c-.3 0-.5.1-.8.3-.7.4-.8 1.3-.1 1.8.4.3.8.4 1.3.6.6.2 1.3.3 2 .5.4.1.8.3 1.3.4 2.3.9 1.9 3.8.5 4.7-1.5 1-4.6 1.1-6.1.1-.9-.6-1.3-1.5-1.3-2.6h1.5c.8 1.7 2.4 2.4 4.2 1.7.7-.2 1-.7 1-1.2 0-.6-.3-1-.9-1.2s-1.3-.4-1.9-.6c-.7-.2-1.5-.4-2.2-.7-1-.4-1.5-1.1-1.6-2.2 0-1.1.5-1.9 1.4-2.4 1.6-.8 3.3-.8 5 0 1.2.3 1.6 1.2 1.6 2.4z"/><path d="m237.7 204.2c-.5 0-1 0-1.6 0-.1-.2-.1-.4-.3-.6-.3-.3-.6-.7-1-.9-.8-.4-1.7-.3-2.5 0-.5.2-.8.5-.8 1s.3.9.7 1c.7.3 1.4.5 2.1.7s1.5.4 2.1.6c.9.4 1.5 1 1.6 2 .1 1.1-.2 2.1-1.2 2.7-1.5 1-4.4 1.1-5.9.1-1-.6-1.4-1.5-1.4-2.7h1.5c.9 1.8 2.3 2.4 4.2 1.8.7-.2 1.1-.6 1.1-1.3s-.4-1.1-.9-1.3c-.6-.2-1.2-.4-1.9-.5-.7-.2-1.5-.4-2.2-.7-1-.4-1.6-1.2-1.6-2.3s.5-1.9 1.5-2.4c1.6-.8 3.3-.8 4.9 0 1.1.6 1.5 1.6 1.6 2.8z"/><path d="m191.1 188.6h1.4c.8 1.8 2.7 2.5 4.5 1.6 1-.5 1.1-1.7.1-2.3-.4-.2-.9-.4-1.3-.5-1-.3-2.1-.5-3-.9-1.2-.5-1.7-1.4-1.6-2.7.1-.8.5-1.5 1.2-1.9 1.7-.9 3.5-.9 5.2-.1 1 .5 1.4 1.3 1.4 2.6-.5 0-1 0-1.5 0-.7-1.5-2.1-2-3.6-1.5-.6.2-.9.6-.9 1.1s.3.9.8 1.1c.7.3 1.4.4 2.1.6s1.5.4 2.1.6c2.2.9 1.8 3.6.5 4.5-.3.2-.6.4-1 .6-1.5.6-3 .6-4.5.1-1.2-.3-1.9-1.3-1.9-2.9z"/><path d="m110.7 204.2c-.5 0-1 0-1.5 0-.8-1.5-1.9-2-3.5-1.5-.7.2-1 .6-1.1 1.1 0 .6.3 1 .9 1.1.6.2 1.3.4 1.9.6.7.2 1.5.4 2.2.7 1.9.9 2.1 3.4.4 4.7-.3.2-.6.4-1 .5-1.3.4-2.7.5-4 .1-1.6-.4-2.2-1.3-2.4-3.1h1.5c.9 1.7 2.3 2.3 4.2 1.7.7-.2 1.1-.7 1.1-1.3 0-.7-.4-1.1-1-1.3s-1.3-.4-2-.6-1.5-.4-2.2-.7c-1.9-.9-2-3.4-.2-4.4 1.7-1 3.5-.9 5.3-.1 1 .4 1.4 1.2 1.4 2.5z"/><path d="m66.1 208.3h1.4c.8 1.8 2.6 2.4 4.4 1.6.5-.2.9-.6.9-1.1 0-.6-.3-1.1-.8-1.3-.7-.3-1.4-.4-2-.6-.7-.2-1.5-.4-2.2-.7-1-.4-1.5-1.1-1.5-2.2 0-1 .4-1.9 1.3-2.3 1.7-.9 3.4-.8 5.1-.1 1 .5 1.4 1.3 1.4 2.6-.5 0-1 0-1.5 0-.7-1.5-2.1-2-3.6-1.5-.5.2-.9.5-1 1.1 0 .5.3.9.8 1.1.7.2 1.4.4 2 .6.7.2 1.4.4 2.1.6 1 .4 1.6 1.1 1.6 2.1.1 1.1-.3 2-1.2 2.6-1.5 1-4.4 1.1-5.9.1-.9-.5-1.3-1.3-1.3-2.6z"/><path d="m187.5 181.7h1.6v10c-.5 0-.9 0-1.5 0 0-.4-.1-.7-.1-1.2-.2.1-.3.2-.4.3-1.2 1.4-2.7 1.4-4.3 1.1-1.1-.2-1.7-1-1.9-2-.1-.4-.2-.8-.2-1.2 0-2.2 0-4.3 0-6.5 0-.1 0-.2.1-.4h1.5c0 .3.1.6.1.9v5.5c0 1.6.7 2.1 1.5 2.3 1.2.3 2.6-.2 3.1-1.3.3-.6.4-1.2.4-1.8.1-1.5 0-3.1 0-4.6.1-.3.1-.7.1-1.1z"/><path d="m184.2 211.3c-.6 0-1.1 0-1.6 0 0-3.4 0-6.7 0-10 .2 0 .3-.1.5-.1h1c0 .4.1.8.1 1.2.2-.1.4-.2.5-.3.9-1.1 2.9-1.5 4.5-.8.9.3 1.4 1 1.6 1.9.1.4.1.7.2 1.1v7c-.5 0-1 0-1.6 0 0-.3-.1-.6-.1-.9 0-1.8 0-3.7 0-5.5 0-1.4-.4-2.1-1.4-2.3-1.3-.3-2.7.2-3.2 1.3-.3.7-.4 1.4-.5 2.2-.1 1.4 0 2.8 0 4.2z"/><path d="m55 191.8c-.5 0-1 0-1.6 0 0-.4-.1-.7-.1-1 0-1.8 0-3.5 0-5.3 0-.3 0-.7-.1-1-.2-.8-.7-1.3-1.5-1.4-1.9-.3-3.3.8-3.4 2.7-.1 1.3 0 2.6 0 4v2.1c-.6 0-1 0-1.5 0-.2-.7-.2-9 0-10h1.3c0 .4.1.8.1 1.2.2-.1.3-.2.5-.3 1.3-1.3 2.9-1.4 4.5-.9.8.3 1.3.9 1.6 1.7.1.5.2.9.2 1.4v6.4c.1 0 0 .2 0 .4z"/><path d="m120 204.5c-.1-.2-.1-.3-.2-.4-.4-1-1.2-1.5-2.3-1.5-1.2 0-2.2.4-2.7 1.5-.7 1.5-.7 3-.1 4.5.5 1.1 1.5 1.6 2.7 1.6 1.2-.1 2-.7 2.4-1.8.1-.2.1-.3.2-.5.3 0 .5-.1.8-.1h.8c-.1 1.8-1.1 3.2-2.8 3.6-3.7 1-6.1-1-6.3-4.3-.1-1.1 0-2.1.4-3.1.6-1.6 1.8-2.6 3.5-2.9 1.1-.2 2.2-.1 3.2.4 1.2.6 1.8 1.5 2 2.9-.5.1-1 .1-1.6.1z"/><path d="m66.1 191.8c-.6 0-1.2 0-1.8 0-1.2-3.3-2.5-6.6-3.7-10h1.9c.9 2.7 1.8 5.4 2.7 8.1h.2c.9-2.7 1.8-5.4 2.7-8.1h1.7c-1.3 3.3-2.5 6.6-3.7 10z"/><path d="m263.8 210v.7.7c-.8 0-1.6.1-2.3 0-.8-.1-1.2-.6-1.3-1.6 0-1.2 0-2.4 0-3.6 0-1.1 0-2.2 0-3.3-.6 0-1.1-.1-1.7-.1 0-.4 0-.9 0-1.4.5 0 1-.1 1.6-.1 0-.9 0-1.9 0-2.9h1.7v2.9c.7.1 1.3.1 2 .2v1.4c-.6 0-1.2.1-1.9.1 0 .3-.1.5-.1.8v5c0 1.2.1 1.3 1.3 1.3.2-.2.4-.2.7-.1z"/><path d="m247.9 210v1.3c-.8.2-1.7.1-2.5 0-.6-.1-1-.6-1.1-1.2-.1-.3-.1-.7-.1-1 0-1.7 0-3.5 0-5.2 0-.3 0-.7 0-1-.6 0-1.1-.1-1.7-.1 0-.5 0-.9 0-1.4.5-.1 1-.1 1.7-.2 0-1 0-1.9 0-2.9h1.6v2.9c.7 0 1.3.1 2 .1v1.4c-.6 0-1.2.1-1.9.1v1.8 4.2c0 1 .2 1.1 1.1 1.2.3-.1.6 0 .9 0z"/><path d="m256.5 181.7h1.5c0 .6.1 1.1.1 1.9.9-1.5 2-2.3 3.6-2.2v1.7c-.3 0-.5.1-.8.1-1.5.3-2.4 1.1-2.7 2.7-.1.7-.1 1.3-.2 2v3.6c0 .1 0 .1-.1.2-.4 0-.9 0-1.5 0 0-3.3.1-6.6.1-10z"/><path d="m263 181.7h1.5c0 .6.1 1.1.1 1.7.5-.5 1-1 1.5-1.4.6-.4 1.3-.6 2.1-.5v1.7c-.3.1-.6.1-1 .2-1.3.3-2.2 1.1-2.4 2.4-.1.6-.2 1.3-.2 1.9v4.1c-.6 0-1 0-1.6 0 0-3.4 0-6.7 0-10.1z"/><path d="m86.6 181.5v1.7c-.4.1-.8.1-1.1.2-1.2.3-2 1-2.2 2.2-.2.7-.2 1.3-.2 2v4.1c-.5 0-1 0-1.6 0 0-3.3 0-6.6 0-10h1.4c0 .5.1 1.1.1 1.8 1-1.3 2-2.1 3.6-2z"/><path d="m223.8 191.8c-.5 0-1 0-1.4 0-.2-.7-.3-12.7-.1-13.9h1.4c.1 4.6.1 9.2.1 13.9z"/><path d="m31 197.4v13.9c-.3 0-.6.1-.8.1s-.5 0-.7-.1c0-4.6 0-9.2 0-13.8.5 0 .9-.1 1.5-.1z"/><path d="m241.3 211.3c-.2 0-.4.1-.6.1-.3 0-.5 0-.9 0 0-3.4 0-6.7 0-10.1h1.5z"/><path d="m271.3 191.7c-.5 0-1 0-1.5 0 0-3.4 0-6.7 0-10h1.4c.2.8.3 8.7.1 10z"/><path d="m99 191.8c-.5 0-1 0-1.5 0 0-3.3 0-6.6 0-10h1.5z"/><path d="m194.7 211.3c-.6 0-1 0-1.5 0 0-3.3 0-6.6 0-10h1.5z"/><path d="m59.1 191.8c-.5 0-1 0-1.5 0-.2-.8-.3-8.7-.1-10h1.5c.1 3.3.1 6.6.1 10z"/><path d="m62.5 201.3h1.4c.2.7.3 8.2.1 10-.5 0-1 0-1.5 0 0-3.3 0-6.6 0-10z"/><path d="m122.2 94.3c0-1.5 0-2.9 0-4.5.3.2.6.3.8.4 1.2-.6 1.6-.6 2.4 0 .7-.2 1.3-.4 1.9-.4.7 0 1.1.4 1.1 1.1v3.4c-.3 0-.5 0-.8 0 0-1 0-1.9 0-2.9 0-.5-.2-.9-.7-1s-1 .2-1.2.6c-.1.2-.1.5-.1.8v1.6c0 .3 0 .5-.1.8-.5.2-.7 0-.7-.4 0-.6 0-1.2 0-1.8 0-.2 0-.5 0-.7-.1-.8-.7-1.1-1.4-.7-.5.3-.6.7-.6 1.2v2c0 .5-.1.7-.6.5z"/><path d="m160.1 94.5c0-2 0-3.9 0-5.7 0-.5.2-.6.7-.4v1.9c.3-.1.5-.2.7-.3 1.4-.5 2.6.3 2.8 1.8 0 .4 0 .9-.1 1.3-.2 1-1.2 1.7-2.2 1.5-.2 0-.4-.2-.7-.2-.2 0-.3-.1-.5-.1-.1-.1-.3 0-.7.2zm3.5-2.4c0-.2-.1-.5-.2-.9-.3-.6-1-.9-1.6-.6-.7.3-.9.9-.9 1.6 0 .8.3 1.3.9 1.6.9.4 1.8-.3 1.8-1.7z"/><path d="m178.5 91.2c.1-.8.5-1.2 1.2-1.3.4-.1.9-.1 1.3 0 .7.1 1 .5 1.1 1.1v2c0 .3.2.5.2.8 0 .1.2.4.1.4-.1.1-.4.2-.5.2-.2-.1-.5-.3-.6-.3-.6.1-1.2.3-1.8.3-.7 0-1.2-.5-1.3-1.1s.2-1.2.9-1.4c.5-.2 1-.2 1.5-.3.3-.1.7-.2.6-.6-.1-.2-.3-.5-.6-.6-.5-.1-1.1-.1-1.4.4-.1.5-.4.6-.7.4zm2.7 1c-.6.1-1.2.2-1.7.4-.2.1-.4.5-.4.7s.3.4.5.5c1 .3 1.6-.3 1.6-1.6z"/><path d="m155.4 91.2c.4-1.3 2.3-1.9 3.2-1 .2.2.4.7.4 1 .1.6 0 1.3 0 1.9 0 .3.1.5.2.7 0 .2.1.3.1.5-.2 0-.5.2-.7.1s-.4-.3-.5-.3c-.6.1-1.2.3-1.7.4-.7 0-1.2-.4-1.3-1-.1-.7.2-1.2 1-1.4.5-.1.9-.2 1.4-.3.3-.1.6-.2.6-.5 0-.4-.3-.6-.6-.7-.5-.1-1.1-.1-1.3.5-.1.2-.4.3-.8.1zm2.7 1.1c-.4 0-.7.1-1.1.1-.2 0-.3.1-.5.1-.3.1-.6.4-.5.8s.4.5.7.6c1 .1 1.6-.6 1.4-1.6z"/><path d="m168.1 94.1c-.6.1-1.1.3-1.6.4-.8 0-1.4-.4-1.4-1.1-.1-.7.3-1.2 1.1-1.4.5-.1.9-.1 1.4-.3.2-.1.5-.3.5-.5.1-.3-.2-.6-.5-.7-.5-.1-1.1-.1-1.4.4-.2.4-.5.4-.8.2.3-1.3 2.2-1.9 3.2-1 .2.2.4.6.4 1 .1.6 0 1.3 0 1.9 0 .3.2.5.3.8 0 .1.1.4.1.4-.1.1-.4.2-.5.2-.5 0-.7-.2-.8-.3zm-.1-1.9c-.6.1-1.1.2-1.6.4-.2.1-.5.5-.4.7 0 .2.3.5.6.6.8.2 1.5-.5 1.4-1.7z"/><path d="m144.2 91.2c0-.8.5-1.2 1.2-1.3.4-.1.8-.1 1.2 0 .8.1 1.1.4 1.1 1.2v1.3c0 1.1 0 1.1.5 1.9-.5.5-.9.2-1.2-.1-.7.1-1.2.3-1.8.3-.7 0-1.2-.5-1.2-1.1-.1-.7.2-1.1.9-1.4.5-.2 1-.2 1.5-.3.3-.1.7-.2.6-.6-.1-.2-.3-.5-.6-.6-.5-.1-1-.1-1.4.4-.2.4-.4.5-.8.3zm2.7 1c-.6.1-1.2.2-1.7.4-.2.1-.4.5-.4.7s.3.4.5.5c1 .3 1.7-.3 1.6-1.6z"/><path d="m133.7 94.1c-.7.6-1.1.3-1.3 0-.6.1-1.2.3-1.7.4-.7 0-1.2-.4-1.3-1-.1-.7.2-1.2 1-1.5.5-.1 1-.2 1.5-.3.2-.1.6-.4.5-.5-.1-.2-.3-.6-.5-.7-.5-.2-1.1-.2-1.5.4-.2.3-.2.3-.8.3.1-.3.1-.5.2-.7.5-.8 2.3-1 2.9-.3.2.2.3.6.4.9.1.5 0 1.1 0 1.6s-.1 1.1.6 1.4zm-1.5-1.9c-.6.1-1.2.2-1.7.4-.2.1-.4.5-.4.7s.3.4.5.5c1 .3 1.7-.3 1.6-1.6z"/><path d="m121.4 92.4c-1.2 0-2.2 0-3.2 0-.2.7.1 1 .5 1.3.5.3 1.2.2 1.6-.2.2-.2.3-.7.9-.4-.2.9-.6 1.3-1.4 1.4-.9.2-1.8-.2-2.2-.9-.4-.8-.5-1.6-.1-2.5.3-.9 1.1-1.3 2-1.3s1.5.5 1.8 1.4c0 .4 0 .7.1 1.2zm-1-.7c-.1-.8-.5-1.2-1.2-1.2-.6 0-1 .4-1.1 1.2z"/><path d="m183.9 93.7c1 .1 1.8.2 2.6.3v.4c-1.2 0-2.4 0-3.6 0-.3-.4 0-.7.3-1 .7-.8 1.4-1.7 2.2-2.7-.6 0-1 0-1.4 0-.2 0-.4 0-.6 0-.2-.1-.3-.2-.4-.3.1-.1.3-.3.4-.3h3.2c-.2.4-.3.7-.4.9-.5.7-1.1 1.3-1.6 2-.3 0-.4.3-.7.7z"/><path d="m176.4 90.6c-.6 0-1.1 0-1.7 0-.4 0-.6-.1-.5-.6 1.1-.2 2.2 0 3.2-.1.3.5 0 .7-.2 1-.6.7-1.2 1.4-1.7 2.1-.1.2-.3.4-.5.7h1.6c.4 0 .9-.2 1.2.6-1.3.1-2.6 0-3.8 0-.3-.5 0-.7.2-1 .7-.9 1.4-1.7 2.1-2.6.1.1.1 0 .1-.1z"/><path d="m154.7 94.3c-1.3 0-2.5 0-3.7 0-.3-.5.1-.7.3-1 .7-.8 1.4-1.7 2.2-2.7-.8 0-1.4 0-1.9 0-.4 0-.6-.1-.4-.6h3.3c.3.4 0 .6-.2.9-.6.7-1.2 1.5-1.8 2.2-.1.2-.3.4-.4.6 1 .1 1.8.2 2.7.3-.1-.1-.1.1-.1.3z"/><path d="m137.2 94.3c0-.9 0-1.8 0-2.7 0-.7-.3-1-.9-1.1s-1.1.3-1.3.8c-.1.3-.1.6-.1.9v1.7c0 .4-.3.5-.7.4 0-1.4 0-2.9 0-4.4.7.5 1.3.1 2 0 1-.1 1.5.3 1.6 1.4.1.9 0 1.8 0 2.6.1.3 0 .6-.6.4z"/><path d="m191 90v4.3c-.2 0-.4.1-.5 0-.2-.4-.4-.2-.7-.1-.4.2-.9.3-1.4.2-.6-.1-1-.5-1-1.1 0-1.1 0-2.3 0-3.4.6-.2.7.1.7.5v2.3c0 .7.3.9.8 1s1.1-.2 1.3-.7c.1-.3.1-.7.1-1 0-.6 0-1.2 0-1.7 0-.3.2-.4.7-.3z"/><path d="m143.4 90c-.2.5-.2.5-.8.7v2.8c.1.4.9.1.8.8-.2 0-.4.1-.6.1-.7 0-.9-.2-.9-.9 0-.9 0-1.8 0-2.5-.2-.5-.9-.2-.7-.8.1-.2.4-.3.7-.4 0-.3.1-.7.1-1.1h.6c0 .4.1.7.1 1.2.1 0 .4 0 .7.1z"/><path d="m62 200c.6-1 1.1-1.8 1.6-2.6.1-.1.3-.2.5-.2h1.7c-.7 1.1-1.6 1.9-2.4 2.7-.3.1-.8 0-1.4.1z"/><path d="m170.1 88.3c.6-.2.7.2.7.5v2.8 2.1c0 .4-.1.7-.7.5 0-1.9 0-3.9 0-5.9z"/><path d="m241.3 199.4c-.5 0-1 0-1.5 0 0-.6 0-1.2 0-1.9h1.5z"/><path d="m97.5 179.8c0-.7 0-1.3 0-1.9h1.5v1.9c-.4 0-.9 0-1.5 0z"/><path d="m271.3 179.8c-.5 0-1 0-1.5 0 0-.6 0-1.2 0-1.9h1.5z"/><path d="m194.7 197.4v2c-.5 0-1 0-1.5 0 0-.6 0-1.2 0-1.9.5 0 .9-.1 1.5-.1z"/><path d="m59.1 179.8c-.5 0-1 0-1.5 0 0-.6 0-1.2 0-1.9h1.5z"/></svg>