<svg xmlns="http://www.w3.org/2000/svg" viewBox="0 0 18.694 14.021"><title>ico-mail</title><g id="Capa_2" data-name="Capa 2"><g id="Capa_1-2" data-name="Capa 1"><path d="M18.34,4.63a.22.22,0,0,1,.354.171v7.467a1.753,1.753,0,0,1-1.753,1.753H1.753A1.753,1.753,0,0,1,0,12.268V4.805a.218.218,0,0,1,.354-.172c.818.636,1.9,1.443,5.627,4.148.77.562,2.07,1.745,3.366,1.738,1.3.011,2.629-1.2,3.37-1.738C16.441,6.076,17.522,5.265,18.34,4.63ZM9.347,9.347c.847.015,2.067-1.066,2.68-1.512,4.845-3.516,5.214-3.822,6.331-4.7a.873.873,0,0,0,.336-.69V1.753A1.753,1.753,0,0,0,16.941,0H1.753A1.753,1.753,0,0,0,0,1.753v.693a.879.879,0,0,0,.336.69c1.117.873,1.486,1.183,6.331,4.7.613.446,1.833,1.527,2.68,1.512Z" style="fill:#fff"/></g></g></svg>