<svg xmlns="http://www.w3.org/2000/svg" viewBox="0 0 18.073 14.679"><title>ico-twitter</title><g id="Capa_2" data-name="Capa 2"><g id="Capa_1-2" data-name="Capa 1"><path d="M16.216,3.658c.011.161.011.321.011.482A10.467,10.467,0,0,1,5.688,14.679,10.467,10.467,0,0,1,0,13.016a7.744,7.744,0,0,0,.894.046,7.417,7.417,0,0,0,4.6-1.583A3.71,3.71,0,0,1,2.03,8.911a4.72,4.72,0,0,0,.7.057A3.924,3.924,0,0,0,3.7,8.842,3.7,3.7,0,0,1,.734,5.206V5.161a3.732,3.732,0,0,0,1.674.47A3.711,3.711,0,0,1,1.261.677,10.535,10.535,0,0,0,8.9,4.553,4.2,4.2,0,0,1,8.807,3.7,3.708,3.708,0,0,1,15.218,1.17,7.289,7.289,0,0,0,17.569.275,3.7,3.7,0,0,1,15.94,2.317a7.434,7.434,0,0,0,2.133-.574,7.947,7.947,0,0,1-1.857,1.915Z" style="fill:#fff"/></g></g></svg>