<svg viewBox="0 0 18.694 14.021" xmlns="http://www.w3.org/2000/svg"><path d="m18.34 4.63a.22.22 0 0 1 .354.171v7.467a1.753 1.753 0 0 1 -1.753 1.753h-15.188a1.753 1.753 0 0 1 -1.753-1.753v-7.463a.218.218 0 0 1 .354-.172c.818.636 1.9 1.443 5.627 4.148.77.562 2.07 1.745 3.366 1.738 1.3.011 2.629-1.2 3.37-1.738 3.724-2.705 4.805-3.516 5.623-4.151zm-8.993 4.717c.847.015 2.067-1.066 2.68-1.512 4.845-3.516 5.214-3.822 6.331-4.7a.873.873 0 0 0 .336-.69v-.692a1.753 1.753 0 0 0 -1.753-1.753h-15.188a1.753 1.753 0 0 0 -1.753 1.753v.693a.879.879 0 0 0 .336.69c1.117.873 1.486 1.183 6.331 4.7.613.446 1.833 1.527 2.68 1.512z" fill="#fff"/></svg>