<svg viewBox="0 0 64.449 48.859" xmlns="http://www.w3.org/2000/svg"><g stroke="#fff" stroke-miterlimit="10"><g fill="#ddd"><path d="m1.989 16.771-1.397-5.371 25.249-10.852 16.223 7.52h8.918l10.851-4.512 2.042 5.372-18.588 21.166-6.446 18.265h-10.641v-5.05l-1.719-1.4-3.223 3.116-1.608-1.609 2.364-2.363-12.678-8.273 2.149-3.223-.645-.645-2.9 4.19-3.976-2.902 3.116-4.19 7.306.967.752-.86s-6.661-3.545-6.661-4.082 1.074-7.2 1.074-7.2l-3.868-1.072z"/><path d="m25.841.548-25.249 10.852 1.4 5.372 5.694-3.008s3.8 1.5 3.7 2.149h4.684v-2.795l2.686.108v5.157l5.7 3.33h5.694v-2.363l5.8-.538 4.01-11.719z"/><path d="m63.875 8.928-2.042-5.372-10.851 4.512h-8.918l-2.104-.975-4.02 11.719-2.23.207 1.048 1.835-3.438 3.331 2.686 2.148 1.182-1.289 11.386 3.585z"/></g><path d="m12.84 28.912.645.645-2.149 3.223 12.678 8.273-2.364 2.363 1.612 1.612 3.223-3.116 1.719 1.4v5.05h10.637l6.446-18.265 1.287-1.465-11.386-3.588-1.182 1.289-2.686-2.148 3.438-3.331-1.048-1.835-3.572.331v2.363h-5.694l-5.695-3.33v-5.157l-2.686-.108v2.794h-4.684c-.3 1.907-.9 5.723-.9 6.124 0 .537 6.661 4.082 6.661 4.082l-.752.86-7.308-.967-3.116 4.189 3.975 2.9z" fill="#039e8e"/></g></svg>