<svg viewBox="0 0 45.543 45.354" xmlns="http://www.w3.org/2000/svg"><g fill="#010101"><path d="m.66 18.764a.906.906 0 0 0 -.66.849v5.94a1.137 1.137 0 0 0 .66.943l4.149 1.226a19.686 19.686 0 0 0 1.6 3.866l-2.072 3.866a1 1 0 0 0 .189 1.131l4.243 4.243a1 1 0 0 0 1.132.189l3.866-2.075a19.575 19.575 0 0 0 3.866 1.6l1.225 4.149a.938.938 0 0 0 .943.66h5.941a1.137 1.137 0 0 0 .943-.66l1.225-4.149a19.6 19.6 0 0 0 3.866-1.6l3.866 2.075a1 1 0 0 0 1.132-.189l4.243-4.243a1 1 0 0 0 .188-1.131l-2.074-3.866a19.686 19.686 0 0 0 1.6-3.866l4.152-1.222a.936.936 0 0 0 .66-.943v-5.94a1.135 1.135 0 0 0 -.66-.943l-4.149-1.226a19.686 19.686 0 0 0 -1.6-3.866l2.074-3.866a1 1 0 0 0 -.188-1.131l-4.246-4.248a1 1 0 0 0 -1.132-.188l-3.866 2.074a19.661 19.661 0 0 0 -3.866-1.6l-1.225-4.152a2.1 2.1 0 0 0 -1.038-.471h-5.94a1.137 1.137 0 0 0 -.943.66l-1.226 4.149a19.686 19.686 0 0 0 -3.866 1.6l-3.866-2.072a1 1 0 0 0 -1.131.189l-4.149 4.243a1 1 0 0 0 -.189 1.131l2.075 3.866a19.636 19.636 0 0 0 -1.6 3.866zm5.846-.283a19.124 19.124 0 0 1 1.794-4.337.859.859 0 0 0 0-.943l-1.982-3.678 3.205-3.2 3.677 1.977a.859.859 0 0 0 .943 0 14.544 14.544 0 0 1 4.337-1.792.931.931 0 0 0 .66-.66l1.226-3.96h4.526l1.226 3.96a1.137 1.137 0 0 0 .66.66 19.105 19.105 0 0 1 4.338 1.792.859.859 0 0 0 .943 0l3.678-1.98 3.2 3.205-1.975 3.675a.859.859 0 0 0 0 .943 14.544 14.544 0 0 1 1.792 4.337.931.931 0 0 0 .66.66l3.96 1.226v4.526l-3.96 1.226a1.137 1.137 0 0 0 -.66.66 19.105 19.105 0 0 1 -1.792 4.337.859.859 0 0 0 0 .943l1.98 3.678-3.2 3.2-3.678-1.98a.859.859 0 0 0 -.943 0 14.533 14.533 0 0 1 -4.337 1.792.931.931 0 0 0 -.66.66l-1.226 3.96h-4.531l-1.226-3.96a1.137 1.137 0 0 0 -.66-.66 19.124 19.124 0 0 1 -4.337-1.792.859.859 0 0 0 -.943 0l-3.678 1.98-3.2-3.2 1.977-3.677a.859.859 0 0 0 0-.943 14.533 14.533 0 0 1 -1.792-4.337.931.931 0 0 0 -.66-.66l-3.96-1.226v-4.526l3.96-1.226a.8.8 0 0 0 .658-.66z"/><path d="m22.63 35.454a12.824 12.824 0 1 0 -12.824-12.824 12.837 12.837 0 0 0 12.824 12.824zm-10.938-12.824a10.938 10.938 0 1 1 10.938 10.938 10.651 10.651 0 0 1 -4.243-.849l3.3-3.3a7.922 7.922 0 0 0 9.713-9.241.927.927 0 0 0 -1.6-.471l-3.771 3.772-4.244-4.243 3.772-3.772a.935.935 0 0 0 -.471-1.6 7.922 7.922 0 0 0 -9.241 9.712l-3.3 3.3a10.329 10.329 0 0 1 -.853-4.246zm5.846 1.886a.752.752 0 0 0 .189-.943 5.9 5.9 0 0 1 1.509-6.223 6.139 6.139 0 0 1 3.394-1.7l-2.83 2.925a.913.913 0 0 0 0 1.321l5.563 5.563a.889.889 0 0 0 1.321 0l2.923-2.923a5.853 5.853 0 0 1 -1.7 3.394 6.245 6.245 0 0 1 -6.223 1.509 1.034 1.034 0 0 0 -.943.188l-4.051 4.055a10.866 10.866 0 0 1 -3.112-3.112z"/></g></svg>