<svg viewBox="0 0 37.333 47.984" xmlns="http://www.w3.org/2000/svg"><g fill="#010101"><path d="m2.181 27.384-.1 1.3a2.118 2.118 0 0 0 .9 1.6 1.984 1.984 0 0 0 .3 1.8 1.729 1.729 0 0 1 .1 2.2 3.54 3.54 0 0 0 .2 3.4c1.1 1.7 3.7 2.4 7.8 2.3a17.889 17.889 0 0 1 2 7.1.987.987 0 0 0 1 .9h19.9a1 1 0 0 0 1-1.3c-4.5-14.7-2.4-18.5.1-22.8 4.8-8.5.5-19.8-10.2-23-4.8-1.5-13.7-2.3-19.8 8-.1.3-2.4 5-1.7 9.3v.1a2.3 2.3 0 0 1 -.5 1.2c-.1.1-2.8 4.8-2.9 4.9a1.92 1.92 0 0 0 -.1 1.8c.3.6.6 1 2 1.2zm-.1-2.1 2.7-4.7a3.408 3.408 0 0 0 .8-2.8c-.6-3.7 1.5-8 1.5-8 5.1-8.7 12.3-8.6 17.5-7.1 9.8 2.9 12.9 13.1 9 20.1-2.5 4.4-4.8 8.6-.6 23.1h-17.6a16.266 16.266 0 0 0 -2.5-7.6 1.086 1.086 0 0 0 -.9-.4c-4.9.2-6.3-.9-6.6-1.4a1.314 1.314 0 0 1 -.1-1.2 3.622 3.622 0 0 0 -.3-4.4 1.878 1.878 0 0 0 -.7-2.3v-1.3a2.019 2.019 0 0 0 -1.6-1.9z"/><path d="m8.581 13.884a3.572 3.572 0 0 0 3.7 3.4h16.5a3.572 3.572 0 0 0 3.7-3.4c0-5.2-4.7-9.4-10.5-9.4h-2.9c-5.7 0-10.5 4.2-10.5 9.4zm2.5-.6c3 0 4-1.3 4-2.6a1 1 0 0 0 -2 0c0 .5-1.3.6-1.7.6a8.494 8.494 0 0 1 7.9-4.8h2.9a8.494 8.494 0 0 1 7.9 4.8c-.5 0-1.7-.1-1.7-.6a1 1 0 1 0 -2 0c0 2 2.1 2.6 4.2 2.6v.6a1.578 1.578 0 0 1 -1.7 1.4h-6c.1-4.4-1.9-5.9-3.8-5.9a.945.945 0 0 0 -1 1 .945.945 0 0 0 1 1c1.6 0 1.8 2.3 1.8 3.9h-8.5a1.578 1.578 0 0 1 -1.7-1.4v-.6z"/></g></svg>