<svg xmlns="http://www.w3.org/2000/svg" viewBox="0 0 45.543 45.354"><title>icon-ambitos-white</title><g id="Capa_2" data-name="Capa 2"><g id="Capa_1-2" data-name="Capa 1"><path d="M.66,18.764a.906.906,0,0,0-.66.849v5.94a1.137,1.137,0,0,0,.66.943l4.149,1.226a19.686,19.686,0,0,0,1.6,3.866L4.337,35.454a1,1,0,0,0,.189,1.131l4.243,4.243a1,1,0,0,0,1.132.189l3.866-2.075a19.575,19.575,0,0,0,3.866,1.6l1.225,4.149a.938.938,0,0,0,.943.66h5.941a1.137,1.137,0,0,0,.943-.66l1.225-4.149a19.6,19.6,0,0,0,3.866-1.6l3.866,2.075a1,1,0,0,0,1.132-.189l4.243-4.243a1,1,0,0,0,.188-1.131l-2.074-3.866a19.686,19.686,0,0,0,1.6-3.866L44.883,26.5a.936.936,0,0,0,.66-.943v-5.94a1.135,1.135,0,0,0-.66-.943l-4.149-1.226a19.686,19.686,0,0,0-1.6-3.866l2.074-3.866a1,1,0,0,0-.188-1.131L36.774,4.337a1,1,0,0,0-1.132-.188L31.776,6.223a19.661,19.661,0,0,0-3.866-1.6L26.685.471A2.1,2.1,0,0,0,25.647,0h-5.94a1.137,1.137,0,0,0-.943.66L17.538,4.809a19.686,19.686,0,0,0-3.866,1.6L9.806,4.337a1,1,0,0,0-1.131.189L4.526,8.769A1,1,0,0,0,4.337,9.9l2.075,3.866a19.636,19.636,0,0,0-1.6,3.866Zm5.846-.283A19.124,19.124,0,0,1,8.3,14.144a.859.859,0,0,0,0-.943L6.318,9.523l3.205-3.2L13.2,8.3a.859.859,0,0,0,.943,0,14.544,14.544,0,0,1,4.337-1.792.931.931,0,0,0,.66-.66l1.226-3.96h4.526l1.226,3.96a1.137,1.137,0,0,0,.66.66A19.105,19.105,0,0,1,31.116,8.3a.859.859,0,0,0,.943,0l3.678-1.98,3.2,3.205L36.962,13.2a.859.859,0,0,0,0,.943,14.544,14.544,0,0,1,1.792,4.337.931.931,0,0,0,.66.66l3.96,1.226v4.526l-3.96,1.226a1.137,1.137,0,0,0-.66.66,19.105,19.105,0,0,1-1.792,4.337.859.859,0,0,0,0,.943l1.98,3.678-3.2,3.2-3.678-1.98a.859.859,0,0,0-.943,0,14.533,14.533,0,0,1-4.337,1.792.931.931,0,0,0-.66.66l-1.226,3.96H20.367l-1.226-3.96a1.137,1.137,0,0,0-.66-.66,19.124,19.124,0,0,1-4.337-1.792.859.859,0,0,0-.943,0l-3.678,1.98-3.2-3.2L8.3,32.059a.859.859,0,0,0,0-.943,14.533,14.533,0,0,1-1.792-4.337.931.931,0,0,0-.66-.66l-3.96-1.226V20.367l3.96-1.226A.8.8,0,0,0,6.506,18.481Z" style="fill:#fff"/><path d="M22.63,35.454A12.824,12.824,0,1,0,9.806,22.63,12.837,12.837,0,0,0,22.63,35.454ZM11.692,22.63A10.938,10.938,0,1,1,22.63,33.568a10.651,10.651,0,0,1-4.243-.849l3.3-3.3A7.922,7.922,0,0,0,31.4,20.178a.927.927,0,0,0-1.6-.471l-3.771,3.772-4.244-4.243,3.772-3.772a.935.935,0,0,0-.471-1.6,7.922,7.922,0,0,0-9.241,9.712l-3.3,3.3A10.329,10.329,0,0,1,11.692,22.63Zm5.846,1.886a.752.752,0,0,0,.189-.943,5.9,5.9,0,0,1,1.509-6.223,6.139,6.139,0,0,1,3.394-1.7L19.8,18.575a.913.913,0,0,0,0,1.321l5.563,5.563a.889.889,0,0,0,1.321,0l2.923-2.923a5.853,5.853,0,0,1-1.7,3.394,6.245,6.245,0,0,1-6.223,1.509,1.034,1.034,0,0,0-.943.188L16.69,31.682a10.866,10.866,0,0,1-3.112-3.112Z" style="fill:#fff"/></g></g></svg>